<svg width="63" height="105" viewBox="0 0 63 105" fill="none" xmlns="http://www.w3.org/2000/svg">
<g clip-path="url(#clip0_51_36151)">
<mask id="mask0_51_36151" style="mask-type:luminance" maskUnits="userSpaceOnUse" x="0" y="0" width="63" height="63">
<path d="M63 0H0V63H63V0Z" fill="white"/>
</mask>
<g mask="url(#mask0_51_36151)">
<path d="M34.1248 19.6875H22.3125V22.3124H34.1248V19.6875Z" fill="#C86485"/>
<path d="M56.4374 0H6.56244C2.93996 0.00430663 0.00430663 2.93996 0 6.56244V56.4374C0.00430663 60.0599 2.93996 62.9955 6.56244 62.9998H27.5625V60.3749H6.56244C4.38784 60.3749 2.62496 58.612 2.62496 56.4374V6.56244C2.62496 4.38784 4.38784 2.62496 6.56244 2.62496H56.4374C58.612 2.62496 60.3749 4.38784 60.3749 6.56244V28.8749H62.9998V6.56244C62.9957 2.93996 60.0599 0.00430663 56.4374 0Z" fill="#C86485"/>
<path d="M41.9999 5.25024H39.375V19.6872H41.9999V5.25024Z" fill="#C86485"/>
<path d="M23.6251 26.2502V5.25024H21V26.2502C21 27.6999 22.1752 28.8752 23.6251 28.8752H26.2501V26.2502H23.6251Z" fill="#C86485"/>
<path d="M17.0625 44.625H9.18754C8.46266 44.625 7.875 45.2127 7.875 45.9376V53.8126C7.875 54.5374 8.46266 55.1249 9.18754 55.1249H17.0625C17.7874 55.1249 18.3751 54.5374 18.3751 53.8126V45.9376C18.3749 45.2127 17.7874 44.625 17.0625 44.625ZM15.75 52.5H10.5V47.2501H15.75V52.5Z" fill="#C86485"/>
<path d="M61.6876 38.0626H56.7605C56.6881 37.8801 56.6134 37.699 56.5321 37.5167L60.0181 34.0319C60.5304 33.5194 60.5304 32.6885 60.0181 32.1761L54.4491 26.6071C53.9285 26.1148 53.1139 26.1148 52.5931 26.6071L49.1085 30.0931C48.926 30.013 48.7449 29.9369 48.5626 29.8633V24.9376C48.5626 24.2127 47.9749 23.625 47.25 23.625H39.375C38.6501 23.625 38.0624 24.2127 38.0624 24.9376V29.8633C37.8799 29.9369 37.6988 30.013 37.5165 30.0931L34.0319 26.6071C33.5111 26.1148 32.6966 26.1148 32.1759 26.6071L26.6069 32.1761C26.0946 32.6885 26.0946 33.5192 26.6069 34.0319L30.0929 37.5167C30.0116 37.699 29.9369 37.8803 29.8647 38.0626H24.9374C24.2125 38.0626 23.625 38.6501 23.625 39.3752V47.25C23.625 47.975 24.2125 48.5626 24.9374 48.5626H29.8647C29.9369 48.7451 30.0116 48.9262 30.0929 49.1085L26.6069 52.5933C26.0946 53.1058 26.0946 53.9366 26.6069 54.4491L32.1759 60.0181C32.6884 60.5306 33.5192 60.5306 34.0319 60.0181L37.5165 56.5321C37.699 56.6134 37.8801 56.6883 38.0624 56.7605V61.6876C38.0624 62.4125 38.6501 63.0002 39.375 63.0002H47.25C47.9749 63.0002 48.5626 62.4125 48.5626 61.6876V56.7605C48.7451 56.6883 48.9262 56.6134 49.1085 56.5321L52.5931 60.0181C53.1058 60.5306 53.9365 60.5306 54.4491 60.0181L60.0181 54.4491C60.5304 53.9366 60.5304 53.1059 60.0181 52.5933L56.5321 49.1085C56.6134 48.9262 56.6881 48.7449 56.7605 48.5626H61.6876C62.4125 48.5626 63.0002 47.975 63.0002 47.25V39.3752C63.0002 38.6501 62.4125 38.0626 61.6876 38.0626ZM60.3751 45.9364H55.8365C55.2632 45.9364 54.7565 46.3082 54.5845 46.8551C54.3739 47.5155 54.106 48.1563 53.7838 48.7701C53.5183 49.2782 53.6134 49.9001 54.0187 50.3057L57.2342 53.5212L53.5226 57.233L50.3069 54.0175C49.9014 53.6121 49.2795 53.5171 48.7714 53.7826C48.1576 54.1048 47.5169 54.3726 46.8563 54.5832C46.3095 54.7553 45.9376 55.262 45.9376 55.8353V60.3752H40.6876L40.6888 55.8378C40.6888 55.2647 40.3169 54.7578 39.7701 54.5857C39.1097 54.3753 38.4689 54.1073 37.8551 53.7851C37.3469 53.5196 36.725 53.6146 36.3195 54.02L33.104 57.2355L29.3922 53.5239L32.6079 50.3082C33.0131 49.9027 33.1083 49.2808 32.8428 48.7726C32.5204 48.1588 32.2526 47.5182 32.042 46.8576C31.8701 46.3109 31.3632 45.9389 30.7899 45.9389H26.2499V40.6888H30.7886C31.3618 40.6888 31.8686 40.3169 32.0407 39.7701C32.2513 39.1097 32.5192 38.4689 32.8414 37.8551C33.1069 37.3469 33.0118 36.725 32.6065 36.3195L29.3909 33.104L33.1025 29.3922L36.3182 32.6077C36.7238 33.0131 37.3457 33.1083 37.8538 32.8426C38.4673 32.5199 39.1081 32.2519 39.7688 32.042C40.3155 31.8699 40.6876 31.3632 40.6876 30.7899V26.2499H45.9362V30.7885C45.9362 31.3618 46.3082 31.8686 46.8551 32.0407C47.5157 32.2506 48.1565 32.5184 48.7699 32.8414C49.2782 33.1069 49.9001 33.0118 50.3057 32.6065L53.5212 29.3908L57.233 33.1025L54.0173 36.3181C53.6119 36.7236 53.5167 37.3455 53.7824 37.8538C54.1048 38.4674 54.3726 39.1082 54.583 39.7687C54.7551 40.3155 55.262 40.6876 55.8353 40.6876H60.3751V45.9364Z" fill="#C86485"/>
<path d="M43.3126 36.75C39.6881 36.75 36.75 39.6881 36.75 43.3126C36.75 46.9369 39.6881 49.8751 43.3126 49.8751C46.9351 49.8707 49.8707 46.9349 49.8751 43.3126C49.8751 39.6881 46.9369 36.75 43.3126 36.75ZM43.3126 47.2499C41.1379 47.2499 39.3751 45.4872 39.3751 43.3126C39.3751 41.1379 41.1379 39.3751 43.3126 39.3751C45.4872 39.3751 47.2499 41.1379 47.2499 43.3126C47.2499 45.4872 45.4872 47.2499 43.3126 47.2499Z" fill="#C86485"/>
</g>
</g>
<path d="M19.5021 94.12C19.0354 94.12 18.6021 94.0333 18.2021 93.86C17.8021 93.68 17.4621 93.4367 17.1821 93.13C16.9021 92.8233 16.6954 92.47 16.5621 92.07L17.5621 91.65C17.7421 92.11 18.0054 92.4633 18.3521 92.71C18.6987 92.9567 19.0987 93.08 19.5521 93.08C19.8187 93.08 20.0521 93.04 20.2521 92.96C20.4521 92.8733 20.6054 92.7533 20.7121 92.6C20.8254 92.4467 20.8821 92.27 20.8821 92.07C20.8821 91.7967 20.8054 91.58 20.6521 91.42C20.4987 91.26 20.2721 91.1333 19.9721 91.04L18.5721 90.6C18.0121 90.4267 17.5854 90.1633 17.2921 89.81C16.9987 89.45 16.8521 89.03 16.8521 88.55C16.8521 88.13 16.9554 87.7633 17.1621 87.45C17.3687 87.13 17.6521 86.88 18.0121 86.7C18.3787 86.52 18.7954 86.43 19.2621 86.43C19.7087 86.43 20.1154 86.51 20.4821 86.67C20.8487 86.8233 21.1621 87.0367 21.4221 87.31C21.6887 87.5833 21.8821 87.9 22.0021 88.26L21.0221 88.69C20.8754 88.2967 20.6454 87.9933 20.3321 87.78C20.0254 87.5667 19.6687 87.46 19.2621 87.46C19.0154 87.46 18.7987 87.5033 18.6121 87.59C18.4254 87.67 18.2787 87.79 18.1721 87.95C18.0721 88.1033 18.0221 88.2833 18.0221 88.49C18.0221 88.73 18.0987 88.9433 18.2521 89.13C18.4054 89.3167 18.6387 89.4567 18.9521 89.55L20.2521 89.96C20.8454 90.14 21.2921 90.4 21.5921 90.74C21.8921 91.0733 22.0421 91.49 22.0421 91.99C22.0421 92.4033 21.9321 92.77 21.7121 93.09C21.4987 93.41 21.2021 93.6633 20.8221 93.85C20.4421 94.03 20.0021 94.12 19.5021 94.12ZM25.8667 94.12C25.3467 94.12 24.87 93.9967 24.4367 93.75C24.01 93.5033 23.67 93.1667 23.4167 92.74C23.1633 92.3133 23.0367 91.83 23.0367 91.29C23.0367 90.7433 23.1633 90.26 23.4167 89.84C23.67 89.4133 24.01 89.08 24.4367 88.84C24.8633 88.5933 25.34 88.47 25.8667 88.47C26.4 88.47 26.8767 88.5933 27.2967 88.84C27.7233 89.08 28.06 89.4133 28.3067 89.84C28.56 90.26 28.6867 90.7433 28.6867 91.29C28.6867 91.8367 28.56 92.3233 28.3067 92.75C28.0533 93.1767 27.7133 93.5133 27.2867 93.76C26.86 94 26.3867 94.12 25.8667 94.12ZM25.8667 93.07C26.1867 93.07 26.47 92.9933 26.7167 92.84C26.9633 92.6867 27.1567 92.4767 27.2967 92.21C27.4433 91.9367 27.5167 91.63 27.5167 91.29C27.5167 90.95 27.4433 90.6467 27.2967 90.38C27.1567 90.1133 26.9633 89.9033 26.7167 89.75C26.47 89.5967 26.1867 89.52 25.8667 89.52C25.5533 89.52 25.27 89.5967 25.0167 89.75C24.77 89.9033 24.5733 90.1133 24.4267 90.38C24.2867 90.6467 24.2167 90.95 24.2167 91.29C24.2167 91.63 24.2867 91.9367 24.4267 92.21C24.5733 92.4767 24.77 92.6867 25.0167 92.84C25.27 92.9933 25.5533 93.07 25.8667 93.07ZM32.3599 94.12C31.8199 94.12 31.3399 93.9967 30.9199 93.75C30.5065 93.4967 30.1765 93.1567 29.9299 92.73C29.6899 92.3033 29.5699 91.82 29.5699 91.28C29.5699 90.7467 29.6899 90.2667 29.9299 89.84C30.1699 89.4133 30.4999 89.08 30.9199 88.84C31.3399 88.5933 31.8199 88.47 32.3599 88.47C32.7265 88.47 33.0699 88.5367 33.3899 88.67C33.7099 88.7967 33.9865 88.9733 34.2199 89.2C34.4599 89.4267 34.6365 89.69 34.7499 89.99L33.7599 90.45C33.6465 90.17 33.4632 89.9467 33.2099 89.78C32.9632 89.6067 32.6799 89.52 32.3599 89.52C32.0532 89.52 31.7765 89.5967 31.5299 89.75C31.2899 89.8967 31.0999 90.1067 30.9599 90.38C30.8199 90.6467 30.7499 90.95 30.7499 91.29C30.7499 91.63 30.8199 91.9367 30.9599 92.21C31.0999 92.4767 31.2899 92.6867 31.5299 92.84C31.7765 92.9933 32.0532 93.07 32.3599 93.07C32.6865 93.07 32.9699 92.9867 33.2099 92.82C33.4565 92.6467 33.6399 92.4167 33.7599 92.13L34.7499 92.6C34.6432 92.8867 34.4699 93.1467 34.2299 93.38C33.9965 93.6067 33.7199 93.7867 33.3999 93.92C33.0799 94.0533 32.7332 94.12 32.3599 94.12ZM35.8543 94V88.59H36.9843V94H35.8543ZM35.8543 87.85V86.55H36.9843V87.85H35.8543ZM39.9255 94.12C39.5588 94.12 39.2355 94.0567 38.9555 93.93C38.6822 93.7967 38.4688 93.6167 38.3155 93.39C38.1622 93.1567 38.0855 92.8833 38.0855 92.57C38.0855 92.2767 38.1488 92.0133 38.2755 91.78C38.4088 91.5467 38.6122 91.35 38.8855 91.19C39.1588 91.03 39.5022 90.9167 39.9155 90.85L41.7955 90.54V91.43L40.1355 91.72C39.8355 91.7733 39.6155 91.87 39.4755 92.01C39.3355 92.1433 39.2655 92.3167 39.2655 92.53C39.2655 92.7367 39.3422 92.9067 39.4955 93.04C39.6555 93.1667 39.8588 93.23 40.1055 93.23C40.4122 93.23 40.6788 93.1633 40.9055 93.03C41.1388 92.8967 41.3188 92.72 41.4455 92.5C41.5722 92.2733 41.6355 92.0233 41.6355 91.75V90.36C41.6355 90.0933 41.5355 89.8767 41.3355 89.71C41.1422 89.5367 40.8822 89.45 40.5555 89.45C40.2555 89.45 39.9922 89.53 39.7655 89.69C39.5455 89.8433 39.3822 90.0433 39.2755 90.29L38.3355 89.82C38.4355 89.5533 38.5988 89.32 38.8255 89.12C39.0522 88.9133 39.3155 88.7533 39.6155 88.64C39.9222 88.5267 40.2455 88.47 40.5855 88.47C41.0122 88.47 41.3888 88.55 41.7155 88.71C42.0488 88.87 42.3055 89.0933 42.4855 89.38C42.6722 89.66 42.7655 89.9867 42.7655 90.36V94H41.6855V93.02L41.9155 93.05C41.7888 93.27 41.6255 93.46 41.4255 93.62C41.2322 93.78 41.0088 93.9033 40.7555 93.99C40.5088 94.0767 40.2322 94.12 39.9255 94.12ZM44.0868 94V86.43H45.2168V94H44.0868Z" fill="#C86485"/>
<defs>
<clipPath id="clip0_51_36151">
<rect width="63" height="63" fill="white"/>
</clipPath>
</defs>
</svg>
