<svg width="66" height="105" viewBox="0 0 66 105" fill="none" xmlns="http://www.w3.org/2000/svg">
<mask id="mask0_51_36165" style="mask-type:luminance" maskUnits="userSpaceOnUse" x="0" y="0" width="64" height="63">
<path d="M63.7867 0H0.325195V63H63.7867V0Z" fill="white"/>
</mask>
<g mask="url(#mask0_51_36165)">
<path d="M58.6689 8.12904H43.1464L43.827 6.77656C43.9229 6.58579 43.9559 6.36988 43.9214 6.15943C43.8869 5.94899 43.7866 5.75465 43.6346 5.60395L40.741 2.73034C40.5892 2.57965 40.3932 2.48023 40.1813 2.44613C39.9693 2.41203 39.7517 2.44498 39.5598 2.54031L37.7552 3.43655C37.1016 3.09579 36.4182 2.81487 35.7133 2.59724L35.0744 0.696049C35.0069 0.493439 34.8764 0.317157 34.702 0.192214C34.5278 0.0672724 34.3182 1.95994e-05 34.1032 2.94772e-08H30.0089C29.7939 -5.13455e-05 29.5844 0.0670534 29.41 0.191802C29.2357 0.31655 29.1054 0.492615 29.0374 0.695031L28.3987 2.5962C27.692 2.81356 27.0069 3.09448 26.3517 3.43554L24.5521 2.54031C24.36 2.44511 24.1425 2.41232 23.9305 2.44661C23.7185 2.48089 23.5227 2.58051 23.3709 2.73135L20.4763 5.60395C20.3245 5.75477 20.2243 5.94917 20.19 6.15961C20.1556 6.37003 20.1888 6.58589 20.2849 6.77656L20.9656 8.12904H5.44306C4.08621 8.13065 2.78542 8.66646 1.82598 9.61889C0.866545 10.5713 0.32682 11.8627 0.325195 13.2097V49.7904C0.32682 51.1374 0.866545 52.4286 1.82598 53.3812C2.78542 54.3335 4.08621 54.8695 5.44306 54.871H24.6862L19.0064 61.3154C18.8773 61.462 18.7934 61.6425 18.7647 61.835C18.7359 62.0278 18.7636 62.2246 18.8444 62.4023C18.9252 62.5797 19.0557 62.7304 19.2203 62.8365C19.385 62.9425 19.5769 62.9992 19.7731 63H44.3387C44.5352 62.9997 44.7276 62.9436 44.8926 62.8377C45.0579 62.7319 45.1889 62.5812 45.2699 62.4035C45.3511 62.2259 45.379 62.0288 45.3506 61.8358C45.3219 61.643 45.2379 61.462 45.1087 61.3154L39.4258 54.871H58.6689C60.0257 54.8695 61.3266 54.3335 62.2859 53.3812C63.2455 52.4286 63.7851 51.1374 63.7867 49.7904V13.2097C63.7851 11.8627 63.2455 10.5713 62.2859 9.61889C61.3266 8.66646 60.0257 8.13065 58.6689 8.12904ZM22.1662 11.6479C22.4013 10.7572 22.7577 9.90254 23.2256 9.10756C23.3116 8.96175 23.3597 8.79692 23.3654 8.628C23.3712 8.45909 23.3344 8.29143 23.2583 8.14021L22.4395 6.52456L24.2963 4.68435L25.9237 5.49725C26.076 5.5727 26.2448 5.60927 26.4152 5.60357C26.5852 5.5979 26.7513 5.55017 26.8982 5.46475C27.6989 5.00006 28.5597 4.64655 29.457 4.41406C29.6228 4.37195 29.7751 4.28937 29.9002 4.1738C30.0254 4.05826 30.1193 3.91343 30.1736 3.75256L30.7468 2.03226H33.3652L33.9415 3.74749C33.9958 3.90837 34.0897 4.05319 34.2149 4.16874C34.34 4.28428 34.4923 4.36688 34.6578 4.40899C35.5552 4.64146 36.4162 4.99499 37.2168 5.45966C37.3638 5.54511 37.5298 5.59281 37.6999 5.59851C37.87 5.60418 38.039 5.56764 38.1913 5.49219L39.8188 4.68435L41.6673 6.52254L40.8484 8.13819C40.7725 8.28941 40.7356 8.45707 40.7412 8.62599C40.7471 8.79488 40.795 8.95971 40.8811 9.10554C41.3492 9.90053 41.7056 10.7552 41.9407 11.6459C41.9831 11.8102 42.0663 11.9614 42.1826 12.0857C42.2991 12.2099 42.4448 12.3032 42.607 12.3571L44.3387 12.9262V15.5254L42.6121 16.0975C42.4501 16.1514 42.3042 16.2448 42.1876 16.369C42.0714 16.4932 41.9881 16.6444 41.9457 16.8088C41.7107 17.6995 41.3543 18.5541 40.8864 19.3491C40.8004 19.4949 40.7522 19.6598 40.7466 19.8287C40.7407 19.9976 40.7775 20.1653 40.8537 20.3165L41.6723 21.9321L39.8157 23.7673L38.1883 22.9544C38.036 22.8783 37.8669 22.8415 37.6969 22.8472C37.5265 22.8529 37.3605 22.9009 37.2138 22.9869C36.4132 23.4515 35.5521 23.8051 34.6548 24.0375C34.4893 24.0797 34.3369 24.1623 34.2118 24.2778C34.0867 24.3933 33.9927 24.5382 33.9384 24.6991L33.3652 26.4194H30.7468L30.1706 24.7041C30.1162 24.5433 30.0223 24.3984 29.8972 24.2829C29.772 24.1673 29.6197 24.0847 29.454 24.0426C28.5566 23.8101 27.6958 23.4566 26.8952 22.992C26.7485 22.906 26.5822 22.858 26.4121 22.8523C26.2418 22.8466 26.0727 22.8834 25.9207 22.9594L24.2932 23.7723L22.4446 21.9291L23.2635 20.3134C23.3395 20.1622 23.3763 19.9945 23.3706 19.8256C23.3649 19.6567 23.3168 19.4919 23.2307 19.3461C22.7628 18.5511 22.4064 17.6964 22.1713 16.8058C22.1289 16.6414 22.0457 16.4902 21.9293 16.366C21.8129 16.2417 21.667 16.1484 21.505 16.0945L19.7731 15.5254V12.9262L21.4998 12.3541C21.6613 12.3006 21.8068 12.2081 21.9231 12.0848C22.0395 11.9615 22.123 11.8113 22.1662 11.6479ZM45.6859 17.2214C45.8895 17.154 46.0669 17.0247 46.1926 16.8518C46.3182 16.679 46.3858 16.4712 46.386 16.2581V14.2258H56.6216C56.8932 14.2258 57.1537 14.3329 57.3456 14.5234C57.5375 14.714 57.6454 14.9724 57.6454 15.2419V43.6935C57.6454 43.9632 57.5375 44.2215 57.3456 44.412C57.1537 44.6027 56.8932 44.7096 56.6216 44.7096H7.49021C7.21874 44.7096 6.9584 44.6027 6.76644 44.412C6.57448 44.2215 6.46662 43.9632 6.46662 43.6935V15.2419C6.46662 14.9724 6.57448 14.714 6.76644 14.5234C6.9584 14.3329 7.21874 14.2258 7.49021 14.2258H17.7259V16.2581C17.7261 16.4712 17.7938 16.679 17.9194 16.8518C18.0451 17.0247 18.2223 17.154 18.4261 17.2214L20.3412 17.8554C20.3872 18.0028 20.4435 18.145 20.4998 18.2903H11.5845C11.313 18.2903 11.0527 18.3974 10.8607 18.5879C10.6688 18.7785 10.5609 19.037 10.5609 19.3065V24.5741C9.87798 24.8138 9.30239 25.2854 8.93586 25.9056C8.56936 26.526 8.4355 27.2548 8.55801 27.9637C8.68049 28.6723 9.05144 29.3152 9.60525 29.7788C10.1591 30.2423 10.8601 30.4965 11.5845 30.4965C12.3089 30.4965 13.0099 30.2423 13.5637 29.7788C14.1176 29.3152 14.4885 28.6723 14.611 27.9637C14.7335 27.2548 14.5996 26.526 14.2331 25.9056C13.8666 25.2854 13.291 24.8138 12.6081 24.5741V20.3226H20.9656L20.2849 21.675C20.189 21.8658 20.1559 22.0817 20.1905 22.2922C20.225 22.5026 20.3254 22.697 20.4773 22.8477L21.8202 24.1839V28.032L20.073 29.7665C19.8813 29.9568 19.7734 30.2148 19.7731 30.4839V33.7191C19.0901 33.959 18.5145 34.4305 18.148 35.0509C17.7815 35.6711 17.6477 36.4001 17.7702 37.1088C17.8926 37.8174 18.2636 38.4605 18.8174 38.9239C19.3712 39.3873 20.0723 39.6416 20.7967 39.6416C21.521 39.6416 22.2221 39.3873 22.7759 38.9239C23.3297 38.4605 23.7007 37.8174 23.8231 37.1088C23.9457 36.4001 23.8118 35.6711 23.4453 35.0509C23.0788 34.4305 22.5032 33.959 21.8202 33.7191V30.9045L23.5675 29.17C23.7594 28.9795 23.8673 28.7212 23.8674 28.4516V25.9865C24.0973 26.0424 24.3398 26.016 24.5521 25.9124L26.3568 25.0161C27.012 25.357 27.6971 25.638 28.4038 25.8555L29.0425 27.7565C29.1103 27.9581 29.2397 28.1335 29.4131 28.2583C29.5865 28.383 29.7949 28.4505 30.0089 28.4516H31.0324V31.687C30.3495 31.9266 29.7738 32.3984 29.4073 33.0186C29.0407 33.6387 28.9069 34.3678 29.0295 35.0764C29.1519 35.7853 29.523 36.4281 30.0766 36.8918C30.6305 37.3552 31.3317 37.6095 32.0559 37.6095C32.7804 37.6095 33.4815 37.3552 34.0351 36.8918C34.589 36.4281 34.9599 35.7853 35.0825 35.0764C35.2048 34.3678 35.0711 33.6387 34.7045 33.0186C34.338 32.3984 33.7625 31.9266 33.0797 31.687V28.4516H34.1032C34.3179 28.4516 34.5276 28.3845 34.7017 28.2598C34.8761 28.135 35.0066 27.9589 35.0744 27.7565L35.7133 25.8555C36.4182 25.6377 37.1016 25.3567 37.7552 25.0161L39.5598 25.9124C39.7723 26.0157 40.0145 26.0424 40.2445 25.9875V28.4516C40.2447 28.7212 40.3526 28.9795 40.5445 29.17L42.2917 30.9045V33.7191C41.6086 33.959 41.0332 34.4305 40.6666 35.0509C40.3 35.6711 40.1663 36.4001 40.2889 37.1088C40.4112 37.8174 40.7821 38.4605 41.336 38.9239C41.8899 39.3873 42.591 39.6416 43.3152 39.6416C44.0397 39.6416 44.7406 39.3873 45.2945 38.9239C45.8484 38.4605 46.2192 37.8174 46.3418 37.1088C46.4642 36.4001 46.3304 35.6711 45.9639 35.0509C45.5973 34.4305 45.0218 33.959 44.3387 33.7191V30.4839C44.3387 30.2143 44.2309 29.956 44.0389 29.7655L42.2917 28.031V24.1839L43.6356 22.8487C43.7876 22.698 43.8879 22.5037 43.9224 22.2932C43.957 22.0828 43.924 21.8668 43.828 21.6761L43.1464 20.3226H51.5038V24.5741C50.821 24.8138 50.2452 25.2854 49.8787 25.9056C49.5124 26.526 49.3783 27.2548 49.501 27.9637C49.6233 28.6723 49.9944 29.3152 50.5481 29.7788C51.102 30.2423 51.8031 30.4965 52.5273 30.4965C53.2518 30.4965 53.9529 30.2423 54.5065 29.7788C55.0604 29.3152 55.4313 28.6723 55.5539 27.9637C55.6765 27.2548 55.5425 26.526 55.1759 25.9056C54.8096 25.2854 54.2339 24.8138 53.5511 24.5741V19.3065C53.5511 19.037 53.4432 18.7785 53.2513 18.5879C53.0594 18.3974 52.7989 18.2903 52.5273 18.2903H43.612C43.6643 18.145 43.7247 18.0028 43.7706 17.8554L45.6859 17.2214ZM12.6081 27.4355C12.6081 27.6363 12.548 27.8329 12.4356 28C12.3231 28.167 12.1632 28.2973 11.9762 28.3742C11.7892 28.4511 11.5834 28.4712 11.3848 28.4322C11.1863 28.3928 11.0039 28.2961 10.8607 28.1539C10.7176 28.0118 10.6201 27.8309 10.5806 27.6338C10.5411 27.4365 10.5614 27.2324 10.6388 27.0467C10.7163 26.8609 10.8475 26.7022 11.0158 26.5905C11.1841 26.4789 11.382 26.4194 11.5845 26.4194C11.856 26.4194 12.1163 26.5265 12.3083 26.717C12.5002 26.9076 12.6081 27.1661 12.6081 27.4355ZM21.8202 36.5806C21.8202 36.7817 21.7602 36.978 21.6477 37.1451C21.5353 37.3124 21.3754 37.4424 21.1884 37.5195C21.0013 37.5964 20.7955 37.6165 20.597 37.5772C20.3984 37.5379 20.216 37.4412 20.0729 37.2993C19.9297 37.1571 19.8323 36.976 19.7928 36.7789C19.7533 36.5818 19.7735 36.3775 19.851 36.1917C19.9285 36.006 20.0597 35.8475 20.228 35.7359C20.3963 35.6242 20.5942 35.5645 20.7967 35.5645C21.0681 35.5645 21.3285 35.6716 21.5204 35.8621C21.7124 36.0526 21.8202 36.3112 21.8202 36.5806ZM33.0797 34.5484C33.0797 34.7493 33.0195 34.9458 32.907 35.1129C32.7946 35.28 32.6347 35.4103 32.4476 35.4871C32.2607 35.564 32.0549 35.5842 31.8564 35.5451C31.6576 35.5058 31.4753 35.409 31.3322 35.2669C31.189 35.1248 31.0915 34.9438 31.0522 34.7465C31.0126 34.5494 31.0329 34.3453 31.1103 34.1596C31.1877 33.9739 31.319 33.8151 31.4873 33.7035C31.6556 33.5919 31.8536 33.5324 32.0559 33.5324C32.3275 33.5324 32.5877 33.6392 32.7799 33.83C32.9718 34.0205 33.0797 34.2788 33.0797 34.5484ZM44.3387 36.5806C44.3387 36.7817 44.2788 36.978 44.1664 37.1451C44.0539 37.3124 43.894 37.4424 43.7069 37.5195C43.5198 37.5964 43.3142 37.6165 43.1155 37.5772C42.9169 37.5379 42.7347 37.4412 42.5915 37.2993C42.4483 37.1571 42.3509 36.976 42.3113 36.7789C42.2719 36.5818 42.2922 36.3775 42.3697 36.1917C42.4471 36.006 42.5783 35.8475 42.7466 35.7359C42.9149 35.6242 43.1129 35.5645 43.3152 35.5645C43.5868 35.5645 43.847 35.6716 44.0389 35.8621C44.2311 36.0526 44.3387 36.3112 44.3387 36.5806ZM53.5511 27.4355C53.5511 27.6363 53.4909 27.8329 53.3785 28C53.266 28.167 53.1061 28.2973 52.9192 28.3742C52.7322 28.4511 52.5263 28.4712 52.3278 28.4322C52.1293 28.3928 51.9468 28.2961 51.8036 28.1539C51.6604 28.0118 51.563 27.8309 51.5236 27.6338C51.484 27.4365 51.5043 27.2324 51.5817 27.0467C51.6592 26.8609 51.7904 26.7022 51.9587 26.5905C52.127 26.4789 52.325 26.4194 52.5273 26.4194C52.7989 26.4194 53.0594 26.5265 53.2513 26.717C53.4432 26.9076 53.5511 27.1661 53.5511 27.4355ZM42.0869 60.9676H22.025L27.3976 54.871H36.7061L42.0869 60.9676ZM61.7396 49.7904C61.7396 50.5988 61.416 51.3742 60.8403 51.9458C60.2643 52.5176 59.4832 52.8386 58.6689 52.8386H5.44306C4.62865 52.8386 3.84762 52.5176 3.27174 51.9458C2.69586 51.3742 2.37234 50.5988 2.37234 49.7904V13.2097C2.37234 12.4012 2.69586 11.6258 3.27174 11.0541C3.84762 10.4825 4.62865 10.1613 5.44306 10.1613H20.4998C20.4476 10.3066 20.3872 10.4489 20.3412 10.5962L18.4261 11.2303C18.2223 11.2976 18.0451 11.4269 17.9194 11.5998C17.7938 11.7726 17.7261 11.9804 17.7259 12.1935H7.49021C6.67579 12.1935 5.89476 12.5147 5.31888 13.0864C4.74301 13.6581 4.41948 14.4335 4.41948 15.2419V43.6935C4.41948 44.5019 4.74301 45.2773 5.31888 45.8491C5.89476 46.4207 6.67579 46.742 7.49021 46.742H56.6216C57.4362 46.742 58.2173 46.4207 58.793 45.8491C59.369 45.2773 59.6924 44.5019 59.6924 43.6935V15.2419C59.6924 14.4335 59.369 13.6581 58.793 13.0864C58.2173 12.5147 57.4362 12.1935 56.6216 12.1935H46.386C46.3858 11.9804 46.3182 11.7726 46.1926 11.5998C46.0669 11.4269 45.8895 11.2976 45.6859 11.2303L43.7706 10.5962C43.7247 10.4489 43.6683 10.3066 43.612 10.1613H58.6689C59.4832 10.1613 60.2643 10.4825 60.8403 11.0541C61.416 11.6258 61.7396 12.4012 61.7396 13.2097V49.7904Z" fill="#FE776B"/>
<path d="M33.0795 48.7744H31.0322V50.8065H33.0795V48.7744Z" fill="#FE776B"/>
<path d="M32.0568 21.3388C33.474 21.3388 34.8592 20.9217 36.0376 20.1401C37.2159 19.3585 38.1341 18.2477 38.6766 16.9479C39.2188 15.6482 39.3607 14.218 39.0842 12.8383C38.8078 11.4585 38.1255 10.1911 37.1233 9.19637C36.1213 8.2016 34.8445 7.52417 33.4547 7.24972C32.0649 6.97526 30.624 7.11611 29.315 7.65448C28.0056 8.19283 26.8867 9.10451 26.0995 10.2742C25.3121 11.4439 24.8918 12.8191 24.8918 14.2259C24.894 16.1117 25.6497 17.9197 26.9928 19.2532C28.3361 20.5866 30.1572 21.3367 32.0568 21.3388ZM32.0568 9.14529C33.0691 9.14529 34.0586 9.44328 34.9001 10.0015C35.7418 10.5598 36.3978 11.3533 36.7851 12.2817C37.1725 13.21 37.2738 14.2316 37.0763 15.2171C36.8788 16.2027 36.3914 17.108 35.6758 17.8185C34.96 18.529 34.0482 19.0129 33.0554 19.209C32.0626 19.405 31.0335 19.3044 30.0983 18.9198C29.1632 18.5353 28.3638 17.8841 27.8015 17.0486C27.2393 16.2131 26.939 15.2308 26.939 14.2259C26.9407 12.879 27.4804 11.5876 28.4397 10.6352C29.3992 9.6827 30.6999 9.1469 32.0568 9.14529Z" fill="#FE776B"/>
</g>
<path d="M5.13832 94L7.75832 86.55H9.21832L11.8383 94H10.5783L10.0083 92.33H6.97832L6.39832 94H5.13832ZM7.31832 91.28H9.64832L8.32832 87.38H8.65832L7.31832 91.28ZM14.4445 94.12C14.0378 94.12 13.6812 94.03 13.3745 93.85C13.0678 93.6633 12.8278 93.4067 12.6545 93.08C12.4878 92.7467 12.4045 92.3633 12.4045 91.93V88.59H13.5345V91.83C13.5345 92.0767 13.5845 92.2933 13.6845 92.48C13.7845 92.6667 13.9245 92.8133 14.1045 92.92C14.2845 93.02 14.4912 93.07 14.7245 93.07C14.9645 93.07 15.1745 93.0167 15.3545 92.91C15.5345 92.8033 15.6745 92.6533 15.7745 92.46C15.8812 92.2667 15.9345 92.04 15.9345 91.78V88.59H17.0545V94H15.9845V92.94L16.1045 93.08C15.9778 93.4133 15.7678 93.67 15.4745 93.85C15.1812 94.03 14.8378 94.12 14.4445 94.12ZM20.7139 94.06C20.1472 94.06 19.7072 93.9 19.3939 93.58C19.0805 93.26 18.9239 92.81 18.9239 92.23V89.61H17.9739V88.59H18.1239C18.3772 88.59 18.5739 88.5167 18.7139 88.37C18.8539 88.2233 18.9239 88.0233 18.9239 87.77V87.35H20.0539V88.59H21.2839V89.61H20.0539V92.18C20.0539 92.3667 20.0839 92.5267 20.1439 92.66C20.2039 92.7867 20.3005 92.8867 20.4339 92.96C20.5672 93.0267 20.7405 93.06 20.9539 93.06C21.0072 93.06 21.0672 93.0567 21.1339 93.05C21.2005 93.0433 21.2639 93.0367 21.3239 93.03V94C21.2305 94.0133 21.1272 94.0267 21.0139 94.04C20.9005 94.0533 20.8005 94.06 20.7139 94.06ZM24.9389 94.12C24.4189 94.12 23.9423 93.9967 23.5089 93.75C23.0823 93.5033 22.7423 93.1667 22.4889 92.74C22.2356 92.3133 22.1089 91.83 22.1089 91.29C22.1089 90.7433 22.2356 90.26 22.4889 89.84C22.7423 89.4133 23.0823 89.08 23.5089 88.84C23.9356 88.5933 24.4123 88.47 24.9389 88.47C25.4723 88.47 25.9489 88.5933 26.3689 88.84C26.7956 89.08 27.1323 89.4133 27.3789 89.84C27.6323 90.26 27.7589 90.7433 27.7589 91.29C27.7589 91.8367 27.6323 92.3233 27.3789 92.75C27.1256 93.1767 26.7856 93.5133 26.3589 93.76C25.9323 94 25.4589 94.12 24.9389 94.12ZM24.9389 93.07C25.2589 93.07 25.5423 92.9933 25.7889 92.84C26.0356 92.6867 26.2289 92.4767 26.3689 92.21C26.5156 91.9367 26.5889 91.63 26.5889 91.29C26.5889 90.95 26.5156 90.6467 26.3689 90.38C26.2289 90.1133 26.0356 89.9033 25.7889 89.75C25.5423 89.5967 25.2589 89.52 24.9389 89.52C24.6256 89.52 24.3423 89.5967 24.0889 89.75C23.8423 89.9033 23.6456 90.1133 23.4989 90.38C23.3589 90.6467 23.2889 90.95 23.2889 91.29C23.2889 91.63 23.3589 91.9367 23.4989 92.21C23.6456 92.4767 23.8423 92.6867 24.0889 92.84C24.3423 92.9933 24.6256 93.07 24.9389 93.07ZM28.8621 94V88.59H29.9421V89.76L29.8021 89.58C29.9155 89.2133 30.1221 88.9367 30.4221 88.75C30.7221 88.5633 31.0655 88.47 31.4521 88.47C31.8855 88.47 32.2688 88.5867 32.6021 88.82C32.9421 89.0467 33.1688 89.35 33.2821 89.73L32.9621 89.76C33.1221 89.3267 33.3655 89.0033 33.6921 88.79C34.0255 88.5767 34.4055 88.47 34.8321 88.47C35.2055 88.47 35.5421 88.5567 35.8421 88.73C36.1488 88.9033 36.3921 89.1433 36.5721 89.45C36.7521 89.7567 36.8421 90.1067 36.8421 90.5V94H35.7121V90.81C35.7121 90.5367 35.6621 90.3067 35.5621 90.12C35.4688 89.9267 35.3355 89.78 35.1621 89.68C34.9955 89.5733 34.7988 89.52 34.5721 89.52C34.3455 89.52 34.1455 89.5733 33.9721 89.68C33.7988 89.78 33.6621 89.9267 33.5621 90.12C33.4621 90.3133 33.4121 90.5433 33.4121 90.81V94H32.2921V90.81C32.2921 90.5367 32.2421 90.3067 32.1421 90.12C32.0488 89.9267 31.9155 89.78 31.7421 89.68C31.5755 89.5733 31.3755 89.52 31.1421 89.52C30.9155 89.52 30.7155 89.5733 30.5421 89.68C30.3688 89.78 30.2321 89.9267 30.1321 90.12C30.0388 90.3133 29.9921 90.5433 29.9921 90.81V94H28.8621ZM39.6716 94.12C39.3049 94.12 38.9816 94.0567 38.7016 93.93C38.4283 93.7967 38.2149 93.6167 38.0616 93.39C37.9083 93.1567 37.8316 92.8833 37.8316 92.57C37.8316 92.2767 37.8949 92.0133 38.0216 91.78C38.1549 91.5467 38.3583 91.35 38.6316 91.19C38.9049 91.03 39.2483 90.9167 39.6616 90.85L41.5416 90.54V91.43L39.8816 91.72C39.5816 91.7733 39.3616 91.87 39.2216 92.01C39.0816 92.1433 39.0116 92.3167 39.0116 92.53C39.0116 92.7367 39.0883 92.9067 39.2416 93.04C39.4016 93.1667 39.6049 93.23 39.8516 93.23C40.1583 93.23 40.4249 93.1633 40.6516 93.03C40.8849 92.8967 41.0649 92.72 41.1916 92.5C41.3183 92.2733 41.3816 92.0233 41.3816 91.75V90.36C41.3816 90.0933 41.2816 89.8767 41.0816 89.71C40.8883 89.5367 40.6283 89.45 40.3016 89.45C40.0016 89.45 39.7383 89.53 39.5116 89.69C39.2916 89.8433 39.1283 90.0433 39.0216 90.29L38.0816 89.82C38.1816 89.5533 38.3449 89.32 38.5716 89.12C38.7983 88.9133 39.0616 88.7533 39.3616 88.64C39.6683 88.5267 39.9916 88.47 40.3316 88.47C40.7583 88.47 41.1349 88.55 41.4616 88.71C41.7949 88.87 42.0516 89.0933 42.2316 89.38C42.4183 89.66 42.5116 89.9867 42.5116 90.36V94H41.4316V93.02L41.6616 93.05C41.5349 93.27 41.3716 93.46 41.1716 93.62C40.9783 93.78 40.7549 93.9033 40.5016 93.99C40.2549 94.0767 39.9783 94.12 39.6716 94.12ZM46.0752 94.06C45.5085 94.06 45.0685 93.9 44.7552 93.58C44.4419 93.26 44.2852 92.81 44.2852 92.23V89.61H43.3352V88.59H43.4852C43.7385 88.59 43.9352 88.5167 44.0752 88.37C44.2152 88.2233 44.2852 88.0233 44.2852 87.77V87.35H45.4152V88.59H46.6452V89.61H45.4152V92.18C45.4152 92.3667 45.4452 92.5267 45.5052 92.66C45.5652 92.7867 45.6619 92.8867 45.7952 92.96C45.9285 93.0267 46.1019 93.06 46.3152 93.06C46.3685 93.06 46.4285 93.0567 46.4952 93.05C46.5619 93.0433 46.6252 93.0367 46.6852 93.03V94C46.5919 94.0133 46.4885 94.0267 46.3752 94.04C46.2619 94.0533 46.1619 94.06 46.0752 94.06ZM47.7879 94V88.59H48.9179V94H47.7879ZM47.7879 87.85V86.55H48.9179V87.85H47.7879ZM52.8491 94.12C52.3291 94.12 51.8524 93.9967 51.4191 93.75C50.9924 93.5033 50.6524 93.1667 50.3991 92.74C50.1458 92.3133 50.0191 91.83 50.0191 91.29C50.0191 90.7433 50.1458 90.26 50.3991 89.84C50.6524 89.4133 50.9924 89.08 51.4191 88.84C51.8458 88.5933 52.3224 88.47 52.8491 88.47C53.3824 88.47 53.8591 88.5933 54.2791 88.84C54.7058 89.08 55.0424 89.4133 55.2891 89.84C55.5424 90.26 55.6691 90.7433 55.6691 91.29C55.6691 91.8367 55.5424 92.3233 55.2891 92.75C55.0358 93.1767 54.6958 93.5133 54.2691 93.76C53.8424 94 53.3691 94.12 52.8491 94.12ZM52.8491 93.07C53.1691 93.07 53.4524 92.9933 53.6991 92.84C53.9458 92.6867 54.1391 92.4767 54.2791 92.21C54.4258 91.9367 54.4991 91.63 54.4991 91.29C54.4991 90.95 54.4258 90.6467 54.2791 90.38C54.1391 90.1133 53.9458 89.9033 53.6991 89.75C53.4524 89.5967 53.1691 89.52 52.8491 89.52C52.5358 89.52 52.2524 89.5967 51.9991 89.75C51.7524 89.9033 51.5558 90.1133 51.4091 90.38C51.2691 90.6467 51.1991 90.95 51.1991 91.29C51.1991 91.63 51.2691 91.9367 51.4091 92.21C51.5558 92.4767 51.7524 92.6867 51.9991 92.84C52.2524 92.9933 52.5358 93.07 52.8491 93.07ZM56.7723 94V88.59H57.8523V89.65L57.7223 89.51C57.8556 89.17 58.069 88.9133 58.3623 88.74C58.6556 88.56 58.9956 88.47 59.3823 88.47C59.7823 88.47 60.1356 88.5567 60.4423 88.73C60.749 88.9033 60.989 89.1433 61.1623 89.45C61.3356 89.7567 61.4223 90.11 61.4223 90.51V94H60.3023V90.81C60.3023 90.5367 60.2523 90.3067 60.1523 90.12C60.0523 89.9267 59.909 89.78 59.7223 89.68C59.5423 89.5733 59.3356 89.52 59.1023 89.52C58.869 89.52 58.659 89.5733 58.4723 89.68C58.2923 89.78 58.1523 89.9267 58.0523 90.12C57.9523 90.3133 57.9023 90.5433 57.9023 90.81V94H56.7723Z" fill="#FE776B"/>
</svg>
