<svg width="63" height="105" viewBox="0 0 63 105" fill="none" xmlns="http://www.w3.org/2000/svg">
<g clip-path="url(#clip0_51_36175)">
<mask id="mask0_51_36175" style="mask-type:luminance" maskUnits="userSpaceOnUse" x="0" y="0" width="63" height="65">
<path d="M63 0H0V65H63V0Z" fill="white"/>
</mask>
<g mask="url(#mask0_51_36175)">
<path d="M57.8997 0.0168457H5.10019C2.28472 0.0204407 0.00339147 2.43864 0 5.42305V44.9465C0.00339147 47.9309 2.28472 50.3498 5.10019 50.3527H22.5356V61.3707H18.493C18.0131 61.3707 17.6249 61.783 17.6249 62.291C17.6249 62.7991 18.0131 63.2113 18.493 63.2113H45.2687C45.7481 63.2113 46.1369 62.7991 46.1369 62.291C46.1369 61.783 45.7481 61.3707 45.2687 61.3707H40.4647V50.3527H57.8997C60.7151 50.3498 62.9969 47.9309 62.9998 44.9465V5.42305C62.9964 2.43864 60.7151 0.0204407 57.8997 0.0168457ZM5.10019 1.85745H57.8997C59.7564 1.85985 61.2617 3.45481 61.2634 5.42305V39.931H1.73643V5.42305C1.73869 3.45481 3.24337 1.85985 5.10019 1.85745ZM38.7277 61.3707H24.2716V50.3527H38.7277V61.3707ZM57.8997 48.5121H5.10019C3.24337 48.5103 1.73869 46.9153 1.73643 44.9465V41.7716H61.2634V44.9465C61.2617 46.9153 59.7564 48.5103 57.8997 48.5121Z" fill="#58B5D9"/>
<path d="M27.0944 25.8805C27.3945 25.8805 27.6263 25.7848 27.6947 25.5249L28.2134 23.7039H31.3388L31.8575 25.5249C31.9259 25.7848 32.1578 25.8805 32.4578 25.8805C32.9356 25.8805 33.5771 25.5658 33.5771 25.1418C33.5731 25.0947 33.5641 25.0488 33.5499 25.0046L30.916 16.3937C30.7932 15.9831 30.2885 15.7915 29.7695 15.7915C29.2648 15.7915 28.7601 15.9831 28.6368 16.3937L26.0016 25.0046C25.9886 25.0494 25.9796 25.0952 25.9746 25.1418C25.9751 25.5795 26.6167 25.8805 27.0944 25.8805ZM29.769 18.1048L30.9567 22.308H28.5821L29.769 18.1048Z" fill="#58B5D9"/>
<path d="M35.4046 25.8803C35.8416 25.8803 36.2914 25.6886 36.2914 25.319V16.4217C36.2914 16.0385 35.8416 15.874 35.4046 15.874C34.954 15.874 34.5177 16.0385 34.5177 16.4217V25.319C34.5177 25.6886 34.954 25.8803 35.4046 25.8803Z" fill="#58B5D9"/>
<path d="M8.21523 25.2204C9.88554 25.2209 11.3405 24.0773 11.739 22.4501H18.3607C18.4338 23.5659 18.6491 24.6675 19.0012 25.7284H18.5287C16.4966 25.7306 14.8501 27.3829 14.8478 29.4212C14.8467 30.4978 13.9762 31.3704 12.9028 31.3715H12.3607C11.9215 29.5828 10.2196 28.4039 8.39669 28.6256C6.5732 28.8479 5.20192 30.4003 5.20192 32.2425C5.20192 34.0853 6.5732 35.6377 8.39669 35.8594C10.2196 36.0809 11.9215 34.9028 12.3607 33.1133H12.9028C14.9349 33.1112 16.582 31.4594 16.5842 29.4212C16.5854 28.344 17.4553 27.4713 18.5287 27.4701H19.7213C21.7399 31.5264 25.6937 34.2588 30.1909 34.7055C30.6311 34.7492 31.0693 34.7707 31.5056 34.7707C36.4808 34.7582 41.0243 31.9341 43.2497 27.4701H44.4722C45.5456 27.4719 46.4155 28.3445 46.4168 29.4212C46.4189 31.4594 48.0656 33.1117 50.0981 33.1139H50.6401C51.0793 34.9028 52.7808 36.0817 54.6043 35.8594C56.4277 35.6377 57.7991 34.0853 57.7991 32.2431C57.7991 30.4003 56.4277 28.8479 54.6043 28.6262C52.7808 28.4046 51.0793 29.5828 50.6401 31.3722H50.0981C49.0243 31.3704 48.1543 30.4978 48.153 29.4212C48.1509 27.3829 46.5043 25.7306 44.4722 25.7284H43.9636C44.2688 24.8018 44.4712 23.8449 44.5673 22.8735C44.5813 22.7325 44.5916 22.5913 44.6011 22.4501H51.2608C51.7 24.2394 53.4015 25.4177 55.2249 25.196C57.0483 24.9743 58.4197 23.4218 58.4197 21.5791C58.4197 19.7371 57.0483 18.1846 55.2249 17.9623C53.4015 17.7406 51.7 18.9193 51.2608 20.7083H44.6017C44.5293 19.593 44.314 18.4907 43.9618 17.4305H44.4722C46.5043 17.4276 48.1509 15.776 48.153 13.7377C48.1543 12.6604 49.0243 11.7878 50.0981 11.7867H50.6401C50.7973 12.4319 51.1286 13.0216 51.5972 13.4905C52.7638 14.6625 54.5715 14.8972 55.9976 14.0626C57.4238 13.228 58.1088 11.5332 57.6657 9.93829C57.2225 8.3428 55.7624 7.24794 54.112 7.27288C52.4608 7.29839 51.0347 8.43692 50.6401 10.0449H50.0976C48.0656 10.0472 46.4189 11.6994 46.4168 13.7377C46.4155 14.8144 45.545 15.687 44.4717 15.6887H43.2417C41.0175 11.2157 36.4628 8.38929 31.4795 8.38929C26.4964 8.38929 21.9416 11.2157 19.7168 15.6887H18.5287C17.4547 15.687 16.5848 14.8144 16.5837 13.7377C16.5814 11.6994 14.9349 10.0472 12.9023 10.0449H12.3602C11.9645 8.44031 10.5407 7.30464 8.89297 7.28026C7.24528 7.25587 5.78807 8.34903 5.34607 9.94171C4.90346 11.5338 5.58741 13.2251 7.01013 14.0586C8.43343 14.8926 10.2377 14.659 11.4032 13.4905C11.8718 13.0216 12.203 12.4319 12.3602 11.7867H12.9023C13.9762 11.7878 14.8461 12.661 14.8472 13.7377C14.8495 15.776 16.4961 17.4276 18.5281 17.4305H18.999C18.6932 18.3564 18.4909 19.314 18.3958 20.2852C18.3812 20.4264 18.371 20.5676 18.3614 20.7083H11.739C11.2862 18.8666 9.49948 17.6822 7.63304 17.9867C5.76604 18.2906 4.44506 19.9819 4.59768 21.8729C4.74973 23.7638 6.32394 25.2204 8.21523 25.2204ZM10.1749 33.5857C9.43559 34.3267 8.23784 34.3261 7.49851 33.5851C6.75973 32.8436 6.75973 31.642 7.49851 30.9004C8.23784 30.1594 9.43559 30.1589 10.1749 30.8999C10.9131 31.642 10.9131 32.8436 10.1749 33.5857ZM52.825 30.8999C53.5642 30.1576 54.7637 30.1576 55.503 30.8994C56.243 31.6415 56.243 32.8441 55.503 33.5862C54.7637 34.3279 53.5642 34.3279 52.825 33.5857C52.0861 32.8436 52.0861 31.642 52.825 30.8999ZM53.4456 20.2359C54.1854 19.4944 55.3844 19.4944 56.1236 20.2359C56.8636 20.9782 56.8636 22.1807 56.1236 22.9224C55.3844 23.6645 54.1854 23.6645 53.4456 22.9224C53.0872 22.568 52.8854 22.0837 52.8854 21.5791C52.8854 21.0739 53.0872 20.5904 53.4456 20.2359ZM52.825 9.5726C53.5642 8.83096 54.763 8.83096 55.503 9.5726C56.2422 10.3142 56.2422 11.5174 55.503 12.259C54.763 13.0006 53.5642 13.0006 52.825 12.259C52.0861 11.5168 52.0861 10.3154 52.825 9.5726ZM10.1749 12.259C9.43559 13 8.23728 12.9995 7.49851 12.2579C6.75973 11.5168 6.75973 10.3148 7.49851 9.57316C8.23728 8.83154 9.43559 8.83154 10.1749 9.5726C10.9131 10.3148 10.9131 11.5162 10.1749 12.259ZM32.6011 10.1861C38.8741 10.8064 43.4576 16.4105 42.8387 22.7023C42.2202 28.9949 36.634 33.5925 30.361 32.9721C24.0885 32.3514 19.5048 26.7479 20.1233 20.4559C20.4008 17.426 21.8772 14.6341 24.2219 12.7041C26.5664 10.7746 29.5848 9.86743 32.6011 10.1861ZM6.87617 20.2359C7.61551 19.4937 8.81495 19.4937 9.5543 20.2354C10.2942 20.9777 10.2942 22.1802 9.5543 22.9217C8.81495 23.664 7.61551 23.664 6.87617 22.9217C6.51837 22.5674 6.31659 22.0837 6.31659 21.5785C6.31659 21.0739 6.51837 20.5904 6.87617 20.2359Z" fill="#58B5D9"/>
</g>
</g>
<path d="M17.3131 94L19.9331 86.55H21.3931L24.0131 94H22.7531L22.1831 92.33H19.1531L18.5731 94H17.3131ZM19.4931 91.28H21.8231L20.5031 87.38H20.8331L19.4931 91.28ZM24.897 94V86.55H26.077V94H24.897ZM26.9616 95.2L30.3016 86.95H31.5516L28.2116 95.2H26.9616ZM32.436 94V86.55H33.536L36.336 90.43H35.786L38.536 86.55H39.636V94H38.466V87.94L38.906 88.06L36.096 91.9H35.976L33.226 88.06L33.616 87.94V94H32.436ZM41.1763 94V86.55H42.3563V92.95H45.5763V94H41.1763Z" fill="#58B5D9"/>
<defs>
<clipPath id="clip0_51_36175">
<rect width="63" height="65" fill="white"/>
</clipPath>
</defs>
</svg>
