<svg width="69" height="108" viewBox="0 0 69 108" fill="none" xmlns="http://www.w3.org/2000/svg">
<path d="M14.5339 97.12C14.0073 97.12 13.5173 97.0233 13.0639 96.83C12.6173 96.6367 12.2273 96.37 11.8939 96.03C11.5673 95.6833 11.3106 95.2767 11.1239 94.81C10.9373 94.3433 10.8439 93.83 10.8439 93.27C10.8439 92.7167 10.9339 92.2067 11.1139 91.74C11.3006 91.2667 11.5606 90.86 11.8939 90.52C12.2273 90.1733 12.6173 89.9067 13.0639 89.72C13.5106 89.5267 14.0006 89.43 14.5339 89.43C15.0606 89.43 15.5306 89.52 15.9439 89.7C16.3639 89.88 16.7173 90.1167 17.0039 90.41C17.2906 90.6967 17.4973 91.01 17.6239 91.35L16.5639 91.85C16.4039 91.45 16.1473 91.1267 15.7939 90.88C15.4473 90.6267 15.0273 90.5 14.5339 90.5C14.0406 90.5 13.6039 90.6167 13.2239 90.85C12.8439 91.0833 12.5473 91.4067 12.3339 91.82C12.1273 92.2333 12.0239 92.7167 12.0239 93.27C12.0239 93.8233 12.1273 94.31 12.3339 94.73C12.5473 95.1433 12.8439 95.4667 13.2239 95.7C13.6039 95.9267 14.0406 96.04 14.5339 96.04C15.0273 96.04 15.4473 95.9167 15.7939 95.67C16.1473 95.4233 16.4039 95.1 16.5639 94.7L17.6239 95.2C17.4973 95.5333 17.2906 95.8467 17.0039 96.14C16.7173 96.4333 16.3639 96.67 15.9439 96.85C15.5306 97.03 15.0606 97.12 14.5339 97.12ZM21.2397 97.12C20.7197 97.12 20.2431 96.9967 19.8097 96.75C19.3831 96.5033 19.0431 96.1667 18.7897 95.74C18.5364 95.3133 18.4097 94.83 18.4097 94.29C18.4097 93.7433 18.5364 93.26 18.7897 92.84C19.0431 92.4133 19.3831 92.08 19.8097 91.84C20.2364 91.5933 20.7131 91.47 21.2397 91.47C21.7731 91.47 22.2497 91.5933 22.6697 91.84C23.0964 92.08 23.4331 92.4133 23.6797 92.84C23.9331 93.26 24.0597 93.7433 24.0597 94.29C24.0597 94.8367 23.9331 95.3233 23.6797 95.75C23.4264 96.1767 23.0864 96.5133 22.6597 96.76C22.2331 97 21.7597 97.12 21.2397 97.12ZM21.2397 96.07C21.5597 96.07 21.8431 95.9933 22.0897 95.84C22.3364 95.6867 22.5297 95.4767 22.6697 95.21C22.8164 94.9367 22.8897 94.63 22.8897 94.29C22.8897 93.95 22.8164 93.6467 22.6697 93.38C22.5297 93.1133 22.3364 92.9033 22.0897 92.75C21.8431 92.5967 21.5597 92.52 21.2397 92.52C20.9264 92.52 20.6431 92.5967 20.3897 92.75C20.1431 92.9033 19.9464 93.1133 19.7997 93.38C19.6597 93.6467 19.5897 93.95 19.5897 94.29C19.5897 94.63 19.6597 94.9367 19.7997 95.21C19.9464 95.4767 20.1431 95.6867 20.3897 95.84C20.6431 95.9933 20.9264 96.07 21.2397 96.07ZM25.1629 97V91.59H26.2429V92.65L26.1129 92.51C26.2463 92.17 26.4596 91.9133 26.7529 91.74C27.0463 91.56 27.3863 91.47 27.7729 91.47C28.1729 91.47 28.5263 91.5567 28.8329 91.73C29.1396 91.9033 29.3796 92.1433 29.5529 92.45C29.7263 92.7567 29.8129 93.11 29.8129 93.51V97H28.6929V93.81C28.6929 93.5367 28.6429 93.3067 28.5429 93.12C28.4429 92.9267 28.2996 92.78 28.1129 92.68C27.9329 92.5733 27.7263 92.52 27.4929 92.52C27.2596 92.52 27.0496 92.5733 26.8629 92.68C26.6829 92.78 26.5429 92.9267 26.4429 93.12C26.3429 93.3133 26.2929 93.5433 26.2929 93.81V97H25.1629ZM33.0223 97.12C32.469 97.12 31.9823 96.9833 31.5623 96.71C31.149 96.4367 30.859 96.07 30.6923 95.61L31.5623 95.2C31.709 95.5067 31.909 95.75 32.1623 95.93C32.4223 96.11 32.709 96.2 33.0223 96.2C33.289 96.2 33.5056 96.14 33.6723 96.02C33.839 95.9 33.9223 95.7367 33.9223 95.53C33.9223 95.3967 33.8856 95.29 33.8123 95.21C33.739 95.1233 33.6456 95.0533 33.5323 95C33.4256 94.9467 33.3156 94.9067 33.2023 94.88L32.3523 94.64C31.8856 94.5067 31.5356 94.3067 31.3023 94.04C31.0756 93.7667 30.9623 93.45 30.9623 93.09C30.9623 92.7633 31.0456 92.48 31.2123 92.24C31.379 91.9933 31.609 91.8033 31.9023 91.67C32.1956 91.5367 32.5256 91.47 32.8923 91.47C33.3856 91.47 33.8256 91.5933 34.2123 91.84C34.599 92.08 34.8723 92.4167 35.0323 92.85L34.1623 93.26C34.0556 93 33.8856 92.7933 33.6523 92.64C33.4256 92.4867 33.169 92.41 32.8823 92.41C32.6356 92.41 32.439 92.47 32.2923 92.59C32.1456 92.7033 32.0723 92.8533 32.0723 93.04C32.0723 93.1667 32.1056 93.2733 32.1723 93.36C32.239 93.44 32.3256 93.5067 32.4323 93.56C32.539 93.6067 32.649 93.6467 32.7623 93.68L33.6423 93.94C34.089 94.0667 34.4323 94.2667 34.6723 94.54C34.9123 94.8067 35.0323 95.1267 35.0323 95.5C35.0323 95.82 34.9456 96.1033 34.7723 96.35C34.6056 96.59 34.3723 96.78 34.0723 96.92C33.7723 97.0533 33.4223 97.12 33.0223 97.12ZM38.0695 97.12C37.6628 97.12 37.3062 97.03 36.9995 96.85C36.6928 96.6633 36.4528 96.4067 36.2795 96.08C36.1128 95.7467 36.0295 95.3633 36.0295 94.93V91.59H37.1595V94.83C37.1595 95.0767 37.2095 95.2933 37.3095 95.48C37.4095 95.6667 37.5495 95.8133 37.7295 95.92C37.9095 96.02 38.1162 96.07 38.3495 96.07C38.5895 96.07 38.7995 96.0167 38.9795 95.91C39.1595 95.8033 39.2995 95.6533 39.3995 95.46C39.5062 95.2667 39.5595 95.04 39.5595 94.78V91.59H40.6795V97H39.6095V95.94L39.7295 96.08C39.6028 96.4133 39.3928 96.67 39.0995 96.85C38.8062 97.03 38.4628 97.12 38.0695 97.12ZM41.9989 97V89.43H43.1289V97H41.9989ZM46.79 97.06C46.2234 97.06 45.7834 96.9 45.47 96.58C45.1567 96.26 45 95.81 45 95.23V92.61H44.05V91.59H44.2C44.4534 91.59 44.65 91.5167 44.79 91.37C44.93 91.2233 45 91.0233 45 90.77V90.35H46.13V91.59H47.36V92.61H46.13V95.18C46.13 95.3667 46.16 95.5267 46.22 95.66C46.28 95.7867 46.3767 95.8867 46.51 95.96C46.6434 96.0267 46.8167 96.06 47.03 96.06C47.0834 96.06 47.1434 96.0567 47.21 96.05C47.2767 96.0433 47.34 96.0367 47.4 96.03V97C47.3067 97.0133 47.2034 97.0267 47.09 97.04C46.9767 97.0533 46.8767 97.06 46.79 97.06ZM48.5028 97V91.59H49.6328V97H48.5028ZM48.5028 90.85V89.55H49.6328V90.85H48.5028ZM50.9539 97V91.59H52.0339V92.65L51.9039 92.51C52.0373 92.17 52.2506 91.9133 52.5439 91.74C52.8373 91.56 53.1773 91.47 53.5639 91.47C53.9639 91.47 54.3173 91.5567 54.6239 91.73C54.9306 91.9033 55.1706 92.1433 55.3439 92.45C55.5173 92.7567 55.6039 93.11 55.6039 93.51V97H54.4839V93.81C54.4839 93.5367 54.4339 93.3067 54.3339 93.12C54.2339 92.9267 54.0906 92.78 53.9039 92.68C53.7239 92.5733 53.5173 92.52 53.2839 92.52C53.0506 92.52 52.8406 92.5733 52.6539 92.68C52.4739 92.78 52.3339 92.9267 52.2339 93.12C52.1339 93.3133 52.0839 93.5433 52.0839 93.81V97H50.9539ZM59.4233 99.2C59.03 99.2 58.6667 99.1367 58.3333 99.01C58 98.8833 57.7133 98.7067 57.4733 98.48C57.2333 98.26 57.0533 98 56.9333 97.7L57.9733 97.27C58.0667 97.5233 58.2367 97.7333 58.4833 97.9C58.7367 98.0667 59.0467 98.15 59.4133 98.15C59.7 98.15 59.9567 98.0933 60.1833 97.98C60.41 97.8733 60.59 97.7133 60.7233 97.5C60.8567 97.2933 60.9233 97.0433 60.9233 96.75V95.53L61.1233 95.76C60.9367 96.1067 60.6767 96.37 60.3433 96.55C60.0167 96.73 59.6467 96.82 59.2333 96.82C58.7333 96.82 58.2833 96.7033 57.8833 96.47C57.4833 96.2367 57.1667 95.9167 56.9333 95.51C56.7067 95.1033 56.5933 94.6467 56.5933 94.14C56.5933 93.6267 56.7067 93.17 56.9333 92.77C57.1667 92.37 57.48 92.0533 57.8733 91.82C58.2667 91.5867 58.7167 91.47 59.2233 91.47C59.6367 91.47 60.0033 91.56 60.3233 91.74C60.65 91.9133 60.9167 92.1667 61.1233 92.5L60.9733 92.78V91.59H62.0433V96.75C62.0433 97.2167 61.93 97.6333 61.7033 98C61.4833 98.3733 61.1767 98.6667 60.7833 98.88C60.39 99.0933 59.9367 99.2 59.4233 99.2ZM59.3633 95.77C59.6633 95.77 59.93 95.7 60.1633 95.56C60.3967 95.4133 60.58 95.22 60.7133 94.98C60.8533 94.7333 60.9233 94.4567 60.9233 94.15C60.9233 93.8433 60.8533 93.5667 60.7133 93.32C60.5733 93.0733 60.3867 92.88 60.1533 92.74C59.92 92.5933 59.6567 92.52 59.3633 92.52C59.0567 92.52 58.7833 92.5933 58.5433 92.74C58.3033 92.88 58.1133 93.0733 57.9733 93.32C57.84 93.56 57.7733 93.8367 57.7733 94.15C57.7733 94.45 57.84 94.7233 57.9733 94.97C58.1133 95.2167 58.3033 95.4133 58.5433 95.56C58.7833 95.7 59.0567 95.77 59.3633 95.77Z" fill="#39A5CE"/>
<path d="M4.56422 6.74023C4.00587 6.74023 3.55347 7.19264 3.55347 7.75097C3.55347 8.30929 4.00587 8.76172 4.56422 8.76172H5.86873C6.42708 8.76172 6.87948 8.30929 6.87948 7.75097C6.87948 7.19264 6.42708 6.74023 5.86873 6.74023H4.56422Z" fill="#39A5CE"/>
<path d="M10.1543 6.74023C9.59598 6.74023 9.14355 7.19264 9.14355 7.75097C9.14355 8.30929 9.59598 8.76172 10.1543 8.76172H11.4588C12.0172 8.76172 12.4696 8.30929 12.4696 7.75097C12.4696 7.19264 12.0172 6.74023 11.4588 6.74023H10.1543Z" fill="#39A5CE"/>
<path d="M15.745 6.74023C15.1867 6.74023 14.7343 7.19264 14.7343 7.75097C14.7343 8.30929 15.1867 8.76172 15.745 8.76172H17.0494C17.6077 8.76172 18.0601 8.30929 18.0601 7.75097C18.0601 7.19264 17.6077 6.74023 17.0494 6.74023H15.745Z" fill="#39A5CE"/>
<path d="M39.7601 29.3305C39.3323 28.9717 38.6949 29.0273 38.3361 29.4547C38.2265 29.5852 38.1084 29.7072 37.985 29.8172C37.3498 30.3828 36.5451 30.6695 35.5934 30.6695C33.0724 30.6695 31.0215 28.6188 31.0215 26.0979C31.0215 23.5771 33.0724 21.5262 35.5934 21.5262C36.5096 21.5262 37.3932 21.7959 38.1488 22.3063C38.6115 22.6186 39.2398 22.4971 39.5521 22.0344C39.8645 21.5717 39.7429 20.9436 39.2802 20.6312C38.1892 19.894 36.9141 19.5046 35.5934 19.5046C31.9577 19.5046 29 22.4624 29 26.0979C29 29.7334 31.9577 32.691 35.5934 32.691C37.0351 32.691 38.327 32.2192 39.3297 31.3265C39.5257 31.1517 39.7125 30.9591 39.8845 30.7542C40.2433 30.3268 40.1875 29.6891 39.7601 29.3305Z" fill="#39A5CE"/>
<path d="M67.8012 48.0825L66.5568 47.3343C66.4914 47.2951 66.4365 47.2393 66.3983 47.1731L64.2138 43.3893V5.88342C64.2138 4.10424 62.7661 2.65674 60.9869 2.65674H45.3557C44.7974 2.65674 44.3449 3.10914 44.3449 3.66747C44.3449 4.2258 44.7974 4.67822 45.3557 4.67822H60.9869C61.6517 4.67822 62.1923 5.21889 62.1923 5.88342V10.8237H2.02148V5.88342C2.02148 5.21877 2.56217 4.67822 3.2267 4.67822H41.3142C41.8725 4.67822 42.325 4.2258 42.325 3.66747C42.325 3.10914 41.8725 2.65674 41.3142 2.65674H3.2267C1.44752 2.6566 0 4.10424 0 5.88342V46.0164C0 46.5747 0.452407 47.0272 1.01074 47.0272C1.56908 47.0272 2.02148 46.5747 2.02148 46.0164V12.8451H16.3432V55.5226H3.2267C2.56203 55.5226 2.02148 54.9819 2.02148 54.3173V50.0576C2.02148 49.4993 1.56908 49.0469 1.01074 49.0469C0.452407 49.0469 0 49.4993 0 50.0576V54.3173C0 56.0965 1.44752 57.5442 3.2267 57.5442H40.8401L42.739 60.8329C42.7768 60.8987 42.7977 60.974 42.7989 61.0503L42.8246 62.5023C42.8399 63.3648 43.3135 64.1687 44.0606 64.6001L46.509 66.0136C47.2559 66.445 48.1888 66.4532 48.9435 66.0351L50.2141 65.3311C50.2809 65.2942 50.3564 65.2747 50.4325 65.2747H55.947C56.0231 65.2747 56.099 65.2942 56.1656 65.3313L57.436 66.0351C57.8066 66.2403 58.2202 66.3428 58.6338 66.3428C59.0622 66.3428 59.4904 66.233 59.8705 66.0136L62.319 64.6001C63.0662 64.1685 63.5399 63.3648 63.5549 62.5023L63.5805 61.0503C63.5819 60.974 63.6028 60.8989 63.6409 60.8327L66.3983 56.0569C66.4364 55.9911 66.4912 55.9353 66.5562 55.896L67.8008 55.1479C68.5403 54.7037 68.9996 53.8917 68.9996 53.0286V50.2016C68.9998 49.3389 68.5406 48.5268 67.8012 48.0825ZM18.3646 12.8451H62.1923V38.5569L59.8705 37.2166C59.1231 36.785 58.1903 36.7769 57.436 37.1951L56.1662 37.8987C56.0992 37.9357 56.0233 37.9554 55.947 37.9554H50.4327C50.3564 37.9554 50.2807 37.9357 50.2141 37.8991L48.9439 37.1953C48.1894 36.7769 47.2563 36.7854 46.5092 37.2166L44.0608 38.6301C43.3139 39.0614 42.8401 39.8652 42.8249 40.7277L42.7993 42.1798C42.7979 42.2561 42.7772 42.3314 42.739 42.3973L39.9819 47.1729C39.9437 47.2389 39.8889 47.2947 39.8234 47.3341L38.5787 48.0823C37.8396 48.5268 37.3801 49.3389 37.3801 50.2016V53.0288C37.3801 53.8915 37.8394 54.7037 38.5789 55.1479L39.202 55.5226H18.3646V12.8451ZM66.9783 53.0288C66.9783 53.1861 66.8947 53.3344 66.7597 53.4154L65.5147 54.1637C65.1563 54.3794 64.8564 54.6848 64.6477 55.0465L61.8906 59.8219C61.6813 60.1843 61.5669 60.5967 61.5594 61.0149L61.5338 62.467C61.531 62.6243 61.4447 62.771 61.3085 62.8497L58.86 64.2632C58.7237 64.3418 58.5536 64.3436 58.4158 64.2671L57.1454 63.5633C56.7795 63.3606 56.3651 63.2534 55.947 63.2534H50.4327C50.0144 63.2534 49.6 63.3606 49.2343 63.5633L47.9639 64.2671C47.8263 64.3436 47.6559 64.3418 47.5197 64.2632L45.0712 62.8497C44.935 62.771 44.8486 62.6241 44.8459 62.4668L44.8202 61.015C44.8127 60.5967 44.6986 60.1843 44.4894 59.8221L41.732 55.0465C41.523 54.6844 41.2234 54.3794 40.8648 54.1635L39.6198 53.4152C39.4851 53.3344 39.4014 53.1861 39.4014 53.0288V50.2016C39.4014 50.044 39.4851 49.8958 39.62 49.8148L40.8649 49.0664C41.2232 48.8509 41.523 48.5458 41.7322 48.1836L44.4892 43.4082C44.6986 43.0461 44.8127 42.6336 44.8202 42.2155L44.8459 40.7635C44.8486 40.606 44.935 40.4594 45.0712 40.3805L47.5197 38.967C47.6559 38.8885 47.8261 38.8867 47.9639 38.9632L49.2347 39.6672C49.6004 39.8699 50.0145 39.9767 50.4327 39.9767H55.947C56.3649 39.9767 56.7791 39.8699 57.1454 39.6672L58.416 38.963C58.5536 38.8869 58.7237 38.8885 58.86 38.967L61.3085 40.3805C61.4447 40.4594 61.531 40.6058 61.5338 40.7635L61.5594 42.2153C61.5669 42.6334 61.6813 43.0459 61.8904 43.408L64.6475 48.1834C64.8564 48.5456 65.1563 48.8509 65.5149 49.0666L66.7597 49.8148C66.8945 49.8962 66.9783 50.044 66.9783 50.2016V53.0288Z" fill="#39A5CE"/>
<path d="M53.1902 42.2512C48.027 42.2512 43.8263 46.4519 43.8263 51.6151C43.8263 56.7785 48.027 60.9792 53.1902 60.9792C55.4658 60.9792 57.6604 60.1512 59.37 58.6476C59.7891 58.2791 59.8302 57.6404 59.4615 57.2213C59.0928 56.8021 58.4541 56.7609 58.035 57.1296C56.6946 58.3085 54.9739 58.9577 53.1902 58.9577C49.1417 58.9577 45.8478 55.6638 45.8478 51.6151C45.8478 47.5664 49.1417 44.2725 53.1902 44.2725C57.2389 44.2725 60.5328 47.5664 60.5328 51.6151C60.5328 52.5062 60.3737 53.3791 60.0598 54.2095C59.8623 54.7317 60.1257 55.3151 60.6479 55.5124C61.1699 55.7096 61.7535 55.4466 61.9506 54.9242C62.3512 53.8645 62.5543 52.751 62.5543 51.6151C62.5543 46.4519 58.3536 42.2512 53.1902 42.2512Z" fill="#39A5CE"/>
<path d="M6.73436 19.052H11.6309C12.1893 19.052 12.6417 18.5996 12.6417 18.0413C12.6417 17.4829 12.1893 17.0305 11.6309 17.0305H6.73436C6.17604 17.0305 5.72363 17.4829 5.72363 18.0413C5.72363 18.5996 6.17604 19.052 6.73436 19.052Z" fill="#39A5CE"/>
<path d="M6.73436 25.2588H11.6309C12.1893 25.2588 12.6417 24.8064 12.6417 24.2481C12.6417 23.6897 12.1893 23.2373 11.6309 23.2373H6.73436C6.17604 23.2373 5.72363 23.6897 5.72363 24.2481C5.72363 24.8064 6.17604 25.2588 6.73436 25.2588Z" fill="#39A5CE"/>
<path d="M6.73436 31.4656H11.6309C12.1893 31.4656 12.6417 31.0132 12.6417 30.4548C12.6417 29.8965 12.1893 29.4441 11.6309 29.4441H6.73436C6.17604 29.4441 5.72363 29.8965 5.72363 30.4548C5.72363 31.0132 6.17604 31.4656 6.73436 31.4656Z" fill="#39A5CE"/>
<path d="M6.73436 37.6723H11.6309C12.1893 37.6723 12.6417 37.2198 12.6417 36.6615C12.6417 36.1032 12.1893 35.6508 11.6309 35.6508H6.73436C6.17604 35.6508 5.72363 36.1032 5.72363 36.6615C5.72363 37.2198 6.17604 37.6723 6.73436 37.6723Z" fill="#39A5CE"/>
<path d="M6.73436 43.8789H11.6309C12.1893 43.8789 12.6417 43.4266 12.6417 42.8683C12.6417 42.3098 12.1893 41.8575 11.6309 41.8575H6.73436C6.17604 41.8575 5.72363 42.3098 5.72363 42.8683C5.72363 43.4266 6.17604 43.8789 6.73436 43.8789Z" fill="#39A5CE"/>
</svg>
