<svg width="63" height="107" viewBox="0 0 63 107" fill="none" xmlns="http://www.w3.org/2000/svg">
<path d="M13.16 95.8536L11.11 88.4036H12.36L14.02 94.8536H13.71L15.43 88.4036H16.66L18.38 94.8536H18.06L19.73 88.4036H20.97L18.93 95.8536H17.6L15.87 89.5036H16.22L14.48 95.8536H13.16ZM23.9266 95.9736C23.3866 95.9736 22.9066 95.8503 22.4866 95.6036C22.0732 95.3503 21.7499 95.0103 21.5166 94.5836C21.2832 94.1503 21.1666 93.667 21.1666 93.1336C21.1666 92.587 21.2832 92.1036 21.5166 91.6836C21.7566 91.2636 22.0766 90.9336 22.4766 90.6936C22.8766 90.447 23.3299 90.3236 23.8366 90.3236C24.2432 90.3236 24.6066 90.3936 24.9266 90.5336C25.2466 90.6736 25.5166 90.867 25.7366 91.1136C25.9566 91.3536 26.1232 91.6303 26.2366 91.9436C26.3566 92.257 26.4166 92.5903 26.4166 92.9436C26.4166 93.0303 26.4132 93.1203 26.4066 93.2136C26.3999 93.307 26.3866 93.3936 26.3666 93.4736H22.0566V92.5736H25.7266L25.1866 92.9836C25.2532 92.657 25.2299 92.367 25.1166 92.1136C25.0099 91.8536 24.8432 91.6503 24.6166 91.5036C24.3966 91.3503 24.1366 91.2736 23.8366 91.2736C23.5366 91.2736 23.2699 91.3503 23.0366 91.5036C22.8032 91.6503 22.6232 91.8636 22.4966 92.1436C22.3699 92.417 22.3199 92.7503 22.3466 93.1436C22.3132 93.5103 22.3632 93.8303 22.4966 94.1036C22.6366 94.377 22.8299 94.5903 23.0766 94.7436C23.3299 94.897 23.6166 94.9736 23.9366 94.9736C24.2632 94.9736 24.5399 94.9003 24.7666 94.7536C24.9999 94.607 25.1832 94.417 25.3166 94.1836L26.2366 94.6336C26.1299 94.887 25.9632 95.117 25.7366 95.3236C25.5166 95.5236 25.2499 95.6836 24.9366 95.8036C24.6299 95.917 24.2932 95.9736 23.9266 95.9736ZM30.4094 95.9736C29.9894 95.9736 29.606 95.887 29.2594 95.7136C28.9194 95.5403 28.656 95.2903 28.4694 94.9636L28.5994 94.7536V95.8536H27.5194V88.2836H28.6494V91.5636L28.4694 91.3036C28.6694 90.997 28.936 90.757 29.2694 90.5836C29.6027 90.4103 29.9827 90.3236 30.4094 90.3236C30.9227 90.3236 31.3827 90.447 31.7894 90.6936C32.2027 90.9403 32.526 91.277 32.7594 91.7036C32.9994 92.1303 33.1194 92.6103 33.1194 93.1436C33.1194 93.677 32.9994 94.157 32.7594 94.5836C32.526 95.0103 32.206 95.3503 31.7994 95.6036C31.3927 95.8503 30.9294 95.9736 30.4094 95.9736ZM30.2994 94.9236C30.6194 94.9236 30.9027 94.847 31.1494 94.6936C31.396 94.5403 31.5894 94.3303 31.7294 94.0636C31.876 93.7903 31.9494 93.4836 31.9494 93.1436C31.9494 92.8036 31.876 92.5003 31.7294 92.2336C31.5894 91.967 31.396 91.757 31.1494 91.6036C30.9027 91.4503 30.6194 91.3736 30.2994 91.3736C29.986 91.3736 29.7027 91.4503 29.4494 91.6036C29.2027 91.757 29.006 91.967 28.8594 92.2336C28.7194 92.5003 28.6494 92.8036 28.6494 93.1436C28.6494 93.4836 28.7194 93.7903 28.8594 94.0636C29.006 94.3303 29.2027 94.5403 29.4494 94.6936C29.7027 94.847 29.986 94.9236 30.2994 94.9236ZM36.2186 95.9736C35.6653 95.9736 35.1786 95.837 34.7586 95.5636C34.3453 95.2903 34.0553 94.9236 33.8886 94.4636L34.7586 94.0536C34.9053 94.3603 35.1053 94.6036 35.3586 94.7836C35.6186 94.9636 35.9053 95.0536 36.2186 95.0536C36.4853 95.0536 36.7019 94.9936 36.8686 94.8736C37.0353 94.7536 37.1186 94.5903 37.1186 94.3836C37.1186 94.2503 37.0819 94.1436 37.0086 94.0636C36.9353 93.977 36.8419 93.907 36.7286 93.8536C36.6219 93.8003 36.5119 93.7603 36.3986 93.7336L35.5486 93.4936C35.0819 93.3603 34.7319 93.1603 34.4986 92.8936C34.2719 92.6203 34.1586 92.3036 34.1586 91.9436C34.1586 91.617 34.2419 91.3336 34.4086 91.0936C34.5753 90.847 34.8053 90.657 35.0986 90.5236C35.3919 90.3903 35.7219 90.3236 36.0886 90.3236C36.5819 90.3236 37.0219 90.447 37.4086 90.6936C37.7953 90.9336 38.0686 91.2703 38.2286 91.7036L37.3586 92.1136C37.2519 91.8536 37.0819 91.647 36.8486 91.4936C36.6219 91.3403 36.3653 91.2636 36.0786 91.2636C35.8319 91.2636 35.6353 91.3236 35.4886 91.4436C35.3419 91.557 35.2686 91.707 35.2686 91.8936C35.2686 92.0203 35.3019 92.127 35.3686 92.2136C35.4353 92.2936 35.5219 92.3603 35.6286 92.4136C35.7353 92.4603 35.8453 92.5003 35.9586 92.5336L36.8386 92.7936C37.2853 92.9203 37.6286 93.1203 37.8686 93.3936C38.1086 93.6603 38.2286 93.9803 38.2286 94.3536C38.2286 94.6736 38.1419 94.957 37.9686 95.2036C37.8019 95.4436 37.5686 95.6336 37.2686 95.7736C36.9686 95.907 36.6186 95.9736 36.2186 95.9736ZM39.3358 95.8536V90.4436H40.4658V95.8536H39.3358ZM39.3358 89.7036V88.4036H40.4658V89.7036H39.3358ZM44.127 95.9136C43.5603 95.9136 43.1203 95.7536 42.807 95.4336C42.4936 95.1136 42.337 94.6636 42.337 94.0836V91.4636H41.387V90.4436H41.537C41.7903 90.4436 41.987 90.3703 42.127 90.2236C42.267 90.077 42.337 89.877 42.337 89.6236V89.2036H43.467V90.4436H44.697V91.4636H43.467V94.0336C43.467 94.2203 43.497 94.3803 43.557 94.5136C43.617 94.6403 43.7136 94.7403 43.847 94.8136C43.9803 94.8803 44.1536 94.9136 44.367 94.9136C44.4203 94.9136 44.4803 94.9103 44.547 94.9036C44.6136 94.897 44.677 94.8903 44.737 94.8836V95.8536C44.6436 95.867 44.5403 95.8803 44.427 95.8936C44.3136 95.907 44.2136 95.9136 44.127 95.9136ZM48.282 95.9736C47.742 95.9736 47.262 95.8503 46.842 95.6036C46.4287 95.3503 46.1054 95.0103 45.872 94.5836C45.6387 94.1503 45.522 93.667 45.522 93.1336C45.522 92.587 45.6387 92.1036 45.872 91.6836C46.112 91.2636 46.432 90.9336 46.832 90.6936C47.232 90.447 47.6854 90.3236 48.192 90.3236C48.5987 90.3236 48.962 90.3936 49.282 90.5336C49.602 90.6736 49.872 90.867 50.092 91.1136C50.312 91.3536 50.4787 91.6303 50.592 91.9436C50.712 92.257 50.772 92.5903 50.772 92.9436C50.772 93.0303 50.7687 93.1203 50.762 93.2136C50.7554 93.307 50.742 93.3936 50.722 93.4736H46.412V92.5736H50.082L49.542 92.9836C49.6087 92.657 49.5854 92.367 49.472 92.1136C49.3654 91.8536 49.1987 91.6503 48.972 91.5036C48.752 91.3503 48.492 91.2736 48.192 91.2736C47.892 91.2736 47.6254 91.3503 47.392 91.5036C47.1587 91.6503 46.9787 91.8636 46.852 92.1436C46.7254 92.417 46.6754 92.7503 46.702 93.1436C46.6687 93.5103 46.7187 93.8303 46.852 94.1036C46.992 94.377 47.1854 94.5903 47.432 94.7436C47.6854 94.897 47.972 94.9736 48.292 94.9736C48.6187 94.9736 48.8954 94.9003 49.122 94.7536C49.3554 94.607 49.5387 94.417 49.672 94.1836L50.592 94.6336C50.4854 94.887 50.3187 95.117 50.092 95.3236C49.872 95.5236 49.6054 95.6836 49.292 95.8036C48.9854 95.917 48.6487 95.9736 48.282 95.9736Z" fill="#EC9B00"/>
<g clip-path="url(#clip0_51_36086)">
<mask id="mask0_51_36086" style="mask-type:luminance" maskUnits="userSpaceOnUse" x="-1" y="1" width="65" height="63">
<path d="M63.2423 1.29907H-0.242432V64H63.2423V1.29907Z" fill="white"/>
</mask>
<g mask="url(#mask0_51_36086)">
<path d="M60.0681 1.29907H2.9318C2.09023 1.30002 1.28342 1.63063 0.688343 2.21835C0.0932683 2.80609 -0.241469 3.60295 -0.242432 4.43411V50.4149C-0.241469 51.2459 0.0932683 52.0429 0.688343 52.6305C1.28342 53.2183 2.09023 53.5488 2.9318 53.5499H24.7874L22.248 61.9099H18.803V64H44.1969V61.9099H40.7518L38.2124 53.5499H60.0681C60.9097 53.5488 61.7165 53.2183 62.3116 52.6305C62.9065 52.0429 63.2414 51.2459 63.2423 50.4149V4.43411C63.2414 3.60295 62.9065 2.80609 62.3116 2.21835C61.7165 1.63063 60.9097 1.30002 60.0681 1.29907ZM38.5426 61.9099H24.4575L26.9969 53.5499H36.003L38.5426 61.9099ZM61.1261 50.4149C61.1259 50.6918 61.0142 50.9575 60.8159 51.1535C60.6175 51.3493 60.3487 51.4595 60.0681 51.4598H2.9318C2.65127 51.4595 2.38233 51.3493 2.18399 51.1535C1.98563 50.9575 1.87404 50.6918 1.87373 50.4149V47.2798H61.1261V50.4149ZM61.1261 45.1897H1.87373V4.43411C1.87404 4.15707 1.98563 3.89145 2.18399 3.69553C2.38233 3.49962 2.65127 3.38943 2.9318 3.3891H60.0681C60.3487 3.38943 60.6175 3.49962 60.8159 3.69553C61.0142 3.89145 61.1259 4.15707 61.1261 4.43411V45.1897Z" fill="#EC9B00"/>
<path d="M55.8363 19.0643H41.8997C41.7608 19.0647 41.6231 19.0378 41.4947 18.9853C41.3661 18.9327 41.2497 18.8556 41.1515 18.7582L38.1589 15.8025C37.8648 15.5105 37.5151 15.279 37.1299 15.1214C36.7446 14.9637 36.3314 14.8832 35.9144 14.8843H24.0939C23.2525 14.8852 22.4457 15.2159 21.8505 15.8036C21.2554 16.3913 20.9208 17.1882 20.9197 18.0194V39.9647C20.9208 40.7958 21.2554 41.5926 21.8505 42.1804C22.4457 42.7682 23.2525 43.0987 24.0939 43.0998H55.8363C56.6779 43.0987 57.4847 42.7682 58.0798 42.1804C58.6749 41.5926 59.0096 40.7958 59.0105 39.9647V22.1994C59.0096 21.3682 58.6749 20.5713 58.0798 19.9837C57.4847 19.3959 56.6779 19.0652 55.8363 19.0643ZM56.8945 39.9647C56.8941 40.2417 56.7826 40.5074 56.5841 40.7033C56.3859 40.8991 56.1169 41.0093 55.8363 41.0097H24.0939C23.8135 41.0093 23.5445 40.8991 23.3462 40.7033C23.1478 40.5074 23.0363 40.2417 23.0359 39.9647V18.0194C23.0363 17.7423 23.1478 17.4767 23.3462 17.2808C23.5445 17.0848 23.8135 16.9746 24.0939 16.9743H35.9144C36.0533 16.974 36.1912 17.0008 36.3196 17.0534C36.448 17.1059 36.5647 17.1831 36.6626 17.2805L39.6553 20.2361C39.9493 20.5281 40.2992 20.7598 40.6845 20.9172C41.0697 21.0749 41.4827 21.1555 41.8997 21.1544H55.8363C56.1169 21.1546 56.3859 21.265 56.5841 21.4608C56.7826 21.6568 56.8941 21.9223 56.8945 22.1994V39.9647Z" fill="#EC9B00"/>
<path d="M32.8673 24.5955L26.8289 30.5594L32.8673 36.5235L34.3638 35.0456L29.8215 30.5594L34.3638 26.0732L32.8673 24.5955Z" fill="#EC9B00"/>
<path d="M36.9324 35.2957L42.2266 25.8922L44.076 26.908L38.7818 36.3113L36.9324 35.2957Z" fill="#EC9B00"/>
<path d="M45.5649 26.0732L50.1072 30.5594L45.5649 35.0456L47.0612 36.5235L53.0997 30.5594L47.0612 24.5955L45.5649 26.0732Z" fill="#EC9B00"/>
<path d="M24.4628 7.56904L26.1761 11.5165L29.9549 13.0628L33.9992 11.4667L36.0915 13.5331L37.5878 12.0552L34.5093 9.01457L29.9694 10.8064L27.7819 9.91119L25.858 5.479H20.2124L18.2886 9.91119L16.1009 10.8064L11.5611 9.01457L7.56963 12.9569L9.3837 17.4407L8.47732 19.6013L3.98975 21.5013V27.0772L8.47719 28.9774L9.3837 31.1379L7.56949 35.6218L11.561 39.564L16.1009 37.7722L18.3978 38.7122L19.208 36.7814L16.1155 35.5157L12.0711 37.1119L10.0523 35.118L11.6684 31.1236L10.1025 27.3914L6.10591 25.6992V22.8793L10.1027 21.1871L11.6684 17.455L10.0523 13.4606L12.0712 11.4667L16.1155 13.0628L19.8942 11.5165L21.6076 7.56904H24.4628Z" fill="#EC9B00"/>
<path d="M19.2732 16.7979L18.3315 14.9263C16.5663 15.7918 15.0809 17.1269 14.0425 18.7811C13.0041 20.4354 12.4539 22.3433 12.4539 24.2895C12.4539 26.2359 13.0041 28.1436 14.0425 29.798C15.0809 31.4523 16.5663 32.7873 18.3315 33.6529L19.2732 31.7812C17.8608 31.0888 16.6722 30.0205 15.8412 28.697C15.0103 27.3735 14.57 25.847 14.57 24.2895C14.57 22.7322 15.0103 21.2057 15.8412 19.8822C16.6722 18.5586 17.8608 17.4904 19.2732 16.7979Z" fill="#EC9B00"/>
</g>
</g>
<defs>
<clipPath id="clip0_51_36086">
<rect width="63" height="64" fill="white"/>
</clipPath>
</defs>
</svg>
