<svg width="60" height="107" viewBox="0 0 60 107" fill="none" xmlns="http://www.w3.org/2000/svg">
<path d="M1.46742 95.1219L4.08742 87.6719H5.54742L8.16742 95.1219H6.90742L6.33742 93.4519H3.30742L2.72742 95.1219H1.46742ZM3.64742 92.4019H5.97742L4.65742 88.5019H4.98742L3.64742 92.4019ZM8.94125 97.1219V89.7119H10.0213V90.8319L9.89125 90.5719C10.0913 90.2653 10.3579 90.0253 10.6913 89.8519C11.0246 89.6786 11.4046 89.5919 11.8313 89.5919C12.3446 89.5919 12.8046 89.7153 13.2113 89.9619C13.6246 90.2086 13.9479 90.5453 14.1813 90.9719C14.4213 91.3986 14.5413 91.8786 14.5413 92.4119C14.5413 92.9453 14.4213 93.4253 14.1813 93.8519C13.9479 94.2786 13.6279 94.6186 13.2213 94.8719C12.8146 95.1186 12.3513 95.2419 11.8313 95.2419C11.4113 95.2419 11.0279 95.1553 10.6813 94.9819C10.3413 94.8086 10.0779 94.5586 9.89125 94.2319L10.0713 94.0219V97.1219H8.94125ZM11.7213 94.1919C12.0413 94.1919 12.3246 94.1153 12.5713 93.9619C12.8179 93.8086 13.0113 93.5986 13.1513 93.3319C13.2979 93.0586 13.3713 92.7519 13.3713 92.4119C13.3713 92.0719 13.2979 91.7686 13.1513 91.5019C13.0113 91.2353 12.8179 91.0253 12.5713 90.8719C12.3246 90.7186 12.0413 90.6419 11.7213 90.6419C11.4079 90.6419 11.1246 90.7186 10.8713 90.8719C10.6246 91.0253 10.4279 91.2353 10.2813 91.5019C10.1413 91.7686 10.0713 92.0719 10.0713 92.4119C10.0713 92.7519 10.1413 93.0586 10.2813 93.3319C10.4279 93.5986 10.6246 93.8086 10.8713 93.9619C11.1246 94.1153 11.4079 94.1919 11.7213 94.1919ZM15.6405 97.1219V89.7119H16.7205V90.8319L16.5905 90.5719C16.7905 90.2653 17.0571 90.0253 17.3905 89.8519C17.7238 89.6786 18.1038 89.5919 18.5305 89.5919C19.0438 89.5919 19.5038 89.7153 19.9105 89.9619C20.3238 90.2086 20.6471 90.5453 20.8805 90.9719C21.1205 91.3986 21.2405 91.8786 21.2405 92.4119C21.2405 92.9453 21.1205 93.4253 20.8805 93.8519C20.6471 94.2786 20.3271 94.6186 19.9205 94.8719C19.5138 95.1186 19.0505 95.2419 18.5305 95.2419C18.1105 95.2419 17.7271 95.1553 17.3805 94.9819C17.0405 94.8086 16.7771 94.5586 16.5905 94.2319L16.7705 94.0219V97.1219H15.6405ZM18.4205 94.1919C18.7405 94.1919 19.0238 94.1153 19.2705 93.9619C19.5171 93.8086 19.7105 93.5986 19.8505 93.3319C19.9971 93.0586 20.0705 92.7519 20.0705 92.4119C20.0705 92.0719 19.9971 91.7686 19.8505 91.5019C19.7105 91.2353 19.5171 91.0253 19.2705 90.8719C19.0238 90.7186 18.7405 90.6419 18.4205 90.6419C18.1071 90.6419 17.8238 90.7186 17.5705 90.8719C17.3238 91.0253 17.1271 91.2353 16.9805 91.5019C16.8405 91.7686 16.7705 92.0719 16.7705 92.4119C16.7705 92.7519 16.8405 93.0586 16.9805 93.3319C17.1271 93.5986 17.3238 93.8086 17.5705 93.9619C17.8238 94.1153 18.1071 94.1919 18.4205 94.1919ZM22.3397 95.1219V87.5519H23.4697V95.1219H22.3397ZM24.7909 95.1219V89.7119H25.9209V95.1219H24.7909ZM24.7909 88.9719V87.6719H25.9209V88.9719H24.7909ZM29.812 95.2419C29.272 95.2419 28.792 95.1186 28.372 94.8719C27.9587 94.6186 27.6287 94.2786 27.382 93.8519C27.142 93.4253 27.022 92.9419 27.022 92.4019C27.022 91.8686 27.142 91.3886 27.382 90.9619C27.622 90.5353 27.952 90.2019 28.372 89.9619C28.792 89.7153 29.272 89.5919 29.812 89.5919C30.1787 89.5919 30.522 89.6586 30.842 89.7919C31.162 89.9186 31.4387 90.0953 31.672 90.3219C31.912 90.5486 32.0887 90.8119 32.202 91.1119L31.212 91.5719C31.0987 91.2919 30.9154 91.0686 30.662 90.9019C30.4154 90.7286 30.132 90.6419 29.812 90.6419C29.5054 90.6419 29.2287 90.7186 28.982 90.8719C28.742 91.0186 28.552 91.2286 28.412 91.5019C28.272 91.7686 28.202 92.0719 28.202 92.4119C28.202 92.7519 28.272 93.0586 28.412 93.3319C28.552 93.5986 28.742 93.8086 28.982 93.9619C29.2287 94.1153 29.5054 94.1919 29.812 94.1919C30.1387 94.1919 30.422 94.1086 30.662 93.9419C30.9087 93.7686 31.092 93.5386 31.212 93.2519L32.202 93.7219C32.0954 94.0086 31.922 94.2686 31.682 94.5019C31.4487 94.7286 31.172 94.9086 30.852 95.0419C30.532 95.1753 30.1854 95.2419 29.812 95.2419ZM34.8777 95.2419C34.511 95.2419 34.1877 95.1786 33.9077 95.0519C33.6343 94.9186 33.421 94.7386 33.2677 94.5119C33.1143 94.2786 33.0377 94.0053 33.0377 93.6919C33.0377 93.3986 33.101 93.1353 33.2277 92.9019C33.361 92.6686 33.5643 92.4719 33.8377 92.3119C34.111 92.1519 34.4543 92.0386 34.8677 91.9719L36.7477 91.6619V92.5519L35.0877 92.8419C34.7877 92.8953 34.5677 92.9919 34.4277 93.1319C34.2877 93.2653 34.2177 93.4386 34.2177 93.6519C34.2177 93.8586 34.2943 94.0286 34.4477 94.1619C34.6077 94.2886 34.811 94.3519 35.0577 94.3519C35.3643 94.3519 35.631 94.2853 35.8577 94.1519C36.091 94.0186 36.271 93.8419 36.3977 93.6219C36.5243 93.3953 36.5877 93.1453 36.5877 92.8719V91.4819C36.5877 91.2153 36.4877 90.9986 36.2877 90.8319C36.0943 90.6586 35.8343 90.5719 35.5077 90.5719C35.2077 90.5719 34.9443 90.6519 34.7177 90.8119C34.4977 90.9653 34.3343 91.1653 34.2277 91.4119L33.2877 90.9419C33.3877 90.6753 33.551 90.4419 33.7777 90.2419C34.0043 90.0353 34.2677 89.8753 34.5677 89.7619C34.8743 89.6486 35.1977 89.5919 35.5377 89.5919C35.9643 89.5919 36.341 89.6719 36.6677 89.8319C37.001 89.9919 37.2577 90.2153 37.4377 90.5019C37.6243 90.7819 37.7177 91.1086 37.7177 91.4819V95.1219H36.6377V94.1419L36.8677 94.1719C36.741 94.3919 36.5777 94.5819 36.3777 94.7419C36.1843 94.9019 35.961 95.0253 35.7077 95.1119C35.461 95.1986 35.1843 95.2419 34.8777 95.2419ZM41.2813 95.1819C40.7146 95.1819 40.2746 95.0219 39.9613 94.7019C39.6479 94.3819 39.4913 93.9319 39.4913 93.3519V90.7319H38.5413V89.7119H38.6913C38.9446 89.7119 39.1413 89.6386 39.2813 89.4919C39.4213 89.3453 39.4913 89.1453 39.4913 88.8919V88.4719H40.6213V89.7119H41.8513V90.7319H40.6213V93.3019C40.6213 93.4886 40.6513 93.6486 40.7113 93.7819C40.7713 93.9086 40.8679 94.0086 41.0013 94.0819C41.1346 94.1486 41.3079 94.1819 41.5213 94.1819C41.5746 94.1819 41.6346 94.1786 41.7013 94.1719C41.7679 94.1653 41.8313 94.1586 41.8913 94.1519V95.1219C41.7979 95.1353 41.6946 95.1486 41.5813 95.1619C41.4679 95.1753 41.3679 95.1819 41.2813 95.1819ZM42.994 95.1219V89.7119H44.124V95.1219H42.994ZM42.994 88.9719V87.6719H44.124V88.9719H42.994ZM48.0552 95.2419C47.5352 95.2419 47.0585 95.1186 46.6252 94.8719C46.1985 94.6253 45.8585 94.2886 45.6052 93.8619C45.3518 93.4353 45.2252 92.9519 45.2252 92.4119C45.2252 91.8653 45.3518 91.3819 45.6052 90.9619C45.8585 90.5353 46.1985 90.2019 46.6252 89.9619C47.0518 89.7153 47.5285 89.5919 48.0552 89.5919C48.5885 89.5919 49.0652 89.7153 49.4852 89.9619C49.9118 90.2019 50.2485 90.5353 50.4952 90.9619C50.7485 91.3819 50.8752 91.8653 50.8752 92.4119C50.8752 92.9586 50.7485 93.4453 50.4952 93.8719C50.2418 94.2986 49.9018 94.6353 49.4752 94.8819C49.0485 95.1219 48.5752 95.2419 48.0552 95.2419ZM48.0552 94.1919C48.3752 94.1919 48.6585 94.1153 48.9052 93.9619C49.1518 93.8086 49.3452 93.5986 49.4852 93.3319C49.6318 93.0586 49.7052 92.7519 49.7052 92.4119C49.7052 92.0719 49.6318 91.7686 49.4852 91.5019C49.3452 91.2353 49.1518 91.0253 48.9052 90.8719C48.6585 90.7186 48.3752 90.6419 48.0552 90.6419C47.7418 90.6419 47.4585 90.7186 47.2052 90.8719C46.9585 91.0253 46.7618 91.2353 46.6152 91.5019C46.4752 91.7686 46.4052 92.0719 46.4052 92.4119C46.4052 92.7519 46.4752 93.0586 46.6152 93.3319C46.7618 93.5986 46.9585 93.8086 47.2052 93.9619C47.4585 94.1153 47.7418 94.1919 48.0552 94.1919ZM51.9784 95.1219V89.7119H53.0584V90.7719L52.9284 90.6319C53.0617 90.2919 53.275 90.0353 53.5684 89.8619C53.8617 89.6819 54.2017 89.5919 54.5884 89.5919C54.9884 89.5919 55.3417 89.6786 55.6484 89.8519C55.955 90.0253 56.195 90.2653 56.3684 90.5719C56.5417 90.8786 56.6284 91.2319 56.6284 91.6319V95.1219H55.5084V91.9319C55.5084 91.6586 55.4584 91.4286 55.3584 91.2419C55.2584 91.0486 55.115 90.9019 54.9284 90.8019C54.7484 90.6953 54.5417 90.6419 54.3084 90.6419C54.075 90.6419 53.865 90.6953 53.6784 90.8019C53.4984 90.9019 53.3584 91.0486 53.2584 91.2419C53.1584 91.4353 53.1084 91.6653 53.1084 91.9319V95.1219H51.9784Z" fill="#6471D7"/>
<g clip-path="url(#clip0_51_36102)">
<path d="M17.1318 59.1308H19.1706C19.6857 59.1308 20.1032 58.7163 20.1032 58.2048C20.1032 57.6934 19.6857 57.2787 19.1706 57.2787H17.1318C16.6167 57.2787 16.1992 57.6934 16.1992 58.2048C16.1992 58.7163 16.6167 59.1308 17.1318 59.1308Z" fill="#6471D7"/>
<path d="M57.6787 27.6938H53.4686C53.0431 26.1091 52.4095 24.5939 51.5782 23.1729L54.5529 20.2246C54.8913 19.889 55.0776 19.4428 55.0776 18.968C55.0776 18.4929 54.8913 18.0467 54.5527 17.7113L50.2275 13.4242C49.5309 12.7339 48.3978 12.7336 47.7013 13.4242L44.7226 16.3766C43.2882 15.5518 41.7586 14.9233 40.1591 14.5016V10.3321C40.1591 9.35312 39.3569 8.55664 38.3709 8.55664H35.7682V5.45605C35.7682 2.94542 33.7113 0.902832 31.1831 0.902832H5.11824C2.59008 0.902832 0.533203 2.94542 0.533203 5.45605V11.5322C0.533203 12.0437 0.950692 12.4583 1.46575 12.4583C1.98081 12.4583 2.3983 12.0437 2.3983 11.5322V5.45605C2.3983 3.96664 3.61857 2.75497 5.11824 2.75497H31.1831C32.6827 2.75497 33.9031 3.96664 33.9031 5.45605V52.3122H2.3983V15.7907C2.3983 15.2792 1.98081 14.8646 1.46575 14.8646C0.950692 14.8646 0.533203 15.2792 0.533203 15.7907V59.544C0.533203 62.0546 2.59008 64.0973 5.11824 64.0973H31.1831C33.7113 64.0973 35.7682 62.0546 35.7682 59.544V56.4435H38.3709C39.3569 56.4435 40.1591 55.6471 40.1591 54.6681V50.4986C41.7586 50.077 43.2882 49.4484 44.7226 48.6237L47.7013 51.5759C48.3978 52.2662 49.5311 52.2664 50.2273 51.5759L54.5529 47.289C54.8913 46.9535 55.0776 46.5072 55.0776 46.0323C55.0776 45.5573 54.8913 45.1111 54.5527 44.7757L51.5782 41.8274C52.4095 40.4066 53.0431 38.8914 53.4686 37.3064H57.6787C58.6646 37.3064 59.4665 36.51 59.4665 35.531V29.4696C59.4665 28.4905 58.6646 27.6938 57.6787 27.6938ZM33.9031 59.544C33.9031 61.0334 32.6827 62.2451 31.1831 62.2451H5.11824C3.61844 62.2451 2.3983 61.0334 2.3983 59.544V54.1644H33.9031V59.544ZM57.6013 35.4541H52.7371C52.3007 35.4541 51.9227 35.7547 51.8273 36.1776C51.4025 38.059 50.6578 39.8402 49.6136 41.4715C49.3791 41.838 49.4324 42.317 49.7418 42.6238L53.1806 46.032L48.9646 50.2109L45.5233 46.8002C45.2149 46.4944 44.7344 46.4417 44.3656 46.6733C42.7191 47.7086 40.9218 48.4471 39.0235 48.8678C38.5973 48.9622 38.294 49.3379 38.294 49.7716V54.5914H35.7682V44.0074C38.3573 43.9063 40.8484 42.9488 42.8271 41.2835C43.2202 40.9529 43.2686 40.3685 42.9358 39.9783C42.6027 39.5881 42.0144 39.5399 41.6215 39.8705C39.9791 41.2527 37.916 42.0543 35.7682 42.1542V22.8463C40.9349 23.0834 45.0649 27.3223 45.0649 32.5001C45.0649 34.0359 44.7126 35.5036 44.0173 36.8626C43.7842 37.3187 43.9675 37.8761 44.4266 38.1077C44.886 38.3394 45.4469 38.1574 45.6804 37.7013C46.5095 36.0799 46.93 34.33 46.93 32.5001C46.93 26.3009 41.9636 21.2309 35.7682 20.9922V10.4087H38.294V15.2283C38.294 15.6621 38.5969 16.0376 39.0235 16.1322C40.9216 16.5531 42.7191 17.2914 44.3655 18.3268C44.734 18.5585 45.2147 18.5056 45.5231 18.1997L48.9644 14.7891L53.1804 18.968L49.7418 22.3763C49.4324 22.6829 49.3789 23.1619 49.6135 23.5284C50.6578 25.1599 51.4026 26.9411 51.8271 28.8225C51.9226 29.2454 52.3007 29.546 52.7371 29.546H57.6013V35.4541Z" fill="#6471D7"/>
<path d="M5.67068 14.6826H11.3434C12.0265 14.6826 12.5823 14.1306 12.5823 13.4523V7.81906C12.5823 7.1407 12.0266 6.58887 11.3434 6.58887H5.67068C4.9877 6.58887 4.43188 7.14083 4.43188 7.81906V13.4524C4.43188 14.1307 4.98758 14.6826 5.67068 14.6826ZM6.29698 8.44088H10.7171V12.8304H6.29698V8.44088Z" fill="#6471D7"/>
<path d="M15.3151 14.6826H20.9878C21.6711 14.6826 22.2267 14.1306 22.2267 13.4523V7.81906C22.2267 7.1407 21.6711 6.58887 20.9878 6.58887H15.3151C14.6319 6.58887 14.0762 7.14083 14.0762 7.81906V13.4524C14.0762 14.1307 14.632 14.6826 15.3151 14.6826ZM15.9413 8.44088H20.3614V12.8304H15.9413V8.44088Z" fill="#6471D7"/>
<path d="M24.9586 14.6826H30.6314C31.3146 14.6826 31.8703 14.1306 31.8703 13.4523V7.81906C31.8703 7.1407 31.3146 6.58887 30.6314 6.58887H24.9586C24.2755 6.58887 23.7197 7.14083 23.7197 7.81906V13.4524C23.7195 14.1307 24.2754 14.6826 24.9586 14.6826ZM25.5848 8.44088H30.005V12.8304H25.5848V8.44088Z" fill="#6471D7"/>
<path d="M4.43188 23.9223C4.43188 24.6006 4.9877 25.1526 5.67068 25.1526H11.3434C12.0265 25.1526 12.5823 24.6006 12.5823 23.9223V18.2891C12.5823 17.6108 12.0266 17.0588 11.3434 17.0588H5.67068C4.9877 17.0588 4.43188 17.6108 4.43188 18.2891V23.9223ZM6.29698 18.911H10.7171V23.3005H6.29698V18.911Z" fill="#6471D7"/>
<path d="M14.0762 23.9223C14.0762 24.6006 14.6319 25.1526 15.3151 25.1526H20.9878C21.6711 25.1526 22.2267 24.6006 22.2267 23.9223V18.2891C22.2267 17.6108 21.6711 17.0588 20.9878 17.0588H15.3151C14.6319 17.0588 14.0762 17.6108 14.0762 18.2891V23.9223ZM15.9413 18.911H20.3614V23.3005H15.9413V18.911Z" fill="#6471D7"/>
<path d="M23.7197 23.9223C23.7197 24.6006 24.2755 25.1526 24.9586 25.1526H30.6314C31.3146 25.1526 31.8703 24.6006 31.8703 23.9223V18.2891C31.8703 17.6108 31.3146 17.0588 30.6314 17.0588H24.9586C24.2755 17.0588 23.7197 17.6108 23.7197 18.2891V23.9223ZM25.585 18.911H30.0052V23.3005H25.585V18.911Z" fill="#6471D7"/>
</g>
<defs>
<clipPath id="clip0_51_36102">
<rect width="60" height="65" fill="white"/>
</clipPath>
</defs>
</svg>
