<svg width="63" height="107" viewBox="0 0 63 107" fill="none" xmlns="http://www.w3.org/2000/svg">
<path d="M7.1284 95.7927V88.3427H12.0384V89.3927H8.3084V91.5327H11.8384V92.5827H8.3084V94.7427H12.0384V95.7927H7.1284ZM13.0243 95.7927V90.3827H14.1043V91.4427L13.9743 91.3027C14.1076 90.9627 14.3209 90.7061 14.6143 90.5327C14.9076 90.3527 15.2476 90.2627 15.6343 90.2627C16.0343 90.2627 16.3876 90.3494 16.6943 90.5227C17.0009 90.6961 17.2409 90.9361 17.4143 91.2427C17.5876 91.5494 17.6743 91.9027 17.6743 92.3027V95.7927H16.5543V92.6027C16.5543 92.3294 16.5043 92.0994 16.4043 91.9127C16.3043 91.7194 16.1609 91.5727 15.9743 91.4727C15.7943 91.3661 15.5876 91.3127 15.3543 91.3127C15.1209 91.3127 14.9109 91.3661 14.7243 91.4727C14.5443 91.5727 14.4043 91.7194 14.3043 91.9127C14.2043 92.1061 14.1543 92.3361 14.1543 92.6027V95.7927H13.0243ZM21.2236 95.8527C20.657 95.8527 20.217 95.6927 19.9036 95.3727C19.5903 95.0527 19.4336 94.6027 19.4336 94.0227V91.4027H18.4836V90.3827H18.6336C18.887 90.3827 19.0836 90.3094 19.2236 90.1627C19.3636 90.0161 19.4336 89.8161 19.4336 89.5627V89.1427H20.5636V90.3827H21.7936V91.4027H20.5636V93.9727C20.5636 94.1594 20.5936 94.3194 20.6536 94.4527C20.7136 94.5794 20.8103 94.6794 20.9436 94.7527C21.077 94.8194 21.2503 94.8527 21.4636 94.8527C21.517 94.8527 21.577 94.8494 21.6436 94.8427C21.7103 94.8361 21.7736 94.8294 21.8336 94.8227V95.7927C21.7403 95.8061 21.637 95.8194 21.5236 95.8327C21.4103 95.8461 21.3103 95.8527 21.2236 95.8527ZM25.3787 95.9127C24.8387 95.9127 24.3587 95.7894 23.9387 95.5427C23.5254 95.2894 23.202 94.9494 22.9687 94.5227C22.7354 94.0894 22.6187 93.6061 22.6187 93.0727C22.6187 92.5261 22.7354 92.0427 22.9687 91.6227C23.2087 91.2027 23.5287 90.8727 23.9287 90.6327C24.3287 90.3861 24.782 90.2627 25.2887 90.2627C25.6954 90.2627 26.0587 90.3327 26.3787 90.4727C26.6987 90.6127 26.9687 90.8061 27.1887 91.0527C27.4087 91.2927 27.5754 91.5694 27.6887 91.8827C27.8087 92.1961 27.8687 92.5294 27.8687 92.8827C27.8687 92.9694 27.8654 93.0594 27.8587 93.1527C27.852 93.2461 27.8387 93.3327 27.8187 93.4127H23.5087V92.5127H27.1787L26.6387 92.9227C26.7054 92.5961 26.682 92.3061 26.5687 92.0527C26.462 91.7927 26.2954 91.5894 26.0687 91.4427C25.8487 91.2894 25.5887 91.2127 25.2887 91.2127C24.9887 91.2127 24.722 91.2894 24.4887 91.4427C24.2554 91.5894 24.0754 91.8027 23.9487 92.0827C23.822 92.3561 23.772 92.6894 23.7987 93.0827C23.7654 93.4494 23.8154 93.7694 23.9487 94.0427C24.0887 94.3161 24.282 94.5294 24.5287 94.6827C24.782 94.8361 25.0687 94.9127 25.3887 94.9127C25.7154 94.9127 25.992 94.8394 26.2187 94.6927C26.452 94.5461 26.6354 94.3561 26.7687 94.1227L27.6887 94.5727C27.582 94.8261 27.4154 95.0561 27.1887 95.2627C26.9687 95.4627 26.702 95.6227 26.3887 95.7427C26.082 95.8561 25.7454 95.9127 25.3787 95.9127ZM28.9715 95.7927V90.3827H30.0515V91.4727L29.9515 91.3127C30.0715 90.9594 30.2649 90.7061 30.5315 90.5527C30.7982 90.3927 31.1182 90.3127 31.4915 90.3127H31.8215V91.3427H31.3515C30.9782 91.3427 30.6749 91.4594 30.4415 91.6927C30.2149 91.9194 30.1015 92.2461 30.1015 92.6727V95.7927H28.9715ZM32.5946 97.7927V90.3827H33.6746V91.5027L33.5446 91.2427C33.7446 90.9361 34.0112 90.6961 34.3446 90.5227C34.6779 90.3494 35.0579 90.2627 35.4846 90.2627C35.9979 90.2627 36.4579 90.3861 36.8646 90.6327C37.2779 90.8794 37.6012 91.2161 37.8346 91.6427C38.0746 92.0694 38.1946 92.5494 38.1946 93.0827C38.1946 93.6161 38.0746 94.0961 37.8346 94.5227C37.6012 94.9494 37.2812 95.2894 36.8746 95.5427C36.4679 95.7894 36.0046 95.9127 35.4846 95.9127C35.0646 95.9127 34.6812 95.8261 34.3346 95.6527C33.9946 95.4794 33.7312 95.2294 33.5446 94.9027L33.7246 94.6927V97.7927H32.5946ZM35.3746 94.8627C35.6946 94.8627 35.9779 94.7861 36.2246 94.6327C36.4712 94.4794 36.6646 94.2694 36.8046 94.0027C36.9512 93.7294 37.0246 93.4227 37.0246 93.0827C37.0246 92.7427 36.9512 92.4394 36.8046 92.1727C36.6646 91.9061 36.4712 91.6961 36.2246 91.5427C35.9779 91.3894 35.6946 91.3127 35.3746 91.3127C35.0612 91.3127 34.7779 91.3894 34.5246 91.5427C34.2779 91.6961 34.0812 91.9061 33.9346 92.1727C33.7946 92.4394 33.7246 92.7427 33.7246 93.0827C33.7246 93.4227 33.7946 93.7294 33.9346 94.0027C34.0812 94.2694 34.2779 94.4794 34.5246 94.6327C34.7779 94.7861 35.0612 94.8627 35.3746 94.8627ZM39.2938 95.7927V90.3827H40.3738V91.4727L40.2738 91.3127C40.3938 90.9594 40.5871 90.7061 40.8538 90.5527C41.1205 90.3927 41.4405 90.3127 41.8138 90.3127H42.1438V91.3427H41.6738C41.3005 91.3427 40.9971 91.4594 40.7638 91.6927C40.5371 91.9194 40.4238 92.2461 40.4238 92.6727V95.7927H39.2938ZM42.9168 95.7927V90.3827H44.0468V95.7927H42.9168ZM42.9168 89.6427V88.3427H44.0468V89.6427H42.9168ZM47.368 95.9127C46.8147 95.9127 46.328 95.7761 45.908 95.5027C45.4947 95.2294 45.2047 94.8627 45.038 94.4027L45.908 93.9927C46.0547 94.2994 46.2547 94.5427 46.508 94.7227C46.768 94.9027 47.0547 94.9927 47.368 94.9927C47.6347 94.9927 47.8513 94.9327 48.018 94.8127C48.1847 94.6927 48.268 94.5294 48.268 94.3227C48.268 94.1894 48.2313 94.0827 48.158 94.0027C48.0847 93.9161 47.9913 93.8461 47.878 93.7927C47.7713 93.7394 47.6613 93.6994 47.548 93.6727L46.698 93.4327C46.2313 93.2994 45.8813 93.0994 45.648 92.8327C45.4213 92.5594 45.308 92.2427 45.308 91.8827C45.308 91.5561 45.3913 91.2727 45.558 91.0327C45.7247 90.7861 45.9547 90.5961 46.248 90.4627C46.5413 90.3294 46.8713 90.2627 47.238 90.2627C47.7313 90.2627 48.1713 90.3861 48.558 90.6327C48.9447 90.8727 49.218 91.2094 49.378 91.6427L48.508 92.0527C48.4013 91.7927 48.2313 91.5861 47.998 91.4327C47.7713 91.2794 47.5147 91.2027 47.228 91.2027C46.9813 91.2027 46.7847 91.2627 46.638 91.3827C46.4913 91.4961 46.418 91.6461 46.418 91.8327C46.418 91.9594 46.4513 92.0661 46.518 92.1527C46.5847 92.2327 46.6713 92.2994 46.778 92.3527C46.8847 92.3994 46.9947 92.4394 47.108 92.4727L47.988 92.7327C48.4347 92.8594 48.778 93.0594 49.018 93.3327C49.258 93.5994 49.378 93.9194 49.378 94.2927C49.378 94.6127 49.2913 94.8961 49.118 95.1427C48.9513 95.3827 48.718 95.5727 48.418 95.7127C48.118 95.8461 47.768 95.9127 47.368 95.9127ZM53.0252 95.9127C52.4852 95.9127 52.0052 95.7894 51.5852 95.5427C51.1719 95.2894 50.8485 94.9494 50.6152 94.5227C50.3819 94.0894 50.2652 93.6061 50.2652 93.0727C50.2652 92.5261 50.3819 92.0427 50.6152 91.6227C50.8552 91.2027 51.1752 90.8727 51.5752 90.6327C51.9752 90.3861 52.4285 90.2627 52.9352 90.2627C53.3419 90.2627 53.7052 90.3327 54.0252 90.4727C54.3452 90.6127 54.6152 90.8061 54.8352 91.0527C55.0552 91.2927 55.2219 91.5694 55.3352 91.8827C55.4552 92.1961 55.5152 92.5294 55.5152 92.8827C55.5152 92.9694 55.5119 93.0594 55.5052 93.1527C55.4985 93.2461 55.4852 93.3327 55.4652 93.4127H51.1552V92.5127H54.8252L54.2852 92.9227C54.3519 92.5961 54.3285 92.3061 54.2152 92.0527C54.1085 91.7927 53.9419 91.5894 53.7152 91.4427C53.4952 91.2894 53.2352 91.2127 52.9352 91.2127C52.6352 91.2127 52.3685 91.2894 52.1352 91.4427C51.9019 91.5894 51.7219 91.8027 51.5952 92.0827C51.4685 92.3561 51.4185 92.6894 51.4452 93.0827C51.4119 93.4494 51.4619 93.7694 51.5952 94.0427C51.7352 94.3161 51.9285 94.5294 52.1752 94.6827C52.4285 94.8361 52.7152 94.9127 53.0352 94.9127C53.3619 94.9127 53.6385 94.8394 53.8652 94.6927C54.0985 94.5461 54.2819 94.3561 54.4152 94.1227L55.3352 94.5727C55.2285 94.8261 55.0619 95.0561 54.8352 95.2627C54.6152 95.4627 54.3485 95.6227 54.0352 95.7427C53.7285 95.8561 53.3919 95.9127 53.0252 95.9127Z" fill="#BF9752"/>
<g clip-path="url(#clip0_51_36123)">
<mask id="mask0_51_36123" style="mask-type:luminance" maskUnits="userSpaceOnUse" x="0" y="1" width="63" height="64">
<path d="M62.4756 1.32935H0V64.6542H62.4756V1.32935Z" fill="white"/>
</mask>
<g mask="url(#mask0_51_36123)">
<path d="M24.3766 28.7094C24.8821 28.7094 25.2918 28.294 25.2918 27.7817C25.2918 27.2694 24.8821 26.8541 24.3766 26.8541H19.9933C19.4878 26.8541 19.0781 27.2694 19.0781 27.7817V38.3255C19.0781 38.8379 19.4878 39.2531 19.9933 39.2531H24.3766C24.8821 39.2531 25.2918 38.8379 25.2918 38.3255C25.2918 37.8133 24.8821 37.3979 24.3766 37.3979H20.9085V33.9812H24.0533C24.5588 33.9812 24.9685 33.5658 24.9685 33.0536C24.9685 32.5412 24.5588 32.126 24.0533 32.126H20.9085V28.7094H24.3766Z" fill="#BF9752"/>
<path d="M34.6253 30.4985C34.6253 28.4622 32.9215 26.8054 30.8273 26.8054H28.0375C28.0365 26.8054 28.0354 26.8054 28.0343 26.8054C27.5288 26.8054 27.1191 27.2208 27.1191 27.733V38.374C27.1191 38.8864 27.5288 39.3016 28.0343 39.3016C28.5398 39.3016 28.9495 38.8864 28.9495 38.374V34.2953L33.0233 38.9868C33.2041 39.1952 33.4568 39.3016 33.7107 39.3016C33.9254 39.3016 34.141 39.2254 34.3149 39.0704C34.6942 38.732 34.7312 38.1456 34.3972 37.7612L31.2747 34.165C33.1586 33.9492 34.6253 32.3878 34.6253 30.4985ZM30.8273 32.3364C30.4011 32.3364 29.5996 32.34 28.9668 32.3435C28.9634 31.7118 28.9575 29.3185 28.9556 28.6607H30.8273C31.8939 28.6607 32.795 29.5023 32.795 30.4985C32.795 31.4949 31.8939 32.3364 30.8273 32.3364Z" fill="#BF9752"/>
<path d="M36.5742 27.733V38.374C36.5742 38.8864 36.9839 39.3016 37.4894 39.3016C37.9949 39.3016 38.4046 38.8864 38.4046 38.374V34.6745C39.0747 34.6707 39.954 34.6664 40.4125 34.6664C42.5828 34.6664 44.3483 32.9032 44.3483 30.7359C44.3483 28.5687 42.5828 26.8054 40.4125 26.8054H37.4894C36.9841 26.8054 36.5742 27.2208 36.5742 27.733ZM40.4125 28.6607C41.5539 28.6607 42.5181 29.6111 42.5181 30.7359C42.5181 31.8607 41.5539 32.8111 40.4125 32.8111C39.9561 32.8111 39.0889 32.8153 38.4197 32.8191C38.4162 32.1216 38.4094 29.3865 38.4073 28.6605L40.4125 28.6607Z" fill="#BF9752"/>
<path d="M49.4238 28.6702L52.8298 26.026C53.7221 25.3332 54.0294 24.1177 53.5765 23.0699C53.2148 22.2328 52.8059 21.4121 52.3607 20.6309C51.9152 19.8483 51.4184 19.0789 50.8845 18.3439C50.2157 17.4228 49.0236 17.0846 47.9856 17.5214L44.0184 19.1912C43.8078 19.2797 43.5724 19.2469 43.418 19.1078C42.6027 18.3727 41.7177 17.7078 40.7872 17.1314C40.3559 16.8641 39.7926 17.0022 39.5289 17.4394C39.2655 17.8765 39.4015 18.4474 39.8328 18.7145C40.6705 19.2334 41.4675 19.8321 42.2011 20.4939C42.8769 21.1033 43.8658 21.2643 44.7203 20.9046L48.6873 19.2348C48.9449 19.1264 49.2421 19.2122 49.4103 19.4438C49.9042 20.1237 50.3636 20.8351 50.7754 21.5587C51.1871 22.2807 51.5653 23.0397 51.8998 23.8141C52.0135 24.0774 51.9382 24.3813 51.7169 24.5532L48.3107 27.1973C47.5767 27.7672 47.22 28.7151 47.4019 29.6123C47.6263 30.7187 47.74 31.8558 47.74 32.992C47.74 34.1283 47.6263 35.2654 47.4019 36.372C47.2202 37.2692 47.5769 38.2171 48.3107 38.7866L51.7169 41.4309C51.9382 41.6028 52.0135 41.9067 51.8998 42.1698C51.5655 42.9436 51.1872 43.7026 50.7754 44.4256C50.3633 45.1492 49.904 45.8606 49.4103 46.5403C49.2421 46.7717 48.9447 46.8573 48.6873 46.7491L44.7203 45.0793C43.8658 44.7198 42.8771 44.881 42.2013 45.49C40.5121 47.0129 38.5718 48.1493 36.4339 48.8676C35.5755 49.1562 34.9431 49.945 34.8227 50.8773L34.2667 55.188C34.2305 55.4684 34.0086 55.6864 33.7267 55.7181C32.8983 55.8116 32.0608 55.8592 31.2374 55.8592C30.4139 55.8592 29.5766 55.8118 28.748 55.7181C28.4663 55.6864 28.2442 55.4684 28.208 55.1881L27.652 50.8775C27.5318 49.945 26.8994 49.1562 26.0408 48.8678C23.9029 48.1495 21.9626 47.0131 20.2736 45.4904C19.598 44.881 18.6087 44.72 17.7545 45.0795L13.7874 46.7493C13.5299 46.8573 13.2325 46.7719 13.0644 46.5403C12.5707 45.8606 12.1114 45.1492 11.6992 44.4256C11.2875 43.7028 10.9093 42.9438 10.5749 42.17C10.4612 41.9067 10.5366 41.603 10.758 41.4309L14.1641 38.7866C14.8979 38.2171 15.2546 37.2692 15.0728 36.3718C14.8485 35.2654 14.7348 34.1283 14.7348 32.992C14.7348 31.8558 14.8485 30.7189 15.0728 29.6123C15.2546 28.7151 14.8979 27.7672 14.1641 27.1975L10.7586 24.5532C10.5371 24.3813 10.4618 24.0774 10.5755 23.8141C10.9101 23.0395 11.2884 22.2807 11.6998 21.5585C12.1118 20.8351 12.5712 20.1237 13.065 19.4436C13.2331 19.2124 13.5302 19.1263 13.788 19.2348L17.7551 20.9046C18.6096 21.2643 19.5983 21.1029 20.2743 20.4939C21.9631 18.971 23.9033 17.8347 26.0415 17.1164C26.8999 16.8279 27.5324 16.0391 27.6527 15.1066L28.2087 10.7961C28.245 10.5157 28.4668 10.2977 28.7487 10.2659C29.5766 10.1724 30.4141 10.1249 31.2381 10.1249C32.0619 10.1249 32.8994 10.1722 33.7275 10.2659C34.0091 10.2977 34.231 10.5157 34.2672 10.796L34.8235 15.1065C34.9436 16.0391 35.576 16.8279 36.4344 17.1163C36.9146 17.2776 37.4321 17.0139 37.5911 16.5277C37.7502 16.0414 37.4903 15.5165 37.0105 15.3554C36.8141 15.2894 36.6679 15.0974 36.6381 14.866L36.0821 10.5553C35.9364 9.42583 35.0514 8.54856 33.9299 8.42178C33.0349 8.32073 32.1292 8.26953 31.2377 8.26953C30.3465 8.26953 29.4406 8.32086 28.5457 8.42178C27.4242 8.54843 26.5392 9.42583 26.3935 10.5553L25.8373 14.8658C25.8075 15.0971 25.6615 15.2892 25.4651 15.3552C23.0893 16.1535 20.9333 17.4159 19.0573 19.1074C18.9027 19.2468 18.6673 19.2795 18.4566 19.191L14.4895 17.5213C13.4521 17.0846 12.2598 17.4226 11.5906 18.3436C11.0568 19.0787 10.5602 19.8482 10.1144 20.6307C9.66938 21.4119 9.26024 22.2326 8.89858 23.0698C8.44586 24.1175 8.75299 25.3332 9.64523 26.0258L13.0514 28.6702C13.232 28.8103 13.3218 29.0335 13.2802 29.2387C13.0311 30.4679 12.9048 31.7304 12.9048 32.9919C12.9048 34.2531 13.0311 35.5158 13.2802 36.7449C13.3218 36.9502 13.2318 37.1733 13.0514 37.3137L9.64523 39.958C8.75299 40.6506 8.44599 41.866 8.89858 42.914C9.25988 43.7504 9.6689 44.5711 10.1144 45.3531C10.5603 46.1358 11.057 46.9052 11.5906 47.64C12.2594 48.5613 13.4515 48.8994 14.4895 48.4623L18.4566 46.7927C18.6669 46.7041 18.9025 46.7368 19.0573 46.8763C20.9333 48.568 23.0895 49.8305 25.4651 50.6286C25.6613 50.6944 25.8075 50.8866 25.8373 51.118L26.3935 55.4286C26.5392 56.5581 27.4242 57.4354 28.5457 57.5621C29.4413 57.6632 30.347 57.7144 31.2377 57.7144C32.1284 57.7144 33.0343 57.6631 33.9299 57.5621C35.0512 57.4356 35.9362 56.5581 36.0821 55.4286L36.6381 51.1182C36.6679 50.8868 36.8141 50.6948 37.0103 50.6287C39.3861 49.8305 41.5421 48.5682 43.4185 46.8765C43.5731 46.7372 43.8087 46.7044 44.019 46.7929L47.986 48.4627C49.0234 48.8994 50.216 48.5613 50.8849 47.6404C51.4184 46.9054 51.9152 46.1359 52.3611 45.3532C52.8064 44.5711 53.2156 43.7506 53.5768 42.914C54.0295 41.8662 53.7223 40.6507 52.8304 39.9581L49.4242 37.3139C49.2437 37.1737 49.1538 36.9506 49.1953 36.7452C49.4444 35.5162 49.5707 34.2535 49.5707 32.9922C49.5707 31.731 49.4444 30.4681 49.1953 29.2391C49.1534 29.0335 49.2432 28.8104 49.4238 28.6702Z" fill="#BF9752"/>
<path d="M59.4692 19.4214C59.2525 18.9587 58.7063 18.7617 58.25 18.9815C57.7934 19.2014 57.5992 19.7546 57.8159 20.2175C59.6938 24.2238 60.6457 28.5215 60.6457 32.9919C60.6457 40.9536 57.5869 48.4388 52.0325 54.0688C46.4782 59.6985 39.0934 62.7991 31.2383 62.7991C26.5797 62.7991 22.1247 61.7275 17.9972 59.614C14.558 57.8531 11.4509 55.3809 8.92787 52.41L12.5385 53.63C13.0181 53.7918 13.5363 53.5294 13.6962 53.0433C13.856 52.5573 13.5969 52.0319 13.1174 51.8699L6.61968 49.6746C6.31853 49.5731 5.98736 49.6364 5.74381 49.8425C5.50037 50.0485 5.37945 50.3675 5.42422 50.6858L6.50717 58.3694C6.57234 58.8322 6.96391 59.1661 7.41198 59.1661C7.45518 59.1661 7.49873 59.163 7.54254 59.1566C8.04295 59.0841 8.3906 58.6142 8.31909 58.1073L7.71484 53.8198C10.3626 56.8847 13.5973 59.4398 17.1717 61.2699C21.5578 63.5156 26.2904 64.6543 31.2383 64.6543C39.5822 64.6543 47.4268 61.3607 53.3268 55.3807C59.2266 49.4003 62.4761 41.4492 62.4761 32.9919C62.4761 28.244 61.4645 23.6784 59.4692 19.4214Z" fill="#BF9752"/>
<path d="M1.83034 32.9918C1.83034 25.0298 4.8892 17.5447 10.4435 11.9149C15.9979 6.28502 23.3827 3.18456 31.2378 3.18456C39.8839 3.18456 47.9431 6.9561 53.5455 13.5727L49.9375 12.3537C49.4577 12.1915 48.9395 12.4544 48.7797 12.9404C48.6201 13.4265 48.879 13.9518 49.3586 14.1138L55.8562 16.3091C55.951 16.341 56.0485 16.3568 56.1456 16.3568C56.3569 16.3568 56.5651 16.2825 56.7321 16.1413C56.9756 15.9353 57.0965 15.6162 57.0517 15.2979L55.9687 7.61421C55.8973 7.10699 55.4321 6.755 54.9334 6.82712C54.433 6.89958 54.0853 7.36945 54.1569 7.87653L54.7604 12.1594C48.8174 5.25747 40.3332 1.32935 31.2378 1.32935C22.8939 1.32935 15.0493 4.62285 9.14927 10.603C3.24934 16.5833 0 24.5344 0 32.9918C0 37.7395 1.01157 42.3052 3.00675 46.5623C3.16344 46.8965 3.49167 47.092 3.83395 47.092C3.96549 47.092 4.09935 47.0631 4.22601 47.0021C4.68262 46.7823 4.87688 46.2288 4.66004 45.766C2.78236 41.7599 1.83034 37.4619 1.83034 32.9918Z" fill="#BF9752"/>
</g>
</g>
<defs>
<clipPath id="clip0_51_36123">
<rect width="62.4756" height="65.1341" fill="white"/>
</clipPath>
</defs>
</svg>
