<svg width="64" height="106" viewBox="0 0 64 106" fill="none" xmlns="http://www.w3.org/2000/svg">
<g clip-path="url(#clip0_51_36113)">
<path d="M30.8464 40.0175L28.385 35.7511C28.0715 35.2077 27.3996 34.9871 26.8254 35.2388L24.8134 36.1211C24.2131 35.6753 23.5682 35.3021 22.8845 35.0047L22.642 32.8218C22.5729 32.1981 22.046 31.7261 21.419 31.7261H16.4965C15.8693 31.7261 15.3426 32.1979 15.2734 32.8218L15.031 35.0047C14.3473 35.3021 13.7025 35.6752 13.1021 36.1211L11.09 35.2388C10.5154 34.987 9.84383 35.2078 9.53038 35.7511L7.06905 40.0175C6.75547 40.5611 6.90045 41.2536 7.40551 41.6255L9.17508 42.9282C9.09153 43.6679 9.0914 44.4166 9.17521 45.1567L7.40551 46.4597C6.90045 46.8316 6.75547 47.5242 7.06905 48.0675L9.53038 52.3339C9.84383 52.8775 10.5156 53.0982 11.09 52.8463L13.1019 51.9641C13.7021 52.4098 14.3471 52.7831 15.031 53.0806L15.2734 55.2634C15.3426 55.887 15.8695 56.359 16.4965 56.359H21.419C22.0461 56.359 22.5729 55.8872 22.642 55.2634L22.8845 53.0804C23.568 52.7831 24.213 52.4098 24.8133 51.9641L26.8254 52.8463C27.4003 53.0984 28.0715 52.8775 28.385 52.3339L30.8464 48.0675C31.1599 47.5241 31.0149 46.8315 30.5099 46.4597L28.7403 45.1568C28.8239 44.4174 28.8239 43.6678 28.7403 42.9282L30.5099 41.6255C31.0149 41.2536 31.1599 40.5611 30.8464 40.0175ZM26.2037 42.6142C26.3874 43.5508 26.3874 44.5343 26.2037 45.4708C26.1121 45.9385 26.2985 46.4171 26.6821 46.6996L28.164 47.7906L26.8041 50.1477L25.1176 49.4082C24.6811 49.2168 24.1731 49.2949 23.814 49.6088C23.0855 50.2459 22.2552 50.7266 21.3458 51.0374C20.8947 51.1916 20.5733 51.5927 20.5206 52.0668L20.3176 53.8957H17.5979L17.3949 52.0669C17.3422 51.5927 17.0207 51.1917 16.5697 51.0375C15.6597 50.7265 14.8294 50.2459 14.1015 49.609C13.7425 49.295 13.2344 49.2168 12.7977 49.4082L11.1112 50.1477L9.75141 47.7906L11.2333 46.6995C11.6168 46.417 11.8033 45.9386 11.712 45.4709C11.528 44.5326 11.5278 43.5515 11.7118 42.6142C11.8033 42.1465 11.6168 41.6678 11.2332 41.3853L9.75141 40.2944L11.1112 37.9373L12.7978 38.6768C13.2345 38.8684 13.7425 38.7901 14.1015 38.4762C14.8298 37.8392 15.6601 37.3586 16.5696 37.0476C17.0207 36.8934 17.3422 36.4923 17.3949 36.0182L17.5979 34.1894H20.3176L20.5206 36.0182C20.5733 36.4923 20.8947 36.8934 21.3459 37.0476C22.2554 37.3586 23.0858 37.8392 23.8139 38.476C24.1728 38.7901 24.681 38.8683 25.1176 38.6768L26.8041 37.9373L28.164 40.2944L26.6821 41.3853C26.2985 41.6679 26.1121 42.1464 26.2037 42.6142Z" fill="#6471D7"/>
<path d="M18.9578 39.7318C16.5827 39.7318 14.6504 41.6656 14.6504 44.0426C14.867 49.7533 23.0494 49.7519 23.265 44.0426C23.265 41.6656 21.3328 39.7318 18.9578 39.7318ZM18.9578 45.89C17.9399 45.89 17.1118 45.0612 17.1118 44.0426C17.2045 41.595 20.7112 41.5957 20.8036 44.0426C20.8036 45.0612 19.9756 45.89 18.9578 45.89Z" fill="#6471D7"/>
<path d="M57.4482 5.52222C50.3889 -1.84092 37.6868 -1.84056 30.6275 5.52222C29.0364 7.11471 27.7337 8.99973 26.7947 11.0485L26.7888 11.0352C26.5138 10.4133 25.787 10.1318 25.1655 10.4071C24.5438 10.6823 24.2628 11.4096 24.5378 12.0317L25.7823 14.8476C25.9144 15.1462 26.1595 15.3803 26.464 15.4981C26.7683 15.6159 27.1069 15.608 27.4057 15.4757L30.2192 14.23C30.8408 13.9549 31.1218 13.2275 30.8469 12.6056C30.5718 11.9835 29.8456 11.7021 29.2235 11.9775L29.0389 12.0592C29.8556 10.2816 30.9869 8.64624 32.368 7.26412C38.5111 0.856579 49.5647 0.856826 55.7076 7.26412C62.1101 13.4121 62.1099 24.4742 55.7076 30.6219C49.5637 37.0293 38.5115 37.0293 32.368 30.6218C29.4774 27.729 25.8186 25.8802 21.7873 25.2747C17.8373 24.6816 13.8774 25.3243 10.3364 27.1335C9.73101 27.4427 9.49079 28.1846 9.79994 28.7905C10.109 29.3963 10.8503 29.6366 11.4556 29.3274C17.8457 26.0627 25.5506 27.2826 30.6274 32.3638C37.6873 39.7264 50.3886 39.7268 57.4479 32.3635C64.8051 25.2992 64.8056 12.5863 57.4482 5.52222Z" fill="#6471D7"/>
<path d="M31.5117 22.7702L33.973 27.0366C34.2865 27.5801 34.9581 27.8007 35.5328 27.549L37.5445 26.6668C38.1447 27.1126 38.7898 27.4859 39.4736 27.7833L39.716 29.966C39.7852 30.5897 40.312 31.0617 40.939 31.0617H45.8615C46.4887 31.0617 47.0154 30.5899 47.0846 29.966L47.327 27.7831C48.0107 27.4858 48.6555 27.1126 49.2558 26.6668L51.268 27.549C51.8424 27.8008 52.5143 27.58 52.8277 27.0366L55.2889 22.7702C55.6025 22.2267 55.4576 21.5341 54.9525 21.1623L53.1829 19.8595C53.2664 19.12 53.2664 18.3705 53.1829 17.6309L54.9525 16.328C55.4576 15.9561 55.6025 15.2635 55.2889 14.7202L52.8277 10.4538C52.5142 9.91027 51.8423 9.68969 51.268 9.94143L49.256 10.8236C48.6557 10.3779 48.0108 10.0046 47.327 9.7073L47.0846 7.52436C47.0154 6.90068 46.4886 6.42871 45.8615 6.42871H40.939C40.3119 6.42871 39.7852 6.90055 39.716 7.52436L39.4736 9.7073C38.7901 10.0046 38.145 10.3779 37.5448 10.8236L35.5326 9.94143C34.958 9.68957 34.2866 9.9104 33.973 10.4538L31.5117 14.7202C31.1981 15.2636 31.3431 15.9562 31.8482 16.328L33.6177 17.6309C33.5341 18.3706 33.534 19.1192 33.6178 19.8594L31.8482 21.1623C31.3431 21.5342 31.1981 22.2267 31.5117 22.7702ZM36.1544 20.1736C35.9705 19.2353 35.9704 18.2543 36.1542 17.3169C36.2458 16.8491 36.0594 16.3705 35.6758 16.0881L34.1939 14.9971L35.5537 12.6401L37.2403 13.3795C37.6769 13.5711 38.1849 13.4928 38.5439 13.1789C39.2725 12.5417 40.1028 12.0612 41.012 11.7504C41.4632 11.5963 41.7846 11.1951 41.8373 10.7209L42.0403 8.89208H44.76L44.963 10.7209C45.0158 11.1951 45.3372 11.5961 45.7883 11.7503C46.6979 12.0613 47.5283 12.5419 48.2563 13.1788C48.6154 13.4928 49.1233 13.571 49.5601 13.3795L51.2466 12.6401L52.6065 14.9971L51.1246 16.0881C50.7411 16.3705 50.5546 16.8491 50.6461 17.3169C50.8299 18.2534 50.8299 19.237 50.6461 20.1735C50.5546 20.6412 50.7411 21.1199 51.1246 21.4024L52.6065 22.4933L51.2468 24.8503L49.5601 24.1109C49.1235 23.9196 48.6154 23.9977 48.2565 24.3116C47.5281 24.9485 46.6977 25.4292 45.7882 25.7401C45.3372 25.8944 45.0158 26.2955 44.963 26.7695L44.76 28.5983H42.0403L41.8373 26.7696C41.7846 26.2955 41.4632 25.8945 41.012 25.7402C40.1022 25.4292 39.2718 24.9485 38.5439 24.3118C38.1849 23.9977 37.6772 23.9195 37.24 24.1109L35.5537 24.8503L34.1939 22.4933L35.6759 21.4022C36.0595 21.1199 36.2458 20.6414 36.1544 20.1736Z" fill="#6471D7"/>
<path d="M44.0377 23.2534C46.4127 23.2534 48.345 21.3196 48.345 18.9427C48.1283 13.2319 39.9461 13.2334 39.7305 18.9427C39.7305 21.3196 41.6625 23.2534 44.0377 23.2534ZM44.0377 17.0953C45.0555 17.0953 45.8836 17.924 45.8836 18.9427C45.7908 21.3902 42.2842 21.3896 42.1917 18.9427C42.1917 17.924 43.0199 17.0953 44.0377 17.0953Z" fill="#6471D7"/>
<path d="M37.2132 48.1377C37.0812 47.839 36.836 47.605 36.5315 47.4871C36.2269 47.3693 35.8883 47.3774 35.5899 47.5096L32.7763 48.7552C31.309 49.4666 32.2602 51.616 33.7722 51.0079L33.9575 50.9259C33.141 52.7037 32.0098 54.3382 30.6277 55.7213C24.4847 62.1289 13.4311 62.1286 7.28824 55.7213C2.21076 50.6403 0.991667 42.9293 4.25441 36.5336C4.56355 35.9279 4.32333 35.1861 3.71796 34.8766C3.11284 34.5674 2.37137 34.8076 2.06234 35.4135C-1.67592 42.533 -0.225338 51.8373 5.54771 57.4631C14.7203 66.8113 30.8583 63.8933 36.2012 51.9372L36.2069 51.9501C36.4102 52.4102 36.8606 52.6839 37.3331 52.6838C37.4994 52.6838 37.6684 52.6499 37.8302 52.5782C38.4517 52.3031 38.7328 51.5756 38.4579 50.9536L37.2132 48.1377Z" fill="#6471D7"/>
<path d="M6.41901 32.7239C6.6969 32.7239 6.9765 32.6302 7.20652 32.4383C7.72868 32.0028 7.7992 31.2263 7.36415 30.7037C6.92874 30.1811 6.15269 30.1108 5.63089 30.546C5.10871 30.9816 5.03783 31.7585 5.47287 32.281C5.7163 32.5732 6.0663 32.7239 6.41901 32.7239Z" fill="#6471D7"/>
</g>
<path d="M12.8654 94.2421C12.3987 94.2421 11.9654 94.1554 11.5654 93.9821C11.1654 93.8021 10.8254 93.5587 10.5454 93.2521C10.2654 92.9454 10.0587 92.5921 9.92535 92.1921L10.9254 91.7721C11.1054 92.2321 11.3687 92.5854 11.7154 92.8321C12.062 93.0787 12.462 93.2021 12.9154 93.2021C13.182 93.2021 13.4154 93.1621 13.6154 93.0821C13.8154 92.9954 13.9687 92.8754 14.0754 92.7221C14.1887 92.5687 14.2454 92.3921 14.2454 92.1921C14.2454 91.9187 14.1687 91.7021 14.0154 91.5421C13.862 91.3821 13.6354 91.2554 13.3354 91.1621L11.9354 90.7221C11.3754 90.5487 10.9487 90.2854 10.6554 89.9321C10.362 89.5721 10.2154 89.1521 10.2154 88.6721C10.2154 88.2521 10.3187 87.8854 10.5254 87.5721C10.732 87.2521 11.0154 87.0021 11.3754 86.8221C11.742 86.6421 12.1587 86.5521 12.6254 86.5521C13.072 86.5521 13.4787 86.6321 13.8454 86.7921C14.212 86.9454 14.5254 87.1587 14.7854 87.4321C15.052 87.7054 15.2454 88.0221 15.3654 88.3821L14.3854 88.8121C14.2387 88.4187 14.0087 88.1154 13.6954 87.9021C13.3887 87.6887 13.032 87.5821 12.6254 87.5821C12.3787 87.5821 12.162 87.6254 11.9754 87.7121C11.7887 87.7921 11.642 87.9121 11.5354 88.0721C11.4354 88.2254 11.3854 88.4054 11.3854 88.6121C11.3854 88.8521 11.462 89.0654 11.6154 89.2521C11.7687 89.4387 12.002 89.5787 12.3154 89.6721L13.6154 90.0821C14.2087 90.2621 14.6554 90.5221 14.9554 90.8621C15.2554 91.1954 15.4054 91.6121 15.4054 92.1121C15.4054 92.5254 15.2954 92.8921 15.0754 93.2121C14.862 93.5321 14.5654 93.7854 14.1854 93.9721C13.8054 94.1521 13.3654 94.2421 12.8654 94.2421ZM19.23 94.2421C18.71 94.2421 18.2333 94.1187 17.8 93.8721C17.3733 93.6254 17.0333 93.2887 16.78 92.8621C16.5266 92.4354 16.4 91.9521 16.4 91.4121C16.4 90.8654 16.5266 90.3821 16.78 89.9621C17.0333 89.5354 17.3733 89.2021 17.8 88.9621C18.2266 88.7154 18.7033 88.5921 19.23 88.5921C19.7633 88.5921 20.24 88.7154 20.66 88.9621C21.0866 89.2021 21.4233 89.5354 21.67 89.9621C21.9233 90.3821 22.05 90.8654 22.05 91.4121C22.05 91.9587 21.9233 92.4454 21.67 92.8721C21.4166 93.2987 21.0766 93.6354 20.65 93.8821C20.2233 94.1221 19.75 94.2421 19.23 94.2421ZM19.23 93.1921C19.55 93.1921 19.8333 93.1154 20.08 92.9621C20.3266 92.8087 20.52 92.5987 20.66 92.3321C20.8066 92.0587 20.88 91.7521 20.88 91.4121C20.88 91.0721 20.8066 90.7687 20.66 90.5021C20.52 90.2354 20.3266 90.0254 20.08 89.8721C19.8333 89.7187 19.55 89.6421 19.23 89.6421C18.9166 89.6421 18.6333 89.7187 18.38 89.8721C18.1333 90.0254 17.9366 90.2354 17.79 90.5021C17.65 90.7687 17.58 91.0721 17.58 91.4121C17.58 91.7521 17.65 92.0587 17.79 92.3321C17.9366 92.5987 18.1333 92.8087 18.38 92.9621C18.6333 93.1154 18.9166 93.1921 19.23 93.1921ZM23.6167 94.1221V89.7321H22.6167V88.7121H23.6167V88.4321C23.6167 88.0254 23.7 87.6854 23.8667 87.4121C24.0333 87.1321 24.2633 86.9187 24.5567 86.7721C24.8567 86.6254 25.2 86.5521 25.5867 86.5521C25.66 86.5521 25.7433 86.5587 25.8367 86.5721C25.93 86.5787 26.0067 86.5887 26.0667 86.6021V87.5821C26.0133 87.5687 25.9533 87.5621 25.8867 87.5621C25.82 87.5554 25.7667 87.5521 25.7267 87.5521C25.4267 87.5521 25.1867 87.6221 25.0067 87.7621C24.8267 87.8954 24.7367 88.1187 24.7367 88.4321V88.7121H25.9767V89.7321H24.7367V94.1221H23.6167ZM29.5654 94.1821C28.9988 94.1821 28.5588 94.0221 28.2454 93.7021C27.9321 93.3821 27.7754 92.9321 27.7754 92.3521V89.7321H26.8254V88.7121H26.9754C27.2288 88.7121 27.4254 88.6387 27.5654 88.4921C27.7054 88.3454 27.7754 88.1454 27.7754 87.8921V87.4721H28.9054V88.7121H30.1354V89.7321H28.9054V92.3021C28.9054 92.4887 28.9354 92.6487 28.9954 92.7821C29.0554 92.9087 29.1521 93.0087 29.2854 93.0821C29.4188 93.1487 29.5921 93.1821 29.8054 93.1821C29.8588 93.1821 29.9188 93.1787 29.9854 93.1721C30.0521 93.1654 30.1154 93.1587 30.1754 93.1521V94.1221C30.0821 94.1354 29.9788 94.1487 29.8654 94.1621C29.7521 94.1754 29.6521 94.1821 29.5654 94.1821ZM32.5882 94.1221L30.7282 88.7121H31.9282L33.3482 93.0221H32.9282L34.3782 88.7121H35.4082L36.8482 93.0221H36.4282L37.8582 88.7121H39.0582L37.1882 94.1221H36.1682L34.7082 89.7121H35.0782L33.6182 94.1221H32.5882ZM41.2575 94.2421C40.8909 94.2421 40.5675 94.1787 40.2875 94.0521C40.0142 93.9187 39.8009 93.7387 39.6475 93.5121C39.4942 93.2787 39.4175 93.0054 39.4175 92.6921C39.4175 92.3987 39.4809 92.1354 39.6075 91.9021C39.7409 91.6687 39.9442 91.4721 40.2175 91.3121C40.4909 91.1521 40.8342 91.0387 41.2475 90.9721L43.1275 90.6621V91.5521L41.4675 91.8421C41.1675 91.8954 40.9475 91.9921 40.8075 92.1321C40.6675 92.2654 40.5975 92.4387 40.5975 92.6521C40.5975 92.8587 40.6742 93.0287 40.8275 93.1621C40.9875 93.2887 41.1909 93.3521 41.4375 93.3521C41.7442 93.3521 42.0109 93.2854 42.2375 93.1521C42.4709 93.0187 42.6509 92.8421 42.7775 92.6221C42.9042 92.3954 42.9675 92.1454 42.9675 91.8721V90.4821C42.9675 90.2154 42.8675 89.9987 42.6675 89.8321C42.4742 89.6587 42.2142 89.5721 41.8875 89.5721C41.5875 89.5721 41.3242 89.6521 41.0975 89.8121C40.8775 89.9654 40.7142 90.1654 40.6075 90.4121L39.6675 89.9421C39.7675 89.6754 39.9309 89.4421 40.1575 89.2421C40.3842 89.0354 40.6475 88.8754 40.9475 88.7621C41.2542 88.6487 41.5775 88.5921 41.9175 88.5921C42.3442 88.5921 42.7209 88.6721 43.0475 88.8321C43.3809 88.9921 43.6375 89.2154 43.8175 89.5021C44.0042 89.7821 44.0975 90.1087 44.0975 90.4821V94.1221H43.0175V93.1421L43.2475 93.1721C43.1209 93.3921 42.9575 93.5821 42.7575 93.7421C42.5642 93.9021 42.3409 94.0254 42.0875 94.1121C41.8409 94.1987 41.5642 94.2421 41.2575 94.2421ZM45.4188 94.1221V88.7121H46.4988V89.8021L46.3988 89.6421C46.5188 89.2887 46.7121 89.0354 46.9788 88.8821C47.2455 88.7221 47.5655 88.6421 47.9388 88.6421H48.2688V89.6721H47.7988C47.4255 89.6721 47.1221 89.7887 46.8888 90.0221C46.6621 90.2487 46.5488 90.5754 46.5488 91.0021V94.1221H45.4188ZM51.5818 94.2421C51.0418 94.2421 50.5618 94.1187 50.1418 93.8721C49.7285 93.6187 49.4052 93.2787 49.1718 92.8521C48.9385 92.4187 48.8218 91.9354 48.8218 91.4021C48.8218 90.8554 48.9385 90.3721 49.1718 89.9521C49.4118 89.5321 49.7318 89.2021 50.1318 88.9621C50.5318 88.7154 50.9852 88.5921 51.4918 88.5921C51.8985 88.5921 52.2618 88.6621 52.5818 88.8021C52.9018 88.9421 53.1718 89.1354 53.3918 89.3821C53.6118 89.6221 53.7785 89.8987 53.8918 90.2121C54.0118 90.5254 54.0718 90.8587 54.0718 91.2121C54.0718 91.2987 54.0685 91.3887 54.0618 91.4821C54.0552 91.5754 54.0418 91.6621 54.0218 91.7421H49.7118V90.8421H53.3818L52.8418 91.2521C52.9085 90.9254 52.8852 90.6354 52.7718 90.3821C52.6652 90.1221 52.4985 89.9187 52.2718 89.7721C52.0518 89.6187 51.7918 89.5421 51.4918 89.5421C51.1918 89.5421 50.9252 89.6187 50.6918 89.7721C50.4585 89.9187 50.2785 90.1321 50.1518 90.4121C50.0252 90.6854 49.9752 91.0187 50.0018 91.4121C49.9685 91.7787 50.0185 92.0987 50.1518 92.3721C50.2918 92.6454 50.4852 92.8587 50.7318 93.0121C50.9852 93.1654 51.2718 93.2421 51.5918 93.2421C51.9185 93.2421 52.1952 93.1687 52.4218 93.0221C52.6552 92.8754 52.8385 92.6854 52.9718 92.4521L53.8918 92.9021C53.7852 93.1554 53.6185 93.3854 53.3918 93.5921C53.1718 93.7921 52.9052 93.9521 52.5918 94.0721C52.2852 94.1854 51.9485 94.2421 51.5818 94.2421Z" fill="#6471D7"/>
<defs>
<clipPath id="clip0_51_36113">
<rect width="64" height="63" fill="white"/>
</clipPath>
</defs>
</svg>
