<svg width="72" height="106" viewBox="0 0 72 106" fill="none" xmlns="http://www.w3.org/2000/svg">
<path d="M20.7605 94.2421C20.2338 94.2421 19.7438 94.1454 19.2905 93.9521C18.8438 93.7587 18.4538 93.4921 18.1205 93.1521C17.7938 92.8054 17.5372 92.3987 17.3505 91.9321C17.1638 91.4654 17.0705 90.9521 17.0705 90.3921C17.0705 89.8387 17.1605 89.3287 17.3405 88.8621C17.5272 88.3887 17.7872 87.9821 18.1205 87.6421C18.4538 87.2954 18.8438 87.0287 19.2905 86.8421C19.7372 86.6487 20.2272 86.5521 20.7605 86.5521C21.2872 86.5521 21.7572 86.6421 22.1705 86.8221C22.5905 87.0021 22.9438 87.2387 23.2305 87.5321C23.5172 87.8187 23.7238 88.1321 23.8505 88.4721L22.7905 88.9721C22.6305 88.5721 22.3738 88.2487 22.0205 88.0021C21.6738 87.7487 21.2538 87.6221 20.7605 87.6221C20.2672 87.6221 19.8305 87.7387 19.4505 87.9721C19.0705 88.2054 18.7738 88.5287 18.5605 88.9421C18.3538 89.3554 18.2505 89.8387 18.2505 90.3921C18.2505 90.9454 18.3538 91.4321 18.5605 91.8521C18.7738 92.2654 19.0705 92.5887 19.4505 92.8221C19.8305 93.0487 20.2672 93.1621 20.7605 93.1621C21.2538 93.1621 21.6738 93.0387 22.0205 92.7921C22.3738 92.5454 22.6305 92.2221 22.7905 91.8221L23.8505 92.3221C23.7238 92.6554 23.5172 92.9687 23.2305 93.2621C22.9438 93.5554 22.5905 93.7921 22.1705 93.9721C21.7572 94.1521 21.2872 94.2421 20.7605 94.2421ZM27.4663 94.2421C26.9463 94.2421 26.4696 94.1187 26.0363 93.8721C25.6096 93.6254 25.2696 93.2887 25.0163 92.8621C24.763 92.4354 24.6363 91.9521 24.6363 91.4121C24.6363 90.8654 24.763 90.3821 25.0163 89.9621C25.2696 89.5354 25.6096 89.2021 26.0363 88.9621C26.463 88.7154 26.9396 88.5921 27.4663 88.5921C27.9996 88.5921 28.4763 88.7154 28.8963 88.9621C29.323 89.2021 29.6596 89.5354 29.9063 89.9621C30.1596 90.3821 30.2863 90.8654 30.2863 91.4121C30.2863 91.9587 30.1596 92.4454 29.9063 92.8721C29.653 93.2987 29.313 93.6354 28.8863 93.8821C28.4596 94.1221 27.9863 94.2421 27.4663 94.2421ZM27.4663 93.1921C27.7863 93.1921 28.0696 93.1154 28.3163 92.9621C28.563 92.8087 28.7563 92.5987 28.8963 92.3321C29.043 92.0587 29.1163 91.7521 29.1163 91.4121C29.1163 91.0721 29.043 90.7687 28.8963 90.5021C28.7563 90.2354 28.563 90.0254 28.3163 89.8721C28.0696 89.7187 27.7863 89.6421 27.4663 89.6421C27.153 89.6421 26.8696 89.7187 26.6163 89.8721C26.3696 90.0254 26.173 90.2354 26.0263 90.5021C25.8863 90.7687 25.8163 91.0721 25.8163 91.4121C25.8163 91.7521 25.8863 92.0587 26.0263 92.3321C26.173 92.5987 26.3696 92.8087 26.6163 92.9621C26.8696 93.1154 27.153 93.1921 27.4663 93.1921ZM31.3895 94.1221V88.7121H32.4695V89.7721L32.3395 89.6321C32.4728 89.2921 32.6862 89.0354 32.9795 88.8621C33.2728 88.6821 33.6128 88.5921 33.9995 88.5921C34.3995 88.5921 34.7528 88.6787 35.0595 88.8521C35.3662 89.0254 35.6062 89.2654 35.7795 89.5721C35.9528 89.8787 36.0395 90.2321 36.0395 90.6321V94.1221H34.9195V90.9321C34.9195 90.6587 34.8695 90.4287 34.7695 90.2421C34.6695 90.0487 34.5262 89.9021 34.3395 89.8021C34.1595 89.6954 33.9528 89.6421 33.7195 89.6421C33.4862 89.6421 33.2762 89.6954 33.0895 89.8021C32.9095 89.9021 32.7695 90.0487 32.6695 90.2421C32.5695 90.4354 32.5195 90.6654 32.5195 90.9321V94.1221H31.3895ZM39.5889 94.1821C39.0222 94.1821 38.5822 94.0221 38.2689 93.7021C37.9555 93.3821 37.7989 92.9321 37.7989 92.3521V89.7321H36.8489V88.7121H36.9989C37.2522 88.7121 37.4489 88.6387 37.5889 88.4921C37.7289 88.3454 37.7989 88.1454 37.7989 87.8921V87.4721H38.9289V88.7121H40.1589V89.7321H38.9289V92.3021C38.9289 92.4887 38.9589 92.6487 39.0189 92.7821C39.0789 92.9087 39.1755 93.0087 39.3089 93.0821C39.4422 93.1487 39.6155 93.1821 39.8289 93.1821C39.8822 93.1821 39.9422 93.1787 40.0089 93.1721C40.0755 93.1654 40.1389 93.1587 40.1989 93.1521V94.1221C40.1055 94.1354 40.0022 94.1487 39.8889 94.1621C39.7755 94.1754 39.6755 94.1821 39.5889 94.1821ZM43.7439 94.2421C43.2039 94.2421 42.7239 94.1187 42.3039 93.8721C41.8906 93.6187 41.5673 93.2787 41.3339 92.8521C41.1006 92.4187 40.9839 91.9354 40.9839 91.4021C40.9839 90.8554 41.1006 90.3721 41.3339 89.9521C41.5739 89.5321 41.8939 89.2021 42.2939 88.9621C42.6939 88.7154 43.1473 88.5921 43.6539 88.5921C44.0606 88.5921 44.4239 88.6621 44.7439 88.8021C45.0639 88.9421 45.3339 89.1354 45.5539 89.3821C45.7739 89.6221 45.9406 89.8987 46.0539 90.2121C46.1739 90.5254 46.2339 90.8587 46.2339 91.2121C46.2339 91.2987 46.2306 91.3887 46.2239 91.4821C46.2173 91.5754 46.2039 91.6621 46.1839 91.7421H41.8739V90.8421H45.5439L45.0039 91.2521C45.0706 90.9254 45.0473 90.6354 44.9339 90.3821C44.8273 90.1221 44.6606 89.9187 44.4339 89.7721C44.2139 89.6187 43.9539 89.5421 43.6539 89.5421C43.3539 89.5421 43.0873 89.6187 42.8539 89.7721C42.6206 89.9187 42.4406 90.1321 42.3139 90.4121C42.1873 90.6854 42.1373 91.0187 42.1639 91.4121C42.1306 91.7787 42.1806 92.0987 42.3139 92.3721C42.4539 92.6454 42.6473 92.8587 42.8939 93.0121C43.1473 93.1654 43.4339 93.2421 43.7539 93.2421C44.0806 93.2421 44.3573 93.1687 44.5839 93.0221C44.8173 92.8754 45.0006 92.6854 45.1339 92.4521L46.0539 92.9021C45.9473 93.1554 45.7806 93.3854 45.5539 93.5921C45.3339 93.7921 45.0673 93.9521 44.7539 94.0721C44.4473 94.1854 44.1106 94.2421 43.7439 94.2421ZM47.3368 94.1221V88.7121H48.4168V89.7721L48.2868 89.6321C48.4201 89.2921 48.6334 89.0354 48.9268 88.8621C49.2201 88.6821 49.5601 88.5921 49.9468 88.5921C50.3468 88.5921 50.7001 88.6787 51.0068 88.8521C51.3134 89.0254 51.5534 89.2654 51.7268 89.5721C51.9001 89.8787 51.9868 90.2321 51.9868 90.6321V94.1221H50.8668V90.9321C50.8668 90.6587 50.8168 90.4287 50.7168 90.2421C50.6168 90.0487 50.4734 89.9021 50.2868 89.8021C50.1068 89.6954 49.9001 89.6421 49.6668 89.6421C49.4334 89.6421 49.2234 89.6954 49.0368 89.8021C48.8568 89.9021 48.7168 90.0487 48.6168 90.2421C48.5168 90.4354 48.4668 90.6654 48.4668 90.9321V94.1221H47.3368ZM55.5361 94.1821C54.9695 94.1821 54.5295 94.0221 54.2161 93.7021C53.9028 93.3821 53.7461 92.9321 53.7461 92.3521V89.7321H52.7961V88.7121H52.9461C53.1995 88.7121 53.3961 88.6387 53.5361 88.4921C53.6761 88.3454 53.7461 88.1454 53.7461 87.8921V87.4721H54.8761V88.7121H56.1061V89.7321H54.8761V92.3021C54.8761 92.4887 54.9061 92.6487 54.9661 92.7821C55.0261 92.9087 55.1228 93.0087 55.2561 93.0821C55.3895 93.1487 55.5628 93.1821 55.7761 93.1821C55.8295 93.1821 55.8895 93.1787 55.9561 93.1721C56.0228 93.1654 56.0861 93.1587 56.1461 93.1521V94.1221C56.0528 94.1354 55.9495 94.1487 55.8361 94.1621C55.7228 94.1754 55.6228 94.1821 55.5361 94.1821Z" fill="#20AF92"/>
<path d="M70.1316 62.7986C70.1316 62.7986 68.2951 44.4825 59.6572 37.311" stroke="#20AF92" stroke-width="2" stroke-linecap="round" stroke-linejoin="round"/>
<path d="M42.5203 62.5403H4.07249C3.25761 62.5403 2.47612 62.2166 1.89992 61.6404C1.32371 61.0642 1.00001 60.2827 1.00001 59.4678V4.07947C0.99909 3.6754 1.07789 3.27511 1.23188 2.90154C1.38588 2.52796 1.61205 2.18843 1.89744 1.90239C2.18284 1.61634 2.52186 1.3894 2.89509 1.23455C3.26831 1.07971 3.66841 1.00001 4.07249 1.00001H47.15C47.5547 0.999087 47.9555 1.07811 48.3296 1.23254C48.7036 1.38698 49.0434 1.61377 49.3296 1.89991C49.6157 2.18605 49.8425 2.52589 49.9969 2.89992C50.1514 3.27396 50.2304 3.67481 50.2295 4.07947V22.5423" stroke="#20AF92" stroke-width="2" stroke-linecap="round" stroke-linejoin="round"/>
<path d="M12.2917 10.2314H37.905" stroke="#20AF92" stroke-width="2" stroke-linecap="round" stroke-linejoin="round"/>
<path d="M12.2917 19.4629H37.905" stroke="#20AF92" stroke-width="2" stroke-linecap="round" stroke-linejoin="round"/>
<path d="M12.2917 28.6942H22.9686" stroke="#20AF92" stroke-width="2" stroke-linecap="round" stroke-linejoin="round"/>
<path d="M53.0446 30.7542C53.0446 30.7542 51.2011 27.6817 45.0142 29.3576C36.125 31.5433 33.9394 41.4311 33.7578 42.5693" stroke="#20AF92" stroke-width="2" stroke-linecap="round" stroke-linejoin="round"/>
<path d="M28.9534 45.5229L23.4788 54.2935L33.7506 53.4066" stroke="#20AF92" stroke-width="2" stroke-linecap="round" stroke-linejoin="round"/>
<path d="M46.2777 45.6207L62.6177 35.6142C63.4351 34.8999 63.9747 33.9204 64.1415 32.8477C64.3083 31.7751 64.0917 30.678 63.5297 29.7492C62.9678 28.8204 62.0965 28.1194 61.0689 27.7694C60.0413 27.4193 58.9233 27.4427 57.9112 27.8353L28.9531 45.6207L33.7574 53.4974L38.4918 50.9138" stroke="#20AF92" stroke-width="2" stroke-linecap="round" stroke-linejoin="round"/>
<path d="M54.4664 49.4031L42.7421 45.9117C42.3106 45.7507 41.8517 45.6764 41.3915 45.6928C40.9313 45.7092 40.4789 45.8161 40.06 46.0074C39.214 46.3937 38.5562 47.1003 38.2311 47.9716C38.0702 48.4031 37.9958 48.862 38.0122 49.3222C38.0287 49.7824 38.1356 50.2349 38.3269 50.6537C38.7132 51.4997 39.4197 52.1576 40.2911 52.4826C40.438 52.5405 40.59 52.5849 40.745 52.6153L48.1259 55.0523C48.4634 57.0731 49.4011 58.9456 50.8171 60.4263C52.233 61.9071 55.4673 61.0529 56.8638 58.2598V62.4495" stroke="#20AF92" stroke-width="2" stroke-linecap="round" stroke-linejoin="round"/>
<path d="M12.2917 37.7021H22.9686" stroke="#20AF92" stroke-width="2" stroke-linecap="round" stroke-linejoin="round"/>
</svg>
