<svg width="63" height="105" viewBox="0 0 63 105" fill="none" xmlns="http://www.w3.org/2000/svg">
<path d="M15.24 94.12C14.7133 94.12 14.2233 94.0233 13.77 93.83C13.3233 93.6367 12.9333 93.37 12.6 93.03C12.2733 92.6833 12.0167 92.2767 11.83 91.81C11.6433 91.3433 11.55 90.83 11.55 90.27C11.55 89.7167 11.64 89.2067 11.82 88.74C12.0067 88.2667 12.2667 87.86 12.6 87.52C12.9333 87.1733 13.3233 86.9067 13.77 86.72C14.2167 86.5267 14.7067 86.43 15.24 86.43C15.7667 86.43 16.2367 86.52 16.65 86.7C17.07 86.88 17.4233 87.1167 17.71 87.41C17.9967 87.6967 18.2033 88.01 18.33 88.35L17.27 88.85C17.11 88.45 16.8533 88.1267 16.5 87.88C16.1533 87.6267 15.7333 87.5 15.24 87.5C14.7467 87.5 14.31 87.6167 13.93 87.85C13.55 88.0833 13.2533 88.4067 13.04 88.82C12.8333 89.2333 12.73 89.7167 12.73 90.27C12.73 90.8233 12.8333 91.31 13.04 91.73C13.2533 92.1433 13.55 92.4667 13.93 92.7C14.31 92.9267 14.7467 93.04 15.24 93.04C15.7333 93.04 16.1533 92.9167 16.5 92.67C16.8533 92.4233 17.11 92.1 17.27 91.7L18.33 92.2C18.2033 92.5333 17.9967 92.8467 17.71 93.14C17.4233 93.4333 17.07 93.67 16.65 93.85C16.2367 94.03 15.7667 94.12 15.24 94.12ZM19.4334 94V88.59H20.5134V89.68L20.4134 89.52C20.5334 89.1667 20.7268 88.9133 20.9934 88.76C21.2601 88.6 21.5801 88.52 21.9534 88.52H22.2834V89.55H21.8134C21.4401 89.55 21.1368 89.6667 20.9034 89.9C20.6768 90.1267 20.5634 90.4533 20.5634 90.88V94H19.4334ZM25.5965 94.12C25.0565 94.12 24.5765 93.9967 24.1565 93.75C23.7432 93.4967 23.4198 93.1567 23.1865 92.73C22.9532 92.2967 22.8365 91.8133 22.8365 91.28C22.8365 90.7333 22.9532 90.25 23.1865 89.83C23.4265 89.41 23.7465 89.08 24.1465 88.84C24.5465 88.5933 24.9998 88.47 25.5065 88.47C25.9132 88.47 26.2765 88.54 26.5965 88.68C26.9165 88.82 27.1865 89.0133 27.4065 89.26C27.6265 89.5 27.7932 89.7767 27.9065 90.09C28.0265 90.4033 28.0865 90.7367 28.0865 91.09C28.0865 91.1767 28.0832 91.2667 28.0765 91.36C28.0698 91.4533 28.0565 91.54 28.0365 91.62H23.7265V90.72H27.3965L26.8565 91.13C26.9232 90.8033 26.8998 90.5133 26.7865 90.26C26.6798 90 26.5132 89.7967 26.2865 89.65C26.0665 89.4967 25.8065 89.42 25.5065 89.42C25.2065 89.42 24.9398 89.4967 24.7065 89.65C24.4732 89.7967 24.2932 90.01 24.1665 90.29C24.0398 90.5633 23.9898 90.8967 24.0165 91.29C23.9832 91.6567 24.0332 91.9767 24.1665 92.25C24.3065 92.5233 24.4998 92.7367 24.7465 92.89C24.9998 93.0433 25.2865 93.12 25.6065 93.12C25.9332 93.12 26.2098 93.0467 26.4365 92.9C26.6698 92.7533 26.8532 92.5633 26.9865 92.33L27.9065 92.78C27.7998 93.0333 27.6332 93.2633 27.4065 93.47C27.1865 93.67 26.9198 93.83 26.6065 93.95C26.2998 94.0633 25.9632 94.12 25.5965 94.12ZM30.7605 94.12C30.3938 94.12 30.0705 94.0567 29.7905 93.93C29.5171 93.7967 29.3038 93.6167 29.1505 93.39C28.9971 93.1567 28.9205 92.8833 28.9205 92.57C28.9205 92.2767 28.9838 92.0133 29.1105 91.78C29.2438 91.5467 29.4471 91.35 29.7205 91.19C29.9938 91.03 30.3371 90.9167 30.7505 90.85L32.6305 90.54V91.43L30.9705 91.72C30.6705 91.7733 30.4505 91.87 30.3105 92.01C30.1705 92.1433 30.1005 92.3167 30.1005 92.53C30.1005 92.7367 30.1771 92.9067 30.3305 93.04C30.4905 93.1667 30.6938 93.23 30.9405 93.23C31.2471 93.23 31.5138 93.1633 31.7405 93.03C31.9738 92.8967 32.1538 92.72 32.2805 92.5C32.4071 92.2733 32.4705 92.0233 32.4705 91.75V90.36C32.4705 90.0933 32.3705 89.8767 32.1705 89.71C31.9771 89.5367 31.7171 89.45 31.3905 89.45C31.0905 89.45 30.8271 89.53 30.6005 89.69C30.3805 89.8433 30.2171 90.0433 30.1105 90.29L29.1705 89.82C29.2705 89.5533 29.4338 89.32 29.6605 89.12C29.8871 88.9133 30.1505 88.7533 30.4505 88.64C30.7571 88.5267 31.0805 88.47 31.4205 88.47C31.8471 88.47 32.2238 88.55 32.5505 88.71C32.8838 88.87 33.1405 89.0933 33.3205 89.38C33.5071 89.66 33.6005 89.9867 33.6005 90.36V94H32.5205V93.02L32.7505 93.05C32.6238 93.27 32.4605 93.46 32.2605 93.62C32.0671 93.78 31.8438 93.9033 31.5905 93.99C31.3438 94.0767 31.0671 94.12 30.7605 94.12ZM37.1641 94.06C36.5974 94.06 36.1574 93.9 35.8441 93.58C35.5307 93.26 35.3741 92.81 35.3741 92.23V89.61H34.4241V88.59H34.5741C34.8274 88.59 35.0241 88.5167 35.1641 88.37C35.3041 88.2233 35.3741 88.0233 35.3741 87.77V87.35H36.5041V88.59H37.7341V89.61H36.5041V92.18C36.5041 92.3667 36.5341 92.5267 36.5941 92.66C36.6541 92.7867 36.7507 92.8867 36.8841 92.96C37.0174 93.0267 37.1907 93.06 37.4041 93.06C37.4574 93.06 37.5174 93.0567 37.5841 93.05C37.6507 93.0433 37.7141 93.0367 37.7741 93.03V94C37.6807 94.0133 37.5774 94.0267 37.4641 94.04C37.3507 94.0533 37.2507 94.06 37.1641 94.06ZM38.8768 94V88.59H40.0068V94H38.8768ZM38.8768 87.85V86.55H40.0068V87.85H38.8768ZM42.898 94L40.778 88.59H42.008L43.638 93H43.188L44.818 88.59H46.058L43.928 94H42.898ZM49.2684 94.12C48.7284 94.12 48.2484 93.9967 47.8284 93.75C47.415 93.4967 47.0917 93.1567 46.8584 92.73C46.625 92.2967 46.5084 91.8133 46.5084 91.28C46.5084 90.7333 46.625 90.25 46.8584 89.83C47.0984 89.41 47.4184 89.08 47.8184 88.84C48.2184 88.5933 48.6717 88.47 49.1784 88.47C49.585 88.47 49.9484 88.54 50.2684 88.68C50.5884 88.82 50.8584 89.0133 51.0784 89.26C51.2984 89.5 51.465 89.7767 51.5784 90.09C51.6984 90.4033 51.7584 90.7367 51.7584 91.09C51.7584 91.1767 51.755 91.2667 51.7484 91.36C51.7417 91.4533 51.7284 91.54 51.7084 91.62H47.3984V90.72H51.0684L50.5284 91.13C50.595 90.8033 50.5717 90.5133 50.4584 90.26C50.3517 90 50.185 89.7967 49.9584 89.65C49.7384 89.4967 49.4784 89.42 49.1784 89.42C48.8784 89.42 48.6117 89.4967 48.3784 89.65C48.145 89.7967 47.965 90.01 47.8384 90.29C47.7117 90.5633 47.6617 90.8967 47.6884 91.29C47.655 91.6567 47.705 91.9767 47.8384 92.25C47.9784 92.5233 48.1717 92.7367 48.4184 92.89C48.6717 93.0433 48.9584 93.12 49.2784 93.12C49.605 93.12 49.8817 93.0467 50.1084 92.9C50.3417 92.7533 50.525 92.5633 50.6584 92.33L51.5784 92.78C51.4717 93.0333 51.305 93.2633 51.0784 93.47C50.8584 93.67 50.5917 93.83 50.2784 93.95C49.9717 94.0633 49.635 94.12 49.2684 94.12Z" fill="#91B3FA"/>
<path d="M53.9166 21.3385H39.0274L39.7508 17.0017L31.5619 6.47363L23.373 17.0017L24.0964 21.3385H9.20715C6.96553 21.3385 5.14258 23.1615 5.14258 25.4031V51.8224C5.14258 54.064 6.96553 55.8869 9.20715 55.8869H22.4168V60.9677H18.3522V62.9999H22.4168H40.7069H44.7715V60.9677H40.7069V55.8869H53.9166C56.1582 55.8869 57.9812 54.064 57.9812 51.8224V25.4031C57.9812 23.1615 56.1582 21.3385 53.9166 21.3385ZM31.5619 17.2739C32.1229 17.2739 32.578 17.7302 32.578 18.2901C32.578 18.85 32.1229 19.3062 31.5619 19.3062C31.0009 19.3062 30.5457 18.85 30.5457 18.2901C30.5457 17.7302 31.0009 17.2739 31.5619 17.2739ZM30.5457 11.0909V15.4299C29.3659 15.8504 28.5134 16.9684 28.5134 18.2914C28.5134 19.972 29.8812 21.3398 31.5619 21.3398C33.2425 21.3398 34.6103 19.972 34.6103 18.2914C34.6103 16.9684 33.7578 15.8507 32.578 15.4299V11.0909L37.5988 17.5462L35.782 28.4513H27.3411L25.5243 17.5462L30.5457 11.0909ZM26.4814 30.4836H36.6426C37.2034 30.4836 37.6585 30.9398 37.6585 31.4997C37.6585 32.0597 37.2034 32.5159 36.6424 32.5159H26.4814C25.9204 32.5159 25.4652 32.0597 25.4652 31.4997C25.4652 30.9398 25.9204 30.4836 26.4814 30.4836ZM35.6273 41.6609H27.4973V34.5482H35.6262L35.6273 41.6609ZM25.3208 28.683C24.2141 29.1414 23.4327 30.2297 23.4327 31.4997C23.4327 32.8227 24.2852 33.9404 25.465 34.3612V41.6612C25.465 42.7819 26.3764 43.6934 27.4973 43.6934H35.6262C36.7469 43.6934 37.6585 42.7821 37.6585 41.6612V34.3612C38.8383 33.9406 39.6908 32.8227 39.6908 31.4997C39.6908 30.2297 38.9094 29.1414 37.8028 28.683L38.011 27.4352H51.8841V49.7899H11.2394V27.4352H25.1125L25.3208 28.683ZM38.6747 60.9672H24.4489V55.8865H38.6747V60.9672ZM55.9491 51.8222C55.9489 52.9429 55.0375 53.8544 53.9166 53.8544H40.7069H22.4168H9.20715C8.08645 53.8544 7.17486 52.9431 7.17486 51.8222V25.4029C7.17486 24.2822 8.08623 23.3706 9.20715 23.3706H24.4348L24.7732 25.4029H9.20715V51.8222H53.9166V25.4029H38.3497L38.6881 23.3706H53.9168C55.0375 23.3706 55.9491 24.282 55.9491 25.4029V51.8222Z" fill="#91B3FA"/>
<path d="M15.9049 6.09664C17.2279 6.09664 18.3456 5.24417 18.7664 4.06436H24.8733C21.2803 6.22062 18.7216 9.90899 18.0998 14.2256H15.9049V20.3222H22.0015V14.2258H20.1532C21.1245 8.46843 26.1331 4.06457 32.1627 4.06457C38.1924 4.06457 43.201 8.46843 44.1723 14.2258H42.3239V20.3224H48.4206V14.2258H46.2257C45.6039 9.90921 43.0441 6.22083 39.4522 4.06457H44.5429C44.9635 5.24438 46.0815 6.09686 47.4044 6.09686C49.0851 6.09686 50.4529 4.72905 50.4529 3.04843C50.4529 1.3678 49.0853 0 47.4047 0C46.0817 0 44.964 0.852476 44.5432 2.03229H18.7662C18.3456 0.852476 17.2279 0 15.9049 0C14.2242 0 12.8564 1.3678 12.8564 3.04843C12.8564 4.72905 14.224 6.09664 15.9049 6.09664ZM19.9692 18.2901H17.9369V16.2579H19.9692V18.2901ZM44.3562 16.2579H46.3885V18.2901H44.3562V16.2579ZM47.4047 2.03229C47.9657 2.03229 48.4208 2.4885 48.4208 3.04843C48.4208 3.60835 47.9657 4.06457 47.4047 4.06457C46.8437 4.06457 46.3885 3.60835 46.3885 3.04843C46.3885 2.4885 46.8437 2.03229 47.4047 2.03229ZM15.9049 2.03229C16.4659 2.03229 16.921 2.4885 16.921 3.04843C16.921 3.60835 16.4659 4.06457 15.9049 4.06457C15.3439 4.06457 14.8887 3.60835 14.8887 3.04843C14.8887 2.4885 15.3439 2.03229 15.9049 2.03229Z" fill="#91B3FA"/>
<path d="M41.7227 38.6125H39.6904V40.6448H41.7227V38.6125Z" fill="#91B3FA"/>
<path d="M45.7872 38.6125H43.7549V40.6448H45.7872V38.6125Z" fill="#91B3FA"/>
<path d="M49.8526 38.6125H47.8203V40.6448H49.8526V38.6125Z" fill="#91B3FA"/>
<path d="M15.304 38.6125H13.2717V40.6448H15.304V38.6125Z" fill="#91B3FA"/>
<path d="M19.3685 38.6125H17.3362V40.6448H19.3685V38.6125Z" fill="#91B3FA"/>
<path d="M23.4327 38.6125H21.4004V40.6448H23.4327V38.6125Z" fill="#91B3FA"/>
</svg>
