<svg width="183" height="116" viewBox="0 0 183 116" fill="none" xmlns="http://www.w3.org/2000/svg">
<mask id="mask0_782_35606" style="mask-type:luminance" maskUnits="userSpaceOnUse" x="0" y="0" width="183" height="116">
<path d="M183 0H0V116H183V0Z" fill="white"/>
</mask>
<g mask="url(#mask0_782_35606)">
<path d="M59.9172 10.4935C61.0477 9.79925 62.2622 9.27358 63.526 8.91652L64.2714 5.34592L70.3091 5.23682L71.1631 8.78262C72.4319 9.08513 73.6414 9.58601 74.8311 10.2208L77.8919 8.2272L82.2214 12.4375L80.3455 15.5668C81.0366 16.7024 81.5599 17.9224 81.9153 19.1919L85.4451 19.9408L85.5537 26.0058L82.0239 26.8638C81.7228 28.1383 81.2242 29.3533 80.5923 30.5435L82.5769 33.6182L78.3856 37.9674L75.2705 36.0829C74.14 36.7772 72.9255 37.3028 71.6617 37.6599L70.9163 41.2305L64.8787 41.3396L64.0246 37.7938C62.7559 37.4913 61.5464 36.9904 60.3566 36.3556L57.2958 38.3492L52.9712 34.1389L54.8472 31.0096C54.1561 29.874 53.6328 28.654 53.2773 27.3845L49.7229 26.6356L49.6143 20.5706L53.144 19.7126C53.4452 18.4381 53.9438 17.2231 54.5757 16.0329L52.5911 12.9582L56.7824 8.61401L59.9222 10.4985L59.9172 10.4935ZM63.1409 18.577C60.6627 21.1508 60.7417 25.2768 63.3038 27.7663C65.866 30.2558 69.9734 30.1765 72.4516 27.6027C74.9299 25.0289 74.8509 20.9028 72.2887 18.4133C69.6969 15.9238 65.6192 16.0032 63.1409 18.577Z" fill="#E0E0E0"/>
<path d="M32.6023 3.35243C33.3181 2.91106 34.0882 2.5788 34.888 2.35564L35.357 0.084336L39.1879 0.0297852L39.7408 2.27133C40.5405 2.46474 41.3107 2.76725 42.0561 3.18382L43.9864 1.90931L46.7411 4.56743L45.5563 6.56101C45.9956 7.28009 46.3264 8.05373 46.5486 8.85711L48.8096 9.32823L48.8639 13.1765L46.6325 13.732C46.44 14.5354 46.1388 15.309 45.7241 16.0578L46.9929 17.9969L44.3468 20.7641L42.3622 19.5739C41.6464 20.0152 40.8762 20.3475 40.0765 20.5707L39.6075 22.842L35.7766 22.8965L35.2237 20.655C34.4239 20.4616 33.6538 20.1591 32.9084 19.7425L30.9781 21.017L28.2234 18.3589L29.4082 16.3653C28.9688 15.6462 28.6381 14.8726 28.4159 14.0692L26.1549 13.5981L26.1006 9.74976L28.332 9.19434C28.5245 8.39095 28.8257 7.61732 29.2404 6.86848L27.9716 4.92945L30.6177 2.16223L32.6023 3.35243ZM34.6411 8.47526C33.0713 10.1068 33.1256 12.7104 34.7498 14.3172C36.3739 15.8942 38.9657 15.8396 40.5356 14.2081C42.1055 12.5765 42.0512 9.97293 40.427 8.36615C38.8028 6.78914 36.211 6.81393 34.6411 8.47526Z" fill="#F5F5F5"/>
<path d="M165.223 52.3788C165.993 51.9077 166.793 51.5755 167.622 51.3275L168.116 48.9471L172.139 48.8628L172.717 51.2432C173.571 51.4664 174.371 51.7689 175.17 52.2102L177.209 50.8812L180.102 53.6781L178.833 55.756C179.302 56.5297 179.633 57.3331 179.88 58.1662L182.25 58.6671L182.334 62.7088L179.964 63.289C179.742 64.147 179.441 64.9503 179.001 65.7537L180.324 67.8019L177.54 70.7079L175.471 69.4334C174.701 69.9046 173.902 70.2368 173.072 70.4848L172.579 72.8652L168.555 72.9495L167.977 70.5691C167.123 70.3459 166.324 70.0434 165.524 69.6021L163.485 70.9311L160.592 68.1341L161.861 66.0562C161.392 65.2826 161.061 64.4792 160.814 63.6461L158.445 63.1452L158.361 59.1035L160.73 58.5233C160.953 57.6653 161.254 56.8619 161.693 56.0586L160.37 54.0104L163.154 51.1043L165.223 52.3788ZM167.37 57.7794C165.716 59.4953 165.771 62.2377 167.479 63.899C169.187 65.5603 171.917 65.5058 173.571 63.7899C175.225 62.074 175.17 59.3316 173.462 57.6703C171.754 56.009 169.024 56.0635 167.37 57.7794Z" fill="#F5F5F5"/>
<path d="M14.0846 33.0828C14.909 32.5869 15.7927 32.1951 16.7011 31.9471L17.254 29.3436L21.6378 29.2593L22.2697 31.8331C23.1781 32.0563 24.0864 32.4133 24.9158 32.8844L27.1225 31.4165L30.2623 34.4614L28.8849 36.7327C29.3786 37.5609 29.7686 38.4486 30.0154 39.3611L32.6072 39.9165L32.6912 44.3203L30.129 44.9551C29.9068 45.8675 29.5514 46.78 29.0824 47.6132L30.5437 49.8299L27.5125 52.984L25.2515 51.6003C24.4271 52.1012 23.5434 52.488 22.635 52.736L22.0821 55.3396L17.6983 55.4239L17.0664 52.8501C16.158 52.6269 15.2497 52.2698 14.4203 51.7987L12.2136 53.2666L9.0738 50.2217L10.4511 47.9504C9.95748 47.1222 9.56747 46.2345 9.32064 45.322L6.72885 44.7666L6.62024 40.3926L9.18241 39.7578C9.40456 38.8454 9.76001 37.9329 10.229 37.0997L8.76772 34.883L11.7989 31.7289L14.0846 33.0878V33.0828ZM16.3999 38.9545C14.6079 40.8389 14.6622 43.7996 16.5085 45.6245C18.3845 47.4247 21.3317 47.3702 23.1484 45.5154C24.9405 43.631 24.8862 40.6703 23.0398 38.8454C21.1639 37.0204 18.2166 37.0749 16.3999 38.9545Z" fill="#E0E0E0"/>
<path d="M163.1 80.3136C162.577 78.5134 161.17 77.5712 159.6 77.5464C158.168 77.8489 157.67 79.3168 157.561 80.7847C157.452 82.2526 157.946 83.6908 158.469 85.0744C160.069 89.503 161.693 93.9315 163.293 98.3898C164.645 98.1964 165.993 97.9732 167.316 97.7798C165.8 91.7743 164.838 86.2051 163.1 80.3086V80.3136Z" fill="#455A64"/>
<path d="M159.654 77.4077C159.684 77.4077 159.432 77.6309 159.185 78.102C158.938 78.5731 158.662 79.322 158.662 80.2592C158.632 81.2015 158.884 82.3371 159.294 83.5273C159.708 84.7175 160.148 86.0466 160.617 87.4302C161.525 90.1974 162.379 92.6919 162.986 94.5169C163.288 95.4046 163.51 96.1484 163.678 96.6741C163.761 96.9221 163.816 97.1155 163.87 97.2543C163.9 97.3932 163.924 97.4477 163.924 97.4775C163.924 97.4775 163.895 97.4229 163.84 97.2841C163.786 97.1452 163.732 96.9518 163.618 96.7039C163.426 96.1782 163.179 95.4591 162.873 94.5714C162.266 92.7464 161.412 90.252 160.474 87.5096C160.005 86.1259 159.565 84.8266 159.18 83.6067C158.795 82.4165 158.548 81.2808 158.573 80.3138C158.603 79.3468 158.874 78.5979 159.151 78.1268C159.397 77.6011 159.644 77.4077 159.644 77.4077H159.654Z" fill="#263238"/>
<path d="M166.408 97.3438C166.408 97.3438 166.378 97.2892 166.299 97.1504C166.245 97.0115 166.136 96.8479 166.052 96.5949C165.83 96.0941 165.559 95.375 165.282 94.4625C164.981 93.55 164.675 92.4392 164.398 91.1944C164.122 89.9497 163.791 88.5908 163.46 87.1824C163.13 85.7691 162.745 84.4152 162.33 83.225C161.915 82.0348 161.476 80.9835 161.036 80.1255C160.597 79.2676 160.182 78.6328 159.852 78.1865C159.713 77.9633 159.575 77.7997 159.491 77.6856C159.407 77.5765 159.353 77.522 159.383 77.522C159.383 77.522 159.437 77.5765 159.521 77.6856C159.605 77.7947 159.743 77.9633 159.906 78.1567C160.237 78.5733 160.676 79.2378 161.12 80.066C161.589 80.8942 162.058 81.9505 162.473 83.1655C162.888 84.3557 163.273 85.7145 163.604 87.1527C163.934 88.5908 164.235 89.9497 164.512 91.1696C164.788 92.4144 165.09 93.4955 165.366 94.4377C165.642 95.3502 165.919 96.0693 166.111 96.5701C166.195 96.8181 166.274 97.0115 166.334 97.1504C166.418 97.2595 166.442 97.3438 166.418 97.3438H166.408Z" fill="#263238"/>
<path d="M158.499 84.3553C158.499 84.3851 158.306 84.4942 158 84.5785C157.724 84.6628 157.477 84.6876 157.477 84.6628C157.477 84.638 157.67 84.524 157.976 84.4396C158.252 84.3553 158.499 84.3305 158.499 84.3553Z" fill="#263238"/>
<path d="M157.946 81.5883C157.946 81.6429 157.645 81.6726 157.255 81.6974C156.87 81.7272 156.564 81.752 156.564 81.6974C156.564 81.6677 156.865 81.5586 157.255 81.5288C157.64 81.5288 157.946 81.5586 157.946 81.5834V81.5883Z" fill="#263238"/>
<path d="M158.306 79.0444C158.277 79.0741 158.06 78.9353 157.808 78.7419C157.561 78.5485 157.368 78.3551 157.393 78.3253C157.423 78.2956 157.64 78.4344 157.892 78.6278C158.168 78.8212 158.331 79.0146 158.306 79.0444Z" fill="#263238"/>
<path d="M159.461 76.6343C159.515 76.6343 159.491 76.8277 159.515 77.0756C159.515 77.3236 159.515 77.517 159.486 77.517C159.456 77.517 159.378 77.3236 159.378 77.0756C159.348 76.8277 159.407 76.6343 159.461 76.6343Z" fill="#263238"/>
<path d="M162.029 77.6557C162.058 77.6855 161.974 77.8789 161.836 78.1269C161.698 78.35 161.535 78.5137 161.505 78.5137C161.476 78.4839 161.56 78.2905 161.698 78.0426C161.836 77.7946 161.999 77.626 162.029 77.6557Z" fill="#263238"/>
<path d="M163.791 80.4529C163.821 80.4826 163.599 80.6165 163.322 80.7554C163.046 80.8645 162.824 80.9488 162.799 80.924C162.769 80.8942 162.991 80.7554 163.268 80.6215C163.544 80.4826 163.762 80.3983 163.791 80.4578V80.4529Z" fill="#263238"/>
<path d="M164.892 83.3586C164.922 83.3884 164.645 83.552 164.26 83.6611C163.875 83.7702 163.569 83.7454 163.569 83.7157C163.569 83.6611 163.87 83.6066 164.231 83.5223C164.591 83.4132 164.892 83.2991 164.892 83.3586Z" fill="#263238"/>
<path d="M160.291 82.6943C160.261 82.6943 160.261 82.4712 160.345 82.2232C160.4 81.9753 160.484 81.8066 160.538 81.8066C160.567 81.8066 160.567 82.0298 160.484 82.2778C160.429 82.5257 160.345 82.6943 160.291 82.6943Z" fill="#263238"/>
<path d="M161.091 86.379C161.061 86.3493 161.12 86.0765 161.259 85.769C161.397 85.4368 161.505 85.1888 161.56 85.2136C161.589 85.2434 161.53 85.5161 161.392 85.8236C161.254 86.1261 161.115 86.379 161.091 86.379Z" fill="#263238"/>
<path d="M159.546 87.4602C159.516 87.49 159.269 87.4304 158.968 87.3511C158.667 87.2668 158.39 87.1874 158.415 87.1577C158.415 87.1279 158.692 87.1279 159.022 87.2122C159.323 87.2966 159.575 87.4057 159.546 87.4602Z" fill="#263238"/>
<path d="M160.568 90.4205C160.597 90.4502 160.429 90.6139 160.182 90.8073C159.96 91.0007 159.743 91.1098 159.713 91.085C159.684 91.0552 159.852 90.8916 160.099 90.6982C160.345 90.5048 160.538 90.3957 160.568 90.4205Z" fill="#263238"/>
<path d="M161.422 93.4109C161.422 93.4407 161.229 93.5498 160.953 93.6341C160.676 93.7184 160.454 93.7432 160.429 93.7184C160.405 93.6936 160.622 93.5795 160.898 93.4952C161.175 93.3861 161.422 93.3564 161.422 93.4109Z" fill="#263238"/>
<path d="M165.085 85.8531C165.114 85.8828 164.917 86.0465 164.67 86.1556C164.393 86.2647 164.171 86.2944 164.171 86.2399C164.171 86.2101 164.364 86.101 164.611 86.0167C164.857 85.9076 165.05 85.8233 165.08 85.8481L165.085 85.8531Z" fill="#263238"/>
<path d="M165.83 90.5048C165.8 90.5345 165.583 90.475 165.331 90.3659C165.085 90.2568 164.892 90.1428 164.892 90.0882C164.922 90.0584 165.139 90.118 165.391 90.2271C165.667 90.3659 165.86 90.475 165.83 90.5048Z" fill="#263238"/>
<path d="M166.961 93.8275C166.961 93.8573 166.659 93.7978 166.299 93.6887C165.939 93.5796 165.692 93.4407 165.692 93.411C165.692 93.3812 165.993 93.4407 166.353 93.5498C166.714 93.6589 166.985 93.773 166.961 93.8275Z" fill="#263238"/>
<path d="M161.723 96.6495C161.693 96.6198 161.969 96.4264 162.246 96.1784C162.547 95.9305 162.769 95.7073 162.799 95.737C162.828 95.7668 162.631 96.0396 162.33 96.3173C162.029 96.5652 161.723 96.7041 161.723 96.6495Z" fill="#263238"/>
<path d="M164.285 94.8494C164.231 94.8494 164.176 94.6262 164.063 94.3783C163.954 94.1303 163.841 93.9071 163.87 93.8824C163.9 93.8576 164.092 94.0212 164.201 94.2989C164.309 94.6014 164.309 94.8544 164.285 94.8544V94.8494Z" fill="#263238"/>
<path d="M163.431 90.8619C163.401 90.8916 163.238 90.8321 163.046 90.6982C162.853 90.5593 162.715 90.4502 162.745 90.3957C162.774 90.3659 162.937 90.4254 163.13 90.5593C163.293 90.6982 163.431 90.8073 163.431 90.8619Z" fill="#263238"/>
<path d="M166.383 87.5391C166.383 87.5689 166.161 87.678 165.86 87.7028C165.559 87.7325 165.307 87.7028 165.307 87.6482C165.307 87.5937 165.554 87.5937 165.86 87.5391C166.136 87.5094 166.383 87.4846 166.383 87.5391Z" fill="#263238"/>
<path d="M166.63 85.1045C166.63 85.1343 166.383 85.1591 166.106 85.05C165.83 84.9408 165.667 84.7474 165.692 84.7177C165.721 84.6879 165.914 84.802 166.161 84.9111C166.408 85.0202 166.63 85.0747 166.63 85.1045Z" fill="#263238"/>
<path d="M167.099 91.72C167.099 91.7497 166.877 91.7745 166.63 91.72C166.383 91.6902 166.19 91.6357 166.19 91.5811C166.19 91.5513 166.413 91.5265 166.659 91.5811C166.906 91.6357 167.099 91.6902 167.099 91.72Z" fill="#263238"/>
<path d="M174.514 87.2913C174.484 87.3211 174.292 87.1822 174.074 86.959C173.852 86.7359 173.689 86.5425 173.714 86.5177C173.744 86.4879 173.936 86.6268 174.153 86.8499C174.376 87.0731 174.538 87.2665 174.514 87.2913Z" fill="#263238"/>
<path d="M181.924 78.1268C182.062 77.2143 182.171 76.2721 181.954 75.3844C181.761 74.4967 181.154 73.6387 180.27 73.361C179.278 73.0585 178.177 73.609 177.515 74.4124C176.854 75.2406 176.577 76.2671 176.301 77.2937C174.484 84.2712 173.378 91.4422 173.023 98.6677L177.13 99.6347C179.692 92.3001 180.877 85.8185 181.924 78.1218V78.1268Z" fill="#455A64"/>
<path d="M179.722 73.2818C179.722 73.2818 179.722 73.3116 179.692 73.3364C179.663 73.3909 179.638 73.4455 179.609 73.5298C179.525 73.6934 179.416 73.9463 179.248 74.2241C179.164 74.3629 179.085 74.5266 179.001 74.72C178.917 74.9134 178.838 75.1068 178.754 75.33C178.671 75.5531 178.562 75.7713 178.453 76.0242C178.369 76.2722 178.261 76.5499 178.152 76.8276C177.738 77.9633 177.328 79.3469 176.967 80.8991C176.582 82.4513 176.276 84.1672 176.005 85.9922C175.452 89.6471 175.096 92.94 174.79 95.3501C174.627 96.5403 174.514 97.5074 174.405 98.1719C174.351 98.5042 174.321 98.7521 174.267 98.9455C174.237 99.0298 174.237 99.0844 174.237 99.1389C174.237 99.1935 174.208 99.1935 174.208 99.1935V99.1092C174.208 99.0546 174.208 99.0001 174.237 98.9158C174.267 98.7224 174.292 98.4744 174.346 98.1421C174.43 97.4776 174.568 96.5106 174.706 95.3204C175.008 92.9102 175.314 89.5876 175.891 85.9624C176.168 84.1374 176.498 82.4166 176.883 80.8694C177.269 79.3171 177.683 77.9335 178.098 76.7979C178.207 76.5202 178.32 76.2424 178.399 75.9945C178.508 75.7465 178.621 75.5234 178.7 75.3002C178.809 75.077 178.893 74.8836 178.977 74.6902C179.061 74.4968 179.169 74.3282 179.223 74.1893C179.386 73.9116 179.5 73.6637 179.584 73.4951C179.613 73.4108 179.668 73.3562 179.692 73.3314C179.722 73.3017 179.722 73.2769 179.722 73.2769V73.2818Z" fill="#263238"/>
<path d="M180.107 73.3116C180.107 73.3116 180.329 73.5893 180.522 74.2241C180.714 74.8341 180.798 75.8011 180.66 76.9665C180.329 79.2626 179.836 82.4216 179.228 85.9079C178.621 89.3942 178.014 92.5532 177.545 94.8245C177.323 95.9601 177.13 96.8726 176.992 97.5074C176.938 97.8099 176.883 98.0628 176.824 98.2265C176.795 98.3108 176.795 98.3653 176.77 98.4199C176.77 98.4744 176.74 98.4744 176.74 98.4744V98.4199C176.74 98.3653 176.77 98.3108 176.77 98.2265C176.799 98.0331 176.854 97.8099 176.908 97.4776C177.046 96.8429 177.209 95.9006 177.431 94.7898C177.871 92.5185 178.453 89.3644 179.056 85.8732C179.663 82.3869 180.186 79.2279 180.542 76.9318C180.709 75.7961 180.65 74.8291 180.458 74.2191C180.295 73.6389 180.073 73.3314 180.097 73.3066L180.107 73.3116Z" fill="#263238"/>
<path d="M181.978 84.4153C181.949 84.445 181.618 84.331 181.208 84.1376C180.793 83.9442 180.492 83.7508 180.492 83.721C180.522 83.6912 180.853 83.8053 181.262 83.9987C181.677 84.1921 182.008 84.3855 181.978 84.4153Z" fill="#263238"/>
<path d="M182.891 80.2048C182.891 80.2345 182.561 80.3982 182.092 80.5668C181.652 80.7304 181.267 80.8147 181.267 80.7602C181.267 80.7304 181.598 80.5668 182.067 80.3982C182.482 80.2593 182.867 80.1502 182.891 80.2048Z" fill="#263238"/>
<path d="M182.946 76.6886C182.946 76.7184 182.669 76.7184 182.314 76.6589C181.983 76.6043 181.707 76.52 181.707 76.4902C181.707 76.4605 181.983 76.4605 182.339 76.52C182.669 76.5746 182.946 76.6589 182.946 76.6837V76.6886Z" fill="#263238"/>
<path d="M178.868 74.0604C178.838 74.0901 178.675 73.8372 178.508 73.5049C178.345 73.1727 178.231 72.895 178.285 72.895C178.315 72.8652 178.478 73.1181 178.646 73.4504C178.784 73.7826 178.893 74.0604 178.868 74.0604Z" fill="#263238"/>
<path d="M177.239 76.0242C177.239 76.0539 176.962 76.0787 176.632 76.0242C176.301 75.9944 176.054 75.9151 176.054 75.8853C176.054 75.8555 176.331 75.8307 176.661 75.8853C176.992 75.9398 177.239 75.9944 177.239 76.0242Z" fill="#263238"/>
<path d="M175.832 80.1502C175.802 80.1799 175.531 80.0956 175.225 79.927C174.924 79.7584 174.672 79.5947 174.701 79.565C174.731 79.5352 175.002 79.6195 175.309 79.7881C175.61 79.9518 175.861 80.0906 175.832 80.1502Z" fill="#263238"/>
<path d="M175.393 83.6661C175.393 83.6958 175.146 83.7752 174.84 83.8049C174.534 83.8347 174.287 83.8347 174.287 83.8049C174.287 83.7752 174.534 83.6958 174.84 83.6661C175.141 83.6115 175.393 83.6363 175.393 83.6661Z" fill="#263238"/>
<path d="M174.376 89.394C174.376 89.4238 174.129 89.4783 173.798 89.5031C173.467 89.5329 173.22 89.5329 173.22 89.4734C173.22 89.4436 173.467 89.3891 173.798 89.3643C174.099 89.3643 174.376 89.3643 174.376 89.394Z" fill="#263238"/>
<path d="M173.739 92.5776C173.768 92.6074 173.517 92.7413 173.24 92.8553C172.939 92.9644 172.687 93.0487 172.687 92.9942C172.658 92.9644 172.909 92.8305 173.181 92.7165C173.482 92.6074 173.734 92.5231 173.734 92.5776H173.739Z" fill="#263238"/>
<path d="M176 96.4261C175.97 96.4559 175.807 96.1782 175.639 95.8161C175.471 95.4541 175.392 95.1814 175.417 95.1516C175.447 95.1218 175.61 95.3996 175.778 95.7616C175.945 96.1236 176.054 96.4261 176 96.4261Z" fill="#263238"/>
<path d="M177.323 90.505C177.352 90.5347 177.13 90.7529 176.824 91.0009C176.523 91.2488 176.247 91.4174 176.217 91.3877C176.187 91.3579 176.41 91.1397 176.711 90.8868C177.012 90.6389 177.288 90.4454 177.318 90.5L177.323 90.505Z" fill="#263238"/>
<path d="M177.461 87.3213C177.431 87.3511 177.239 87.1824 177.076 86.9345C176.883 86.6865 176.775 86.4931 176.799 86.4634C176.824 86.4336 177.022 86.6022 177.185 86.8502C177.377 87.0733 177.486 87.2915 177.461 87.3213Z" fill="#263238"/>
<path d="M178.34 83.334C178.369 83.3638 178.172 83.582 177.9 83.83C177.624 84.0779 177.402 84.2465 177.377 84.2168C177.347 84.187 177.54 83.9688 177.816 83.7159C178.063 83.4679 178.315 83.2993 178.34 83.3291V83.334Z" fill="#263238"/>
<path d="M178.922 80.4276C178.893 80.4574 178.675 80.2342 178.424 79.9565C178.177 79.6788 178.009 79.4309 178.039 79.4011C178.068 79.3713 178.285 79.5945 178.537 79.8722C178.784 80.1499 178.952 80.3979 178.922 80.4276Z" fill="#263238"/>
<path d="M179.86 76.5249C179.89 76.5546 179.752 76.8026 179.53 77.1051C179.307 77.3828 179.115 77.606 179.09 77.5762C179.061 77.5465 179.199 77.2985 179.421 76.996C179.613 76.7183 179.836 76.5001 179.86 76.5249Z" fill="#263238"/>
<path d="M181.262 72.9492C181.292 72.979 181.178 73.2269 180.961 73.5295C180.769 73.832 180.576 74.0254 180.547 74.0254C180.517 73.9956 180.63 73.7477 180.848 73.4451C181.04 73.1426 181.233 72.9195 181.262 72.9443V72.9492Z" fill="#263238"/>
<path d="M182.338 74.725C182.368 74.7547 182.176 74.8638 181.953 74.9481C181.731 75.0324 181.514 75.0572 181.514 75.0324C181.484 75.0027 181.677 74.8936 181.899 74.8093C182.121 74.725 182.314 74.7002 182.338 74.725Z" fill="#263238"/>
<path d="M181.124 87.9016C181.124 87.9313 180.739 87.847 180.324 87.6239C179.91 87.4007 179.633 87.123 179.663 87.0982C179.692 87.0684 179.994 87.2668 180.408 87.485C180.793 87.733 181.124 87.8718 181.124 87.9016Z" fill="#263238"/>
<path d="M180.354 90.6684C180.354 90.6982 180.107 90.7775 179.776 90.8073C179.446 90.8371 179.199 90.8371 179.199 90.7775C179.199 90.7478 179.446 90.6684 179.776 90.6387C180.077 90.6089 180.354 90.6089 180.354 90.6684Z" fill="#263238"/>
<path d="M179.307 95.3746C179.278 95.4043 178.977 95.1514 178.73 94.7646C178.483 94.3778 178.369 93.991 178.399 93.991C178.429 93.9612 178.592 94.3232 178.838 94.6853C179.085 95.0721 179.337 95.3498 179.307 95.3795V95.3746Z" fill="#263238"/>
<path d="M172.416 96.957C172.386 96.9272 172.579 96.7636 172.83 96.5701C173.077 96.4065 173.299 96.2676 173.329 96.2924C173.359 96.3222 173.166 96.4858 172.914 96.6792C172.667 96.8727 172.445 96.9818 172.416 96.957Z" fill="#263238"/>
<path d="M171.562 84.331C171.399 83.3342 170.984 82.1142 169.992 81.9506C169.384 81.8663 168.807 82.1985 168.446 82.6994C168.086 83.1953 167.869 83.7805 167.815 84.3905C167.346 88.3479 167.375 92.9748 168.145 97.2942L171.813 97.8497C172.421 93.2525 172.307 88.8785 171.567 84.3409L171.562 84.331Z" fill="#455A64"/>
<path d="M169.992 81.9502C170.021 81.98 169.824 82.0891 169.607 82.4213C169.385 82.7536 169.246 83.309 169.192 84.0281C169.162 84.7472 169.108 85.6051 169.108 86.5473C169.078 87.4896 169.108 88.5409 169.162 89.622C169.271 91.809 169.463 93.7729 169.547 95.1862C169.602 95.9053 169.631 96.4855 169.631 96.8773V97.5121C169.631 97.5121 169.602 97.4575 169.602 97.3484C169.602 97.2096 169.572 97.0707 169.547 96.8773C169.518 96.4607 169.463 95.8805 169.409 95.1862C169.271 93.7729 169.078 91.7793 168.97 89.5923C168.916 88.5112 168.916 87.4598 168.94 86.5176C168.94 86.0465 168.97 85.6051 168.995 85.1588C169.024 84.7422 169.024 84.3554 169.078 83.9983C169.133 83.2793 169.325 82.699 169.547 82.3668C169.794 82.0643 169.987 81.9502 169.987 81.9502H169.992Z" fill="#263238"/>
<path d="M171.892 83.0859C171.922 83.1404 171.7 83.2793 171.423 83.4479C171.147 83.6116 170.9 83.6959 170.87 83.6413C170.841 83.6116 171.063 83.4479 171.339 83.2793C171.616 83.1156 171.892 83.0313 171.892 83.0859Z" fill="#263238"/>
<path d="M172.529 86.1013C172.529 86.1559 172.228 86.1559 171.868 86.0716C171.507 85.9873 171.261 85.8236 171.29 85.7691C171.32 85.7145 171.591 85.8236 171.922 85.9079C172.253 85.9922 172.529 86.0468 172.529 86.1013Z" fill="#263238"/>
<path d="M172.47 89.2303C172.44 89.2601 172.169 89.0915 171.892 88.8435C171.591 88.5956 171.399 88.3724 171.423 88.3179C171.453 88.2881 171.725 88.4567 172.001 88.7047C172.277 88.9526 172.495 89.1758 172.47 89.2303Z" fill="#263238"/>
<path d="M181.07 95.9849H159.822V99.7786H181.07V95.9849Z" fill="#6471D7"/>
<path d="M161.392 99.0298L163.984 110.327H176.632L179.47 99.0298H161.392Z" fill="#6471D7"/>
<path d="M181.045 99.7786C181.045 99.8084 176.252 99.8629 170.352 99.8629C164.453 99.8629 159.659 99.8332 159.659 99.7786C159.659 99.7489 164.453 99.6943 170.352 99.6943C176.252 99.6943 181.045 99.7241 181.045 99.7786Z" fill="#263238"/>
<path d="M170.431 86.518C170.377 86.5477 170.268 86.3246 170.13 86.0469C169.992 85.7691 169.937 85.5212 169.992 85.4914C170.046 85.4617 170.155 85.6848 170.293 85.9626C170.401 86.2651 170.456 86.518 170.431 86.518Z" fill="#263238"/>
<path d="M169.937 89.9497C169.883 89.92 169.992 89.6472 170.16 89.315C170.322 88.9827 170.49 88.7347 170.52 88.7595C170.574 88.7893 170.466 89.062 170.298 89.3943C170.16 89.7266 169.997 89.9745 169.937 89.9497Z" fill="#263238"/>
<path d="M170.569 93.7135C170.515 93.7433 170.377 93.411 170.268 93.0193C170.16 92.6324 170.076 92.2704 170.13 92.2704C170.184 92.2407 170.323 92.5729 170.431 92.9647C170.569 93.3813 170.624 93.7135 170.569 93.7135Z" fill="#263238"/>
<path d="M166.852 95.2953C166.822 95.2655 167.015 95.0721 167.267 94.8539C167.514 94.6605 167.76 94.5216 167.79 94.5514C167.82 94.5811 167.627 94.7745 167.375 94.9927C167.128 95.1862 166.877 95.325 166.852 95.2953Z" fill="#263238"/>
<path d="M151 108.418H33.6785C31.4718 108.418 29.655 106.617 29.655 104.376V29.1799C29.655 26.9632 31.4471 25.1382 33.6785 25.1382H151C153.207 25.1382 155.024 26.9384 155.024 29.1799V104.376C155.024 106.617 153.231 108.418 151 108.418Z" fill="#455A64"/>
<path d="M155.66 110.327H29.655C26.9546 110.327 24.7479 108.11 24.7479 105.397V103.042H160.563V105.397C160.563 108.11 158.385 110.327 155.655 110.327H155.66Z" fill="#455A64"/>
<path d="M79.9801 102.243L81.6635 104.956H105.394L106.964 102.243H79.985H79.9801Z" fill="#263238"/>
<path d="M148.221 98.5587H36.3493C35.8556 98.5587 35.4409 98.1421 35.4409 97.6462V31.7289C35.4409 31.233 35.8556 30.8164 36.3493 30.8164H148.191C148.69 30.8164 149.099 31.233 149.099 31.7289V97.6462C149.099 98.1471 148.714 98.5587 148.216 98.5587H148.221Z" fill="#EBEBEB"/>
<path d="M148.991 98.6432H35.3323L35.4705 35.8799H148.991V98.6432Z" fill="white"/>
<path d="M44.7861 33.4447C44.7861 33.9406 44.3714 34.3572 43.8777 34.3572C43.384 34.3572 42.9694 33.9406 42.9694 33.4447C42.9694 32.9488 43.384 32.5322 43.8777 32.5322C44.3714 32.5322 44.7861 32.9488 44.7861 33.4447Z" fill="#263238"/>
<path d="M39.2718 33.4447C39.2718 33.9406 38.8571 34.3572 38.3634 34.3572C37.8698 34.3572 37.4551 33.9406 37.4551 33.4447C37.4551 32.9488 37.8698 32.5322 38.3634 32.5322C38.8867 32.5322 39.2718 32.9488 39.2718 33.4447Z" fill="#263238"/>
<path d="M41.9179 33.4447C41.9179 33.9406 41.5032 34.3572 41.0096 34.3572C40.5159 34.3572 40.1012 33.9406 40.1012 33.4447C40.1012 32.9488 40.5159 32.5322 41.0096 32.5322C41.5032 32.5322 41.9179 32.9488 41.9179 33.4447Z" fill="#263238"/>
<path d="M153.952 102.243C153.952 102.298 126.114 102.328 91.8036 102.328C57.4933 102.328 29.655 102.298 29.655 102.243C29.655 102.189 57.4637 102.159 91.8036 102.159C126.144 102.159 153.952 102.214 153.952 102.243Z" fill="#263238"/>
<path d="M132.645 91.7198H130.991C130.908 91.7198 130.853 91.6652 130.853 91.5809C130.853 91.4966 130.908 91.4421 130.991 91.4421H132.507V89.9196C132.507 89.8353 132.561 89.7808 132.645 89.7808C132.729 89.7808 132.784 89.8353 132.784 89.9196V91.5809C132.784 91.6652 132.729 91.7198 132.645 91.7198Z" fill="#E0E0E0"/>
<path d="M127.768 91.7201H124.569C124.485 91.7201 124.431 91.6655 124.431 91.5812C124.431 91.4969 124.485 91.4424 124.569 91.4424H127.793C127.876 91.4424 127.931 91.4969 127.931 91.5812C127.931 91.6655 127.847 91.7201 127.768 91.7201ZM121.345 91.7201H118.121C118.038 91.7201 117.983 91.6655 117.983 91.5812C117.983 91.4969 118.038 91.4424 118.121 91.4424H121.345C121.429 91.4424 121.483 91.4969 121.483 91.5812C121.483 91.6655 121.429 91.7201 121.345 91.7201ZM114.922 91.7201H111.699C111.615 91.7201 111.561 91.6655 111.561 91.5812C111.561 91.4969 111.615 91.4424 111.699 91.4424H114.922C115.006 91.4424 115.061 91.4969 115.061 91.5812C115.061 91.6655 115.006 91.7201 114.922 91.7201ZM108.5 91.7201H105.276C105.192 91.7201 105.138 91.6655 105.138 91.5812C105.138 91.4969 105.192 91.4424 105.276 91.4424H108.5C108.584 91.4424 108.638 91.4969 108.638 91.5812C108.638 91.6655 108.554 91.7201 108.5 91.7201Z" fill="#E0E0E0"/>
<path d="M102.057 91.7198H100.403C100.32 91.7198 100.265 91.6652 100.265 91.5809V89.9196C100.265 89.8353 100.32 89.7808 100.403 89.7808C100.487 89.7808 100.542 89.8353 100.542 89.9196V91.4421H102.057C102.141 91.4421 102.196 91.4966 102.196 91.5809C102.196 91.6652 102.141 91.7198 102.057 91.7198Z" fill="#E0E0E0"/>
<path d="M100.403 86.6018C100.32 86.6018 100.265 86.5473 100.265 86.463V83.0015C100.265 82.9172 100.32 82.8626 100.403 82.8626C100.487 82.8626 100.542 82.9172 100.542 83.0015V86.463C100.542 86.5473 100.487 86.6018 100.403 86.6018ZM100.403 79.6788C100.32 79.6788 100.265 79.6243 100.265 79.54V76.0785C100.265 75.9942 100.32 75.9396 100.403 75.9396C100.487 75.9396 100.542 75.9942 100.542 76.0785V79.54C100.542 79.5945 100.487 79.6788 100.403 79.6788ZM100.403 72.7558C100.32 72.7558 100.265 72.7013 100.265 72.617V69.1555C100.265 69.0712 100.32 69.0166 100.403 69.0166C100.487 69.0166 100.542 69.0712 100.542 69.1555V72.617C100.542 72.6715 100.487 72.7558 100.403 72.7558Z" fill="#E0E0E0"/>
<path d="M100.403 65.8082C100.32 65.8082 100.265 65.7536 100.265 65.6693V64.008C100.265 63.9237 100.32 63.8691 100.403 63.8691H102.057C102.141 63.8691 102.196 63.9237 102.196 64.008C102.196 64.0923 102.141 64.1469 102.057 64.1469H100.542V65.6693C100.542 65.7536 100.487 65.8082 100.403 65.8082Z" fill="#E0E0E0"/>
<path d="M127.768 64.1469H124.569C124.485 64.1469 124.431 64.0923 124.431 64.008C124.431 63.9237 124.485 63.8691 124.569 63.8691H127.793C127.876 63.8691 127.931 63.9237 127.931 64.008C127.901 64.0923 127.847 64.1469 127.768 64.1469ZM121.345 64.1469H118.121C118.038 64.1469 117.983 64.0923 117.983 64.008C117.983 63.9237 118.038 63.8691 118.121 63.8691H121.345C121.429 63.8691 121.483 63.9237 121.483 64.008C121.483 64.0923 121.429 64.1469 121.345 64.1469ZM114.922 64.1469H111.699C111.615 64.1469 111.561 64.0923 111.561 64.008C111.561 63.9237 111.615 63.8691 111.699 63.8691H114.922C115.006 63.8691 115.061 63.9237 115.061 64.008C115.061 64.0923 115.006 64.1469 114.922 64.1469ZM108.5 64.1469H105.276C105.192 64.1469 105.138 64.0923 105.138 64.008C105.138 63.9237 105.192 63.8691 105.276 63.8691H108.5C108.584 63.8691 108.638 63.9237 108.638 64.008C108.638 64.0923 108.554 64.1469 108.5 64.1469Z" fill="#E0E0E0"/>
<path d="M132.645 65.8082C132.561 65.8082 132.507 65.7536 132.507 65.6693V64.1469H130.991C130.908 64.1469 130.853 64.0923 130.853 64.008C130.853 63.9237 130.908 63.8691 130.991 63.8691H132.645C132.729 63.8691 132.784 63.9237 132.784 64.008V65.6693C132.784 65.7536 132.729 65.8082 132.645 65.8082Z" fill="#E0E0E0"/>
<path d="M132.645 86.6018C132.561 86.6018 132.507 86.5473 132.507 86.463V83.0015C132.507 82.9172 132.561 82.8626 132.645 82.8626C132.729 82.8626 132.784 82.9172 132.784 83.0015V86.463C132.784 86.5473 132.729 86.6018 132.645 86.6018ZM132.645 79.6788C132.561 79.6788 132.507 79.6243 132.507 79.54V76.0785C132.507 75.9942 132.561 75.9396 132.645 75.9396C132.729 75.9396 132.784 75.9942 132.784 76.0785V79.54C132.784 79.5945 132.729 79.6788 132.645 79.6788ZM132.645 72.7558C132.561 72.7558 132.507 72.7013 132.507 72.617V69.1555C132.507 69.0712 132.561 69.0166 132.645 69.0166C132.729 69.0166 132.784 69.0712 132.784 69.1555V72.617C132.784 72.6715 132.729 72.7558 132.645 72.7558Z" fill="#E0E0E0"/>
<path d="M100.596 7.55762C99.9049 8.94123 99.9345 10.6869 100.705 12.0407C101.065 12.7052 101.643 13.3698 101.42 14.1186C101.228 14.8377 100.344 15.2245 100.181 15.9733C99.9888 16.8313 100.813 17.5503 101.006 18.4083C101.169 19.2117 100.645 20.1242 99.8752 20.3721C101.09 20.6746 102.353 20.6201 103.543 20.2333C103.652 19.7373 103.765 19.2365 103.874 18.7406C103.736 19.2662 104.096 19.8464 104.59 20.0994C105.084 20.3473 105.666 20.3225 106.214 20.2382C108.83 19.8762 111.259 18.1901 112.553 15.8642" fill="#263238"/>
<path d="M116.25 7.47349C115.836 7.03212 115.312 6.69986 114.957 6.19898C114.157 5.17243 114.133 3.59542 113.081 2.82179C112.336 2.26636 111.319 2.32587 110.381 2.45977C109.472 2.59862 108.505 2.79203 107.626 2.48952C106.994 2.26636 106.441 1.79524 105.809 1.57703C104.901 1.24477 103.879 1.49273 102.971 1.85475C102.033 2.21677 101.154 2.76724 100.517 3.54583C99.8851 4.31946 99.579 5.40056 99.8258 6.3428C99.9641 6.81392 100.211 7.23049 100.295 7.72641C100.349 8.25208 100.157 8.77775 100.132 9.33318C100.078 10.4688 100.902 11.5747 102.008 11.8227L111.931 16.8612C113.476 16.7223 116.339 14.6445 116.892 13.2063C117.499 11.7384 117.307 8.58434 116.26 7.47349H116.25Z" fill="#263238"/>
<path d="M101.726 10.7117C101.119 8.77262 101.504 5.97564 103.464 5.44997L109.912 4.67634C110.519 4.51269 111.126 4.83999 111.319 5.42517L116.226 19.2662C116.226 19.2662 116.389 19.4596 116.611 19.2365C116.665 19.1819 116.779 19.2365 116.749 19.3208C116.527 20.5953 116.779 23.6105 112.918 23.8634C112.064 23.9179 110.356 24.0022 109.887 23.1691L108.979 20.9523C108.539 19.8167 108.347 19.3456 108.371 19.3456C108.371 19.3456 105.809 19.8712 104.126 16.9354C103.272 15.4427 102.388 12.8391 101.726 10.7067V10.7117Z" fill="#AE7461"/>
<path d="M103.736 13.2362C103.82 13.4594 104.037 13.5685 104.289 13.4842C104.511 13.3999 104.649 13.1817 104.565 12.9585C104.481 12.7354 104.264 12.6263 104.012 12.7106C103.79 12.7651 103.681 13.0131 103.736 13.2362Z" fill="#263238"/>
<path d="M107.651 11.7382C107.734 11.9614 107.952 12.0705 108.203 11.9862C108.426 11.9019 108.564 11.6836 108.48 11.4605C108.396 11.2373 108.179 11.1282 107.927 11.2125C107.705 11.2968 107.567 11.515 107.651 11.7382Z" fill="#263238"/>
<path d="M102.635 11.9615C102.719 12.016 102.966 11.5995 103.459 11.4656C103.953 11.3019 104.368 11.4953 104.422 11.411C104.452 11.3813 104.338 11.2722 104.146 11.1879C103.953 11.1036 103.647 11.049 103.346 11.1581C103.045 11.2424 102.822 11.4606 102.714 11.6292C102.63 11.7929 102.605 11.9317 102.63 11.9615H102.635Z" fill="#263238"/>
<path d="M106.935 10.4936C107.019 10.5234 107.266 10.1068 107.759 9.88364C108.253 9.66048 108.722 9.77454 108.752 9.69024C108.781 9.66048 108.668 9.55138 108.45 9.49683C108.228 9.44228 107.927 9.44228 107.626 9.58113C107.325 9.71999 107.103 9.94315 107.019 10.1366C106.88 10.33 106.88 10.4688 106.935 10.4986V10.4936Z" fill="#263238"/>
<path d="M106.742 14.0942C106.742 14.0645 106.441 14.124 105.997 14.2331C105.888 14.2628 105.775 14.2876 105.72 14.2033C105.666 14.119 105.666 14.0099 105.666 13.8413V12.8743C105.666 11.4907 105.636 10.3848 105.582 10.3848C105.528 10.3848 105.474 11.4907 105.474 12.8743V13.8413C105.474 13.9802 105.474 14.1438 105.582 14.3124C105.636 14.3967 105.745 14.4215 105.829 14.3967C105.913 14.3967 105.967 14.367 106.021 14.3422C106.461 14.2331 106.737 14.119 106.737 14.0942H106.742Z" fill="#263238"/>
<path d="M108.366 19.3508C108.366 19.3508 110.544 18.6565 112.168 16.6084C112.168 16.6084 111.946 19.212 108.668 20.1542L108.366 19.3508Z" fill="#6F4439"/>
<path d="M107.374 15.0909C107.512 14.8429 107.789 14.6743 108.065 14.6743C108.258 14.6743 108.48 14.7289 108.618 14.8677C108.756 15.0066 108.811 15.2297 108.727 15.4232C108.618 15.6166 108.366 15.7009 108.149 15.6711C107.932 15.6414 107.71 15.5323 107.517 15.3934C107.463 15.3636 107.409 15.3388 107.379 15.2843C107.349 15.2297 107.325 15.1454 107.379 15.0909H107.374Z" fill="#6F4439"/>
<path d="M108.228 14.1484C108.144 14.1782 108.337 14.6444 108.065 15.1452C107.789 15.6411 107.266 15.78 107.295 15.8395C107.295 15.8693 107.433 15.8941 107.656 15.8098C107.878 15.7255 108.149 15.5618 108.317 15.2543C108.485 14.9518 108.485 14.6444 108.426 14.4509C108.342 14.2278 108.263 14.1484 108.233 14.1484H108.228Z" fill="#263238"/>
<path d="M106.105 9.13484C106.214 9.21915 106.574 8.91168 107.068 8.69348C107.562 8.44552 108.031 8.36121 108.031 8.22235C108.031 8.1678 107.892 8.11325 107.7 8.0835C107.478 8.0835 107.177 8.11325 106.9 8.2769C106.599 8.41576 106.377 8.60917 106.239 8.80258C106.1 8.94143 106.071 9.08029 106.1 9.13484H106.105Z" fill="#263238"/>
<path d="M102.112 10.6327C102.25 10.717 102.605 10.4938 103.074 10.355C103.543 10.2161 103.958 10.1913 104.012 10.0525C104.042 9.99793 103.958 9.91362 103.736 9.85907C103.543 9.80452 103.242 9.80452 102.911 9.91363C102.581 9.99793 102.334 10.1913 102.196 10.3302C102.087 10.4691 102.057 10.5782 102.112 10.6327Z" fill="#263238"/>
<path d="M111.343 4.54257C110.845 4.24006 110.242 4.26485 109.689 4.29461C107.236 4.48801 104.812 4.95914 102.467 5.73277C102.413 6.31299 102.936 6.81387 103.514 6.95272C104.091 7.09158 104.669 6.95272 105.251 6.89817C105.829 6.84362 106.466 6.89817 106.905 7.28499C107.374 7.70156 107.458 8.39088 107.897 8.83721C108.643 9.58604 110.045 9.27857 110.82 10.0274C111.398 10.6076 111.343 11.5201 111.565 12.2987C111.842 13.1864 112.558 13.9055 113.412 14.1832C114.103 14.4064 114.873 14.3468 115.535 14.0443C114.458 11.3565 113.387 8.70331 112.336 6.01544C112.113 5.43522 111.867 4.85499 111.343 4.54752V4.54257Z" fill="#263238"/>
<path d="M119.696 8.60925C119.119 8.44559 118.457 8.36129 118.042 7.91496C117.435 7.25043 117.628 6.06023 116.912 5.55936C116.25 5.08823 115.204 5.64366 114.542 5.14278C114.044 4.75597 114.128 4.17575 113.826 3.75918C113.525 3.37236 112.696 3.26326 112.257 3.53601L111.096 10.4045C111.565 12.289 111.674 13.3651 112.528 14.1982C112.997 14.6694 113.52 15.0859 113.881 15.6116C114.241 16.167 114.404 16.8861 114.073 17.4663C116.28 16.6084 117.766 14.5603 119.119 12.5915C119.588 11.8972 120.057 11.2079 120.55 10.5136C120.689 10.2904 120.851 10.0722 120.881 9.81928C120.935 9.20931 120.303 8.76794 119.696 8.59933V8.60925Z" fill="#263238"/>
<path d="M118.921 12.0708C118.921 12.0708 118.867 12.1253 118.699 12.2096C118.561 12.2939 118.339 12.403 118.008 12.4873C117.707 12.5419 117.292 12.5716 116.848 12.4328C116.408 12.2939 115.964 11.9617 115.663 11.4905C115.525 11.2426 115.386 10.9649 115.362 10.6326C115.308 10.3301 115.332 9.99782 115.391 9.66556C115.421 9.33329 115.475 9.00103 115.421 8.63901C115.367 8.30674 115.199 7.94472 114.898 7.78107C114.597 7.61742 114.182 7.72652 113.797 7.75132C113.604 7.75132 113.382 7.75132 113.19 7.64221C112.997 7.53311 112.859 7.3397 112.775 7.1463C112.607 6.75948 112.607 6.31811 112.499 5.92634C112.444 5.73293 112.39 5.53952 112.252 5.37091C112.113 5.20726 111.951 5.12295 111.728 5.0932C111.314 5.00889 110.904 5.17751 110.514 5.31636C110.129 5.48001 109.69 5.56432 109.275 5.50977C108.86 5.45522 108.45 5.28661 108.144 5.0684C107.814 4.82044 107.591 4.48818 107.399 4.18071C107.177 3.8782 106.984 3.57073 106.737 3.32277C106.49 3.07482 106.184 2.9062 105.883 2.7971C105.251 2.60369 104.615 2.63345 104.091 2.82686C103.568 3.02026 103.183 3.38228 102.906 3.73934C102.63 4.09641 102.467 4.45842 102.383 4.76589C102.191 5.37587 102.245 5.73293 102.22 5.73293V5.48497C102.22 5.32132 102.25 5.0684 102.329 4.76589C102.413 4.46338 102.576 4.10136 102.852 3.71455C103.129 3.35253 103.543 2.96571 104.067 2.77231C104.619 2.54914 105.281 2.52435 105.943 2.71776C106.273 2.82686 106.574 2.99547 106.851 3.24343C107.127 3.49139 107.32 3.79886 107.542 4.13112C107.764 4.43363 107.981 4.7411 108.287 4.98906C108.589 5.21222 108.949 5.37587 109.364 5.40563C109.749 5.46018 110.163 5.35108 110.548 5.21222C110.934 5.07336 111.373 4.90971 111.842 4.98906C112.064 5.01881 112.281 5.15271 112.42 5.32132C112.558 5.48497 112.642 5.70814 112.696 5.9313C112.805 6.34787 112.805 6.75948 112.972 7.1215C113.056 7.28515 113.165 7.45377 113.333 7.53807C113.496 7.62238 113.693 7.64717 113.886 7.64717C114.078 7.64717 114.271 7.59262 114.463 7.59262C114.656 7.59262 114.878 7.59262 115.041 7.70172C115.401 7.89513 115.564 8.28195 115.648 8.64397C115.702 9.00599 115.648 9.36305 115.619 9.69531C115.564 10.0276 115.535 10.3598 115.589 10.6376C115.643 10.9401 115.727 11.2178 115.89 11.4409C116.167 11.9121 116.606 12.2443 117.021 12.3832C117.435 12.522 117.845 12.522 118.151 12.4675C118.65 12.3038 118.897 12.0509 118.921 12.0807V12.0708Z" fill="#455A64"/>
<path d="M120.052 7.03192C120.052 7.03192 120.106 7.06167 120.215 7.17077C120.299 7.27988 120.382 7.47328 120.382 7.751C120.382 7.88985 120.328 8.02871 120.244 8.16757C120.16 8.30642 120.022 8.41552 119.859 8.49983C119.528 8.66348 119.035 8.63869 118.645 8.36097C118.452 8.22212 118.284 8.02871 118.176 7.78075C118.067 7.55759 118.013 7.28483 117.983 7.00712C117.929 6.45169 118.037 5.87147 117.791 5.31604C117.682 5.03833 117.49 4.79037 117.213 4.70606C116.937 4.59696 116.606 4.70606 116.329 4.84492C116.028 4.98378 115.722 5.14743 115.367 5.17719C115.174 5.17719 114.982 5.14743 114.843 5.03833C114.676 4.92923 114.567 4.79037 114.458 4.65151C114.266 4.349 114.182 3.98698 114.098 3.65472C114.014 3.32246 113.851 3.04474 113.629 2.79678C113.214 2.30087 112.607 2.02315 112.029 1.9686C111.422 1.91405 110.899 2.13225 110.405 2.33062C109.907 2.52403 109.413 2.71744 108.944 2.77199C108.475 2.80174 108.06 2.74223 107.705 2.63313C107.345 2.52403 107.073 2.35542 106.88 2.21656C106.466 1.91405 106.303 1.66113 106.303 1.66113C106.303 1.66113 106.495 1.8843 106.91 2.15705C107.132 2.29591 107.409 2.43476 107.735 2.54387C108.065 2.65297 108.48 2.70752 108.949 2.65297C109.388 2.62321 109.857 2.4298 110.356 2.2116C110.85 2.01819 111.403 1.77023 112.039 1.82479C112.671 1.87934 113.278 2.18681 113.723 2.68272C113.945 2.93068 114.108 3.26295 114.216 3.57041C114.325 3.90268 114.384 4.23494 114.577 4.51266C114.74 4.79037 115.046 5.00857 115.347 4.98378C115.678 4.95402 115.954 4.79037 116.255 4.65151C116.556 4.51266 116.917 4.40356 117.248 4.51266C117.578 4.62176 117.801 4.92923 117.909 5.20694C118.047 5.48465 118.072 5.81692 118.072 6.09463C118.072 6.37235 118.072 6.67486 118.102 6.92281C118.131 7.20053 118.156 7.44849 118.27 7.67165C118.378 7.89481 118.516 8.08822 118.684 8.22708C119.045 8.50479 119.484 8.52959 119.815 8.39073C119.983 8.30642 120.116 8.19732 120.2 8.08822C120.284 7.97912 120.338 7.84026 120.338 7.70141C120.368 7.45345 120.284 7.26004 120.2 7.14598C120.116 7.09143 120.062 7.03688 120.062 7.03688L120.052 7.03192Z" fill="#263238"/>
<path d="M98.1424 19.0185C98.172 19.0185 98.1128 19.2665 98.4189 19.574C98.5571 19.7128 98.8039 19.8517 99.0804 19.8219C99.3569 19.7922 99.658 19.574 99.7716 19.2417C99.8259 19.078 99.8258 18.8797 99.7419 18.716C99.658 18.5524 99.5494 18.3838 99.4112 18.2201C99.1347 17.9176 98.72 17.6399 98.5275 17.139C98.335 16.6679 98.3646 16.0877 98.6114 15.5868C98.72 15.3388 98.9126 15.1157 99.11 14.9223C99.3322 14.7289 99.579 14.59 99.8259 14.4511C100.073 14.3123 100.324 14.2032 100.517 14.0346C100.71 13.8709 100.877 13.6478 100.932 13.3998C100.986 13.1518 100.932 12.9039 100.848 12.6807C100.764 12.4576 100.626 12.2394 100.487 12.0459C100.211 11.6591 99.8802 11.2971 99.7172 10.8855C99.5543 10.4689 99.5247 10.0276 99.6086 9.66554C99.6926 9.27872 99.8851 9.00101 100.023 8.75305C100.186 8.50509 100.324 8.28193 100.408 8.11828C100.571 7.73146 100.517 7.5083 100.547 7.5083V7.70171C100.547 7.81081 100.517 7.97942 100.438 8.17283C100.354 8.36624 100.216 8.5894 100.078 8.83736C99.9394 9.08532 99.7469 9.36303 99.6926 9.72505C99.6086 10.0871 99.6383 10.4987 99.8012 10.8855C99.9641 11.2723 100.27 11.6046 100.571 12.0211C100.71 12.2146 100.848 12.4377 100.956 12.6857C101.04 12.9336 101.095 13.2113 101.065 13.4891C101.011 13.7668 100.843 14.0147 100.626 14.2081C100.403 14.4015 100.157 14.5107 99.9098 14.6495C99.6629 14.7884 99.4112 14.9272 99.2186 15.0909C99.0261 15.2545 98.8583 15.4777 98.7496 15.7256C98.5275 16.1968 98.5028 16.7224 98.6657 17.1638C98.8286 17.6052 99.2186 17.8829 99.5198 18.2152C99.658 18.3788 99.7962 18.5474 99.8802 18.7408C99.9641 18.9342 99.9641 19.1574 99.9098 19.3508C99.7716 19.7128 99.4408 19.9608 99.1396 19.9856C98.8385 20.0153 98.5867 19.8467 98.4485 19.7079C98.3103 19.5442 98.256 19.4054 98.2263 19.2913C98.1177 19.0681 98.1424 19.0136 98.1424 19.0136V19.0185Z" fill="#263238"/>
<path d="M132.063 46.5566H98.3202V71.7492H132.063V46.5566Z" fill="white"/>
<path d="M132.063 45.5449H98.3202V51.3472H132.063V45.5449Z" fill="#4C7CE0"/>
<path d="M102.003 48.0892C102.003 48.5405 101.643 48.9025 101.193 48.9025C100.744 48.9025 100.384 48.5355 100.384 48.0892C100.384 47.6429 100.749 47.2759 101.193 47.2759C101.638 47.2759 102.003 47.6429 102.003 48.0892Z" fill="white"/>
<path d="M106.056 48.0892C106.056 48.5405 105.691 48.9025 105.246 48.9025C104.802 48.9025 104.437 48.5355 104.437 48.0892C104.437 47.6429 104.802 47.2759 105.246 47.2759C105.691 47.2759 106.056 47.6429 106.056 48.0892Z" fill="white"/>
<path d="M110.109 48.0892C110.109 48.5405 109.744 48.9025 109.299 48.9025C108.855 48.9025 108.49 48.5355 108.49 48.0892C108.49 47.6429 108.855 47.2759 109.299 47.2759C109.744 47.2759 110.109 47.6429 110.109 48.0892Z" fill="white"/>
<path d="M107.078 61.7715H103.321V69.6714H107.078V61.7715Z" fill="#4C7CE0"/>
<path d="M112.834 57.7051H108.959V69.6666H112.834V57.7051Z" fill="#4C7CE0"/>
<path d="M119.76 54.8682H115.535V69.6713H119.76V54.8682Z" fill="#6471D7"/>
<path d="M127.743 52.5674H122.579V69.6666H127.743V52.5674Z" fill="#3D4DAE"/>
<path d="M100.991 53.1772V69.6665" stroke="#6471D7" stroke-width="0.67" stroke-miterlimit="10"/>
<path d="M128.049 69.6665H100.991" stroke="#6471D7" stroke-width="0.67" stroke-miterlimit="10"/>
<g opacity="0.5">
<path d="M127.338 71.2385C123.878 69.5772 120.792 66.7951 118.146 64.0477C113.086 58.796 108.416 52.845 106.925 45.5352H98.3202V71.7444H128.597C128.173 71.6006 127.748 71.432 127.333 71.2336L127.338 71.2385Z" fill="#4C7CE0"/>
</g>
<path d="M100.374 25.416C100.374 25.416 100.211 25.0837 101.174 24.0026C102.136 22.9215 108.781 20.4568 108.781 20.4568C108.781 20.4568 111.373 23.5861 113.772 21.4536C115.51 19.8766 115.786 17.9921 115.786 17.9921C115.786 17.9921 121.656 17.6599 121.765 18.0467L123.335 25.4656L120.58 25.4953L100.379 25.411L100.374 25.416Z" fill="#6471D7"/>
<path d="M114.374 42.3564L124.598 32.1108L123.305 26.5168L128.79 24.8853C128.79 24.8853 130.414 32.7207 130.197 34.1044C129.782 36.7625 117.243 44.4046 117.243 44.4046L114.374 42.3564Z" fill="#AE7461"/>
<path d="M121.513 17.8828C121.513 17.8828 123.966 18.0217 125.976 20.0996C128.099 22.2866 130.631 28.0442 130.631 28.0442L123.468 29.7898L121.513 17.8828Z" fill="#6471D7"/>
<path d="M113.051 43.4672L110.183 45.2674C110.183 45.2674 108.751 47.6776 108.529 48.2875C108.337 48.8975 108.115 50.42 108.115 50.42C108.115 50.42 108.747 51.0002 108.998 50.1175L109.299 49.4529L109.053 51.03C109.053 51.03 109.685 51.5259 109.991 50.6977C110.292 49.8695 110.43 49.0661 110.43 49.0661L111.422 47.7073L110.43 50.9457C110.43 50.9457 110.237 51.6102 110.815 51.5259C111.037 51.4961 111.56 50.3654 111.56 50.3654C111.56 50.3654 111.975 50.9209 112.331 50.42C112.686 49.9191 114.039 48.0098 114.039 48.0098C114.039 48.0098 115.855 45.7385 115.885 45.684L117.238 44.4095L114.369 42.3613L113.13 43.4127C113.101 43.4424 113.076 43.4672 113.046 43.4672H113.051Z" fill="#AE7461"/>
<path d="M109.082 50.9405C109.082 50.9405 109.112 50.886 109.137 50.7471C109.166 50.6083 109.191 50.4446 109.22 50.2462C109.25 50.0231 109.304 49.7751 109.359 49.4974C109.388 49.3586 109.413 49.2197 109.443 49.056C109.472 48.9172 109.527 48.7535 109.581 48.6147C109.828 48.0047 110.158 47.5336 110.405 47.1765C110.514 47.0129 110.627 46.874 110.706 46.7599C110.79 46.6756 110.815 46.6211 110.815 46.6211C110.815 46.6211 110.761 46.6756 110.677 46.7599C110.593 46.8443 110.484 46.9831 110.376 47.1468C110.129 47.479 109.768 47.9749 109.522 48.5849C109.467 48.7486 109.413 48.8874 109.383 49.056C109.354 49.1949 109.329 49.3586 109.299 49.4974C109.245 49.7751 109.215 50.0231 109.191 50.2462C109.161 50.4397 109.137 50.6331 109.107 50.7471C109.077 50.886 109.077 50.9405 109.077 50.9405H109.082Z" fill="#6F4439"/>
<path d="M112.913 47.5635C112.913 47.5635 112.884 47.5932 112.859 47.6478C112.829 47.7023 112.775 47.8114 112.696 47.9255C112.558 48.1487 112.365 48.4809 112.173 48.838C112.173 48.8677 112.143 48.8925 112.143 48.8925C111.98 49.2793 111.842 49.6414 111.728 49.9191C111.674 50.0579 111.644 50.167 111.62 50.2216C111.59 50.3059 111.59 50.3307 111.59 50.3307C111.59 50.3307 111.62 50.3009 111.644 50.2216C111.674 50.1373 111.728 50.0579 111.783 49.9191C111.891 49.6711 112.029 49.3091 112.197 48.9223C112.197 48.8925 112.227 48.8677 112.227 48.8677C112.419 48.5057 112.612 48.1735 112.726 47.9552C112.78 47.8461 112.834 47.7321 112.864 47.6775C112.893 47.5932 112.918 47.5684 112.918 47.5684L112.913 47.5635Z" fill="#6F4439"/>
<path d="M96.8194 24.7214C96.8194 24.7512 96.849 24.776 96.849 24.8058C96.9033 24.9446 96.9329 25.0835 96.9329 25.2471V25.4405C96.9329 25.4951 96.9625 25.5248 96.9872 25.5496C97.0958 25.8273 97.0711 26.1299 97.0711 26.4076C97.0711 26.7101 97.0711 27.0423 97.2341 27.3201C97.4019 27.5978 97.787 27.7366 98.0338 27.568C98.0042 27.7614 98.1424 27.9548 98.3349 28.0094C98.5275 28.0639 98.7496 27.9796 98.8879 27.8457C99.0261 27.7069 99.11 27.5135 99.1643 27.3201C99.1347 27.5432 99.3865 27.7614 99.6037 27.7614C99.8209 27.7614 100.043 27.5978 100.181 27.3994C100.29 27.206 100.349 26.958 100.374 26.7349C100.403 26.5117 100.458 26.0703 100.512 25.8472C100.512 25.8472 100.813 25.9017 100.951 25.9017C101.144 25.9315 100.981 25.9017 100.981 25.9017C101.09 25.7926 101.144 25.624 101.257 25.4058C101.45 25.019 101.588 24.771 101.726 24.409C101.835 24.1313 101.889 23.8833 101.756 23.7147C101.371 23.2982 100.596 24.1313 100.596 24.1313C100.487 23.8288 99.6037 23.799 99.4408 24.1859C99.3568 23.9627 99.3865 23.8536 99.2186 23.7147C99.0557 23.5759 98.8039 23.4916 98.5867 23.5511C98.3646 23.6056 98.2017 23.8288 98.2017 24.047C98.0091 23.7445 97.6487 23.6056 97.2933 23.6602C97.1008 23.7147 96.9082 23.8238 96.7947 24.0222C96.7404 24.1065 96.6861 24.2156 96.6565 24.2999C96.6565 24.3297 96.6268 24.3842 96.6268 24.409C96.6268 24.4338 96.6268 24.4388 96.6565 24.4636C96.7404 24.5479 96.7947 24.6272 96.8194 24.7115V24.7214Z" fill="#AE7461"/>
<path d="M95.8814 24.1958C95.6889 24.1958 95.4667 24.2256 95.3581 24.3595C95.1952 24.5231 95.1656 24.8554 95.1952 25.1083C95.4717 25.1628 95.6099 25.1628 95.8567 25.2174C95.911 25.2174 95.9653 25.2174 95.995 25.2471C96.1036 25.3315 96.1036 25.634 96.1628 25.7728C96.2467 26.0208 96.5775 26.1348 96.8243 26.0505C97.0712 25.9662 97.239 25.6885 97.239 25.4406C97.239 25.1926 97.1304 24.9149 96.9626 24.7215C96.7157 24.3892 96.301 24.1958 95.8864 24.1958H95.8814Z" fill="#AE7461"/>
<path d="M98.172 24.0024C98.2263 24.0024 98.2263 24.8058 98.172 25.8026C98.1177 26.7994 98.0338 27.6028 97.9794 27.6028C97.9251 27.6028 97.9251 26.7994 97.9794 25.8026C98.0634 24.8058 98.1424 24.0024 98.172 24.0024Z" fill="#6F4439"/>
<path d="M99.4654 24.1958C99.5197 24.1958 99.5741 24.9149 99.4951 25.8274C99.4111 26.7399 99.2186 27.4341 99.1939 27.4341C99.1396 27.4341 99.2482 26.7151 99.3322 25.8274C99.3865 24.9149 99.4161 24.1958 99.4704 24.1958H99.4654Z" fill="#6F4439"/>
<path d="M100.65 24.1958C100.705 24.1958 100.734 24.8058 100.621 25.5546C100.537 26.3034 100.428 26.8837 100.374 26.8837C100.319 26.8837 100.344 26.2737 100.458 25.5546C100.566 24.781 100.621 24.1958 100.65 24.1958Z" fill="#6F4439"/>
<path d="M96.2664 24.3346C96.2664 24.3048 96.4046 24.28 96.5676 24.3643C96.7601 24.4486 96.9526 24.6668 97.0612 24.9445C97.1698 25.2222 97.1995 25.4702 97.1698 25.6934C97.1402 25.9165 96.9773 25.9711 96.9773 25.9413C96.9477 25.9116 97.0612 25.8322 97.0316 25.6934C97.002 25.5297 96.9477 25.2768 96.8687 25.0288C96.7848 24.7809 96.6219 24.5875 96.4836 24.5032C96.375 24.3941 96.2615 24.3643 96.2615 24.3395L96.2664 24.3346Z" fill="#6F4439"/>
<path d="M91.9962 92.1115H53.1095C51.7864 92.1115 50.7102 91.0304 50.7102 89.7311V70.1275C50.7102 68.7984 51.7864 67.7471 53.1095 67.7471H91.9962C93.3192 67.7471 94.3658 68.8282 94.3658 70.1275V89.7311C94.3658 91.0304 93.2896 92.1115 91.9962 92.1115Z" fill="white"/>
<path d="M91.9961 92.1115C91.9961 92.1115 92.1047 92.1115 92.3269 92.0818C92.549 92.052 92.8798 91.9727 93.2352 91.7197C93.5956 91.4966 94.0054 91.085 94.1979 90.475C94.3065 90.1725 94.3361 89.8402 94.3361 89.4484V88.2582C94.3361 84.9058 94.3361 80.0607 94.3065 74.0849V70.5986C94.3065 70.1821 94.3361 69.7952 94.1979 69.4084C93.9511 68.6348 93.2895 67.9951 92.4898 67.8314C92.2973 67.7769 92.0751 67.7769 91.8826 67.7769H53.1341C52.5812 67.7769 52.0332 67.9703 51.6185 68.3323C51.2038 68.6943 50.9274 69.1902 50.8484 69.7456C50.8188 70.0234 50.8188 70.3011 50.8188 70.5738V89.8154C50.8484 90.0634 50.8731 90.3113 50.9866 90.5345C51.1791 90.9759 51.4803 91.3627 51.895 91.6404C52.3097 91.8883 52.7787 92.0272 53.2476 92.0024H72.733C78.6867 92.0024 83.5099 92.0322 86.8422 92.0322H91.6653C91.8875 92.1165 91.9961 92.1165 91.9961 92.1165H86.8422C83.5099 92.1165 78.6817 92.1165 72.733 92.1462H53.2476C52.754 92.176 52.2257 92.0371 51.816 91.7594C51.3766 91.4817 51.0459 91.0651 50.8533 90.594C50.7447 90.346 50.7151 90.0981 50.6904 89.8452C50.6608 89.5972 50.6904 89.3493 50.6904 89.0715V70.5788C50.6904 70.3011 50.6904 70.0234 50.72 69.7208C50.804 69.1406 51.1051 68.615 51.5445 68.2281C51.9838 67.8413 52.5664 67.6182 53.144 67.6182H91.8924C92.1146 67.6182 92.3318 67.6479 92.5243 67.6727C93.3784 67.8661 94.0695 68.5306 94.3164 69.334C94.4546 69.7506 94.425 70.1622 94.425 70.554V74.0403C94.425 80.0211 94.3954 84.8662 94.3954 88.2136V89.4038C94.3954 89.7658 94.3657 90.1229 94.2571 90.4304C94.035 91.0403 93.6252 91.4569 93.2649 91.7049C92.8798 91.928 92.549 92.0074 92.3269 92.0371C92.2183 92.0669 92.1343 92.0669 92.08 92.0669C92.0257 92.1214 91.9961 92.1214 91.9961 92.1214V92.1115Z" fill="#263238"/>
<path d="M61.8475 71.8438H55.3705V73.0637H61.8475V71.8438Z" fill="#6471D7"/>
<path d="M61.8475 86.9048H55.3705V88.1247H61.8475V86.9048Z" fill="#6471D7"/>
<path d="M66.5325 74.8887H55.3705V76.1086H66.5325V74.8887Z" fill="#E0E0E0"/>
<path d="M73.4489 74.8887H68.5171V76.1086H73.4489V74.8887Z" fill="#6471D7"/>
<path d="M88.1653 74.8887H84.912V76.1086H88.1653V74.8887Z" fill="#263238"/>
<path d="M83.7814 74.8887H75.1816V76.1086H83.7814V74.8887Z" fill="#455A64"/>
<path d="M77.0033 79.0295H88.1653V77.8096H77.0033V79.0295Z" fill="#E0E0E0"/>
<path d="M70.0671 79.0295H74.9989V77.8096H70.0671V79.0295Z" fill="#455A64"/>
<path d="M55.3656 79.0295H58.6189V77.8096H55.3656V79.0295Z" fill="#263238"/>
<path d="M59.7395 79.0295H68.3393V77.8096H59.7395V79.0295Z" fill="#6471D7"/>
<path d="M66.5325 80.7852H55.3705V82.0051H66.5325V80.7852Z" fill="#E0E0E0"/>
<path d="M73.4489 80.7852H68.5171V82.0051H73.4489V80.7852Z" fill="#263238"/>
<path d="M88.1653 80.7852H84.912V82.0051H88.1653V80.7852Z" fill="#263238"/>
<path d="M69.2328 83.8301H65.9795V85.05H69.2328V83.8301Z" fill="#6471D7"/>
<path d="M83.7814 80.7852H75.1816V82.0051H83.7814V80.7852Z" fill="#455A64"/>
<path d="M63.7481 83.8301H55.1483V85.05H63.7481V83.8301Z" fill="#455A64"/>
<path d="M133.114 93.8521H119.528C118.289 93.8521 117.297 92.8553 117.297 91.6106V78.4886C117.297 77.2439 118.289 76.2471 119.528 76.2471H133.114C134.353 76.2471 135.346 77.2439 135.346 78.4886V91.6106C135.346 92.8553 134.353 93.8521 133.114 93.8521Z" fill="#FAFAFA"/>
<path d="M133.114 93.8525C133.114 93.8227 133.361 93.8525 133.776 93.7434C133.998 93.659 134.245 93.5499 134.492 93.3565C134.738 93.1631 134.99 92.8557 135.153 92.4688C135.237 92.2754 135.291 92.0523 135.291 91.8341C135.321 91.6109 135.291 91.3382 135.291 91.0852V78.8758C135.291 78.6526 135.291 78.4046 135.262 78.1815C135.232 77.9583 135.153 77.7401 135.04 77.5169C134.817 77.1004 134.487 76.7433 134.047 76.5499C133.825 76.4408 133.608 76.3813 133.356 76.3565C133.109 76.3267 132.858 76.3267 132.611 76.3267H119.494C118.941 76.3267 118.363 76.5499 117.978 76.9367C117.593 77.3235 117.346 77.879 117.346 78.4294V91.7994C117.376 92.0225 117.43 92.2407 117.514 92.4639C117.677 92.8805 117.983 93.2375 118.368 93.4607C118.729 93.7086 119.168 93.8227 119.583 93.7929H123.251C126.282 93.7929 128.765 93.8227 130.473 93.8227H132.951C133.06 93.8525 133.114 93.8525 133.114 93.8525H130.468C128.76 93.8525 126.306 93.8525 123.246 93.8822H119.578C119.138 93.8822 118.669 93.7731 118.284 93.5202C117.899 93.2722 117.568 92.9102 117.376 92.4688C117.292 92.2457 117.238 91.9977 117.213 91.7746C117.183 91.5266 117.213 91.3034 117.213 91.0555V78.4046C117.213 77.8244 117.489 77.2442 117.904 76.8276C118.319 76.411 118.926 76.1631 119.528 76.1631H132.645C132.892 76.1631 133.139 76.1631 133.391 76.1928C133.638 76.2226 133.889 76.3019 134.107 76.416C134.576 76.6392 134.931 76.9962 135.153 77.4426C135.4 77.8839 135.43 78.3848 135.4 78.8559V91.8142C135.37 92.0622 135.316 92.2854 135.237 92.4788C135.074 92.8656 134.822 93.173 134.546 93.3913C134.299 93.5847 134.023 93.7235 133.8 93.7781C133.578 93.8326 133.415 93.8624 133.307 93.8624H133.114V93.8525Z" fill="#263238"/>
<path d="M123.418 79.7632L120.432 84.9306L121.691 85.6646L124.677 80.4971L123.418 79.7632Z" fill="#6471D7"/>
<g opacity="0.4">
<path d="M124.05 80.1304L121.064 85.2978L121.696 85.6648L124.682 80.4974L124.05 80.1304Z" fill="#6471D7"/>
</g>
<path d="M129.54 79.7632L128.281 80.4971L131.268 85.6646L132.527 84.9306L129.535 79.7632H129.54Z" fill="#6471D7"/>
<g opacity="0.4">
<path d="M128.913 80.1304L128.281 80.4974L131.268 85.6648L131.9 85.2978L128.913 80.1304Z" fill="#6471D7"/>
</g>
<path d="M133.647 83.6265H119.252V86.2003H133.647V83.6265Z" fill="#4C7CE0"/>
<g opacity="0.3">
<path d="M133.707 85.625H119.311V86.1953H133.707V85.625Z" fill="#4C7CE0"/>
</g>
<path d="M120.442 86.2002L121.518 92.4289H131.53L132.522 86.2002H120.442Z" fill="#4C7CE0"/>
<g opacity="0.3">
<path d="M122.337 86.2002H120.442L121.518 92.4289H131.53L131.712 91.2933C127.763 91.9627 123.33 90.3907 122.342 86.2002H122.337Z" fill="#4C7CE0"/>
</g>
<path d="M123.863 87.0981H123.098V91.0407H123.863V87.0981Z" fill="#6471D7"/>
<path d="M125.862 87.0981H125.097V91.0407H125.862V87.0981Z" fill="#6471D7"/>
<path d="M127.867 87.0981H127.101V91.0407H127.867V87.0981Z" fill="#6471D7"/>
<path d="M129.866 87.0981H129.101V91.0407H129.866V87.0981Z" fill="#6471D7"/>
<path d="M121.942 84.6679C121.942 84.8415 121.804 84.9803 121.631 84.9803C121.459 84.9803 121.32 84.8415 121.32 84.6679C121.32 84.4943 121.459 84.3555 121.631 84.3555C121.804 84.3555 121.942 84.4943 121.942 84.6679Z" fill="white"/>
<path d="M131.643 84.6679C131.643 84.8415 131.505 84.9803 131.332 84.9803C131.159 84.9803 131.021 84.8415 131.021 84.6679C131.021 84.4943 131.159 84.3555 131.332 84.3555C131.505 84.3555 131.643 84.4943 131.643 84.6679Z" fill="white"/>
<g opacity="0.4">
<path d="M129.619 88.3624C127.778 86.9391 126.479 84.9157 125.334 82.9122C124.149 80.8393 123.167 78.6374 122.762 76.2769H117.356V93.5844H135.602V90.9312C133.455 90.5345 131.401 89.746 129.619 88.3673V88.3624Z" fill="#FFE4B2"/>
</g>
<path d="M138.406 49.6116V82.7487C138.406 83.7455 139.206 84.5192 140.169 84.5192H161.417C162.409 84.5192 163.179 83.7158 163.179 82.7487V49.6116C163.179 48.6148 162.379 47.8411 161.417 47.8411H140.169C139.206 47.8114 138.406 48.6148 138.406 49.6116Z" fill="white"/>
<path d="M138.406 49.6118V49.5275C138.406 49.4729 138.406 49.3886 138.436 49.3043C138.466 49.1109 138.545 48.8034 138.796 48.4761C139.043 48.1736 139.488 47.8414 140.09 47.8116H142.104C145.135 47.8116 149.519 47.8116 154.92 47.7818H161.426C162.226 47.7521 163.026 48.3373 163.218 49.1407C163.273 49.3341 163.273 49.5572 163.273 49.7506V82.7539C163.273 83.3094 163.026 83.835 162.611 84.1673C162.419 84.3309 162.172 84.4698 161.92 84.5293C161.673 84.6136 161.397 84.5839 161.15 84.5839H140.312C140.09 84.5839 139.843 84.5541 139.621 84.4996C139.181 84.3607 138.821 84.0582 138.599 83.6416C138.49 83.4482 138.406 83.2251 138.377 83.0069C138.347 82.7837 138.347 82.5655 138.347 82.3423V67.2268C138.347 61.8014 138.377 57.3977 138.377 54.3527V49.949C138.406 49.701 138.406 49.6167 138.406 49.6167V54.323C138.406 57.3679 138.406 61.7717 138.436 67.197V82.3126C138.436 82.5357 138.436 82.7539 138.466 82.9473C138.495 83.1407 138.55 83.3639 138.658 83.5276C138.851 83.8896 139.211 84.1921 139.621 84.3309C139.813 84.3855 140.036 84.4153 140.253 84.4153H161.091C161.338 84.4153 161.584 84.4153 161.836 84.3607C162.083 84.3062 162.305 84.1921 162.468 84.0284C162.853 83.6962 163.075 83.2251 163.075 82.7291V49.7258C163.075 49.5324 163.075 49.339 163.021 49.1456C162.828 48.3968 162.083 47.8463 161.338 47.8711H154.836C149.435 47.8711 145.051 47.8414 142.02 47.8414H140.006C139.428 47.8711 138.984 48.1736 138.737 48.4761C138.49 48.7786 138.406 49.0861 138.352 49.2795C138.406 49.5027 138.436 49.6118 138.406 49.6118Z" fill="#263238"/>
<path d="M145.352 78.4891H145.269C144.883 78.4891 144.577 78.1865 144.577 77.7948V54.8735C144.577 54.4867 144.879 54.1792 145.269 54.1792H145.352C145.738 54.1792 146.044 54.4817 146.044 54.8735V77.7948C146.044 78.1816 145.742 78.4891 145.352 78.4891Z" fill="#E0E0E0"/>
<path d="M145.352 78.4891C145.352 78.4593 145.545 78.5189 145.792 78.2957C146.093 78.0725 145.96 77.5221 145.984 76.9121C145.984 75.6376 145.955 73.7828 145.955 71.5115C145.955 69.2402 145.955 66.5276 145.925 63.5124V55.0421C145.925 54.933 145.925 54.819 145.895 54.7396C145.866 54.6553 145.841 54.576 145.757 54.4917C145.619 54.3528 145.456 54.2685 145.234 54.2982C145.041 54.2982 144.849 54.3826 144.735 54.5462C144.681 54.6305 144.651 54.7148 144.627 54.7942V63.5967C144.627 66.6168 144.627 69.2997 144.597 71.5958C144.597 73.8671 144.567 75.6921 144.567 76.9964V77.8543C144.567 78.1023 144.706 78.2709 144.814 78.38C144.953 78.4891 145.061 78.5188 145.145 78.5188C145.308 78.4891 145.338 78.4891 145.338 78.4891H145.199C145.115 78.4891 144.977 78.4593 144.839 78.3502C144.701 78.2659 144.563 78.0725 144.563 77.7948V76.9369C144.563 75.6624 144.533 73.8076 144.533 71.5363C144.533 69.265 144.533 66.5524 144.503 63.5372V54.7049C144.533 54.5958 144.558 54.4569 144.642 54.3726C144.78 54.1792 145.027 54.0404 145.249 54.0404C145.471 54.0106 145.747 54.1247 145.881 54.2883C145.965 54.3726 146.019 54.4817 146.044 54.5908C146.073 54.6999 146.073 54.8388 146.073 54.9231V63.3934C146.073 66.4135 146.073 69.0964 146.044 71.3925C146.044 73.6638 146.014 75.4888 146.014 76.7931V77.651C146.044 77.899 145.905 78.1221 145.792 78.2312C145.545 78.5337 145.323 78.4792 145.323 78.4792L145.352 78.4891Z" fill="#263238"/>
<path d="M150.867 78.4891H150.783C150.398 78.4891 150.092 78.1865 150.092 77.7948V54.8735C150.092 54.4867 150.393 54.1792 150.783 54.1792H150.867C151.252 54.1792 151.558 54.4817 151.558 54.8735V77.7948C151.528 78.1816 151.227 78.4891 150.867 78.4891Z" fill="#E0E0E0"/>
<path d="M150.867 78.4891C150.867 78.4593 151.059 78.5189 151.306 78.2957C151.607 78.0725 151.474 77.5221 151.499 76.9121C151.499 75.6376 151.469 73.7828 151.469 71.5115C151.469 69.2402 151.469 66.5276 151.439 63.5124V55.0421C151.439 54.933 151.439 54.819 151.41 54.7396C151.38 54.6553 151.356 54.576 151.272 54.4917C151.133 54.3528 150.97 54.2685 150.748 54.2982C150.556 54.2982 150.363 54.3826 150.25 54.5462C150.195 54.6305 150.166 54.7148 150.141 54.7942V63.5967C150.141 66.6168 150.141 69.2997 150.111 71.5958C150.111 73.8671 150.082 75.6921 150.082 76.9964V77.8543C150.082 78.1023 150.22 78.2709 150.329 78.38C150.467 78.4891 150.576 78.5188 150.659 78.5188C150.798 78.4891 150.852 78.4891 150.852 78.4891H150.714C150.63 78.4891 150.492 78.4593 150.353 78.3502C150.215 78.2659 150.077 78.0725 150.077 77.7948V76.9369C150.077 75.6624 150.047 73.8076 150.047 71.5363C150.047 69.265 150.047 66.5524 150.018 63.5372V54.7049C150.047 54.5958 150.072 54.4569 150.156 54.3726C150.294 54.1792 150.541 54.0404 150.763 54.0404C150.985 54.0106 151.262 54.1247 151.395 54.2883C151.479 54.3726 151.533 54.4817 151.558 54.5908C151.588 54.6999 151.588 54.8388 151.588 54.9231V63.3934C151.588 66.4135 151.588 69.0964 151.558 71.3925C151.558 73.6638 151.528 75.4888 151.528 76.7931V77.651C151.558 77.899 151.42 78.1221 151.306 78.2312C151.03 78.5337 150.837 78.4792 150.837 78.4792L150.867 78.4891Z" fill="#263238"/>
<path d="M156.376 78.4891H156.292C155.907 78.4891 155.601 78.1865 155.601 77.7948V54.8735C155.601 54.4867 155.902 54.1792 156.292 54.1792H156.376C156.761 54.1792 157.067 54.4817 157.067 54.8735V77.7948C157.038 78.1816 156.737 78.4891 156.376 78.4891Z" fill="#E0E0E0"/>
<path d="M156.376 78.4891C156.376 78.4593 156.569 78.5189 156.816 78.2957C157.117 78.0725 156.978 77.5221 157.008 76.9121C157.008 75.6376 156.978 73.7828 156.978 71.5115C156.978 69.2402 156.978 66.5276 156.949 63.5124V55.0421C156.949 54.933 156.949 54.819 156.919 54.7396C156.89 54.6553 156.865 54.576 156.781 54.4917C156.643 54.3528 156.48 54.2685 156.258 54.2982C156.065 54.2982 155.873 54.3826 155.764 54.5462C155.71 54.6305 155.68 54.7148 155.655 54.7942V63.5967C155.655 66.6168 155.655 69.2997 155.626 71.5958C155.626 73.8671 155.596 75.6921 155.596 76.9964V77.8543C155.596 78.1023 155.734 78.2709 155.843 78.38C155.981 78.4891 156.09 78.5188 156.174 78.5188C156.312 78.4891 156.366 78.4891 156.366 78.4891H156.228C156.144 78.4891 156.006 78.4593 155.868 78.3502C155.729 78.2659 155.591 78.0725 155.591 77.7948V76.9369C155.591 75.6624 155.562 73.8076 155.562 71.5363C155.562 69.265 155.562 66.5524 155.532 63.5372V54.7049C155.562 54.5958 155.586 54.4569 155.67 54.3726C155.808 54.1792 156.055 54.0404 156.277 54.0404C156.5 54.0106 156.776 54.1247 156.909 54.2883C156.993 54.3726 157.048 54.4817 157.072 54.5908C157.102 54.6999 157.102 54.8388 157.102 54.9231V63.3934C157.102 66.4135 157.102 69.0964 157.072 71.3925C157.072 73.6638 157.043 75.4888 157.043 76.7931V77.651C157.072 77.899 156.934 78.1221 156.82 78.2312C156.544 78.5337 156.322 78.4792 156.351 78.4792L156.376 78.4891Z" fill="#263238"/>
<path d="M145.244 65.5851H144.967C144.197 65.5851 143.59 64.9503 143.59 64.2015C143.59 63.4526 144.222 62.8179 144.967 62.8179H145.244C146.014 62.8179 146.621 63.4526 146.621 64.2015C146.621 64.9503 145.989 65.5851 145.244 65.5851Z" fill="#6471D7"/>
<path d="M151.084 70.8468H150.808C150.037 70.8468 149.43 70.212 149.43 69.4632C149.43 68.7144 150.062 68.0796 150.808 68.0796H151.084C151.854 68.0796 152.461 68.7144 152.461 69.4632C152.491 70.212 151.854 70.8468 151.084 70.8468Z" fill="#6471D7"/>
<path d="M156.406 60.9088H156.129C155.359 60.9088 154.752 60.274 154.752 59.5252C154.752 58.7764 155.384 58.1416 156.129 58.1416H156.406C157.176 58.1416 157.783 58.7764 157.783 59.5252C157.783 60.274 157.151 60.9088 156.406 60.9088Z" fill="#6471D7"/>
<path d="M133.84 9.29346L133.633 40.8983L172.144 41.1512L172.352 9.54637L133.84 9.29346Z" fill="white"/>
<path d="M133.84 9.29346L133.786 17.4364L172.297 17.6893L172.351 9.54637L133.84 9.29346Z" fill="#4C7CE0"/>
<path d="M152.876 19.936V20.0898H153.177V19.936H152.876Z" fill="#4C7CE0"/>
<path d="M135.839 20.4517L135.805 25.8621L142.504 25.9067L142.539 20.4963L135.839 20.4517Z" fill="#4C7CE0"/>
<path d="M145.061 20.5112L145.027 25.9217L151.726 25.9663L151.76 20.5559L145.061 20.5112Z" fill="#4C7CE0"/>
<path d="M154.283 20.5757L154.249 25.9861L160.948 26.0308L160.982 20.6203L154.283 20.5757Z" fill="#4C7CE0"/>
<path d="M163.505 20.6353L163.47 26.0457L170.169 26.0903L170.204 20.6799L163.505 20.6353Z" fill="#4C7CE0"/>
<path d="M135.795 27.1367L135.76 32.5472L142.46 32.5918L142.494 27.1814L135.795 27.1367Z" fill="#4C7CE0"/>
<path d="M145.017 27.1963L144.982 32.6067L151.681 32.6514L151.716 27.2409L145.017 27.1963Z" fill="#4C7CE0"/>
<path d="M154.239 27.2559L154.204 32.6663L160.903 32.7109L160.938 27.3005L154.239 27.2559Z" fill="#4C7CE0"/>
<path d="M163.465 27.3203L163.431 32.7308L170.13 32.7754L170.165 27.3649L163.465 27.3203Z" fill="#4C7CE0"/>
<path d="M135.751 33.8218L135.716 39.2322L142.415 39.2769L142.45 33.8664L135.751 33.8218Z" fill="#4C7CE0"/>
<path d="M144.972 33.8809L144.938 39.2913L151.637 39.3359L151.671 33.9255L144.972 33.8809Z" fill="#4C7CE0"/>
<path d="M154.199 33.9404L154.165 39.3509L160.864 39.3955L160.898 33.9851L154.199 33.9404Z" fill="#4C7CE0"/>
<path d="M163.421 34L163.386 39.4105L170.086 39.4551L170.12 34.0446L163.421 34Z" fill="#4C7CE0"/>
<g opacity="0.5">
<path d="M154.313 33.0628C148.339 26.5266 144.059 18.1406 142.598 9.35297L133.835 9.29346L133.628 40.8983L166.714 41.1165C162.127 39.2816 157.837 36.916 154.313 33.0628Z" fill="#4C7CE0"/>
</g>
<path d="M138.555 10.7961C138.555 11.3466 138.105 11.7879 137.557 11.783C137.009 11.783 136.57 11.3317 136.575 10.7812L136.6 7.11143C136.6 6.56096 137.049 6.11959 137.597 6.12455C138.145 6.12455 138.584 6.57584 138.579 7.12631L138.555 10.7961Z" fill="#E1EDFF"/>
<path d="M144.765 10.8356C144.765 11.3861 144.316 11.8275 143.768 11.8225C143.22 11.8225 142.78 11.3712 142.785 10.8208L142.81 7.15098C142.81 6.60051 143.259 6.15914 143.807 6.1641C144.355 6.1641 144.795 6.61539 144.79 7.16586L144.765 10.8356Z" fill="#E1EDFF"/>
<path d="M150.971 10.8806C150.971 11.431 150.521 11.8724 149.973 11.8674C149.425 11.8674 148.986 11.4162 148.991 10.8657L149.016 7.1959C149.016 6.64543 149.465 6.20407 150.013 6.20903C150.561 6.20903 151 6.66031 150.995 7.21078L150.971 10.8806Z" fill="#E1EDFF"/>
<path d="M157.176 10.9201C157.176 11.4706 156.727 11.912 156.179 11.907C155.631 11.907 155.191 11.4557 155.196 10.9052L155.221 7.23545C155.221 6.68498 155.67 6.24362 156.218 6.24858C156.766 6.24858 157.206 6.69986 157.201 7.25033L157.176 10.9201Z" fill="#E1EDFF"/>
<path d="M163.386 10.9597C163.386 11.5101 162.937 11.9515 162.389 11.9465C161.841 11.9465 161.402 11.4953 161.407 10.9448L161.431 7.275C161.431 6.72453 161.881 6.28317 162.429 6.28813C162.977 6.28813 163.416 6.73941 163.411 7.28988L163.386 10.9597Z" fill="#E1EDFF"/>
<path d="M169.592 10.9997C169.592 11.5502 169.143 11.9915 168.595 11.9866C168.047 11.9866 167.607 11.5353 167.612 10.9848L167.637 7.31504C167.637 6.76457 168.086 6.32321 168.634 6.32817C169.182 6.32817 169.621 6.77945 169.617 7.32992L169.592 10.9997Z" fill="#E1EDFF"/>
<path d="M135.469 17.3721L170.614 17.6052" stroke="#6471D7" stroke-width="0.67" stroke-miterlimit="10"/>
<path d="M26.7621 41.1113C27.0089 41.4733 27.394 41.8304 27.8383 41.8056C27.9765 41.8056 28.3073 41.6965 28.3073 41.6965C28.4455 41.8056 28.3912 42.3313 28.2777 42.4701C28.1691 42.609 27.9173 42.8024 27.9173 42.8024C28.411 43.1049 28.9096 42.9958 29.4625 42.8322C29.2996 43.7744 28.6084 44.6026 27.7248 44.9101C27.4483 45.0192 27.0929 45.0489 26.8411 44.8803C26.6189 44.7117 26.5646 44.4389 26.5103 44.186C26.3178 43.219 26.2635 42.247 26.2882 41.2502L26.7572 41.1113H26.7621Z" fill="#263238"/>
<path d="M15.2397 45.2674L14.4696 57.8092C14.3314 59.9416 14.5782 63.0956 17.9401 63.1502C20.8627 62.9865 21.7711 60.2441 21.8797 58.2505C21.934 57.3083 21.9883 56.5049 21.9883 56.4255C21.9883 56.4255 25.1873 56.3164 25.597 53.1872C25.7896 51.6647 25.9821 48.5107 26.0907 45.6294C26.2289 42.5547 23.9679 39.8966 20.9071 39.5098L20.606 39.4801C17.3823 39.2866 15.3434 41.9696 15.2299 45.2674H15.2397Z" fill="#FFBF9D"/>
<path d="M22.0228 56.4502C22.0228 56.4502 20.0382 56.3114 18.0833 54.7344C18.0833 54.7344 18.7991 57.1693 21.9685 57.2536L22.0228 56.4502Z" fill="#FF9A6C"/>
<path d="M20.6158 46.4824C20.5615 46.5369 20.2011 46.2344 19.6778 46.1799C19.1545 46.1253 18.7399 46.3733 18.6856 46.3187C18.6559 46.289 18.7399 46.1799 18.9077 46.0708C19.0706 45.9617 19.3767 45.8476 19.7075 45.8774C20.0382 45.9071 20.3147 46.041 20.4529 46.1799C20.5911 46.3187 20.6454 46.4576 20.6158 46.4824Z" fill="#263238"/>
<path d="M20.6159 48.0346C20.5862 48.2578 20.3937 48.4214 20.1469 48.4214C19.9 48.3917 19.7322 48.1983 19.7618 47.9801C19.7914 47.7569 19.984 47.5933 20.2308 47.5933C20.4776 47.623 20.6455 47.8164 20.6159 48.0346Z" fill="#263238"/>
<path d="M21.7463 50.2218C21.7463 50.192 22.0475 50.1672 22.5461 50.1672C22.6843 50.1672 22.7929 50.1672 22.8225 50.0829C22.8522 49.9986 22.8225 49.8597 22.7929 49.6961C22.709 49.3936 22.63 49.0613 22.5461 48.6993C22.2153 47.2859 21.9685 46.1503 22.0228 46.1255C22.0771 46.1255 22.4079 47.2314 22.7386 48.6447C22.8225 48.977 22.9015 49.3093 22.9608 49.6415C22.9904 49.7804 23.0447 49.9441 22.9608 50.1424C22.9065 50.2267 22.8225 50.2813 22.7386 50.3061C22.6547 50.3358 22.6004 50.3061 22.5165 50.3061C22.0475 50.2763 21.7463 50.2515 21.7463 50.2218Z" fill="#263238"/>
<path d="M20.8083 44.8211C20.754 44.9302 20.3393 44.7666 19.8457 44.7368C19.352 44.6823 18.9077 44.7368 18.883 44.6277C18.8534 44.5732 18.9669 44.4641 19.1298 44.4045C19.3224 44.3202 19.5988 44.2657 19.9 44.3202C20.2011 44.35 20.4529 44.4591 20.6158 44.5682C20.7787 44.6525 20.838 44.7616 20.8083 44.8162V44.8211Z" fill="#263238"/>
<path d="M25.5477 45.5998C25.4934 45.6841 25.0787 45.5701 24.585 45.5155C24.0914 45.461 23.6767 45.5155 23.6224 45.4064C23.5928 45.3519 23.6767 45.2676 23.8692 45.213C24.0321 45.1585 24.3086 45.1039 24.6147 45.1287C24.9158 45.1585 25.1676 45.2378 25.3305 45.3519C25.4934 45.461 25.5773 45.5453 25.5526 45.5998H25.5477Z" fill="#263238"/>
<path d="M15.1311 47.4542C15.0768 47.4244 13.0626 46.5417 12.8701 48.6989C12.6775 50.8562 14.8842 50.6082 14.8842 50.5536C14.8842 50.4991 15.1311 47.4542 15.1311 47.4542Z" fill="#FFBF9D"/>
<path d="M14.2771 49.6661C14.2771 49.6661 14.2474 49.6958 14.1684 49.7206C14.1141 49.7504 14.0055 49.7504 13.892 49.6909C13.6698 49.5818 13.5069 49.195 13.5316 48.8032C13.5316 48.6098 13.6155 48.4164 13.6945 48.2775C13.7784 48.1139 13.8871 48.0296 13.9957 47.9998C14.1043 47.97 14.1882 48.0544 14.2178 48.1089C14.2474 48.1635 14.2178 48.218 14.2474 48.218C14.2474 48.218 14.3017 48.1883 14.2771 48.1089C14.2771 48.0544 14.2474 47.9998 14.1931 47.9701C14.1388 47.9155 14.0845 47.8857 14.0006 47.8857C13.8377 47.8857 13.6698 48.0246 13.5859 48.1883C13.4773 48.3519 13.423 48.5503 13.3934 48.7685C13.3638 49.2098 13.5563 49.6264 13.8624 49.7653C14.0006 49.8198 14.1388 49.795 14.2227 49.7355C14.2771 49.7058 14.3067 49.6512 14.2771 49.6512V49.6661Z" fill="#FF9A6C"/>
<path d="M12.4307 43.7995C12.9244 43.0506 13.0626 42.1381 13.3687 41.31C13.6451 40.4818 14.1684 39.6189 15.0225 39.3461H15.0521C15.8222 39.0684 16.7355 39.123 17.3131 39.6784C17.5353 38.5725 18.5523 37.7146 19.6581 37.4914C20.759 37.2682 22.5263 37.5212 23.5433 37.9873C24.3431 38.3493 25.0885 39.0684 25.9969 40.09C26.3819 40.5314 26.7127 41.0025 27.0435 41.4736L27.8432 44.464L26.9595 45.9567C26.9052 46.0658 26.8509 46.1501 26.7966 46.2592L25.9969 49.4132C25.9969 48.5256 26.1055 45.5104 26.1055 44.6227C24.7528 44.4838 23.5433 43.8739 22.6596 42.8225C22.1906 42.2671 21.8599 41.5778 21.228 41.2157C20.4035 40.7744 19.4113 41.0223 18.498 41.2703L18.5276 41.2405C18.0586 41.4339 17.6192 41.7117 17.2588 42.0687C17.3674 43.8391 17.0959 45.6145 16.4591 47.2758C16.3752 47.5238 16.0987 48.0247 15.8519 48.104C15.3582 48.2677 15.2446 47.7718 14.9682 47.494C14.7757 47.3006 14.4449 47.2461 14.0845 47.2461C13.9216 46.6907 13.7538 45.7782 13.6155 44.9748C13.3144 45.0591 13.0083 45.0591 12.7072 45.0045C12.8158 44.7814 12.9293 44.5632 13.0083 44.34C12.8701 44.4243 12.7615 44.4789 12.6232 44.5037C12.485 44.5334 12.3221 44.4491 12.2629 44.34C12.2086 44.1169 12.3172 43.9532 12.4258 43.7846L12.4307 43.7995Z" fill="#263238"/>
<path d="M18.2709 40.0898C18.2709 40.0898 18.1327 40.1742 17.9401 40.3676C17.7476 40.561 17.5254 40.923 17.4168 41.3941C17.3625 41.6421 17.3082 41.89 17.3082 42.1975C17.2786 42.5 17.3082 42.8075 17.3082 43.1397C17.3082 43.472 17.3082 43.8043 17.2786 44.1663C17.249 44.3299 17.2243 44.5283 17.17 44.7217C17.1157 44.8903 17.0614 45.0837 16.9232 45.2474C16.8145 45.3565 16.622 45.411 16.4838 45.3862C16.3209 45.3565 16.1826 45.2474 16.0987 45.1383C15.9062 44.8903 15.8766 44.5829 15.8223 44.3101H15.8766C15.768 44.5333 15.6297 44.7812 15.4619 44.9449C15.299 45.1383 15.0472 45.2474 14.83 45.2474C14.7214 45.2474 14.6078 45.2176 14.4992 45.1631C14.3906 45.1085 14.3363 45.0242 14.2771 44.9399C14.2228 44.8556 14.2228 44.7465 14.2228 44.6622C14.2228 44.5779 14.2771 44.4688 14.3314 44.4142L14.361 44.444C14.1142 44.7217 13.8377 44.8606 13.6698 44.9151C13.5859 44.9449 13.5069 44.9697 13.4477 44.9994C13.3934 44.9994 13.3638 45.0292 13.3638 45.0292C13.3638 45.0292 13.3934 45.0292 13.4477 44.9994C13.502 44.9697 13.5563 44.9449 13.6698 44.9151C13.8328 44.8308 14.1092 44.692 14.361 44.4192L14.3906 44.449C14.282 44.5581 14.2524 44.7515 14.3363 44.9201C14.3906 45.0044 14.4449 45.0837 14.5288 45.1135C14.6128 45.168 14.7214 45.168 14.83 45.168C15.0521 45.168 15.2447 45.0589 15.4076 44.8903C15.5705 44.7217 15.684 44.5035 15.8223 44.2555L15.8766 44.1464L15.9062 44.2555C15.9358 44.5333 15.9901 44.811 16.153 45.0292C16.237 45.1383 16.3752 45.2226 16.5134 45.2523C16.6516 45.2821 16.7899 45.2523 16.8985 45.1432C17.0367 45.0044 17.091 44.8407 17.1206 44.6473C17.1749 44.4837 17.2046 44.2853 17.2292 44.1217C17.2589 43.7596 17.2589 43.4274 17.2589 43.0951V42.1529C17.2885 41.8504 17.3132 41.5974 17.3971 41.3495C17.5353 40.8486 17.7575 40.5213 17.95 40.3229C18.1129 40.1593 18.2808 40.0998 18.2808 40.0998L18.2709 40.0898Z" fill="#455A64"/>
<path d="M27.8334 43.6606C27.7791 43.6903 27.7495 43.7151 27.7248 43.7449C27.6952 43.7746 27.6409 43.7994 27.5866 43.8292C27.5323 43.8589 27.478 43.8837 27.394 43.9135C27.0929 44.0524 26.6239 44.1615 26.0414 44.0771C25.4638 44.0226 24.7726 43.7746 24.1654 43.2738C23.5582 42.7729 23.0349 42.0836 22.6202 41.3099C22.3981 40.9231 22.2351 40.5065 22.0426 40.1495C21.8501 39.7924 21.6575 39.4304 21.3811 39.1527C21.1343 38.875 20.8282 38.6518 20.4974 38.5427C20.3345 38.4882 20.1667 38.4584 20.0284 38.4584C19.8655 38.4584 19.7273 38.4882 19.5891 38.513C19.3126 38.5973 19.0954 38.7361 18.8979 38.875C18.735 39.0138 18.5968 39.1775 18.5128 39.3163C18.3499 39.5941 18.3499 39.7875 18.3203 39.7875V39.7577C18.3203 39.728 18.3203 39.7032 18.3499 39.6734C18.3796 39.5891 18.4042 39.48 18.4882 39.3114C18.5721 39.1725 18.6807 39.0089 18.8732 38.8403C19.0361 38.6716 19.2879 38.5378 19.5644 38.4534C19.7026 38.4237 19.8655 38.3989 20.0334 38.3691C20.1963 38.3691 20.3641 38.3989 20.527 38.4534C20.8578 38.5625 21.1589 38.7857 21.4354 39.0634C21.7119 39.3411 21.9044 39.6982 22.0969 40.09C22.2895 40.4768 22.4573 40.8636 22.6745 41.2504C23.0892 42.024 23.5829 42.7183 24.1901 43.1895C24.7677 43.6903 25.4588 43.9085 26.0068 43.9928C26.5844 44.0771 27.0534 43.9631 27.3595 43.854C27.6902 43.7449 27.8285 43.6308 27.8285 43.6606H27.8334Z" fill="#455A64"/>
<path d="M25.4094 46.9287C25.3551 46.9832 24.9947 46.6807 24.4714 46.6262C23.9481 46.5716 23.5334 46.8196 23.4791 46.765C23.4495 46.7353 23.5334 46.6262 23.7013 46.5171C23.8642 46.4079 24.1703 46.2939 24.501 46.3236C24.8318 46.3534 25.1083 46.4923 25.2465 46.6262C25.3847 46.765 25.439 46.9039 25.4094 46.9287Z" fill="#263238"/>
<path d="M24.9158 48.4511C24.8862 48.6743 24.6936 48.838 24.4468 48.838C24.2 48.8082 24.0321 48.6148 24.0617 48.3966C24.0914 48.1734 24.2839 48.0098 24.5307 48.0098C24.7529 48.0395 24.9158 48.2329 24.9158 48.4511Z" fill="#263238"/>
<path d="M21.7167 51.992C21.7167 52.0218 21.6081 52.0466 21.386 52.0218C21.1934 51.992 20.8923 51.8829 20.6701 51.6597C20.448 51.4366 20.3394 51.1341 20.3098 50.9407C20.2801 50.7473 20.3098 50.6084 20.3394 50.6084C20.369 50.6084 20.369 50.7473 20.4233 50.9109C20.4776 51.1043 20.5862 51.3523 20.7837 51.5457C20.9762 51.7391 21.2231 51.8482 21.4156 51.9077C21.5785 51.9623 21.7167 51.9622 21.7167 51.992Z" fill="#263238"/>
<path d="M39.0545 58.8853L30.7608 66.2496L22.7682 59.7729L22.161 68.2978L27.1224 72.2849C29.1909 73.0883 31.4223 73.4751 33.0465 72.0072L42.2239 62.6493L39.0545 58.8853Z" fill="#6471D7"/>
<path d="M6.58564 62.9863C6.58564 62.9863 6.77818 59.7727 9.64642 58.0866C10.0611 57.8386 13.507 56.341 13.507 56.341L14.5289 54.873L20.8133 58.885L21.6131 59.6041L22.245 58.0519L23.0151 59.2123L22.6843 59.1578L22.7683 59.7677L23.1533 62.3713L23.4298 69.7902C23.4298 69.7059 23.5384 72.3938 23.4841 73.6386C23.2076 78.3151 22.4079 90.222 22.1314 91.08C21.7711 92.1313 20.8084 92.1611 20.8084 92.1611L4.38386 87.5094C3.44588 87.4251 2.62144 84.9058 3.99879 84.0776L6.59058 62.9813L6.58564 62.9863Z" fill="#6471D7"/>
<g opacity="0.3">
<path d="M7.88403 65.228C7.88403 65.228 14.7214 78.0475 17.0614 79.322C19.4064 80.5965 23.1781 79.7931 23.1781 79.7931V78.7418L7.88403 65.233V65.228Z" fill="black"/>
</g>
<path d="M12.7615 59.7184C13.6995 60.1598 22.4918 71.7345 22.4918 71.7345L34.9226 71.6254L35.7223 77.4673C35.7223 77.4673 22.6844 79.3518 19.6532 78.6873C16.6221 78.0227 7.72112 65.0396 7.1682 64.1519C6.31414 62.7683 7.02997 60.5516 8.38264 59.3911" fill="#6471D7"/>
<path d="M8.37767 59.4111C8.37767 59.4111 8.32337 59.4657 8.23944 59.55C8.15552 59.6343 8.01729 59.7731 7.85438 59.9666C7.55324 60.3534 7.13855 60.9931 6.9164 61.9056C6.80779 62.347 6.75348 62.9024 6.88678 63.4578C6.99539 64.0132 7.41007 64.5092 7.79514 65.0646C8.56527 66.1705 9.44894 67.4202 10.4412 68.774C11.4335 70.1329 12.564 71.5958 13.8031 73.148C14.4351 73.9217 15.0966 74.7003 15.7877 75.4739C16.5035 76.2475 17.249 77.0509 18.103 77.7452C18.5424 78.0775 18.9867 78.4395 19.51 78.6031L19.6186 78.6329L19.7272 78.6626L19.9494 78.6924C20.0876 78.7221 20.2258 78.7469 20.3641 78.7469C20.6405 78.7469 20.9417 78.7767 21.2181 78.7767C22.3733 78.7767 23.5631 78.7222 24.7726 78.6378C27.1965 78.4444 29.6797 78.1965 32.2419 77.8642C33.3971 77.7254 34.5572 77.5617 35.6877 77.3931L35.6334 77.4774C35.357 75.4838 35.0805 73.52 34.8337 71.6355L34.9176 71.69C30.3708 71.7198 26.1549 71.7446 22.4869 71.7743H22.4573L22.4276 71.7446C19.589 68.0054 17.2194 64.9357 15.5113 62.828C14.6572 61.7767 13.9957 60.9733 13.4971 60.4476C13.2502 60.1699 13.0577 59.9765 12.9442 59.8674C13.0824 59.9765 13.2749 60.1699 13.5218 60.4476C14.0154 60.9733 14.677 61.7767 15.5359 62.828C17.2441 64.9059 19.6433 67.9508 22.4819 71.7148L22.4276 71.6851C26.0907 71.6553 30.3116 71.6008 34.8583 71.576H34.9126V71.6305C35.1891 73.515 35.4359 75.4788 35.7124 77.4724V77.5567H35.6285C34.498 77.7204 33.3428 77.8593 32.1826 78.0279C29.6205 78.3601 27.1373 78.6081 24.7133 78.8015C23.4989 78.8858 22.3141 78.9403 21.1589 78.9403C20.8577 78.9403 20.5813 78.9106 20.2752 78.9106C20.137 78.9106 19.9988 78.8808 19.8358 78.856L19.6137 78.8263L19.5051 78.7965L19.3965 78.7668C18.8189 78.5734 18.3746 78.2411 17.9352 77.8791C17.0811 77.16 16.311 76.3566 15.6199 75.583C14.904 74.8094 14.2425 74.006 13.6353 73.2274C12.3962 71.6752 11.2657 70.2072 10.2734 68.8534C9.2811 67.4946 8.39742 66.2498 7.62729 65.1439C7.43475 64.8662 7.26691 64.5885 7.07437 64.3406C6.91146 64.0628 6.77323 63.7851 6.71399 63.5124C6.57576 62.9321 6.63007 62.4065 6.74361 61.9353C6.96576 60.9931 7.40513 60.3831 7.70628 59.9963C7.86919 59.8029 8.00742 59.664 8.09134 59.5797C8.33818 59.4706 8.3678 59.4161 8.3678 59.4161L8.37767 59.4111Z" fill="#263238"/>
<path d="M13.4773 56.3413C13.5612 56.4802 19.2928 60.3533 19.2928 60.3533L20.6701 59.0242L21.4156 59.6342" fill="#6471D7"/>
<path d="M21.4156 59.6094C21.4156 59.6094 21.3317 59.5549 21.1935 59.4706C21.0553 59.3615 20.8627 59.2226 20.6406 59.054H20.6949C20.3345 59.416 19.8704 59.8822 19.3175 60.4128L19.2879 60.4426L19.2336 60.4128C18.7103 60.0508 18.1031 59.664 17.4959 59.2524C16.3654 58.4787 15.3484 57.7845 14.6029 57.2588C13.8871 56.7331 13.4181 56.4008 13.4477 56.3711C14.055 56.7877 15.4866 57.7547 17.5551 59.1681C18.1623 59.5846 18.7695 59.9962 19.2928 60.3583H19.2089C19.7618 59.8326 20.2308 59.3912 20.6159 59.0292L20.6455 58.9995L20.6751 59.0292C20.8973 59.2226 21.0602 59.3615 21.1984 59.4706C21.3613 59.5549 21.4206 59.6094 21.4206 59.6094H21.4156Z" fill="#263238"/>
<path d="M22.9016 60.6855C22.9016 60.6855 22.9312 60.8244 22.9855 61.1269C23.0151 61.4046 23.0694 61.8212 23.1238 62.3171C23.2324 63.3139 23.3459 64.6975 23.4249 66.22C23.5088 67.7424 23.5335 69.1261 23.5335 70.1228V71.3131C23.5335 71.5908 23.5039 71.7544 23.5039 71.7544C23.5039 71.7544 23.4743 71.5858 23.4743 71.3131C23.4743 71.0105 23.4446 70.6188 23.4446 70.1228C23.415 69.1261 23.3607 67.7424 23.2817 66.22C23.1978 64.6975 23.0892 63.3139 23.0053 62.3171C22.9756 61.846 22.951 61.4294 22.9213 61.1269C22.8917 60.8244 22.8917 60.6855 22.8917 60.6855H22.9016Z" fill="#263238"/>
<path d="M5.01575 84.0531C8.87628 83.7754 12.7072 83.0861 16.4542 82.0298L5.01575 84.0531Z" fill="#6471D7"/>
<path d="M16.4542 82.0049C16.4542 82.0049 16.316 82.0594 16.0148 82.1437C15.7384 82.228 15.3237 82.3371 14.8004 82.476C13.7785 82.7537 12.3765 83.086 10.7769 83.3637C9.20706 83.6414 7.74579 83.8051 6.6992 83.9191C6.17591 83.9737 5.76122 84.0034 5.46008 84.0034C5.15894 84.0332 4.99109 84.0332 4.99109 84.0034C4.99109 84.0034 5.154 83.9737 5.43046 83.9489C5.7316 83.9191 6.17591 83.8646 6.66958 83.81C7.71617 83.7009 9.14782 83.5075 10.7226 83.2298C12.2925 82.9521 13.7291 82.6198 14.7461 82.4016C15.2398 82.2925 15.6544 82.1785 15.9605 82.0991C16.2913 82.0446 16.4542 82.0148 16.4542 82.0148V82.0049Z" fill="#263238"/>
<path d="M21.2231 108.442L13.3688 105.754C13.3688 105.754 7.99267 112.871 6.50671 112.509L11.1621 97.0312L23.5631 100.741L21.2182 108.437L21.2231 108.442Z" fill="#455A64"/>
<path d="M15.4619 101.162C15.4619 100.83 15.1855 100.528 14.8843 100.498C14.5536 100.468 14.2524 100.746 14.2228 101.078C14.1932 101.41 14.5239 101.772 14.8547 101.772C15.1855 101.743 15.5162 101.41 15.4619 101.108" fill="#E0E0E0"/>
<path d="M10.8313 96.9272L12.0457 97.2893L7.46938 112.127C7.46938 112.127 6.9757 112.737 6.50671 112.489L10.8313 96.9322V96.9272Z" fill="#E0E0E0"/>
<path d="M13.3687 106.007C13.2848 105.977 13.3687 105.591 13.2305 105.149C13.1218 104.708 12.8454 104.4 12.8997 104.346C12.9293 104.291 13.3391 104.539 13.5069 105.065C13.6698 105.62 13.423 106.062 13.3687 106.007Z" fill="#263238"/>
<path d="M12.2085 107.446C12.1246 107.446 12.0999 107.084 11.8482 106.727C11.626 106.365 11.2952 106.201 11.3249 106.117C11.3249 106.032 11.7938 106.117 12.0703 106.558C12.3714 106.999 12.2925 107.47 12.2085 107.446Z" fill="#263238"/>
<path d="M10.0069 107.778C10.0069 107.693 10.4215 107.723 10.777 108.026C11.1374 108.328 11.1917 108.745 11.1078 108.774C11.0238 108.804 10.8856 108.497 10.5845 108.249C10.308 107.971 9.97724 107.862 10.0069 107.778Z" fill="#263238"/>
<path d="M15.215 106.424C15.1607 106.37 15.3533 106.062 15.4619 105.621C15.5705 105.179 15.5162 104.817 15.6001 104.793C15.6544 104.763 15.8469 105.179 15.7087 105.68C15.6248 106.206 15.2693 106.484 15.215 106.429V106.424Z" fill="#263238"/>
<path d="M22.1561 87.4304C22.4572 87.3461 35.742 101.658 36.0481 104.044C36.3492 106.399 35.8555 108.472 34.2856 109.801C32.7158 111.13 14.83 106.756 14.83 106.756L16.5134 99.2233L10.0364 97.0363L15.8222 86.4038L22.161 87.4304H22.1561Z" fill="#263238"/>
<g opacity="0.3">
<path d="M25.3008 90.5843L25.7155 91.0555C25.7155 91.0555 18.108 99.0844 15.768 98.9753L12.021 97.7008L24.6689 89.895L25.3008 90.5893V90.5843Z" fill="black"/>
</g>
<path d="M16.5085 99.4163C16.5085 99.4461 19.2632 100.304 22.7091 101.326C26.1549 102.352 28.9393 103.126 28.9393 103.096C28.9393 103.066 26.1846 102.208 22.7387 101.187C19.3225 100.19 16.5085 99.3866 16.5085 99.4163Z" fill="#455A64"/>
<path d="M31.4717 102.05L29.1268 109.499C29.1268 109.499 35.8802 114.398 35.5741 115.812L21.0206 111.77L24.19 100.002L31.4668 102.05H31.4717Z" fill="#455A64"/>
<path d="M24.8022 107.614C24.501 107.614 24.2246 107.892 24.1949 108.169C24.1949 108.472 24.4418 108.75 24.7479 108.779C25.049 108.779 25.4094 108.477 25.3798 108.169C25.3501 107.867 25.0194 107.535 24.7479 107.614" fill="#E0E0E0"/>
<path d="M20.9467 112.072L21.2478 110.937L35.2188 114.894C35.2188 114.894 35.7964 115.365 35.5792 115.806L20.9467 112.067V112.072Z" fill="#E0E0E0"/>
<path d="M29.3785 109.494C29.3489 109.578 28.9935 109.494 28.5788 109.633C28.1641 109.742 27.8876 110.019 27.8333 109.965C27.779 109.935 27.9962 109.548 28.4949 109.385C29.0181 109.221 29.4032 109.414 29.3785 109.494Z" fill="#263238"/>
<path d="M30.7313 110.55C30.7313 110.634 30.4005 110.659 30.0698 110.882C29.739 111.105 29.6008 111.408 29.5169 111.383C29.4329 111.383 29.5169 110.942 29.9315 110.664C30.3166 110.386 30.756 110.471 30.7313 110.555V110.55Z" fill="#263238"/>
<path d="M31.0866 112.623C31.0323 112.623 31.0027 112.236 31.3088 111.904C31.5852 111.571 31.9703 111.487 31.9999 111.571C32.0295 111.656 31.7531 111.795 31.5062 112.067C31.2841 112.315 31.1755 112.623 31.0916 112.623H31.0866Z" fill="#263238"/>
<path d="M29.739 107.723C29.6847 107.778 29.3786 107.584 28.9935 107.5C28.5788 107.416 28.2481 107.445 28.2234 107.391C28.1938 107.336 28.5838 107.143 29.0478 107.252C29.5168 107.361 29.7933 107.669 29.739 107.723Z" fill="#263238"/>
<g opacity="0.3">
<path d="M21.4699 108.249L22.4622 104.346L21.7167 104.014L26.2092 91.7197L27.0632 92.4686L23.5335 103.736L22.2647 108.412L21.465 108.249H21.4699Z" fill="black"/>
</g>
<path d="M4.35422 87.4599C4.35422 87.4599 30.9237 78.1565 31.4174 77.9928C31.5557 77.9383 31.8025 77.8837 32.0789 77.8292C33.8414 77.4672 35.6877 77.8292 37.149 78.9103C38.3634 79.8228 39.3557 81.2907 39.0249 83.562C38.3091 88.6551 31.8025 106.072 31.8025 106.072L22.8176 103.359C22.7633 103.329 22.709 103.195 22.7337 103.25C22.8176 103.359 27.2804 88.8832 27.1718 89.0468C27.0632 89.2402 18.103 96.4658 14.4104 97.7948C10.6091 99.1536 6.83246 97.5171 5.01081 94.973C4.15675 93.7531 3.4113 90.3214 4.34928 87.4698L4.35422 87.4599Z" fill="#263238"/>
<path d="M4.35421 87.4601C4.35421 87.4601 4.32459 87.5444 4.27029 87.7378C4.21598 87.9312 4.13206 88.2089 4.04813 88.5958C3.90991 89.3446 3.8013 90.505 3.99383 91.973C4.10244 92.692 4.27029 93.4954 4.62573 94.3286C4.70966 94.522 4.81827 94.7451 4.95649 94.9385C5.09472 95.132 5.23295 95.3254 5.39586 95.494C5.72663 95.856 6.08701 96.2131 6.49676 96.5453C7.32119 97.2098 8.31348 97.7355 9.47361 98.038C10.0512 98.1769 10.6584 98.286 11.2656 98.3157C11.8976 98.3455 12.5344 98.286 13.1959 98.1769C13.3588 98.1471 13.5267 98.0926 13.6896 98.0678C13.8525 98.038 14.0203 97.9835 14.1586 97.9289C14.4893 97.8446 14.7905 97.681 15.1212 97.5669C15.4224 97.4281 15.7285 97.2644 16.0592 97.0958C16.3604 96.9321 16.6664 96.7338 16.9972 96.5701C18.2363 95.8213 19.4754 94.9931 20.7442 94.1054C22.0129 93.2177 23.2817 92.2507 24.6047 91.2539C25.2662 90.758 25.9278 90.2273 26.5893 89.7017C26.7522 89.5628 26.92 89.4239 27.083 89.2851C27.1373 89.2553 27.1669 89.2305 27.2212 89.176L27.2755 89.1214L27.3051 89.0917C27.2508 89.0917 27.4433 89.0917 27.1965 89.0619C27.1965 89.0074 27.1965 89.0619 27.1965 89.0322C27.1669 89.1413 27.1422 89.2256 27.1126 89.3347C27.004 89.7513 26.8657 90.1629 26.7275 90.5794C25.7056 93.9318 24.6343 97.4479 23.4742 101.073C23.336 101.514 23.1731 101.986 23.0348 102.432C22.9509 102.655 22.8719 102.903 22.788 103.126C22.788 103.156 22.7584 103.21 22.7584 103.181C22.9805 103.29 22.8423 103.042 22.7288 103.235V103.265C22.7288 103.295 22.7584 103.295 22.7584 103.32C22.788 103.349 22.788 103.404 22.867 103.404L22.9509 103.434L23.3113 103.543C24.2493 103.82 25.1576 104.098 26.1203 104.401C27.9963 104.981 29.9216 105.536 31.8518 106.146L31.9062 106.176L31.9358 106.121C32.2369 105.318 32.543 104.43 32.8738 103.572C34.3054 99.615 35.6581 95.7122 36.8972 91.9432C37.5044 90.0587 38.082 88.1792 38.5806 86.3245C38.7189 85.8533 38.8028 85.3822 38.9114 84.9409C39.02 84.4697 39.1039 83.9986 39.1878 83.5572C39.3261 82.615 39.2175 81.648 38.8275 80.8148C38.4424 79.9569 37.8056 79.2626 37.065 78.7667C36.3196 78.241 35.4952 77.9088 34.6411 77.7699C33.7871 77.6062 32.9034 77.631 32.0789 77.8244C31.8864 77.879 31.6643 77.9335 31.4717 77.9881C31.2792 78.0426 31.0867 78.1269 30.8941 78.1815C30.5091 78.3204 30.124 78.4592 29.7389 78.5981C26.6781 79.6792 23.8395 80.676 21.2527 81.5885C16.0691 83.4184 11.8531 84.9111 8.96019 85.9376C7.52854 86.4633 6.39802 86.8501 5.62295 87.1279C5.23789 87.2667 4.96143 87.3758 4.7689 87.4304C4.43814 87.4304 4.35421 87.4601 4.35421 87.4601C4.35421 87.4601 4.46282 87.4304 4.65535 87.351C4.84789 87.2965 5.14903 87.1874 5.53903 87.0485C6.30916 86.7708 7.43968 86.384 8.90095 85.8881C11.8235 84.8615 16.0099 83.4233 21.2181 81.5984C23.8099 80.6859 26.6485 79.6891 29.7044 78.6378C30.0894 78.4989 30.4745 78.36 30.8596 78.2212C31.0521 78.1666 31.2446 78.0823 31.4372 78.0278C31.6297 77.9732 31.8222 77.9187 32.0444 77.8889C32.8441 77.7253 33.6982 77.6955 34.5522 77.8344C35.3767 77.9732 36.2061 78.3055 36.9219 78.8014C37.6377 79.2973 38.2745 79.9618 38.63 80.795C38.9904 81.6232 39.099 82.5654 38.9608 83.4829C38.8768 83.954 38.7929 84.3953 38.7139 84.8665C38.6053 85.3376 38.4918 85.779 38.3832 86.2501C37.8845 88.1048 37.3069 89.9595 36.6997 91.844C35.4853 95.6378 34.1079 99.5109 32.6763 103.473C32.3455 104.361 32.0444 105.219 31.7383 106.022L31.8222 105.968C29.892 105.388 27.9617 104.802 26.0907 104.252C25.1527 103.974 24.2147 103.696 23.2817 103.394L22.9213 103.285L22.8374 103.255C22.8374 103.255 22.8374 103.225 22.8077 103.225C22.8077 103.225 22.8077 103.196 22.7781 103.196C22.7485 103.196 22.8077 103.166 22.7485 103.196C22.7485 103.196 22.5264 103.28 22.7781 103.25C22.8077 103.196 22.8077 103.166 22.8324 103.141C22.9164 102.918 22.9953 102.67 23.0793 102.447C23.2175 101.976 23.3804 101.534 23.5186 101.088C24.6738 97.4628 25.75 93.9467 26.7719 90.5943C26.9102 90.1777 27.0188 89.7661 27.1323 89.3496C27.1619 89.2405 27.1866 89.1562 27.2163 89.047V88.9925C26.9694 88.9627 27.1323 88.9925 27.078 88.9925L27.0484 89.0223L26.9941 89.0768C26.9645 89.1066 26.9102 89.1314 26.8855 89.1859C26.7226 89.3248 26.5547 89.4636 26.3918 89.6025C25.7303 90.1281 25.0688 90.6538 24.4369 91.1547C23.1434 92.1515 21.8451 93.1185 20.5763 94.0062C19.3076 94.8939 18.0685 95.7519 16.854 96.4709C16.5529 96.6346 16.2468 96.833 15.9457 96.9966C15.6445 97.1652 15.3385 97.3289 15.0077 97.4677C14.7066 97.6066 14.4005 97.7454 14.0697 97.8297C13.9068 97.8843 13.7686 97.9388 13.6007 97.9686C13.4378 97.9984 13.27 98.0529 13.1317 98.0777C12.4998 98.1868 11.863 98.2414 11.2311 98.2166C10.6239 98.1868 10.0167 98.1075 9.43905 97.9389C8.30854 97.6363 7.31626 97.1107 6.49182 96.4709C6.07713 96.1684 5.72169 95.8064 5.41561 95.4444C5.2527 95.251 5.11447 95.0824 4.97624 94.889C4.83801 94.6955 4.75409 94.5021 4.64548 94.3087C4.2851 93.5053 4.12219 92.702 4.01358 91.9829C3.79142 90.5447 3.90497 89.3793 4.0432 88.6354C4.12712 88.2486 4.18143 87.9709 4.23573 87.7775C4.31966 87.5841 4.34434 87.475 4.34434 87.475L4.35421 87.4601Z" fill="#455A64"/>
<path d="M31.3088 85.0498C31.3088 85.02 31.0077 85.1886 30.5634 85.4663C30.124 85.7441 29.5415 86.1854 28.9639 86.7409C28.3863 87.2963 27.9173 87.8765 27.6408 88.2931C27.5026 88.5162 27.394 88.6799 27.3101 88.8187C27.2261 88.9576 27.2015 89.0122 27.2261 89.0419C27.2558 89.0419 27.4187 88.794 27.7198 88.3774C28.021 87.9608 28.49 87.4103 29.0725 86.8549C29.6501 86.2995 30.203 85.8581 30.6424 85.5556C31.0571 85.2531 31.3039 85.0845 31.3039 85.0547L31.3088 85.0498Z" fill="#455A64"/>
<path d="M28.248 84.0532C28.2184 84.0532 28.1098 84.3012 27.9469 84.7475C27.784 85.1889 27.5865 85.7989 27.4236 86.4931C27.2607 87.1874 27.2014 87.8222 27.1768 88.2933C27.1471 88.7644 27.1471 89.0421 27.1768 89.0421C27.2064 89.0421 27.2311 88.7644 27.2854 88.2933C27.3397 87.8222 27.4236 87.2122 27.5865 86.5229C27.7494 85.8286 27.9173 85.2236 28.0555 84.7773C28.1641 84.3359 28.2777 84.0582 28.248 84.0582V84.0532Z" fill="#455A64"/>
<path d="M39.2718 70.4301L42.6633 63.5368C42.8855 63.0657 43.3792 62.7632 43.9025 62.7632H52.4479C52.7787 62.7632 52.9712 63.0954 52.8083 63.3732L47.0225 74.1147C46.8596 74.4172 46.5535 74.6106 46.198 74.6106H37.3218L39.2767 70.4301H39.2718Z" fill="#455A64"/>
<path d="M52.7787 63.4277H50.3251C48.7799 63.4277 46.6867 63.3979 44.401 63.3731C44.1246 63.3731 43.8481 63.4277 43.6013 63.5665C43.3791 63.7054 43.2162 63.9286 43.078 64.1468C42.8311 64.6179 42.609 65.1138 42.4164 65.5601C42.0018 66.4726 41.6167 67.276 41.2859 67.9703C40.9552 68.6348 40.7083 69.1902 40.5158 69.5771C40.4319 69.7407 40.3529 69.9093 40.2936 70.0184C40.2344 70.1275 40.2097 70.1573 40.2097 70.1573C40.2097 70.1573 40.2393 70.1027 40.264 69.9887C40.3183 69.8796 40.3726 69.711 40.4566 69.5473C40.6491 69.1307 40.8959 68.5803 41.202 67.9157C41.5031 67.2214 41.8931 66.3933 42.3029 65.5056C42.5251 65.0642 42.7176 64.5633 42.9644 64.0674C43.1026 63.8195 43.2656 63.5665 43.542 63.4326C43.8185 63.269 44.1196 63.2392 44.3961 63.2095C46.7114 63.2392 48.8046 63.264 50.3498 63.3186C51.0952 63.3483 51.7024 63.3483 52.1418 63.3731C52.3344 63.3731 52.5022 63.4029 52.6404 63.4029C52.7244 63.4326 52.7787 63.4326 52.7787 63.4326V63.4277Z" fill="#263238"/>
<path d="M47.5162 64.9503C47.7383 65.0594 47.7383 65.228 47.6544 65.3668C47.5705 65.5057 47.378 65.59 47.215 65.5305C47.1064 65.5007 46.9929 65.4214 46.9682 65.3073C46.9386 65.1982 47.0521 64.9453 47.215 64.9205C47.215 64.9205 47.4076 64.8908 47.5162 64.9503Z" fill="white"/>
<path d="M34.0635 73.0885L34.6411 72.4785C34.6411 72.4785 35.4952 71.2337 35.8556 70.8469C36.2159 70.4601 38.3338 69.0765 38.3338 69.0765C38.3338 69.0765 39.3557 67.6929 39.5186 67.6929C39.6815 67.6929 40.1802 67.7772 40.0419 68.4119C39.9037 69.0219 39.6815 69.8501 39.489 70.2667L44.0357 70.3758C44.3122 70.3758 44.5887 70.5146 44.7812 70.7378C44.8898 70.8767 44.9441 71.0403 44.7269 71.1544C44.2579 71.3775 42.3276 71.8487 42.3276 71.8487L43.1817 71.6255C43.1817 71.6255 43.3742 72.4537 42.8213 72.8455C42.2684 73.2323 42.2437 73.3166 42.2437 73.3166C42.2437 73.3166 42.2141 74.0902 41.9673 74.3977C41.7204 74.7002 39.1829 76.0292 39.1829 76.0292C39.1829 76.0292 37.5587 76.5004 36.7294 76.4706C35.9049 76.4408 35.0459 76.8872 34.967 76.912C34.8583 76.9417 34.0586 73.0934 34.0586 73.0934L34.0635 73.0885Z" fill="#FFBF9D"/>
<path d="M39.9333 70.3211C39.9333 70.3757 39.3557 70.3757 38.6645 70.46C37.9734 70.5443 37.3958 70.5691 37.3711 70.5145C37.3711 70.4848 37.924 70.3757 38.6398 70.2914C39.3557 70.2071 39.9333 70.2616 39.9333 70.3211Z" fill="#FF9A6C"/>
<path d="M39.3311 72.3146C39.3014 72.2601 40.1555 72.0369 41.1774 71.9278C41.7007 71.8732 42.1697 71.8187 42.5005 71.7889C42.8312 71.7592 43.0534 71.7344 43.0534 71.7344C43.0534 71.7641 42.8608 71.8187 42.5301 71.898C42.1993 71.9526 41.7303 72.0369 41.207 72.0914C40.1604 72.2005 39.3311 72.3394 39.3311 72.3146Z" fill="#FF9A6C"/>
<path d="M39.331 73.8072C39.331 73.7527 39.9925 73.7527 40.7923 73.6138C41.592 73.475 42.2239 73.2816 42.2239 73.3361C42.2535 73.3659 41.6167 73.6386 40.817 73.7775C39.9925 73.8866 39.3014 73.832 39.331 73.8072Z" fill="#FF9A6C"/>
<path d="M39.6017 75.444C39.5477 75.444 39.4937 75.2804 39.4642 75.0572C39.4348 74.834 39.4348 74.6406 39.4642 74.6406C39.5182 74.6406 39.5722 74.8043 39.6017 75.0274C39.6312 75.2506 39.6312 75.444 39.6017 75.444Z" fill="#FF9A6C"/>
<path d="M39.1928 73.4751C39.1385 73.4751 39.1089 73.3362 39.0546 73.1725C38.9706 73.0039 38.8916 72.8948 38.9163 72.87C38.946 72.8403 39.1089 72.8998 39.2175 73.0932C39.2718 73.2866 39.2175 73.48 39.1879 73.48L39.1928 73.4751Z" fill="#FF9A6C"/>
<path d="M38.6696 71.4817C38.6153 71.4817 38.5856 71.3974 38.5313 71.2883C38.477 71.1792 38.4227 71.0949 38.4474 71.0651C38.477 71.0354 38.5856 71.0949 38.6696 71.2288C38.7239 71.3379 38.7239 71.4767 38.6696 71.4767V71.4817Z" fill="#FF9A6C"/>
<path d="M40.185 58.9151C40.185 58.9151 40.2936 57.6158 40.9552 56.7826C42.7176 54.6254 42.1104 52.6863 42.1104 52.6863C42.7176 52.0218 43.7346 52.8252 43.9271 54.3477C44.3418 57.5612 43.7889 61.1566 43.7642 61.2955C43.7099 61.4641 41.9178 62.2377 41.9178 62.2377L39.4939 59.3862L40.185 58.9151Z" fill="#FFBF9D"/>
<path d="M86.0425 61.8508H45.1959C43.8728 61.8508 42.7966 60.7697 42.7966 59.4704V41.8902C42.7966 40.5611 43.8728 39.5098 45.1959 39.5098H86.0672C87.3902 39.5098 88.4368 40.5909 88.4368 41.8902V59.4704C88.4368 60.7697 87.3606 61.8508 86.0375 61.8508H86.0425Z" fill="white"/>
<path d="M86.0424 61.851C86.0424 61.851 86.151 61.851 86.3732 61.8213C86.5953 61.7915 86.9261 61.7122 87.2815 61.4592C87.6419 61.2361 88.0517 60.8245 88.2442 60.2145C88.3528 59.912 88.3824 59.5797 88.3824 59.1879V57.9977C88.3824 54.6503 88.3824 49.8002 88.3528 43.8244V42.1085C88.3528 41.9151 88.3528 41.7217 88.3232 41.5283C88.2146 40.7795 87.716 40.0604 86.9705 39.7281C86.6101 39.5595 86.2004 39.505 85.7857 39.505H45.107C44.5541 39.505 44.0061 39.6984 43.5914 40.0604C43.1767 40.4224 42.9003 40.9183 42.8213 41.4738C42.7917 41.7515 42.7917 42.0292 42.7917 42.302V59.2474C42.762 59.7434 42.9003 60.2442 43.1767 60.6608C43.4532 61.0774 43.8382 61.3799 44.3072 61.5485C44.7466 61.7419 45.2699 61.6874 45.7389 61.6874C53.6229 61.6874 60.7021 61.6874 66.6559 61.7171C72.6096 61.7171 77.4328 61.7469 80.7651 61.7469H85.5882C85.919 61.856 86.0276 61.856 86.0276 61.856H80.8737C77.5414 61.856 72.7182 61.856 66.7645 61.8857C60.8108 61.8857 53.7018 61.8857 45.8475 61.9155H45.102C44.8552 61.9155 44.6034 61.8609 44.3566 61.7766C43.8629 61.613 43.4482 61.2509 43.1718 60.8344C42.8953 60.393 42.7324 59.8673 42.7571 59.3417V42.3962C42.7571 42.1185 42.7571 41.8407 42.7867 41.5382C42.8706 40.958 43.1718 40.4323 43.6111 40.0455C44.0505 39.6587 44.6331 39.4355 45.2107 39.4355H85.8894C86.3041 39.4355 86.7434 39.4653 87.1038 39.6587C87.874 39.991 88.3972 40.7398 88.5108 41.5432C88.5404 41.7366 88.5404 41.93 88.5404 42.1234V43.8393C88.5404 49.8201 88.5108 54.6652 88.5108 58.0126V59.2028C88.5108 59.5648 88.4812 59.9219 88.3726 60.2294C88.1504 60.8393 87.7407 61.2559 87.3803 61.4741C86.9952 61.6973 86.6645 61.7766 86.4423 61.8064C86.3337 61.8361 86.2498 61.8361 86.1955 61.8361C86.0572 61.8659 86.0326 61.8659 86.0326 61.8659L86.0424 61.851Z" fill="#263238"/>
<path d="M53.8796 49.9439V52.8797L60.796 55.8701L60.8503 53.0483L56.9898 51.3325L60.8503 49.6711V46.9287L53.8796 49.9488V49.9439Z" fill="#EBEBEB"/>
<path d="M77.3637 53.1029V50.1422L70.393 47.1519L70.3387 49.9736L74.224 51.7193L70.3387 53.3806V56.123L77.3687 53.1029H77.3637Z" fill="#EBEBEB"/>
<path d="M66.0339 44.4888C66.0339 44.5731 61.9808 58.3298 62.0944 58.305C62.203 58.2753 65.1255 58.305 65.1255 58.305L69.1194 44.4888H66.0339Z" fill="#EBEBEB"/>
<path d="M47.5705 42.4408C47.5705 42.9367 47.1311 43.3533 46.6078 43.3533C46.0845 43.3533 45.6451 42.9367 45.6451 42.4408C45.6451 41.9449 46.0845 41.5283 46.6078 41.5283C47.1311 41.5581 47.5705 41.9449 47.5705 42.4408Z" fill="#E0E0E0"/>
<path d="M50.1869 42.4408C50.1869 42.9367 49.7476 43.3533 49.2243 43.3533C48.701 43.3533 48.2616 42.9367 48.2616 42.4408C48.2616 41.9449 48.701 41.5283 49.2243 41.5283C49.7772 41.5581 50.1869 41.9449 50.1869 42.4408Z" fill="#E0E0E0"/>
<path d="M52.833 42.4408C52.833 42.9367 52.3937 43.3533 51.8704 43.3533C51.3471 43.3533 50.9077 42.9367 50.9077 42.4408C50.9077 41.9449 51.3471 41.5283 51.8704 41.5283C52.4233 41.5581 52.833 41.9449 52.833 42.4408Z" fill="#E0E0E0"/>
<path d="M17.1601 19.3755V17.9125H21.85V15.2098H17.1601V13.9055H22.4967V11.0738H13.4872V22.2121H22.7041V19.3804H17.1601V19.3755ZM30.7756 22.2071H34.7645L32.4344 18.7704C33.7624 18.0861 34.5226 16.876 34.5226 15.2693C34.5226 12.6905 32.5578 11.0688 29.4723 11.0688H24.1357V22.2071H27.8728V19.4052H28.8849L30.7707 22.2071H30.7756ZM30.7608 15.2693C30.7608 16.0826 30.2721 16.5735 29.2403 16.5735H27.8778V13.965H29.2403C30.2721 13.965 30.7608 14.456 30.7608 15.2693ZM41.2761 11.0688H35.9395V22.2071H39.6766V19.4697H41.2761C44.3665 19.4697 46.3264 17.848 46.3264 15.2693C46.3264 12.6905 44.3616 11.0688 41.2761 11.0688ZM41.0391 16.5735H39.6766V13.965H41.0391C42.0709 13.965 42.5596 14.456 42.5596 15.2693C42.5596 16.0826 42.0709 16.5735 41.0391 16.5735Z" fill="#455A64"/>
</g>
</svg>
