<svg width="100" height="100" viewBox="0 0 100 100" fill="none" xmlns="http://www.w3.org/2000/svg">
<g clip-path="url(#clip0_1040_24874)">
<path d="M97.3354 33.8572C90.6215 14.1643 71.9654 0 50 0C22.3857 0 0 22.3859 0 50C0 72.4428 14.7863 91.4316 35.1484 97.7572L97.3354 33.8572Z" fill="#2896FF"/>
<path d="M100 50.0001C100 44.3513 99.0621 38.9216 97.3354 33.8573L78.2608 14.7827L21.7391 84.348L35.1485 97.7573C39.8404 99.2148 44.8285 100 50 100C77.6143 100 100 77.6142 100 50.0001Z" fill="#1E73BE"/>
<path d="M50 8.26074H54.3479C57.9348 8.26074 60.8695 11.1955 60.8695 14.7824L46.7391 19.1303L50 8.26074Z" fill="#383838"/>
<path d="M50 8.26074H45.6522C42.0653 8.26074 39.1305 11.1955 39.1305 14.7824L50 19.1303V8.26074Z" fill="#595959"/>
<path d="M65.2174 14.7827L41.3043 50.0001L50 84.348H78.261V14.7827H65.2174Z" fill="#F15D4A"/>
<path d="M34.7826 14.7827L50 54.1306V84.348H21.7391V14.7827H34.7826Z" fill="#FF7452"/>
<path d="M50 19.1304L40.131 49.9999L50 79.9999H73.9131V19.1304H50Z" fill="#F2F2F2"/>
<path d="M50 19.1304H26.0869V79.9999H50V19.1304Z" fill="white"/>
<path d="M50 14.7827L45.6522 19.1306L50 23.4784H65.2174V14.7827H50Z" fill="#595959"/>
<path d="M50 14.7827H34.7826V23.4784H50V14.7827Z" fill="#7F7F7F"/>
<path d="M50 71.3042L44.5217 73.4782L50 75.652H60.8695V71.3042H50Z" fill="#6FAEE8"/>
<path d="M50 71.3042H30.4348V75.652H50V71.3042Z" fill="#9ACEF3"/>
<path d="M50 27.8262L54.8912 52.2826L30.4348 47.3914C30.4348 36.5865 39.1953 27.8262 50 27.8262Z" fill="#9ACEF3"/>
<path d="M50 47.3911L54.8912 57.6628L50 66.9563C39.1953 66.9563 30.4348 58.196 30.4348 47.3911H50Z" fill="#FBE287"/>
<path d="M50 47.3911L62.4729 52.527L63.835 61.2263C60.2963 64.7651 55.4049 66.9565 50 66.9565V47.3911Z" fill="#FFD652"/>
<path d="M50 47.3912L61.1275 42.5L69.5652 47.3912C69.5652 52.7936 67.3764 57.685 63.835 61.2262L50 47.3912Z" fill="#FF7452"/>
<path d="M69.5652 47.3911H50L52.9959 34.6126L63.835 33.5562C67.3764 37.0976 69.5652 41.9888 69.5652 47.3911Z" fill="#85DC79"/>
<path d="M50 27.8262C55.4051 27.8262 60.2963 30.0174 63.835 33.5564L50 47.3912V27.8262Z" fill="#6FAEE8"/>
<path d="M69.5653 71.3042H65.2174V75.652H69.5653V71.3042Z" fill="#6FAEE8"/>
<g clip-path="url(#clip1_1040_24874)">
<path d="M49.5 100C77.3904 100 100 77.3904 100 49.5C100 21.6096 77.3904 -1 49.5 -1C21.6096 -1 -1 21.6096 -1 49.5C-1 77.3904 21.6096 100 49.5 100Z" fill="#2896FF"/>
<path d="M71.9444 21.4443L27.0555 88.7777L36.6169 98.339C40.73 99.4211 45.0471 99.9999 49.5 99.9999C77.3818 99.9999 99.9857 77.4041 99.9996 49.5257L71.9444 21.4443Z" fill="#1E73BE"/>
<path d="M71.9444 21.4443H27.0555V88.7777H71.9444V21.4443Z" fill="white"/>
<path d="M71.9444 21.4443H49.6136V88.7777H71.9444V21.4443Z" fill="#EDECEB"/>
<path d="M41.8485 34.8771H57.1515C59.1236 34.8771 60.7222 33.2784 60.7222 31.3064V16.0033C60.7222 14.0313 59.1236 12.4326 57.1515 12.4326H41.8485C39.8764 12.4326 38.2778 14.0313 38.2778 16.0033V31.3064C38.2778 33.2784 39.8764 34.8771 41.8485 34.8771Z" fill="#DFDAD7"/>
<path d="M57.1515 12.4326H49.6132V34.8771H57.1515C59.1235 34.8771 60.7222 33.2784 60.7222 31.3064V16.0033C60.7222 14.0313 59.1235 12.4326 57.1515 12.4326Z" fill="#C4C0BF"/>
<path d="M55.1111 71.9443H43.8889V88.7777H55.1111V71.9443Z" fill="#DFDAD7"/>
<path d="M55.1111 71.9443H49.6136V88.7777H55.1111V71.9443Z" fill="#C4C0BF"/>
<path d="M43.8889 38.2778H32.6667V49.5001H43.8889V38.2778Z" fill="#DFDAD7"/>
<path d="M66.3333 38.2778H55.1111V49.5001H66.3333V38.2778Z" fill="#C4C0BF"/>
<path d="M43.8889 55.1113H32.6667V66.3336H43.8889V55.1113Z" fill="#DFDAD7"/>
<path d="M66.3333 55.1113H55.1111V66.3336H66.3333V55.1113Z" fill="#C4C0BF"/>
<path d="M56.3014 21.3876H51.7672V16.8535H47.2328V21.3876H42.6987V25.9221H47.2328V30.4562H51.7672V25.9221H56.3014V21.3876Z" fill="#F86E51"/>
<path d="M51.7672 21.3876V16.8535H49.6136V30.4562H51.7672V25.9221H56.3014V21.3876H51.7672Z" fill="#E55A42"/>
</g>
</g>
<defs>
<clipPath id="clip0_1040_24874">
<rect width="100" height="100" fill="white"/>
</clipPath>
<clipPath id="clip1_1040_24874">
<rect width="101" height="101" fill="white" transform="translate(-1 -1)"/>
</clipPath>
</defs>
</svg>
