<svg width="100" height="100" viewBox="0 0 100 100" fill="none" xmlns="http://www.w3.org/2000/svg">
<g clip-path="url(#clip0_1040_24844)">
<path d="M97.3354 33.8572C90.6215 14.1643 71.9654 0 50 0C22.3857 0 0 22.3859 0 50C0 72.4428 14.7863 91.4316 35.1484 97.7572L97.3354 33.8572Z" fill="#2896FF"/>
<path d="M99.9999 50.0001C99.9999 44.3513 99.0621 38.9216 97.3353 33.8573L78.2607 14.7827L21.739 84.348L35.1484 97.7573C39.8404 99.2148 44.8285 100 50 100C77.6142 100 99.9999 77.6142 99.9999 50.0001Z" fill="#1E73BE"/>
<path d="M50 8.26074H54.3478C57.9347 8.26074 60.8695 11.1955 60.8695 14.7824L46.739 19.1303L50 8.26074Z" fill="#383838"/>
<path d="M50 8.26074H45.6522C42.0653 8.26074 39.1305 11.1955 39.1305 14.7824L50 19.1303V8.26074Z" fill="#595959"/>
<path d="M65.2174 14.7827L41.3043 50.0001L50 84.348H78.261V14.7827H65.2174Z" fill="#F15D4A"/>
<path d="M34.7826 14.7827L50 54.1306V84.348H21.739V14.7827H34.7826Z" fill="#FF7452"/>
<path d="M50.0001 19.1304L40.1311 49.9999L50.0001 79.9999H73.9131V19.1304H50.0001Z" fill="#F2F2F2"/>
<path d="M50 19.1304H26.0869V79.9999H50V19.1304Z" fill="white"/>
<path d="M50 14.7827L45.6521 19.1306L50 23.4784H65.2173V14.7827H50Z" fill="#595959"/>
<path d="M50 14.7827H34.7826V23.4784H50V14.7827Z" fill="#7F7F7F"/>
<path d="M50 71.3042L44.5217 73.4782L50 75.652H60.8696V71.3042H50Z" fill="#6FAEE8"/>
<path d="M50 71.3042H30.4348V75.652H50V71.3042Z" fill="#9ACEF3"/>
<path d="M50 27.8262L54.8913 52.2826L30.4348 47.3914C30.4348 36.5865 39.1954 27.8262 50 27.8262Z" fill="#9ACEF3"/>
<path d="M50 47.3911L54.8913 57.6628L50 66.9563C39.1954 66.9563 30.4348 58.196 30.4348 47.3911H50Z" fill="#FBE287"/>
<path d="M50 47.3911L62.4729 52.527L63.835 61.2263C60.2963 64.7651 55.4049 66.9565 50 66.9565V47.3911Z" fill="#FFD652"/>
<path d="M50 47.3912L61.1275 42.5L69.5652 47.3912C69.5652 52.7936 67.3764 57.685 63.835 61.2262L50 47.3912Z" fill="#FF7452"/>
<path d="M69.5652 47.3911H50L52.9959 34.6126L63.835 33.5562C67.3764 37.0976 69.5652 41.9888 69.5652 47.3911Z" fill="#85DC79"/>
<path d="M50 27.8262C55.4051 27.8262 60.2963 30.0174 63.835 33.5564L50 47.3912V27.8262Z" fill="#6FAEE8"/>
<path d="M69.5653 71.3042H65.2174V75.652H69.5653V71.3042Z" fill="#6FAEE8"/>
</g>
<defs>
<clipPath id="clip0_1040_24844">
<rect width="100" height="100" fill="white"/>
</clipPath>
</defs>
</svg>
