<svg width="166" height="168" viewBox="0 0 166 168" fill="none" xmlns="http://www.w3.org/2000/svg">
<g clip-path="url(#clip0_848_26694)">
<mask id="mask0_848_26694" style="mask-type:luminance" maskUnits="userSpaceOnUse" x="0" y="0" width="166" height="168">
<path d="M165.957 0H0V167.63H165.957V0Z" fill="white"/>
</mask>
<g mask="url(#mask0_848_26694)">
<path opacity="0.5" d="M87.5339 151.622L28.1933 117.282C26.5146 116.31 26.7252 114.613 28.6635 113.492L69.0699 90.1155C71.0084 88.9937 73.9407 88.8719 75.6194 89.8434L134.96 124.185C136.639 125.156 136.428 126.853 134.49 127.975L94.0834 151.35C92.145 152.472 89.2127 152.594 87.5339 151.622Z" fill="#C4D9E8"/>
<path d="M148.859 63.3503L89.5179 29.0094C88.8288 28.6106 88.1284 28.5491 87.5072 28.7623L87.5109 28.7561L87.4028 28.7969C87.3942 28.8004 87.3856 28.8033 87.3765 28.8068L85.2325 29.6294L87.157 30.574C87.1484 30.6095 87.1372 30.6427 87.1291 30.6789L77.4636 74.7797C76.9801 76.9868 77.9488 79.5631 79.6275 80.5346L137.541 114.05L137.334 116.51L139.678 115.599C140.465 115.23 141.096 114.395 141.357 113.206L151.022 69.1053C151.506 66.8982 150.537 64.3218 148.859 63.3503Z" fill="#455A64"/>
<path d="M148.859 63.3503L89.5179 29.0094C88.8288 28.6106 88.1284 28.5491 87.5072 28.7623L87.5109 28.7561L87.4028 28.7969C87.3942 28.8004 87.3856 28.8033 87.3765 28.8068L85.2325 29.6294L87.157 30.574C87.1484 30.6095 87.1372 30.6427 87.1291 30.6789L80.759 59.744L109.793 82.4181L150.733 65.7206C150.339 64.6986 149.686 63.8291 148.859 63.3503Z" fill="#455A64"/>
<path d="M146.621 70.1293L151.138 68.2013C151.221 66.4478 150.497 64.6363 149.308 63.6675L142.158 66.6824L146.621 70.1293Z" fill="#274F89"/>
<path d="M135.273 116.276L75.9321 81.9354C74.2534 80.9639 73.2847 78.387 73.7682 76.1804L83.4337 32.0795C83.9178 29.8724 85.6704 28.8708 87.3492 29.8423L146.69 64.1832C148.369 65.1547 149.337 67.7311 148.854 69.9381L139.188 114.039C138.704 116.246 136.952 117.248 135.273 116.276Z" fill="#E0E0E0"/>
<path d="M133.987 112.996L78.1774 80.7146C76.6416 79.8257 75.7549 77.4678 76.1977 75.4481L85.0423 35.0923C85.4852 33.0727 87.0895 32.1562 88.6252 33.0451L144.434 65.3262C145.97 66.215 146.857 68.573 146.414 70.5927L137.57 110.949C137.127 112.968 135.522 113.885 133.987 112.996Z" fill="white"/>
<path d="M133.987 112.996L78.1774 80.7146C76.6416 79.8257 75.7549 77.4678 76.1977 75.4481L85.0423 35.0923C85.4852 33.0727 87.0895 32.1562 88.6252 33.0451L144.434 65.3262C145.97 66.215 146.857 68.573 146.414 70.5927L137.57 110.949C137.127 112.968 135.522 113.885 133.987 112.996Z" fill="white"/>
<path d="M136.092 117.772L127.981 116.698L75.6195 86.3966C73.9407 85.4251 71.0084 85.5469 69.0705 86.6687L31.9673 108.132L27.0625 107.483V110.272L27.0673 110.274C27.0352 110.918 27.4014 111.538 28.1934 111.996L87.534 146.337C89.2127 147.309 92.145 147.187 94.0835 146.065L134.49 122.689C135.58 122.058 136.124 121.245 136.092 120.482V117.772Z" fill="#455A64"/>
<path d="M96.7497 98.6245L93.0297 96.4717H52.1303L31.9673 108.132L27.0625 107.483V110.272L27.0673 110.273C27.0352 110.918 27.4014 111.538 28.1934 111.996L87.534 146.337C88.4213 146.85 89.6588 147.055 90.914 146.972L96.7497 98.6245Z" fill="#455A64"/>
<path d="M29.2391 107.771L27.0625 107.483V110.273L27.0673 110.273C27.0352 110.918 27.4014 111.538 28.1934 111.996L29.2391 112.602V107.771Z" fill="#41555F"/>
<path d="M88.1316 146.615C89.7225 147.22 91.9978 147.088 93.6963 146.269V140.047H88.1316V146.615Z" fill="#274F89"/>
<path d="M87.5339 143.551L28.1933 109.21C26.5146 108.239 26.7252 106.542 28.6635 105.42L69.0699 82.0442C71.0084 80.9224 73.9407 80.8006 75.6194 81.7721L134.96 116.113C136.639 117.084 136.428 118.781 134.49 119.903L94.0834 143.279C92.145 144.401 89.2127 144.522 87.5339 143.551Z" fill="#E0E0E0"/>
<path d="M134.49 118.885L94.0834 142.26C92.145 143.382 89.2127 143.504 87.5339 142.532L28.1933 108.192C27.643 107.873 27.2996 107.476 27.1497 107.047C26.8872 107.843 27.222 108.648 28.1933 109.21L87.5339 143.551C89.2127 144.523 92.145 144.401 94.0834 143.279L134.49 119.903C135.793 119.149 136.311 118.136 136.004 117.257C135.813 117.837 135.307 118.412 134.49 118.885Z" fill="white"/>
<path d="M53.4317 97.8414L50.7467 96.2875C50.5311 96.1624 50.5582 95.9445 50.8071 95.8007L53.9762 93.9666C54.2252 93.8228 54.6016 93.8072 54.8174 93.9317L57.5024 95.4856C57.7176 95.6101 57.6908 95.828 57.4418 95.9724L54.2728 97.8065C54.0238 97.9503 53.6474 97.9659 53.4317 97.8414Z" fill="#455A64"/>
<path d="M57.5779 100.241L54.8929 98.6873C54.6777 98.5622 54.7044 98.3443 54.9534 98.2005L58.1224 96.3664C58.3714 96.2221 58.7479 96.2065 58.9637 96.3316L61.6486 97.8854C61.8644 98.0099 61.8371 98.2279 61.5881 98.3717L58.4191 100.206C58.1701 100.35 57.7937 100.366 57.5779 100.241Z" fill="#455A64"/>
<path d="M61.7246 102.641L59.0392 101.087C58.8239 100.962 58.8507 100.744 59.0997 100.6L62.2692 98.7659C62.5177 98.6221 62.8947 98.6065 63.1099 98.7311L65.7948 100.285C66.0106 100.409 65.9833 100.627 65.7343 100.772L62.5653 102.606C62.3163 102.75 61.9399 102.765 61.7246 102.641Z" fill="#455A64"/>
<path d="M67.4592 100.659L64.7743 99.1051C64.5585 98.9806 64.5858 98.7627 64.8343 98.6183L67.4951 97.0789C67.7436 96.9351 68.1205 96.9195 68.3358 97.044L71.0207 98.5979C71.2365 98.7224 71.2092 98.9404 70.9602 99.0847L68.2999 100.624C68.0509 100.768 67.6745 100.784 67.4592 100.659Z" fill="#455A64"/>
<path d="M71.6054 103.059L68.9205 101.505C68.7047 101.38 68.732 101.162 68.981 101.018L71.6413 99.4787C71.8903 99.3344 72.2667 99.3188 72.482 99.4439L75.1669 100.997C75.3827 101.122 75.3554 101.34 75.1069 101.484L72.4467 103.024C72.1977 103.168 71.8207 103.183 71.6054 103.059Z" fill="#455A64"/>
<path d="M75.7517 105.458L73.0667 103.904C72.8509 103.78 72.8783 103.562 73.1273 103.417L75.7875 101.878C76.0365 101.734 76.413 101.718 76.6282 101.843L79.3137 103.397C79.529 103.521 79.5022 103.739 79.2532 103.883L76.5929 105.423C76.3439 105.567 75.9675 105.583 75.7517 105.458Z" fill="#455A64"/>
<path d="M79.8979 107.858L77.213 106.304C76.9977 106.179 77.0245 105.961 77.2735 105.817L79.9338 104.278C80.1828 104.133 80.5592 104.118 80.775 104.243L83.46 105.796C83.6752 105.921 83.6485 106.139 83.3995 106.283L80.7392 107.822C80.4902 107.967 80.1137 107.982 79.8979 107.858Z" fill="#455A64"/>
<path d="M84.0442 110.257L81.3592 108.703C81.144 108.579 81.1708 108.361 81.4198 108.216L84.08 106.677C84.329 106.533 84.7055 106.517 84.9213 106.642L87.6062 108.196C87.8215 108.32 87.7947 108.538 87.5457 108.682L84.8854 110.222C84.6364 110.366 84.26 110.382 84.0442 110.257Z" fill="#455A64"/>
<path d="M88.191 112.657L85.5061 111.103C85.2903 110.978 85.317 110.76 85.566 110.616L88.2263 109.076C88.4753 108.932 88.8518 108.917 89.0676 109.041L91.7525 110.595C91.9683 110.72 91.941 110.938 91.692 111.082L89.0317 112.621C88.7827 112.766 88.4062 112.781 88.191 112.657Z" fill="#455A64"/>
<path d="M92.3373 115.056L89.6524 113.502C89.4366 113.378 89.4639 113.16 89.7123 113.016L92.3732 111.476C92.6216 111.332 92.9986 111.316 93.2139 111.441L95.8988 112.995C96.1146 113.119 96.0873 113.337 95.8383 113.482L93.178 115.021C92.929 115.165 92.5525 115.181 92.3373 115.056Z" fill="#455A64"/>
<path d="M96.4835 117.455L93.7986 115.902C93.5828 115.777 93.6101 115.559 93.8591 115.415L96.5193 113.875C96.7683 113.731 97.1448 113.715 97.3601 113.84L100.045 115.394C100.261 115.519 100.233 115.737 99.985 115.881L97.3242 117.42C97.0757 117.564 96.6987 117.58 96.4835 117.455Z" fill="#455A64"/>
<path d="M100.63 119.855L97.9448 118.301C97.729 118.176 97.7563 117.958 98.0053 117.815L100.666 116.275C100.915 116.131 101.291 116.115 101.506 116.24L104.192 117.794C104.407 117.918 104.38 118.136 104.131 118.281L101.471 119.82C101.222 119.964 100.846 119.98 100.63 119.855Z" fill="#455A64"/>
<path d="M104.776 122.254L102.091 120.701C101.876 120.576 101.903 120.358 102.152 120.214L104.812 118.674C105.061 118.53 105.437 118.515 105.653 118.639L108.338 120.193C108.553 120.318 108.527 120.536 108.278 120.68L105.617 122.219C105.368 122.364 104.992 122.379 104.776 122.254Z" fill="#455A64"/>
<path d="M73.5685 99.5228L70.8836 97.9689C70.6678 97.8444 70.6951 97.6265 70.9441 97.4826L73.6044 95.9427C73.8529 95.7989 74.2299 95.7833 74.4451 95.9078L77.1301 97.4617C77.3459 97.5867 77.3185 97.8047 77.0695 97.9485L74.4093 99.4879C74.1608 99.6323 73.7838 99.6478 73.5685 99.5228Z" fill="#455A64"/>
<path d="M69.3602 97.0872L66.6753 95.5334C66.4595 95.4088 66.4868 95.1909 66.7358 95.0471L69.3961 93.5072C69.6451 93.3633 70.0215 93.3477 70.2368 93.4723L72.9217 95.0261C73.1375 95.1507 73.1107 95.3686 72.8617 95.513L70.2014 97.0523C69.9524 97.1962 69.576 97.2123 69.3602 97.0872Z" fill="#455A64"/>
<path d="M65.1449 94.648L59.3622 91.302C59.1469 91.1769 59.1737 90.959 59.4227 90.8151L62.083 89.2752C62.332 89.1314 62.7084 89.1158 62.9242 89.2403L68.7069 92.5869C68.9222 92.712 68.8954 92.9299 68.6464 93.0737L65.9861 94.6131C65.7371 94.7575 65.3607 94.7731 65.1449 94.648Z" fill="#455A64"/>
<path d="M68.0916 91.6818L63.3986 88.9659C63.1828 88.8414 63.2102 88.6234 63.4592 88.4791L66.1194 86.9397C66.3684 86.7953 66.7449 86.7797 66.9607 86.9048L71.6531 89.6202C71.8689 89.7452 71.8416 89.9631 71.5926 90.107L68.9323 91.6469C68.6833 91.7907 68.3069 91.8063 68.0916 91.6818Z" fill="#455A64"/>
<path d="M77.7148 101.922L75.0299 100.368C74.8141 100.244 74.8414 100.026 75.0904 99.8815L77.7507 98.3421C77.9997 98.1983 78.3761 98.1827 78.5914 98.3072L81.2763 99.8611C81.4921 99.9856 81.4653 100.204 81.2163 100.348L78.556 101.887C78.307 102.031 77.9306 102.047 77.7148 101.922Z" fill="#455A64"/>
<path d="M81.861 104.322L79.1761 102.768C78.9603 102.643 78.9876 102.426 79.2366 102.281L81.8969 100.742C82.1459 100.598 82.5224 100.582 82.7382 100.707L85.4231 102.261C85.6383 102.385 85.6116 102.603 85.3626 102.747L82.7023 104.287C82.4533 104.431 82.0768 104.447 81.861 104.322Z" fill="#455A64"/>
<path d="M86.0073 106.721L83.3224 105.167C83.1071 105.043 83.1339 104.825 83.3829 104.681L86.0432 103.141C86.2922 102.997 86.6686 102.981 86.8844 103.106L89.5693 104.66C89.7846 104.785 89.7578 105.003 89.5088 105.146L86.8485 106.686C86.5995 106.83 86.2231 106.846 86.0073 106.721Z" fill="#455A64"/>
<path d="M90.1535 109.121L87.4686 107.567C87.2534 107.442 87.2801 107.224 87.5291 107.081L90.1894 105.541C90.4384 105.397 90.8149 105.381 91.0307 105.506L93.7156 107.06C93.9308 107.185 93.9041 107.403 93.6551 107.547L90.9948 109.086C90.7458 109.23 90.3693 109.246 90.1535 109.121Z" fill="#455A64"/>
<path d="M94.3003 111.52L91.6154 109.966C91.3996 109.842 91.4264 109.624 91.6754 109.48L94.3357 107.94C94.5847 107.796 94.9611 107.78 95.1769 107.905L97.8618 109.459C98.0776 109.584 98.0503 109.802 97.8013 109.945L95.1411 111.485C94.8921 111.629 94.5156 111.645 94.3003 111.52Z" fill="#455A64"/>
<path d="M98.4466 113.92L95.7617 112.366C95.5459 112.241 95.5732 112.023 95.8222 111.88L98.4825 110.34C98.7309 110.196 99.1079 110.18 99.3232 110.305L102.008 111.859C102.224 111.984 102.197 112.202 101.948 112.345L99.2873 113.885C99.0388 114.029 98.6619 114.045 98.4466 113.92Z" fill="#455A64"/>
<path d="M102.593 116.319L99.9079 114.765C99.6921 114.641 99.7194 114.423 99.9684 114.279L102.629 112.739C102.878 112.595 103.254 112.58 103.469 112.704L106.154 114.258C106.37 114.383 106.343 114.601 106.094 114.745L103.434 116.284C103.185 116.429 102.809 116.444 102.593 116.319Z" fill="#455A64"/>
<path d="M106.739 118.719L104.054 117.165C103.838 117.04 103.866 116.822 104.115 116.678L106.775 115.139C107.024 114.995 107.4 114.979 107.616 115.104L110.301 116.657C110.516 116.782 110.49 117 110.241 117.144L107.58 118.684C107.331 118.828 106.955 118.844 106.739 118.719Z" fill="#455A64"/>
<path d="M110.885 121.118L108.2 119.565C107.985 119.44 108.012 119.222 108.261 119.078L110.921 117.538C111.17 117.395 111.547 117.379 111.762 117.504L114.447 119.057C114.663 119.182 114.636 119.4 114.387 119.544L111.727 121.084C111.478 121.227 111.101 121.244 110.885 121.118Z" fill="#455A64"/>
<path d="M118.257 125.384L112.399 121.994C112.183 121.869 112.21 121.651 112.459 121.507L115.119 119.968C115.368 119.824 115.745 119.808 115.96 119.933L121.818 123.323C122.034 123.448 122.007 123.666 121.758 123.81L119.098 125.349C118.849 125.493 118.472 125.509 118.257 125.384Z" fill="#455A64"/>
<path d="M126.329 120.713L121.385 117.851C121.169 117.727 121.196 117.509 121.445 117.364L124.105 115.825C124.354 115.681 124.731 115.665 124.946 115.79L129.891 118.651C130.107 118.776 130.079 118.994 129.831 119.138L127.17 120.678C126.922 120.821 126.545 120.838 126.329 120.713Z" fill="#455A64"/>
<path d="M84.9759 101.452L82.291 99.8986C82.0752 99.7741 82.1025 99.5561 82.3515 99.4118L85.0118 97.8724C85.2608 97.7285 85.6372 97.713 85.8525 97.8375L88.5374 99.3914C88.7532 99.5159 88.7259 99.7338 88.4774 99.8782L85.8171 101.418C85.5681 101.561 85.1912 101.577 84.9759 101.452Z" fill="#455A64"/>
<path d="M80.7263 98.9935L78.0414 97.4401C77.8261 97.3151 77.8529 97.0972 78.1019 96.9533L80.7622 95.4134C81.0112 95.2696 81.3876 95.254 81.6034 95.3785L84.2883 96.9324C84.5036 97.0574 84.4768 97.2754 84.2278 97.4192L81.5675 98.9586C81.3185 99.103 80.9421 99.1185 80.7263 98.9935Z" fill="#455A64"/>
<path d="M76.4768 96.5347L73.7919 94.9808C73.5766 94.8563 73.6034 94.6384 73.8524 94.494L76.5127 92.9546C76.7617 92.8108 77.1381 92.7947 77.3539 92.9197L80.0388 94.4736C80.2541 94.5981 80.2273 94.8161 79.9783 94.9599L77.318 96.4998C77.069 96.6437 76.6926 96.6592 76.4768 96.5347Z" fill="#455A64"/>
<path d="M72.2271 94.0752L69.5422 92.5214C69.327 92.3968 69.3537 92.1789 69.6027 92.0345L72.263 90.4952C72.512 90.3513 72.8885 90.3352 73.1043 90.4603L75.7892 92.0141C76.005 92.1387 75.9777 92.3566 75.7287 92.5004L73.0684 94.0403C72.8194 94.1842 72.443 94.1998 72.2271 94.0752Z" fill="#455A64"/>
<path d="M89.1221 103.852L86.4372 102.298C86.2214 102.173 86.2487 101.955 86.4977 101.812L89.158 100.272C89.407 100.128 89.7835 100.112 89.9993 100.237L92.6842 101.791C92.8994 101.916 92.8727 102.134 92.6237 102.277L89.9634 103.817C89.7144 103.961 89.3379 103.977 89.1221 103.852Z" fill="#455A64"/>
<path d="M93.2684 106.252L90.5835 104.698C90.3682 104.573 90.395 104.355 90.644 104.212L93.3043 102.672C93.5533 102.528 93.9297 102.512 94.1455 102.637L96.8304 104.191C97.0457 104.316 97.0189 104.534 96.7699 104.678L94.1096 106.217C93.8606 106.361 93.4842 106.377 93.2684 106.252Z" fill="#455A64"/>
<path d="M97.4146 108.652L94.7297 107.098C94.5145 106.973 94.5412 106.755 94.7902 106.611L97.4505 105.072C97.6995 104.927 98.076 104.912 98.2918 105.037L100.977 106.59C101.192 106.715 101.165 106.933 100.916 107.077L98.2559 108.617C98.0069 108.761 97.6304 108.776 97.4146 108.652Z" fill="#455A64"/>
<path d="M101.561 111.051L98.8765 109.497C98.6607 109.372 98.6875 109.154 98.9365 109.01L101.597 107.471C101.846 107.327 102.222 107.311 102.438 107.436L105.123 108.99C105.339 109.115 105.311 109.332 105.062 109.476L102.402 111.016C102.153 111.16 101.777 111.176 101.561 111.051Z" fill="#455A64"/>
<path d="M105.708 113.45L103.023 111.897C102.807 111.772 102.834 111.554 103.083 111.41L105.744 109.87C105.992 109.727 106.369 109.711 106.584 109.836L109.269 111.389C109.485 111.514 109.458 111.732 109.209 111.876L106.548 113.416C106.299 113.559 105.923 113.575 105.708 113.45Z" fill="#455A64"/>
<path d="M109.854 115.85L107.169 114.296C106.953 114.172 106.981 113.954 107.23 113.81L109.89 112.27C110.139 112.126 110.515 112.11 110.731 112.235L113.415 113.789C113.631 113.913 113.604 114.131 113.355 114.276L110.695 115.815C110.446 115.959 110.069 115.975 109.854 115.85Z" fill="#455A64"/>
<path d="M114 118.25L111.315 116.696C111.099 116.571 111.127 116.353 111.376 116.209L114.036 114.669C114.285 114.526 114.662 114.51 114.877 114.635L117.562 116.188C117.777 116.313 117.751 116.531 117.502 116.675L114.841 118.215C114.592 118.359 114.216 118.374 114 118.25Z" fill="#455A64"/>
<path d="M118.146 120.649L115.462 119.095C115.246 118.97 115.273 118.752 115.522 118.609L118.182 117.069C118.431 116.925 118.808 116.909 119.024 117.034L121.708 118.588C121.924 118.712 121.897 118.93 121.648 119.074L118.988 120.614C118.739 120.758 118.362 120.774 118.146 120.649Z" fill="#455A64"/>
<path d="M122.293 123.049L119.608 121.495C119.393 121.37 119.419 121.152 119.668 121.008L122.329 119.468C122.578 119.324 122.954 119.309 123.17 119.434L125.855 120.987C126.07 121.112 126.043 121.33 125.794 121.474L123.134 123.014C122.885 123.158 122.509 123.173 122.293 123.049Z" fill="#455A64"/>
<path d="M82.7928 95.5181L80.1079 93.9642C79.8921 93.8397 79.9188 93.6218 80.1678 93.4774L82.8281 91.938C83.0771 91.7942 83.4536 91.7781 83.6694 91.9031L86.3543 93.457C86.5701 93.5815 86.5428 93.7995 86.2938 93.9433L83.6335 95.4832C83.3845 95.6271 83.008 95.6426 82.7928 95.5181Z" fill="#455A64"/>
<path d="M78.6668 93.1306L75.9819 91.5767C75.7661 91.4517 75.7934 91.2337 76.0424 91.0899L78.7027 89.5505C78.9517 89.4061 79.3281 89.3906 79.5434 89.5156L82.2283 91.069C82.4441 91.194 82.4168 91.4119 82.1684 91.5558L79.5081 93.0957C79.2591 93.2395 78.8821 93.2551 78.6668 93.1306Z" fill="#455A64"/>
<path d="M74.541 90.7427L71.8561 89.1889C71.6408 89.0643 71.6676 88.8464 71.9166 88.702L74.5769 87.1626C74.8259 87.0188 75.2023 87.0027 75.4181 87.1278L78.103 88.6816C78.3183 88.8061 78.2915 89.0241 78.0425 89.1684L75.3822 90.7078C75.1332 90.8517 74.7568 90.8672 74.541 90.7427Z" fill="#455A64"/>
<path d="M70.4156 88.3552L67.7307 86.8013C67.5149 86.6763 67.5422 86.4584 67.7907 86.3145L70.4515 84.7751C70.7 84.6307 71.077 84.6152 71.2922 84.7402L73.9771 86.2936C74.1929 86.4186 74.1656 86.6365 73.9166 86.7804L71.2564 88.3203C71.0074 88.4642 70.6309 88.4797 70.4156 88.3552Z" fill="#455A64"/>
<path d="M74.6577 85.8998L71.9728 84.346C71.7575 84.2209 71.7843 84.003 72.0333 83.8592L72.9125 83.3503C73.1615 83.2059 73.5385 83.1904 73.7538 83.3154L76.4387 84.8693C76.6545 84.9938 76.6272 85.2117 76.3782 85.3556L75.4989 85.865C75.2499 86.0088 74.8735 86.0244 74.6577 85.8998Z" fill="#455A64"/>
<path d="M80.0419 89.0157L77.357 87.4618C77.1412 87.3373 77.1685 87.1194 77.4175 86.975L78.2968 86.4661C78.5458 86.3223 78.9222 86.3067 79.138 86.4313L81.823 87.9851C82.0382 88.1096 82.0114 88.3276 81.7624 88.4719L80.8832 88.9808C80.6342 89.1246 80.2577 89.1402 80.0419 89.0157Z" fill="#455A64"/>
<path d="M84.1508 91.3935L81.4653 89.8396C81.2501 89.7146 81.2768 89.4967 81.5258 89.3528L82.4056 88.844C82.6541 88.6996 83.0311 88.684 83.2464 88.8091L85.9313 90.363C86.1471 90.4875 86.1197 90.7054 85.8707 90.8492L84.9915 91.3586C84.7425 91.5025 84.366 91.518 84.1508 91.3935Z" fill="#455A64"/>
<path d="M88.259 93.771L85.5741 92.2172C85.3583 92.0926 85.3856 91.8747 85.6346 91.7309L86.5138 91.2215C86.7628 91.0777 87.1393 91.0621 87.3551 91.1866L90.04 92.7405C90.2553 92.8655 90.2285 93.0835 89.9795 93.2273L89.1002 93.7361C88.8512 93.8805 88.4748 93.8961 88.259 93.771Z" fill="#455A64"/>
<path d="M92.3677 96.1485L89.6828 94.5946C89.467 94.4701 89.4938 94.2522 89.7428 94.1078L90.6226 93.599C90.8716 93.4551 91.248 93.4395 91.4633 93.5641L94.1482 95.1179C94.364 95.2425 94.3367 95.4604 94.0882 95.6048L93.2084 96.1136C92.9594 96.2574 92.583 96.273 92.3677 96.1485Z" fill="#455A64"/>
<path d="M115.305 109.422L112.62 107.869C112.404 107.744 112.431 107.526 112.68 107.382L113.56 106.873C113.809 106.729 114.185 106.713 114.401 106.838L117.086 108.392C117.301 108.517 117.274 108.735 117.025 108.879L116.146 109.387C115.897 109.532 115.52 109.547 115.305 109.422Z" fill="#455A64"/>
<path d="M119.413 111.8L116.728 110.246C116.513 110.121 116.539 109.904 116.788 109.759L117.668 109.25C117.917 109.106 118.294 109.091 118.509 109.215L121.194 110.769C121.41 110.894 121.382 111.112 121.134 111.256L120.254 111.765C120.005 111.909 119.629 111.925 119.413 111.8Z" fill="#455A64"/>
<path d="M123.522 114.177L120.837 112.624C120.622 112.499 120.648 112.281 120.897 112.137L121.777 111.628C122.026 111.484 122.402 111.468 122.618 111.593L125.303 113.147C125.519 113.271 125.491 113.489 125.242 113.633L124.363 114.143C124.114 114.286 123.738 114.302 123.522 114.177Z" fill="#455A64"/>
<path d="M127.63 116.556L124.946 115.002C124.73 114.877 124.757 114.659 125.006 114.515L125.885 114.006C126.134 113.862 126.511 113.846 126.727 113.971L129.411 115.525C129.627 115.65 129.6 115.868 129.351 116.011L128.471 116.52C128.223 116.665 127.846 116.68 127.63 116.556Z" fill="#455A64"/>
<path d="M86.939 97.9173L84.2541 96.3634C84.0383 96.2389 84.0656 96.021 84.3146 95.8766L86.9749 94.3372C87.2234 94.1934 87.6004 94.1778 87.8156 94.3023L90.5005 95.8562C90.7163 95.9807 90.689 96.1987 90.4406 96.343L87.7797 97.8824C87.5313 98.0263 87.1543 98.0424 86.939 97.9173Z" fill="#455A64"/>
<path d="M91.0853 100.317L88.4004 98.7632C88.1846 98.6387 88.2119 98.4208 88.4609 98.2764L91.1212 96.737C91.3702 96.5927 91.7466 96.5771 91.9619 96.7022L94.6468 98.256C94.8626 98.3805 94.8358 98.5985 94.5868 98.7423L91.926 100.282C91.6775 100.426 91.3011 100.442 91.0853 100.317Z" fill="#455A64"/>
<path d="M95.2315 102.717L92.5466 101.163C92.3308 101.038 92.3581 100.82 92.6071 100.676L95.2674 99.1366C95.5164 98.9922 95.8928 98.9766 96.1081 99.1011L98.793 100.655C99.0088 100.78 98.982 100.998 98.733 101.142L96.0728 102.681C95.8238 102.826 95.4473 102.841 95.2315 102.717Z" fill="#455A64"/>
<path d="M99.3778 105.116L96.6929 103.562C96.4776 103.437 96.5044 103.219 96.7534 103.075L99.4137 101.536C99.6627 101.391 100.039 101.376 100.255 101.501L102.94 103.054C103.155 103.179 103.128 103.397 102.879 103.541L100.219 105.081C99.97 105.225 99.5936 105.24 99.3778 105.116Z" fill="#455A64"/>
<path d="M103.524 107.515L100.839 105.962C100.624 105.837 100.651 105.619 100.9 105.475L103.56 103.935C103.809 103.791 104.185 103.775 104.401 103.9L107.086 105.454C107.302 105.579 107.275 105.797 107.026 105.941L104.365 107.48C104.116 107.624 103.74 107.64 103.524 107.515Z" fill="#455A64"/>
<path d="M107.671 109.915L104.986 108.361C104.77 108.236 104.797 108.018 105.046 107.874L107.706 106.335C107.955 106.19 108.332 106.175 108.547 106.3L111.232 107.853C111.448 107.978 111.421 108.196 111.172 108.34L108.512 109.88C108.263 110.024 107.886 110.039 107.671 109.915Z" fill="#455A64"/>
<path d="M111.817 112.314L109.132 110.76C108.916 110.636 108.944 110.418 109.193 110.274L111.853 108.734C112.101 108.59 112.478 108.575 112.694 108.699L115.379 110.253C115.594 110.378 115.567 110.596 115.318 110.74L112.658 112.279C112.409 112.424 112.032 112.439 111.817 112.314Z" fill="#455A64"/>
<path d="M115.963 114.714L113.278 113.16C113.063 113.036 113.09 112.818 113.339 112.673L115.999 111.134C116.248 110.99 116.625 110.975 116.84 111.099L119.525 112.653C119.741 112.778 119.713 112.996 119.465 113.14L116.804 114.679C116.556 114.823 116.179 114.839 115.963 114.714Z" fill="#455A64"/>
<path d="M120.11 117.113L117.425 115.559C117.209 115.435 117.236 115.217 117.485 115.073L120.145 113.533C120.394 113.389 120.771 113.374 120.986 113.498L123.672 115.052C123.887 115.177 123.86 115.394 123.611 115.539L120.951 117.078C120.702 117.223 120.325 117.238 120.11 117.113Z" fill="#455A64"/>
<path d="M63.2336 98.2136L55.3261 93.6378C55.1103 93.5128 55.1376 93.2949 55.3866 93.151L58.0469 91.6116C58.2959 91.4673 58.6724 91.4517 58.8882 91.5762L66.7951 96.1525C67.0109 96.277 66.9836 96.4949 66.7352 96.6393L64.0749 98.1787C63.8259 98.3231 63.4489 98.3386 63.2336 98.2136Z" fill="#455A64"/>
<path d="M114.173 127.692L106.265 123.116C106.049 122.992 106.077 122.774 106.325 122.629L108.986 121.09C109.234 120.946 109.611 120.93 109.827 121.055L117.734 125.631C117.95 125.756 117.923 125.974 117.674 126.118L115.013 127.657C114.764 127.801 114.388 127.817 114.173 127.692Z" fill="#455A64"/>
<path d="M97.5903 123.396L94.9054 121.843C94.6901 121.718 94.7169 121.5 94.9659 121.356L98.1349 119.522C98.3839 119.378 98.7609 119.362 98.9761 119.487L101.661 121.041C101.877 121.166 101.85 121.384 101.601 121.528L98.4315 123.362C98.1825 123.505 97.8061 123.522 97.5903 123.396Z" fill="#455A64"/>
<path d="M67.4796 105.971L63.1861 103.487C62.9703 103.362 62.9976 103.144 63.246 103L66.4156 101.166C66.6646 101.021 67.041 101.006 67.2563 101.131L71.5503 103.615C71.7661 103.741 71.7388 103.958 71.4898 104.102L68.3208 105.936C68.0718 106.08 67.6954 106.096 67.4796 105.971Z" fill="#455A64"/>
<path d="M93.5956 121.085L89.3016 118.599C89.0858 118.475 89.1131 118.257 89.3621 118.113L92.5311 116.279C92.7801 116.135 93.1565 116.119 93.3723 116.244L97.6664 118.729C97.8817 118.854 97.8549 119.071 97.6059 119.216L94.4369 121.05C94.1879 121.194 93.8109 121.209 93.5956 121.085Z" fill="#455A64"/>
<path d="M73.462 109.433L69.168 106.948C68.9527 106.823 68.9795 106.605 69.2285 106.462L72.3975 104.627C72.6465 104.484 73.0229 104.468 73.2387 104.593L77.5328 107.078C77.748 107.202 77.7212 107.42 77.4722 107.564L74.3033 109.398C74.0543 109.542 73.6778 109.558 73.462 109.433Z" fill="#455A64"/>
<path d="M73.2676 104.609L91.9367 115.413C92.1686 115.547 92.1686 115.764 91.9367 115.899L88.7051 117.769C88.4732 117.903 88.0978 117.903 87.866 117.769L69.1974 106.965L73.2676 104.609Z" fill="#455A64"/>
<path d="M109.179 127.747L112.17 129.477C112.346 129.58 112.324 129.758 112.12 129.876L110.824 130.627C110.62 130.745 110.311 130.758 110.135 130.656L107.144 128.925C106.967 128.822 106.989 128.644 107.193 128.526L108.49 127.775C108.694 127.657 109.002 127.644 109.179 127.747Z" fill="#455A64"/>
<path d="M104.998 125.328L107.989 127.059C108.166 127.161 108.144 127.339 107.94 127.457L106.643 128.208C106.439 128.326 106.13 128.339 105.953 128.236L102.963 126.506C102.786 126.403 102.809 126.224 103.013 126.106L104.309 125.357C104.513 125.238 104.821 125.226 104.998 125.328Z" fill="#455A64"/>
<path d="M100.852 122.928L103.843 124.659C104.019 124.761 103.997 124.939 103.793 125.057L102.496 125.808C102.292 125.926 101.984 125.939 101.807 125.837L98.8165 124.106C98.6398 124.003 98.6618 123.825 98.8658 123.707L100.162 122.957C100.366 122.838 100.675 122.826 100.852 122.928Z" fill="#455A64"/>
<path d="M107.288 124.003L110.279 125.733C110.455 125.836 110.433 126.014 110.229 126.132L108.933 126.882C108.729 127.001 108.42 127.013 108.243 126.911L105.253 125.18C105.076 125.078 105.098 124.9 105.302 124.782L106.599 124.031C106.803 123.913 107.111 123.9 107.288 124.003Z" fill="#455A64"/>
<path d="M101.794 50.4503L97.8265 48.1541C97.4586 47.941 97.2417 47.4138 97.3424 46.9764C97.4431 46.539 97.8233 46.3571 98.1911 46.5701L102.159 48.8663C102.527 49.0794 102.744 49.6067 102.643 50.044C102.542 50.4814 102.162 50.6633 101.794 50.4503Z" fill="#E0E0E0"/>
<path d="M111.246 55.92L105.395 52.534C105.027 52.3209 104.81 51.7936 104.911 51.3562C105.012 50.9188 105.392 50.7369 105.76 50.95L111.61 54.3355C111.979 54.5486 112.195 55.0762 112.094 55.5137C111.994 55.9511 111.614 56.1325 111.246 55.92Z" fill="#E0E0E0"/>
<path d="M94.8782 69.0142L90.9102 66.718C90.5423 66.5049 90.3255 65.9778 90.4261 65.5404C90.5268 65.103 90.907 64.921 91.2749 65.1341L95.2428 67.4303C95.6107 67.6433 95.8276 68.1704 95.7269 68.6079C95.6262 69.0453 95.246 69.2273 94.8782 69.0142Z" fill="#E0E0E0"/>
<path d="M103.303 73.8899L97.4522 70.5041C97.0843 70.2911 96.8675 69.764 96.9681 69.3265C97.0688 68.8891 97.449 68.7071 97.8174 68.9202L103.668 72.306C104.036 72.5191 104.253 73.0461 104.152 73.4836C104.051 73.921 103.671 74.103 103.303 73.8899Z" fill="#E0E0E0"/>
<path d="M90.0898 47.4376L87.6111 46.0032C87.2426 45.7902 87.0263 45.2629 87.127 44.8255C87.2276 44.3881 87.6078 44.2062 87.9757 44.4192L90.4545 45.8537C90.8224 46.0667 91.0392 46.594 90.9385 47.0314C90.8379 47.4688 90.4577 47.6507 90.0898 47.4376Z" fill="#E0E0E0"/>
<path d="M97.7291 55.6191L90.1557 51.2366C89.7873 51.0236 89.571 50.4963 89.6717 50.0589C89.7723 49.6215 90.1525 49.4396 90.5204 49.6526L98.0937 54.0352C98.4616 54.2482 98.6785 54.7759 98.5778 55.2133C98.4772 55.6502 98.097 55.8322 97.7291 55.6191Z" fill="#E0E0E0"/>
<path d="M91.1056 59.3089L88.6269 57.8748C88.259 57.6617 88.0421 57.1341 88.1428 56.6966C88.2435 56.2597 88.6237 56.0777 88.9921 56.2908L91.4703 57.725C91.8387 57.9381 92.0556 58.4652 91.9544 58.9026C91.8537 59.3401 91.474 59.522 91.1056 59.3089Z" fill="#E0E0E0"/>
<path d="M104.578 82.1503L97.9582 78.3191C97.5898 78.106 97.3729 77.5789 97.4736 77.1415C97.5748 76.704 97.9545 76.5221 98.3229 76.7352L104.943 80.5664C105.311 80.7795 105.528 81.3066 105.427 81.744C105.326 82.1815 104.946 82.3634 104.578 82.1503Z" fill="#E0E0E0"/>
<path d="M88.6895 65.433L87.0986 64.512C86.7302 64.2994 86.5139 63.7718 86.6145 63.3343C86.7152 62.8969 87.0954 62.7149 87.4633 62.928L89.0542 63.8491C89.4226 64.0622 89.6389 64.5892 89.5383 65.0267C89.4376 65.4641 89.0574 65.6461 88.6895 65.433Z" fill="#E0E0E0"/>
<path d="M87.5457 72.2929L85.5698 71.1496C85.2019 70.9366 84.985 70.4095 85.0857 69.972C85.1864 69.5346 85.5665 69.3526 85.9344 69.5657L87.9104 70.709C88.2788 70.9221 88.4951 71.4497 88.3944 71.8866C88.2938 72.324 87.9136 72.506 87.5457 72.2929Z" fill="#E0E0E0"/>
<path d="M95.2321 76.7417L90.0229 73.7268C89.655 73.5142 89.4381 72.9866 89.5388 72.5492C89.6395 72.1117 90.0197 71.9298 90.3876 72.1429L95.5967 75.1577C95.9651 75.3708 96.182 75.8979 96.0813 76.3354C95.9801 76.7728 95.6005 76.9548 95.2321 76.7417Z" fill="#E0E0E0"/>
<path d="M88.5508 76.6359L84.8056 74.4685C84.4372 74.2554 84.2209 73.7283 84.3216 73.2909C84.4222 72.8534 84.8024 72.6715 85.1703 72.8846L88.9155 75.0519C89.2839 75.265 89.5008 75.7926 89.4001 76.2301C89.2994 76.667 88.9192 76.8489 88.5508 76.6359Z" fill="#E0E0E0"/>
<path d="M110.259 85.4541L107.853 84.0618C107.485 83.8487 107.269 83.3216 107.369 82.8841C107.47 82.4467 107.85 82.2647 108.218 82.4778L110.623 83.8701C110.991 84.0832 111.208 84.6103 111.108 85.0477C111.007 85.4852 110.627 85.6671 110.259 85.4541Z" fill="#E0E0E0"/>
<path d="M100.326 64.6445L93.7054 60.8132C93.3375 60.6001 93.1206 60.0731 93.2213 59.6356C93.322 59.1982 93.7022 59.0162 94.07 59.2293L100.691 63.0606C101.059 63.2736 101.276 63.8007 101.175 64.2382C101.074 64.6756 100.694 64.8576 100.326 64.6445Z" fill="#E0E0E0"/>
<path d="M100.93 61.2332L89.3916 54.5561C89.0232 54.3431 88.8063 53.8154 88.907 53.3782C89.0082 52.9408 89.3878 52.7589 89.7562 52.9719L101.294 59.6493C101.663 59.8624 101.879 60.3894 101.778 60.8269C101.678 61.2643 101.298 61.4463 100.93 61.2332Z" fill="#E0E0E0"/>
<path d="M94.4829 65.0244L87.8627 61.1931C87.4948 60.98 87.278 60.4529 87.3786 60.0155C87.4793 59.578 87.8595 59.3961 88.2274 59.6092L94.8476 63.4404C95.216 63.6535 95.4329 64.1806 95.3322 64.618C95.231 65.0555 94.8513 65.2374 94.4829 65.0244Z" fill="#E0E0E0"/>
<path d="M105.347 67.5507L102.941 66.1589C102.574 65.9458 102.357 65.4182 102.457 64.9813C102.558 64.5439 102.938 64.3619 103.307 64.575L105.712 65.9668C106.08 66.1799 106.297 66.7069 106.196 67.1444C106.095 67.5818 105.715 67.7638 105.347 67.5507Z" fill="#E0E0E0"/>
<path d="M129.09 66.2469L114.846 58.0037C114.478 57.7906 114.261 57.2635 114.362 56.826C114.463 56.3886 114.843 56.2066 115.211 56.4197L129.455 64.663C129.823 64.8761 130.04 65.4032 129.939 65.8406C129.839 66.2781 129.459 66.46 129.09 66.2469Z" fill="#E0E0E0"/>
<path d="M94.2923 72.4365L86.3339 67.8313C85.966 67.6182 85.7492 67.0911 85.8498 66.6537C85.9505 66.2162 86.3307 66.0343 86.6991 66.2474L94.6569 70.8526C95.0248 71.0657 95.2417 71.5928 95.141 72.0302C95.0403 72.4677 94.6602 72.6496 94.2923 72.4365Z" fill="#E0E0E0"/>
<path d="M94.2259 46.0702L88.3752 42.6843C88.0073 42.4713 87.7904 41.944 87.8911 41.5066C87.9918 41.0692 88.372 40.8873 88.7398 41.1004L94.5905 44.4862C94.959 44.6992 95.1753 45.2265 95.0746 45.6639C94.9739 46.1013 94.5938 46.2832 94.2259 46.0702Z" fill="#E0E0E0"/>
<path d="M87.5083 79.7942L80.7322 75.8728C80.3644 75.6597 80.1475 75.1326 80.2482 74.6952C80.3488 74.2577 80.729 74.0758 81.0969 74.2889L87.8729 78.2103C88.2413 78.4234 88.4582 78.9505 88.3575 79.3879C88.2569 79.8254 87.8767 80.0073 87.5083 79.7942Z" fill="#E0E0E0"/>
<path d="M133.365 94.1094L129.398 91.8132C129.029 91.6001 128.813 91.0725 128.913 90.6351C129.014 90.1982 129.394 90.0162 129.762 90.2293L133.73 92.5255C134.098 92.7386 134.315 93.2657 134.214 93.7031C134.114 94.1405 133.733 94.3225 133.365 94.1094Z" fill="#E0E0E0"/>
<path d="M136.216 80.7148L128.643 76.3318C128.275 76.1187 128.058 75.5916 128.159 75.1542C128.26 74.7167 128.639 74.5348 129.008 74.7478L136.581 79.1309C136.949 79.344 137.166 79.871 137.065 80.3085C136.964 80.7459 136.584 80.9279 136.216 80.7148Z" fill="#E0E0E0"/>
<path d="M129.593 84.4042L127.114 82.9695C126.746 82.7564 126.529 82.2293 126.63 81.7919C126.731 81.3544 127.111 81.1725 127.479 81.3855L129.958 82.8197C130.326 83.0328 130.542 83.5604 130.442 83.9979C130.341 84.4353 129.961 84.6167 129.593 84.4042Z" fill="#E0E0E0"/>
<path d="M127.177 90.5277L125.585 89.6072C125.218 89.3941 125.001 88.8665 125.101 88.4296C125.202 87.9921 125.582 87.8102 125.951 88.0232L127.542 88.9437C127.909 89.1568 128.126 89.6839 128.026 90.1214C127.925 90.5588 127.545 90.7408 127.177 90.5277Z" fill="#E0E0E0"/>
<path d="M138.813 89.7397L132.193 85.9084C131.825 85.6954 131.608 85.1677 131.709 84.7303C131.809 84.2934 132.19 84.1114 132.557 84.3245L139.178 88.1558C139.546 88.3683 139.763 88.8959 139.662 89.3334C139.561 89.7708 139.181 89.9528 138.813 89.7397Z" fill="#E0E0E0"/>
<path d="M139.417 86.3277L127.878 79.6501C127.51 79.4376 127.294 78.91 127.394 78.4725C127.495 78.0351 127.875 77.8531 128.244 78.0662L139.782 84.7438C140.15 84.9569 140.366 85.484 140.266 85.9214C140.165 86.3589 139.785 86.5408 139.417 86.3277Z" fill="#E0E0E0"/>
<path d="M132.97 90.1196L126.35 86.2883C125.982 86.0752 125.765 85.5482 125.866 85.1107C125.967 84.6733 126.347 84.4913 126.715 84.7044L133.335 88.5357C133.703 88.7487 133.92 89.2758 133.819 89.7133C133.718 90.1507 133.338 90.3327 132.97 90.1196Z" fill="#E0E0E0"/>
<path d="M132.78 97.5313L124.821 92.926C124.453 92.7129 124.237 92.1858 124.337 91.7484C124.438 91.311 124.818 91.129 125.186 91.3421L133.144 95.9473C133.512 96.1604 133.729 96.6875 133.628 97.1249C133.528 97.5624 133.148 97.7443 132.78 97.5313Z" fill="#E0E0E0"/>
<path d="M147.935 53.4669L154.188 50.9737L152.782 41.7529L149.746 44.4486L147.935 53.4669Z" fill="#E0D8DB"/>
<path d="M106.087 10.4777L121.193 4.42676C121.193 4.42676 118.41 10.4654 118.406 10.4777C118.401 10.4901 110.339 12.3492 110.339 12.3492L106.087 10.4777Z" fill="#E0D8DB"/>
<path d="M153.461 35.5668C152.663 35.1046 151.835 34.835 151.013 34.7235C151.847 29.1505 149.444 23.2686 144.835 20.5991C143.449 19.7961 141.941 19.3308 140.516 19.2386C142.322 12.4838 139.532 4.80719 133.846 1.51434C130.875 -0.205757 127.664 -0.409182 124.835 0.644117L124.837 0.63891L124.698 0.69457C124.625 0.722857 124.552 0.751841 124.48 0.781791L119.748 2.64815L121.635 4.27582C119.076 5.0842 116.862 7.15895 115.693 10.2257C113.538 15.8811 115.749 22.758 120.632 25.5858L149.658 50.1108C153.325 52.2343 155.551 51.3476 157.169 47.1009C158.788 42.8543 157.128 37.6902 153.461 35.5668Z" fill="#E0D8DB"/>
<path d="M117.014 7.73546L133.297 1.21526C130.483 -0.225734 127.49 -0.344784 124.835 0.644003L124.837 0.638797L124.698 0.694457C124.625 0.722743 124.552 0.751727 124.48 0.781677L119.748 2.64803L121.635 4.2757C119.846 4.84078 118.227 6.02648 117.014 7.73546Z" fill="#E0D8DB"/>
<path d="M139.681 32.2016L150.433 27.9033C149.44 24.8223 147.48 22.1307 144.773 20.5628C144.415 20.3553 144.052 20.1738 143.687 20.0156L128.876 25.9446L139.681 32.2016Z" fill="#E0D8DB"/>
<path d="M123.049 3.32843L127.664 6.00058L135.672 2.80478C135.101 2.32381 134.494 1.88932 133.846 1.51424C132.822 0.921624 131.77 0.513217 130.715 0.27002L123.049 3.32843Z" fill="#E0D8DB"/>
<path d="M149.722 26.1099L141.984 29.1978L144.267 32.4132L150.907 29.7667C150.669 28.4922 150.269 27.2601 149.722 26.1099Z" fill="#E0D8DB"/>
<path d="M148.285 37.6055C147.487 37.1433 146.66 36.8736 145.837 36.7621C146.671 31.1892 144.207 25.2709 139.597 22.6014C138.211 21.7985 136.765 21.3694 135.34 21.2772C137.146 14.5224 134.357 6.84579 128.67 3.55298C122.556 0.0117242 115.41 2.88232 112.711 9.96463C112.619 10.2049 112.535 10.4472 112.456 10.6907C107.79 8.61054 102.632 10.9544 100.607 16.2674C98.4519 21.9227 100.663 28.7996 105.545 31.6274L142.424 52.9841C146.091 55.1075 150.375 53.3862 151.994 49.1395C153.612 44.8929 151.952 39.7289 148.285 37.6055Z" fill="#E0E0E0"/>
<path d="M108.288 11.7975C107.603 11.7975 106.946 11.9285 106.343 12.1918C104.879 12.8323 103.613 14.3177 102.87 16.2676C100.976 21.2366 103 27.5334 107.291 30.0178L144.169 51.3746C145.328 52.0455 146.528 52.2151 147.459 51.8411C148.392 51.4664 149.22 50.4817 149.731 49.1397C151.098 45.5537 149.637 41.0092 146.54 39.2158C145.973 38.8872 145.383 38.6799 144.787 38.5989L143.29 38.3963L143.482 37.1098C144.251 31.9705 141.883 26.5462 137.853 24.2118C136.742 23.5684 135.601 23.2049 134.46 23.1312L132.604 23.0111L133.022 21.4504C134.678 15.2563 132 8.10222 126.926 5.16327C124.566 3.79689 122.08 3.52095 119.927 4.3851C117.774 5.25038 116.015 7.23184 114.973 9.96487C114.892 10.1769 114.818 10.3905 114.749 10.6054L113.754 13.667L110.861 12.3777C109.995 11.9913 109.121 11.7975 108.288 11.7975Z" fill="#E0E0E0"/>
<path d="M127.009 31.3601C126.784 31.9505 127.015 32.6684 127.524 32.9635C128.034 33.2587 128.63 33.0194 128.855 32.4291C129.079 31.8387 128.849 31.1209 128.339 30.8257C127.83 30.5305 127.234 30.7697 127.009 31.3601Z" fill="#455A64"/>
<path d="M124.039 29.6409C123.815 30.2312 124.045 30.9491 124.555 31.2443C125.064 31.5395 125.66 31.3002 125.885 30.7099C126.11 30.1195 125.879 29.4016 125.37 29.1064C124.86 28.8112 124.264 29.0505 124.039 29.6409Z" fill="#455A64"/>
<path d="M121.07 27.9211C120.845 28.5115 121.076 29.2294 121.585 29.5245C122.095 29.8198 122.691 29.5805 122.916 28.9901C123.141 28.3998 122.91 27.6819 122.4 27.3867C121.891 27.0915 121.295 27.3308 121.07 27.9211Z" fill="#455A64"/>
<path opacity="0.5" d="M47.8568 84.9419L34.7279 77.3438C33.9222 76.8779 34.0232 76.0631 34.9536 75.5248L47.6306 68.1886C48.561 67.6502 49.9685 67.5917 50.7742 68.0576L63.903 75.6557C64.7089 76.1216 64.6077 76.9364 63.6776 77.4747L51.0004 84.8109C50.07 85.3493 48.6625 85.4078 47.8568 84.9419Z" fill="#C4D9E8"/>
<path d="M68.2581 69.8688V64.1831L55.5387 64.1761L51.1421 61.6314C50.1331 61.0475 48.3706 61.121 47.2055 61.7951L43.1037 64.1691L30.3726 64.1616V70.0094C30.3439 70.4045 30.5638 70.7861 31.0486 71.0668L47.4888 80.5805C48.4978 81.1645 50.2602 81.0915 51.4253 80.4168L67.2996 71.2305C67.9716 70.8414 68.2961 70.3379 68.2581 69.8688Z" fill="#455A64"/>
<path d="M49.3157 61.2407C48.5772 61.2584 47.8109 61.4447 47.2055 61.7952L43.1037 64.1692L30.3726 64.1622V70.0095C30.3439 70.4045 30.5638 70.7861 31.0486 71.0668L47.4888 80.5806C47.9736 80.8613 48.6328 80.9885 49.3157 80.9719V61.2407Z" fill="#455A64"/>
<path d="M31.8134 64.1626L30.3726 64.1621V70.0094C30.3439 70.4044 30.5638 70.786 31.0486 71.0668L31.8134 71.509V64.1626Z" fill="#41555F"/>
<path d="M47.7422 80.7047C48.6124 81.0783 49.8713 81.0579 50.8889 80.6688V74.0293H47.7422V80.7047Z" fill="#41555F"/>
<path d="M47.4888 74.7543L31.0486 65.24C30.0396 64.656 30.1661 63.6362 31.3312 62.9621L47.2056 53.7758C48.3707 53.1013 50.1331 53.028 51.1421 53.6119L67.5823 63.1258C68.5912 63.7098 68.4648 64.7301 67.2996 65.4043L51.4253 74.5906C50.2602 75.2647 48.4978 75.3383 47.4888 74.7543Z" fill="#E0E0E0"/>
<path d="M47.7848 73.0421L34.0077 65.0693C33.1622 64.5798 33.2682 63.7248 34.2446 63.1601L47.5474 55.4617C48.5238 54.8965 50.0007 54.8353 50.8463 55.3242L64.6233 63.2975C65.4688 63.7865 65.3628 64.6415 64.3866 65.2062L51.0837 72.9047C50.1073 73.4699 48.6303 73.531 47.7848 73.0421Z" fill="#41555F"/>
<path d="M62.2114 71.3694C62.2114 71.794 61.9142 72.3098 61.5474 72.5223C61.1806 72.7343 60.8834 72.562 60.8834 72.138C60.8834 71.7135 61.1806 71.1971 61.5474 70.9851C61.9142 70.7725 62.2114 70.9448 62.2114 71.3694Z" fill="#E0E0E0"/>
<path d="M64.348 70.1331C64.348 70.5571 64.0508 71.0734 63.684 71.2855C63.3172 71.498 63.02 71.3257 63.02 70.9011C63.02 70.4771 63.3172 69.9608 63.684 69.7488C64.0508 69.5362 64.348 69.7085 64.348 70.1331Z" fill="#E0E0E0"/>
<path d="M66.4841 68.8965C66.4841 69.3211 66.1869 69.8369 65.8201 70.0494C65.4539 70.2615 65.1561 70.0897 65.1561 69.6651C65.1561 69.2406 65.4539 68.7242 65.8201 68.5122C66.1869 68.3002 66.4841 68.4719 66.4841 68.8965Z" fill="#E0E0E0"/>
<path d="M68.2581 60.7821V55.0964L55.5387 55.0895L51.1421 52.5451C50.1331 51.9612 48.3706 52.0344 47.2055 52.7086L43.1037 55.0825L30.3726 55.0755V60.9228C30.3439 61.3183 30.5638 61.6994 31.0486 61.9801L47.4888 71.4939C48.4978 72.0779 50.2602 72.0049 51.4253 71.3307L67.2996 62.1439C67.9716 61.7552 68.2961 61.2512 68.2581 60.7821Z" fill="#455A64"/>
<path d="M49.3157 52.1543C48.5772 52.1722 47.8109 52.3587 47.2055 52.709L43.1037 55.0828L30.3726 55.0758V60.923C30.3439 61.3186 30.5638 61.6997 31.0486 61.9804L47.4888 71.4947C47.9736 71.7749 48.6328 71.9021 49.3157 71.8854V52.1543Z" fill="#455A64"/>
<path d="M31.8134 55.0762L30.3726 55.0757V60.9235C30.3439 61.3185 30.5638 61.6996 31.0486 61.9803L31.8134 62.4231V55.0762Z" fill="#41555F"/>
<path d="M47.7422 71.6183C48.6124 71.9924 49.8713 71.9715 50.8889 71.5824V64.9429H47.7422V71.6183Z" fill="#41555F"/>
<path d="M47.4888 65.6677L31.0486 56.154C30.0396 55.57 30.1661 54.5502 31.3312 53.8755L47.2056 44.6891C48.3707 44.0149 50.1331 43.9416 51.1421 44.5256L67.5823 54.0397C68.5912 54.6237 68.4648 55.6435 67.2996 56.3177L51.4253 65.504C50.2602 66.1787 48.4978 66.2517 47.4888 65.6677Z" fill="#E0E0E0"/>
<path d="M47.7848 63.9555L34.0077 55.9828C33.1622 55.4933 33.2682 54.6388 34.2446 54.0736L47.5474 46.3751C48.5238 45.8101 50.0007 45.7487 50.8463 46.2381L64.6233 54.211C65.4688 54.7005 65.3628 55.555 64.3866 56.1202L51.0837 63.8186C50.1073 64.3833 48.6303 64.445 47.7848 63.9555Z" fill="#41555F"/>
<path d="M62.2114 62.2827C62.2114 62.7073 61.9142 63.2231 61.5474 63.4357C61.1806 63.6477 60.8834 63.4759 60.8834 63.0514C60.8834 62.6268 61.1806 62.111 61.5474 61.8984C61.9142 61.6864 62.2114 61.8582 62.2114 62.2827Z" fill="#E0E0E0"/>
<path d="M64.348 61.0469C64.348 61.4715 64.0508 61.9873 63.684 62.1998C63.3172 62.4118 63.02 62.2401 63.02 61.8155C63.02 61.391 63.3172 60.8746 63.684 60.6626C64.0508 60.4506 64.348 60.6223 64.348 61.0469Z" fill="#E0E0E0"/>
<path d="M66.4841 59.8101C66.4841 60.2346 66.1869 60.751 65.8201 60.963C65.4539 61.175 65.1561 61.0033 65.1561 60.5787C65.1561 60.1541 65.4539 59.6383 65.8201 59.4258C66.1869 59.2138 66.4841 59.3855 66.4841 59.8101Z" fill="#E0E0E0"/>
<path d="M68.2581 51.6959V46.0101L55.5387 46.0029L51.1421 43.4586C50.1331 42.8748 48.3706 42.948 47.2055 43.6222L43.1037 45.996L30.3726 45.9889V51.8365C30.3439 52.2317 30.5638 52.6131 31.0486 52.8937L47.4888 62.4078C48.4978 62.9918 50.2602 62.9183 51.4253 62.2441L67.2996 53.0576C67.9716 52.6686 68.2961 52.1649 68.2581 51.6959Z" fill="#455A64"/>
<path d="M49.3157 43.0679C48.5772 43.0859 47.8109 43.2723 47.2055 43.6226L43.1037 45.9964L30.3726 45.9893V51.8369C30.3439 52.2321 30.5638 52.6135 31.0486 52.8941L47.4888 62.4081C47.9736 62.6888 48.6328 62.816 49.3157 62.7994V43.0679Z" fill="#455A64"/>
<path d="M31.8134 45.9901L30.3726 45.9893V51.8369C30.3439 52.2321 30.5638 52.6135 31.0486 52.8941L31.8134 53.3367V45.9901Z" fill="#41555F"/>
<path d="M47.7422 62.5324C48.6124 62.906 49.8713 62.8851 50.8889 62.4965V55.8564H47.7422V62.5324Z" fill="#41555F"/>
<path d="M47.4888 56.5811L31.0486 47.0674C30.0396 46.4835 30.1661 45.4634 31.3312 44.7892L47.2056 35.6027C48.3707 34.9284 50.1331 34.8552 51.1421 35.4392L67.5823 44.9531C68.5912 45.537 68.4648 46.557 67.2996 47.2312L51.4253 56.418C50.2602 57.0921 48.4978 57.1651 47.4888 56.5811Z" fill="#E0E0E0"/>
<path d="M67.2996 46.1123L51.4254 55.299C50.2603 55.9731 48.4978 56.0467 47.4888 55.4627L31.0486 45.9484C30.8236 45.8181 30.6583 45.6656 30.5452 45.5006C30.1985 46.0598 30.3557 46.6664 31.0486 47.0673L47.4888 56.5813C48.4978 57.1652 50.2603 57.0922 51.4254 56.4181L67.2996 47.2312C68.2051 46.7074 68.4803 45.9755 68.0857 45.4009C67.9277 45.6559 67.6648 45.9011 67.2996 46.1123Z" fill="white"/>
<path d="M62.2114 53.1968C62.2114 53.6213 61.9142 54.1375 61.5474 54.3495C61.1806 54.5621 60.8834 54.3898 60.8834 53.9652C60.8834 53.5409 61.1806 53.0248 61.5474 52.8126C61.9142 52.6004 62.2114 52.7724 62.2114 53.1968Z" fill="#E0E0E0"/>
<path d="M64.348 51.96C64.348 52.3844 64.0508 52.9006 63.684 53.1129C63.3172 53.3251 63.02 53.153 63.02 52.7286C63.02 52.3042 63.3172 51.788 63.684 51.5758C64.0508 51.3635 64.348 51.5356 64.348 51.96Z" fill="#E0E0E0"/>
<path d="M66.4841 50.7237C66.4841 51.1482 66.1869 51.6643 65.8201 51.8765C65.4539 52.0887 65.1561 51.9167 65.1561 51.4923C65.1561 51.0678 65.4539 50.5517 65.8201 50.3394C66.1869 50.1272 66.4841 50.2992 66.4841 50.7237Z" fill="#E0E0E0"/>
<path d="M48.4609 50.6825L40.7677 46.2304C40.2956 45.9572 40.3548 45.4799 40.9 45.1644L48.3284 40.8655C48.8736 40.55 49.6984 40.5157 50.1705 40.789L57.8639 45.2411C58.3362 45.5143 58.2767 45.9916 57.7316 46.3071L50.3031 50.606C49.7578 50.9215 48.9331 50.9558 48.4609 50.6825Z" fill="#41555F"/>
<path d="M49.1975 46.9549L48.1331 46.3389C48.0678 46.3011 48.0759 46.2351 48.1514 46.1914L49.1791 45.5967C49.2546 45.553 49.3687 45.5483 49.434 45.5861L50.4984 46.2021C50.5637 46.2399 50.5555 46.3059 50.4801 46.3495L49.4523 46.9443C49.3769 46.988 49.2628 46.9927 49.1975 46.9549Z" fill="#E0E0E0"/>
<path d="M40.7677 46.2304L40.7895 46.243C40.8253 46.2173 40.8585 46.1908 40.9 46.1668L48.3284 41.8679C48.8736 41.5524 49.6984 41.5182 50.1705 41.7914L57.8419 46.2309C58.2772 45.9186 58.2997 45.4935 57.8639 45.241L50.1705 40.789C49.6984 40.5157 48.8736 40.55 48.3284 40.8655L40.9 45.1643C40.3548 45.4799 40.2956 45.9571 40.7677 46.2304Z" fill="#455A64"/>
<path opacity="0.5" d="M145.55 150.831L132.421 143.234C131.615 142.767 131.717 141.953 132.647 141.414L145.324 134.078C146.255 133.54 147.662 133.481 148.468 133.948L161.597 141.545C162.402 142.012 162.301 142.826 161.371 143.364L148.694 150.7C147.764 151.239 146.356 151.298 145.55 150.831Z" fill="#C4D9E8"/>
<path d="M165.952 135.758V130.072L153.232 130.065L148.836 127.52C147.827 126.937 146.064 127.01 144.899 127.684L140.797 130.058L128.066 130.051V135.898C128.037 136.294 128.258 136.675 128.742 136.956L145.183 146.469C146.191 147.053 147.954 146.98 149.119 146.306L164.993 137.119C165.665 136.731 165.989 136.227 165.952 135.758Z" fill="#455A64"/>
<path d="M147.009 127.13C146.271 127.148 145.504 127.334 144.899 127.685L140.797 130.058L128.066 130.051V135.899C128.037 136.294 128.258 136.675 128.742 136.956L145.183 146.47C145.667 146.75 146.326 146.878 147.009 146.862V127.13Z" fill="#455A64"/>
<path d="M129.507 130.052L128.066 130.051V135.899C128.037 136.294 128.258 136.675 128.742 136.956L129.507 137.399V130.052Z" fill="#E0E0E0"/>
<path d="M145.436 146.594C146.306 146.968 147.565 146.948 148.582 146.558V139.919H145.436V146.594Z" fill="#455A64"/>
<path d="M145.183 140.643L128.742 131.13C127.733 130.546 127.86 129.525 129.025 128.851L144.899 119.665C146.064 118.991 147.827 118.917 148.836 119.501L165.276 129.015C166.285 129.599 166.159 130.619 164.993 131.293L149.119 140.48C147.954 141.154 146.191 141.227 145.183 140.643Z" fill="#E0E0E0"/>
<path d="M145.478 138.931L131.701 130.958C130.856 130.469 130.962 129.614 131.938 129.049L145.241 121.351C146.217 120.786 147.694 120.724 148.54 121.214L162.317 129.187C163.162 129.676 163.056 130.531 162.08 131.096L148.777 138.794C147.801 139.359 146.324 139.421 145.478 138.931Z" fill="#E0E0E0"/>
<path d="M159.905 137.259C159.905 137.683 159.607 138.199 159.241 138.412C158.874 138.624 158.577 138.452 158.577 138.027C158.577 137.603 158.874 137.087 159.241 136.875C159.607 136.662 159.905 136.834 159.905 137.259Z" fill="#E0E0E0"/>
<path d="M162.041 136.022C162.041 136.447 161.744 136.963 161.377 137.175C161.01 137.388 160.713 137.215 160.713 136.791C160.713 136.367 161.01 135.85 161.377 135.638C161.744 135.426 162.041 135.598 162.041 136.022Z" fill="#E0E0E0"/>
<path d="M164.178 134.786C164.178 135.21 163.881 135.727 163.514 135.939C163.147 136.151 162.85 135.979 162.85 135.554C162.85 135.13 163.147 134.614 163.514 134.401C163.881 134.189 164.178 134.361 164.178 134.786Z" fill="#E0E0E0"/>
<path d="M165.952 126.537V120.851L153.232 120.844L148.836 118.3C147.827 117.716 146.064 117.789 144.899 118.464L140.797 120.837L128.066 120.83V126.678C128.037 127.073 128.258 127.455 128.742 127.735L145.183 137.249C146.191 137.833 147.954 137.76 149.119 137.085L164.993 127.899C165.665 127.51 165.989 127.006 165.952 126.537Z" fill="#455A64"/>
<path d="M147.009 117.909C146.271 117.927 145.504 118.113 144.899 118.464L140.797 120.837L128.066 120.83V126.678C128.037 127.073 128.258 127.455 128.742 127.735L145.183 137.249C145.667 137.53 146.326 137.657 147.009 137.64V117.909Z" fill="#455A64"/>
<path d="M129.507 120.831L128.066 120.83V126.678C128.037 127.073 128.258 127.455 128.742 127.735L129.507 128.178V120.831Z" fill="#E0E0E0"/>
<path d="M145.436 137.374C146.306 137.747 147.565 137.726 148.582 137.338V130.698H145.436V137.374Z" fill="#455A64"/>
<path d="M145.183 131.423L128.742 121.909C127.733 121.325 127.86 120.305 129.025 119.631L144.899 110.444C146.064 109.77 147.827 109.697 148.836 110.28L165.276 119.794C166.285 120.378 166.159 121.398 164.993 122.072L149.119 131.259C147.954 131.933 146.191 132.006 145.183 131.423Z" fill="#E0E0E0"/>
<path d="M145.478 129.71L131.701 121.737C130.856 121.248 130.962 120.393 131.938 119.828L145.241 112.129C146.217 111.565 147.694 111.503 148.54 111.992L162.317 119.965C163.162 120.455 163.056 121.309 162.08 121.874L148.777 129.573C147.801 130.138 146.324 130.199 145.478 129.71Z" fill="#E0E0E0"/>
<path d="M159.905 128.038C159.905 128.462 159.607 128.978 159.241 129.19C158.874 129.403 158.577 129.231 158.577 128.806C158.577 128.382 158.874 127.866 159.241 127.653C159.607 127.441 159.905 127.614 159.905 128.038Z" fill="#E0E0E0"/>
<path d="M162.041 126.802C162.041 127.226 161.744 127.742 161.377 127.954C161.01 128.166 160.713 127.994 160.713 127.57C160.713 127.146 161.01 126.629 161.377 126.417C161.744 126.205 162.041 126.377 162.041 126.802Z" fill="#E0E0E0"/>
<path d="M164.178 125.565C164.178 125.989 163.881 126.506 163.514 126.718C163.147 126.93 162.85 126.758 162.85 126.333C162.85 125.909 163.147 125.393 163.514 125.181C163.881 124.968 164.178 125.141 164.178 125.565Z" fill="#E0E0E0"/>
<path d="M165.952 117.316V111.63L153.232 111.623L148.836 109.079C147.827 108.495 146.064 108.568 144.899 109.242L140.797 111.616L128.066 111.609V117.456C128.037 117.852 128.258 118.233 128.742 118.514L145.183 128.028C146.191 128.611 147.954 128.538 149.119 127.864L164.993 118.677C165.665 118.289 165.989 117.785 165.952 117.316Z" fill="#455A64"/>
<path d="M147.009 108.688C146.271 108.706 145.504 108.892 144.899 109.242L140.797 111.616L128.066 111.609V117.457C128.037 117.852 128.258 118.233 128.742 118.514L145.183 128.028C145.667 128.309 146.326 128.436 147.009 128.419V108.688Z" fill="#455A64"/>
<path d="M129.507 111.609L128.066 111.609V117.457C128.037 117.852 128.258 118.233 128.742 118.514L129.507 118.956V111.609Z" fill="#E0E0E0"/>
<path d="M145.436 128.152C146.306 128.526 147.565 128.505 148.582 128.116V121.477H145.436V128.152Z" fill="#455A64"/>
<path d="M145.183 122.201L128.742 112.687C127.733 112.103 127.86 111.083 129.025 110.409L144.899 101.222C146.064 100.548 147.827 100.475 148.836 101.059L165.276 110.573C166.285 111.157 166.159 112.177 164.993 112.851L149.119 122.038C147.954 122.712 146.191 122.785 145.183 122.201Z" fill="#E0E0E0"/>
<path d="M164.993 111.732L149.119 120.919C147.954 121.593 146.191 121.666 145.182 121.082L128.742 111.568C128.517 111.438 128.352 111.285 128.239 111.12C127.892 111.679 128.049 112.286 128.742 112.687L145.182 122.201C146.191 122.785 147.954 122.712 149.119 122.037L164.993 112.851C165.898 112.327 166.173 111.595 165.779 111.021C165.621 111.275 165.358 111.521 164.993 111.732Z" fill="#E0E0E0"/>
<path d="M159.905 118.816C159.905 119.241 159.607 119.757 159.241 119.969C158.874 120.181 158.577 120.01 158.577 119.585C158.577 119.16 158.874 118.645 159.241 118.432C159.607 118.22 159.905 118.392 159.905 118.816Z" fill="#E0E0E0"/>
<path d="M162.041 117.58C162.041 118.004 161.744 118.521 161.377 118.733C161.01 118.945 160.713 118.773 160.713 118.348C160.713 117.924 161.01 117.408 161.377 117.196C161.744 116.983 162.041 117.156 162.041 117.58Z" fill="#E0E0E0"/>
<path d="M164.178 116.343C164.178 116.768 163.881 117.284 163.514 117.496C163.147 117.708 162.85 117.536 162.85 117.112C162.85 116.687 163.147 116.172 163.514 115.959C163.881 115.747 164.178 115.919 164.178 116.343Z" fill="#E0E0E0"/>
<path d="M146.154 116.555L138.461 112.104C137.989 111.83 138.048 111.353 138.593 111.037L146.022 106.738C146.567 106.423 147.392 106.389 147.864 106.662L155.557 111.114C156.029 111.387 155.97 111.865 155.425 112.18L147.996 116.479C147.451 116.795 146.627 116.829 146.154 116.555Z" fill="#E0E0E0"/>
<path d="M146.891 112.828L145.827 112.212C145.761 112.174 145.769 112.108 145.845 112.065L146.873 111.47C146.948 111.426 147.062 111.421 147.127 111.459L148.192 112.075C148.257 112.113 148.249 112.179 148.174 112.223L147.146 112.817C147.07 112.861 146.956 112.866 146.891 112.828Z" fill="#E0E0E0"/>
<path d="M138.461 112.104L138.483 112.116C138.519 112.09 138.552 112.064 138.593 112.04L146.022 107.741C146.567 107.425 147.392 107.391 147.864 107.664L155.536 112.104C155.97 111.792 155.993 111.367 155.557 111.114L147.864 106.662C147.392 106.389 146.567 106.423 146.022 106.738L138.593 111.037C138.048 111.353 137.989 111.83 138.461 112.104Z" fill="#E0E0E0"/>
<path d="M140.269 132.624L133.613 128.772C133.203 128.535 132.87 127.898 132.87 127.35C132.87 126.802 133.203 126.549 133.613 126.786L140.269 130.638C140.679 130.876 141.012 131.513 141.012 132.061C141.012 132.61 140.679 132.862 140.269 132.624Z" fill="#E0E0E0"/>
<path d="M140.864 132.256L134.208 128.405C133.798 128.168 133.466 127.53 133.466 126.982C133.466 126.89 133.478 126.809 133.496 126.734C133.142 126.605 132.87 126.855 132.87 127.35C132.87 127.898 133.203 128.535 133.613 128.772L140.269 132.624C140.61 132.822 140.894 132.677 140.982 132.309C140.943 132.295 140.905 132.28 140.864 132.256Z" fill="#E0E0E0"/>
<path opacity="0.5" d="M116.421 167.315L103.292 159.718C102.486 159.251 102.587 158.437 103.518 157.899L116.195 150.562C117.125 150.024 118.533 149.965 119.338 150.432L132.467 158.029C133.273 158.496 133.172 159.31 132.241 159.849L119.564 167.185C118.634 167.723 117.227 167.782 116.421 167.315Z" fill="#C4D9E8"/>
<path d="M136.823 152.242V146.557L124.103 146.549L119.706 144.005C118.698 143.421 116.935 143.495 115.77 144.169L111.668 146.542L98.9371 146.535V152.383C98.9082 152.778 99.1283 153.16 99.6129 153.44L116.053 162.954C117.062 163.538 118.824 163.465 119.99 162.79L135.864 153.604C136.536 153.215 136.86 152.711 136.823 152.242Z" fill="#455A64"/>
<path d="M117.88 143.614C117.141 143.632 116.375 143.818 115.77 144.169L111.668 146.543L98.9371 146.535V152.383C98.9082 152.778 99.1283 153.16 99.6129 153.44L116.053 162.954C116.538 163.235 117.197 163.362 117.88 163.345V143.614Z" fill="#455A64"/>
<path d="M100.378 146.536L98.9371 146.535V152.383C98.9082 152.778 99.1283 153.16 99.6129 153.44L100.378 153.883V146.536Z" fill="#E0E0E0"/>
<path d="M116.307 163.079C117.177 163.452 118.436 163.431 119.453 163.043V156.403H116.307V163.079Z" fill="#455A64"/>
<path d="M116.053 157.128L99.6129 147.614C98.604 147.03 98.7304 146.01 99.8956 145.336L115.77 136.149C116.935 135.475 118.698 135.402 119.706 135.986L136.147 145.499C137.156 146.083 137.029 147.103 135.864 147.777L119.99 156.964C118.824 157.638 117.062 157.711 116.053 157.128Z" fill="#E0E0E0"/>
<path d="M116.349 155.415L102.572 147.442C101.726 146.953 101.832 146.098 102.809 145.534L116.112 137.835C117.088 137.27 118.565 137.209 119.411 137.698L133.188 145.671C134.033 146.16 133.927 147.015 132.95 147.58L119.648 155.278C118.671 155.843 117.194 155.905 116.349 155.415Z" fill="#E0E0E0"/>
<path d="M130.776 153.743C130.776 154.167 130.478 154.683 130.112 154.895C129.745 155.108 129.448 154.936 129.448 154.511C129.448 154.087 129.745 153.571 130.112 153.359C130.478 153.146 130.776 153.318 130.776 153.743Z" fill="#E0E0E0"/>
<path d="M132.912 152.506C132.912 152.931 132.615 153.447 132.248 153.659C131.881 153.871 131.584 153.699 131.584 153.275C131.584 152.85 131.881 152.335 132.248 152.122C132.615 151.91 132.912 152.082 132.912 152.506Z" fill="#E0E0E0"/>
<path d="M135.048 151.27C135.048 151.694 134.751 152.211 134.384 152.423C134.018 152.635 133.72 152.463 133.72 152.039C133.72 151.614 134.018 151.098 134.384 150.886C134.751 150.673 135.048 150.846 135.048 151.27Z" fill="#E0E0E0"/>
<path d="M136.823 143.021V137.335L124.103 137.328L119.706 134.784C118.698 134.2 116.935 134.273 115.77 134.947L111.668 137.321L98.9371 137.314V143.162C98.9082 143.557 99.1283 143.938 99.6129 144.219L116.053 153.733C117.062 154.317 118.824 154.244 119.99 153.569L135.864 144.383C136.536 143.994 136.86 143.49 136.823 143.021Z" fill="#455A64"/>
<path d="M117.88 134.393C117.141 134.411 116.375 134.598 115.77 134.948L111.668 137.322L98.9371 137.315V143.162C98.9082 143.557 99.1283 143.938 99.6129 144.219L116.053 153.733C116.538 154.014 117.197 154.141 117.88 154.124V134.393Z" fill="#455A64"/>
<path d="M100.378 137.315L98.9371 137.314V143.162C98.9082 143.557 99.1283 143.938 99.6129 144.219L100.378 144.661V137.315Z" fill="#E0E0E0"/>
<path d="M116.307 153.858C117.177 154.231 118.436 154.211 119.453 153.822V147.182H116.307V153.858Z" fill="#455A64"/>
<path d="M116.053 147.907L99.6129 138.392C98.604 137.809 98.7304 136.789 99.8956 136.114L115.77 126.928C116.935 126.253 118.698 126.18 119.706 126.764L136.147 136.278C137.156 136.862 137.029 137.882 135.864 138.557L119.99 147.743C118.824 148.417 117.062 148.491 116.053 147.907Z" fill="#E0E0E0"/>
<path d="M116.349 146.194L102.572 138.222C101.726 137.732 101.832 136.878 102.809 136.312L116.112 128.614C117.088 128.049 118.565 127.988 119.411 128.477L133.188 136.45C134.033 136.939 133.927 137.794 132.95 138.358L119.648 146.057C118.671 146.622 117.194 146.683 116.349 146.194Z" fill="#E0E0E0"/>
<path d="M130.776 144.522C130.776 144.947 130.478 145.462 130.112 145.675C129.745 145.887 129.448 145.715 129.448 145.291C129.448 144.866 129.745 144.35 130.112 144.138C130.478 143.926 130.776 144.097 130.776 144.522Z" fill="#E0E0E0"/>
<path d="M132.912 143.286C132.912 143.71 132.615 144.226 132.248 144.438C131.881 144.651 131.584 144.479 131.584 144.054C131.584 143.63 131.881 143.114 132.248 142.902C132.615 142.689 132.912 142.861 132.912 143.286Z" fill="#E0E0E0"/>
<path d="M135.048 142.049C135.048 142.473 134.751 142.989 134.384 143.202C134.018 143.414 133.72 143.242 133.72 142.817C133.72 142.393 134.018 141.877 134.384 141.665C134.751 141.453 135.048 141.624 135.048 142.049Z" fill="#E0E0E0"/>
<path d="M136.823 133.8V128.114L124.103 128.107L119.706 125.563C118.698 124.979 116.935 125.052 115.77 125.726L111.668 128.1L98.9371 128.093V133.941C98.9082 134.336 99.1283 134.717 99.6129 134.998L116.053 144.512C117.062 145.096 118.824 145.022 119.99 144.348L135.864 135.162C136.536 134.773 136.86 134.269 136.823 133.8Z" fill="#455A64"/>
<path d="M117.88 125.172C117.141 125.19 116.375 125.376 115.77 125.726L111.668 128.1L98.9371 128.093V133.941C98.9082 134.336 99.1283 134.717 99.6129 134.998L116.053 144.512C116.538 144.792 117.197 144.92 117.88 144.903V125.172Z" fill="#455A64"/>
<path d="M100.378 128.094L98.9371 128.093V133.941C98.9082 134.336 99.1283 134.717 99.6129 134.998L100.378 135.44V128.094Z" fill="#E0E0E0"/>
<path d="M116.307 144.636C117.177 145.01 118.436 144.989 119.453 144.6V137.961H116.307V144.636Z" fill="#455A64"/>
<path d="M116.053 138.686L99.6129 129.171C98.604 128.587 98.7304 127.567 99.8956 126.893L115.77 117.706C116.935 117.032 118.698 116.959 119.706 117.543L136.147 127.057C137.156 127.641 137.029 128.661 135.864 129.335L119.99 138.522C118.824 139.196 117.062 139.27 116.053 138.686Z" fill="#E0E0E0"/>
<path d="M135.864 128.216L119.99 137.402C118.824 138.077 117.062 138.15 116.053 137.566L99.6129 128.052C99.388 127.922 99.2225 127.77 99.1095 127.604C98.7625 128.164 98.92 128.77 99.6129 129.171L116.053 138.685C117.062 139.269 118.824 139.196 119.99 138.522L135.864 129.335C136.77 128.811 137.044 128.079 136.65 127.504C136.492 127.759 136.229 128.005 135.864 128.216Z" fill="#E0E0E0"/>
<path d="M130.776 135.301C130.776 135.725 130.478 136.241 130.112 136.453C129.745 136.665 129.448 136.493 129.448 136.069C129.448 135.645 129.745 135.128 130.112 134.916C130.478 134.704 130.776 134.876 130.776 135.301Z" fill="#E0E0E0"/>
<path d="M132.912 134.064C132.912 134.489 132.615 135.004 132.248 135.217C131.881 135.429 131.584 135.257 131.584 134.833C131.584 134.408 131.881 133.892 132.248 133.68C132.615 133.468 132.912 133.639 132.912 134.064Z" fill="#E0E0E0"/>
<path d="M135.048 132.828C135.048 133.252 134.751 133.768 134.384 133.981C134.018 134.193 133.72 134.021 133.72 133.597C133.72 133.172 134.018 132.656 134.384 132.444C134.751 132.231 135.048 132.403 135.048 132.828Z" fill="#E0E0E0"/>
<path d="M117.762 129.312L116.697 128.696C116.632 128.658 116.64 128.592 116.716 128.548L117.743 127.954C117.819 127.91 117.933 127.905 117.998 127.943L119.063 128.559C119.128 128.597 119.12 128.663 119.045 128.707L118.016 129.301C117.941 129.345 117.827 129.35 117.762 129.312Z" fill="#E0E0E0"/>
<path d="M111.14 149.108L104.484 145.257C104.074 145.019 103.741 144.382 103.741 143.834C103.741 143.285 104.074 143.033 104.484 143.271L111.14 147.122C111.55 147.36 111.883 147.997 111.883 148.545C111.883 149.093 111.55 149.346 111.14 149.108Z" fill="#E0E0E0"/>
<path d="M111.735 148.741L105.079 144.889C104.669 144.651 104.336 144.014 104.336 143.466C104.336 143.374 104.349 143.293 104.366 143.218C104.012 143.089 103.741 143.339 103.741 143.834C103.741 144.382 104.074 145.019 104.484 145.256L111.14 149.108C111.481 149.305 111.765 149.161 111.852 148.793C111.814 148.779 111.775 148.764 111.735 148.741Z" fill="#E0E0E0"/>
<path d="M110.498 152.91C110.498 152.91 108.875 152.09 107.878 153.312C106.88 154.534 105.455 157.418 105.411 159.368C105.367 161.317 106.95 161.186 107.891 160.724C108.832 160.263 111.581 156.265 111.747 155.482C111.914 154.699 111.551 153.64 111.287 153.433C111.022 153.226 110.498 152.91 110.498 152.91Z" fill="#455A64"/>
<path d="M110.853 152.518L110.928 154.204C110.944 154.563 110.764 154.904 110.452 155.081C110.169 155.242 109.757 155.365 109.2 155.276C107.977 155.079 107.868 154.729 107.78 153.043C107.693 151.358 110.853 152.518 110.853 152.518Z" fill="#090C0E"/>
<path d="M104.555 149.668C104.555 149.668 102.932 148.847 101.935 150.07C100.938 151.292 99.5121 154.176 99.4677 156.126C99.4238 158.075 101.007 157.944 101.948 157.482C102.889 157.021 105.638 153.023 105.805 152.24C105.971 151.457 105.608 150.398 105.344 150.191C105.079 149.984 104.555 149.668 104.555 149.668Z" fill="#455A64"/>
<path d="M104.909 149.277L104.984 150.962C105 151.321 104.82 151.662 104.509 151.839C104.225 152.001 103.814 152.125 103.257 152.035C102.034 151.838 101.925 151.487 101.837 149.802C101.75 148.116 104.909 149.277 104.909 149.277Z" fill="#090C0E"/>
<path d="M119.397 118.322C118.916 110.485 110.929 119.475 110.929 119.475L105.462 124.846L100.54 130.266C99.5791 131.325 99.1315 132.754 99.3173 134.173L101.309 149.371C101.407 150.122 102.048 150.675 102.803 150.669C103.016 150.668 103.261 150.648 103.541 150.604C105.317 150.327 105.186 148.634 105.186 148.634L104.822 134.42L115.16 128.173C115.16 128.173 119.877 126.159 119.397 118.322Z" fill="#263238"/>
<path d="M125.34 121.308C124.859 113.471 116.872 122.461 116.872 122.461L111.406 127.832L106.483 133.252C105.522 134.311 105.075 135.739 105.261 137.159L107.252 152.357C107.35 153.108 107.991 153.661 108.746 153.655C108.959 153.654 109.204 153.634 109.484 153.59C111.26 153.313 111.129 151.62 111.129 151.62L110.765 137.405L121.103 131.159C121.103 131.159 125.82 129.145 125.34 121.308Z" fill="#263238"/>
<path d="M120.615 96.1508C126.67 98.6671 126.548 102.255 126.548 102.255C126.548 102.255 125.362 115.408 125.767 124.192C125.936 127.865 106.302 128.145 109.231 118.348C112.683 106.797 111.389 97.4449 113.005 96.0344C114.621 94.6238 119.048 95.4998 120.615 96.1508Z" fill="#C86485"/>
<path d="M122.563 99.332C122.246 100.564 120.635 101.213 118.965 100.782C117.295 100.351 116.197 99.0024 116.514 97.77C116.831 96.5377 118.442 95.8882 120.112 96.3192C121.782 96.7508 122.88 98.0996 122.563 99.332Z" fill="#FFC2B0"/>
<path d="M119.998 101.206C119.635 101.206 119.262 101.158 118.892 101.063C117.071 100.593 115.878 99.0828 116.233 97.6975C116.59 96.3122 118.362 95.5677 120.183 96.039C121.052 96.2623 121.805 96.7249 122.307 97.3416C122.829 97.9841 123.019 98.7162 122.843 99.4038C122.666 100.091 122.147 100.64 121.379 100.95C120.957 101.12 120.487 101.206 119.998 101.206ZM119.075 96.4759C117.951 96.4759 117.011 97.0003 116.794 97.8424C116.518 98.9181 117.524 100.11 119.037 100.501C119.785 100.694 120.54 100.662 121.163 100.411C121.755 100.173 122.152 99.7634 122.282 99.2594C122.412 98.7549 122.261 98.2042 121.858 97.7088C121.434 97.1871 120.788 96.7936 120.039 96.6004C119.712 96.5161 119.386 96.4759 119.075 96.4759Z" fill="white"/>
<path d="M118.187 95.8772C118.187 95.8772 118.239 96.1204 118.134 98.0441C118.101 98.6484 120.213 99.2131 120.76 98.6661C121.305 98.1187 121.087 97.5497 121.218 95.4919C121.349 93.434 118.187 95.8772 118.187 95.8772Z" fill="#FFC2B0"/>
<path d="M121.218 95.4917C121.218 95.4917 120.698 97.3998 118.134 98.1314L118.173 96.3972L121.218 95.4917Z" fill="#EA9C92"/>
<path d="M122.843 90.6437C123.487 93.1417 121.989 95.6907 119.496 96.3364C117.004 96.9821 114.462 95.4808 113.817 92.9828C113.173 90.4843 114.671 87.9358 117.163 87.2901C119.656 86.6439 122.198 88.1457 122.843 90.6437Z" fill="#FFC2B0"/>
<path d="M119.401 91.9847C119.401 91.9847 116.834 93.0866 115.057 93.0995C113.28 93.1124 113.672 91.6208 113.672 91.6208L118.946 90.8564L119.401 91.9847Z" fill="#EA9C92"/>
<path d="M114.528 92.2748C114.528 92.2748 116.763 91.3237 118.724 91.7204C119.185 91.8138 119.613 92.0607 119.909 92.4262C120.006 92.5459 120.129 92.6549 120.268 92.6865C120.616 92.7654 121.185 91.3194 121.861 91.2862C122.537 91.2534 122.988 91.7333 122.434 92.6226C121.879 93.5115 122.067 94.5071 122.322 94.6499C122.577 94.7927 125.282 92.716 122.896 87.9788C120.51 83.2409 114.449 85.7926 113.507 86.7528C113.507 86.7528 112.513 87.6202 111.706 86.8484C111.706 86.8484 110.801 93.6451 114.528 92.2748Z" fill="#263238"/>
<path d="M123.152 111.864V115.419C123.152 115.826 122.98 116.214 122.68 116.489L115.396 123.145L116.224 124.414L125.843 117.421C126.292 117.094 126.582 116.592 126.64 116.04L127.29 109.841L123.152 111.864Z" fill="#FFC2B0"/>
<path d="M126.036 100.478C126.036 100.478 128.246 103.809 129.069 112.577C129.069 112.577 125.294 113.801 123.152 113.107C121.009 112.411 126.036 100.478 126.036 100.478Z" fill="#C86485"/>
<path d="M122.748 104.689C122.748 104.689 121.883 109.331 121.834 111.512C121.82 112.112 122.186 112.653 122.748 112.857V104.689Z" fill="#C86485"/>
<path d="M120.858 127.767L119.249 127.553L108.856 121.539C108.523 121.347 107.941 121.371 107.556 121.593L100.192 125.854L99.2188 125.725V126.696H99.2193C99.2129 126.824 99.2857 126.947 99.4431 127.038L111.221 133.854C111.554 134.047 112.136 134.023 112.521 133.8L120.54 129.16C120.757 129.035 120.865 128.874 120.858 128.722V127.767Z" fill="#455A64"/>
<path d="M113.05 123.966L112.311 123.539H104.194L100.192 125.853L99.2188 125.725V126.696H99.2193C99.2129 126.824 99.2857 126.947 99.4431 127.038L111.221 133.854C111.397 133.956 111.643 133.996 111.892 133.98L113.05 123.966Z" fill="#455A64"/>
<path d="M99.6503 125.782L99.2188 125.725V126.696H99.2193C99.2129 126.824 99.2857 126.947 99.4431 127.038L99.6503 127.158V125.782Z" fill="#41555F"/>
<path d="M111.339 133.909C111.655 134.029 112.107 134.003 112.444 133.841V132.188H111.339V133.909Z" fill="#274F89"/>
<path d="M111.221 132.883L99.4431 126.067C99.1095 125.874 99.1518 125.538 99.5363 125.315L107.556 120.675C107.941 120.453 108.523 120.429 108.856 120.621L120.634 127.437C120.967 127.63 120.925 127.967 120.54 128.189L112.521 132.829C112.136 133.052 111.554 133.076 111.221 132.883Z" fill="white"/>
<path d="M111.021 131.85L101.228 126.183C100.951 126.023 100.986 125.742 101.306 125.557L105.603 123.135C105.924 122.95 106.407 122.93 106.684 123.09L116.477 128.757C116.754 128.918 116.72 129.198 116.4 129.383L112.102 131.805C111.782 131.991 111.299 132.011 111.021 131.85Z" fill="#E0E0E0"/>
<path d="M108.011 120.452L107.889 121.266C107.786 121.96 107.804 122.667 107.942 123.355L108.087 124.072C108.169 124.478 108.489 124.792 108.894 124.866C109.211 124.923 109.51 124.7 109.546 124.379L109.74 122.638C109.74 122.638 110.185 123.222 110.4 123.222C110.614 123.222 110.159 121.478 109.674 120.491C109.189 119.504 108.011 120.452 108.011 120.452Z" fill="#FFC2B0"/>
<path d="M112.004 107.506L110.74 110.013C110.441 110.606 110.265 111.253 110.223 111.916L109.674 120.492L108.011 120.452L107.257 110.822C107.233 110.524 107.248 110.225 107.3 109.931L108.162 105.048L112.004 107.506Z" fill="#FFC2B0"/>
<path d="M110.822 133.538L109.834 132.246L99.449 126.219C99.1159 126.026 98.8466 125.508 98.8471 125.063L98.8562 116.54L98.2592 115.759L98.8203 115.433L98.8209 115.434C98.928 115.364 99.0709 115.367 99.2278 115.457L110.997 122.288C111.33 122.481 111.6 122.999 111.599 123.444L111.589 132.725C111.589 132.976 111.503 133.15 111.369 133.22L110.822 133.538Z" fill="#455A64"/>
<path d="M103.64 128.651L102.902 128.223L98.8519 121.171L98.8562 116.54L98.2592 115.759L98.8203 115.433L98.8209 115.434C98.928 115.364 99.0709 115.367 99.2278 115.457L110.997 122.288C111.173 122.39 111.331 122.583 111.441 122.807L103.64 128.651Z" fill="#455A64"/>
<path d="M98.5242 116.106L98.2592 115.759L98.8203 115.433L98.8209 115.434C98.928 115.364 99.0709 115.367 99.2278 115.457L99.4356 115.578L98.5242 116.106Z" fill="#41555F"/>
<path d="M111.104 122.364C111.366 122.578 111.568 122.983 111.596 123.357L110.446 124.023L109.895 123.064L111.104 122.364Z" fill="#274F89"/>
<path d="M110.437 122.613L98.6671 115.783C98.3346 115.59 98.0642 115.795 98.0636 116.24L98.0535 125.521C98.0529 125.966 98.3223 126.484 98.6553 126.677L110.425 133.508C110.758 133.7 111.028 133.496 111.029 133.051L111.038 123.769C111.039 123.324 110.77 122.807 110.437 122.613Z" fill="white"/>
<path d="M116.224 124.414L116.035 124.805C115.818 125.257 115.477 125.636 115.051 125.899L113.882 126.621C113.519 126.845 113.058 126.864 112.689 126.648C112.675 126.641 112.663 126.633 112.649 126.624C112.278 126.391 112.244 125.856 112.55 125.541L113.772 124.282C113.772 124.282 113.085 124.809 112.893 124.597C112.751 124.442 113.558 123.682 114.177 123.658C114.797 123.633 115.396 123.145 115.396 123.145L116.224 124.414Z" fill="#FFC2B0"/>
<path d="M113.126 96.0161C113.126 96.0161 108.648 100.9 106.841 105.381C106.841 105.381 108.372 108.147 112.121 109.232C115.87 110.318 113.126 96.0161 113.126 96.0161Z" fill="#C86485"/>
<path d="M111.278 108.942L112.003 101.914L110.293 108.499C110.598 108.658 110.928 108.806 111.278 108.942Z" fill="#C86485"/>
<path d="M116.481 95.0304L115.277 94.6987C115.277 94.6987 115.851 95.6047 116.691 95.8355C117.529 96.0669 117.66 95.3552 117.66 95.3552L116.481 95.0304Z" fill="white"/>
<path opacity="0.5" d="M21.0433 135.036C17.8115 136.906 12.5717 136.906 9.33983 135.036C6.10797 133.165 6.10792 130.133 9.33967 128.263C12.5714 126.393 17.8112 126.393 21.0431 128.263C24.275 130.133 24.275 133.165 21.0433 135.036Z" fill="#C4D9E8"/>
<path opacity="0.5" d="M69.8865 162.857C66.6549 164.728 61.4146 164.728 58.183 162.857C54.9513 160.987 54.9508 157.955 58.183 156.085C61.4146 154.214 66.6543 154.214 69.886 156.085C73.1181 157.955 73.1181 160.987 69.8865 162.857Z" fill="#C4D9E8"/>
<path d="M9.96289 66.793C9.96289 66.793 10.2007 71.7074 10.5738 75.0099C10.947 78.3125 18.8823 72.4733 18.8823 72.4733V68.7129L9.96289 66.793Z" fill="#C86485"/>
<path d="M14.1894 127.936C14.3086 128.235 16.3646 130.744 18.4207 131.371C19.3146 131.644 19.9156 131.679 20.3095 131.633C20.7048 131.585 20.949 131.177 20.8158 130.801C20.4619 129.803 19.4477 127.723 16.8712 126.443C13.3848 124.711 14.1894 127.936 14.1894 127.936Z" fill="#455A64"/>
<path d="M13.5041 128.9C13.5041 128.9 14.2788 130.722 14.5172 132.245C14.6626 133.174 14.1539 134.381 13.735 135.181C13.475 135.678 12.816 135.79 12.4017 135.413C11.7298 134.801 10.8744 133.74 10.7329 132.215C10.4945 129.647 10.7329 129.198 10.7329 129.198L13.5041 128.9Z" fill="#455A64"/>
<path d="M8.55112 97.8543C8.55112 97.8543 8.28284 101.094 8.55112 104.678C8.81934 108.262 9.77931 125.024 9.9581 129.056C9.9581 129.056 9.86868 130.277 12.2265 130.008C14.5842 129.739 14.3943 128.384 14.3943 128.384C14.3943 128.384 17.7055 128.339 17.8098 126.383C17.9141 124.427 21.2012 103.021 21.2012 95.3257L8.55112 97.8543Z" fill="#263238"/>
<path d="M20.0615 81.1289L21.9711 92.8363L23.7085 92.8057L23.5488 82.0779L20.0615 81.1289Z" fill="#FFC2B0"/>
<path d="M19.2611 70.7628C19.2611 70.7628 21.8383 70.6957 22.7354 74.4293C23.6325 78.1623 24.3343 82.8368 23.5539 83.2254C21.2117 84.3912 19.7295 83.0268 19.7295 83.0268L19.2611 70.7628Z" fill="#C86485"/>
<path d="M20.0325 70.9217C19.5927 70.7376 19.0995 70.7129 18.6415 70.8449C16.446 71.4767 8.19074 73.9054 6.83029 75.0707C5.25842 76.4179 9.18765 83.9854 9.131 86.4663C9.07435 88.9476 8.79536 91.8729 8.57672 94.57C8.35803 97.2676 8.06196 98.7464 10.263 99.8928C12.464 101.04 16.2219 101.092 19.035 98.9444C21.8481 96.7958 21.3377 95.3257 21.2207 93.7659C21.1036 92.2062 20.1457 85.4604 20.2287 83.5453C20.2287 83.5453 21.2198 82.8132 21.9541 81.5583C22.6883 80.3029 21.3915 77.9959 20.853 76.4958C20.3145 74.9961 21.1568 73.2807 20.9901 72.0569C20.9043 71.4268 20.5028 71.1182 20.0325 70.9217Z" fill="#C86485"/>
<path d="M17.3934 73.5014C17.5676 74.8642 16.3202 76.1475 14.6074 76.3676C12.8945 76.5877 11.3647 75.6607 11.1906 74.2979C11.0164 72.9351 12.2637 71.6518 13.9766 71.4317C15.6895 71.2117 17.2192 72.1386 17.3934 73.5014Z" fill="white"/>
<path d="M16.5088 73.6152C16.6333 74.5893 15.7417 75.5066 14.5175 75.6639C13.2932 75.8206 12.1998 75.1583 12.0753 74.1846C11.9508 73.2105 12.8424 72.2932 14.0666 72.1359C15.2909 71.9786 16.3843 72.641 16.5088 73.6152Z" fill="#FFC2B0"/>
<path d="M15.2919 70.4168C15.2919 70.4168 13.8019 69.1882 13.5091 69.8108C13.2163 70.4329 12.9751 73.1027 12.9751 73.1027L15.9345 73.8997L15.4854 71.1946C15.4854 71.1946 16.0777 70.6911 15.2919 70.4168Z" fill="#FFC2B0"/>
<path d="M18.9573 69.9953C20.4812 68.0845 20.1715 65.2977 18.2655 63.7702C16.3594 62.2426 13.5789 62.5534 12.055 64.4636C10.5311 66.3739 10.8409 69.1612 12.7469 70.6887C14.6529 72.2163 17.4334 71.9055 18.9573 69.9953Z" fill="#FFC2B0"/>
<path d="M13.3028 70.5842C13.2764 70.7238 13.2514 70.8735 13.2274 71.026C13.5247 72.567 15.8252 73.2416 15.8252 73.2416L15.4854 71.1945C15.4854 71.1945 15.7642 70.9573 15.6853 70.72C14.7761 70.4323 13.6303 70.1774 13.3028 70.5842Z" fill="#EA9C92"/>
<path d="M18.9573 69.9953C20.4812 68.0845 20.1715 65.2977 18.2655 63.7702C16.3594 62.2426 13.5789 62.5534 12.055 64.4636C10.5311 66.3739 10.8409 69.1612 12.7469 70.6887C14.6529 72.2163 17.4334 71.9055 18.9573 69.9953Z" fill="#FFC2B0"/>
<path d="M4.61914 85.9775L5.11387 97.8299L6.84241 98.0086L7.96762 87.3387L4.61914 85.9775Z" fill="#FFC2B0"/>
<path d="M10.3002 84.9867C9.72804 82.456 8.59807 76.8647 8.59807 76.8647L8.11511 82.4259C8.67239 84.0753 9.15111 85.5895 9.13109 86.4665C9.09783 87.9227 8.98731 89.5329 8.85804 91.1592L8.8582 91.1641C8.8582 91.1641 10.8724 87.5175 10.3002 84.9867Z" fill="#C86485"/>
<path d="M7.16048 74.8281C7.16048 74.8281 5.77823 75.3573 4.99591 79.6132C4.21351 83.869 3.6285 88.1323 5.02316 88.6814C6.41781 89.231 7.58324 89.6438 7.99331 88.5054C8.40333 87.3675 8.65747 81.8825 8.70893 79.91C8.76039 77.9375 8.83542 75.2178 7.16048 74.8281Z" fill="#C86485"/>
<path d="M14.3943 128.384C14.3943 128.384 14.8046 128.378 15.3404 128.286L15.9887 102.231L14.3943 128.384Z" fill="#090C0E"/>
<path d="M11.8922 114.31L10.9724 113.107L1.29963 107.493C0.989535 107.313 0.738549 106.831 0.739031 106.416L0.747438 98.4782L0.191284 97.7504L0.713863 97.4471L0.714398 97.4476C0.81448 97.3832 0.947387 97.3848 1.09368 97.4697L12.0558 103.832C12.3659 104.011 12.6169 104.493 12.6164 104.908L12.6072 113.553C12.6069 113.787 12.5271 113.949 12.4021 114.014L11.8922 114.31Z" fill="#C86485"/>
<path d="M5.20304 109.758L4.51585 109.36L0.743421 102.791L0.747438 98.4782L0.191284 97.7504L0.713863 97.4471L0.714398 97.4476C0.81448 97.3832 0.947387 97.3848 1.09368 97.4697L12.0558 103.832C12.2197 103.927 12.3666 104.106 12.4691 104.316L5.20304 109.758Z" fill="#D29FFF"/>
<path d="M0.438089 98.0735L0.191284 97.7504L0.713863 97.4471L0.714398 97.4476C0.81448 97.3832 0.947387 97.3848 1.09368 97.4697L1.28688 97.5818L0.438089 98.0735Z" fill="#D29FFF"/>
<path d="M12.1555 103.902C12.399 104.102 12.5877 104.479 12.6134 104.827L11.5422 105.447L11.0289 104.553L12.1555 103.902Z" fill="#C86485"/>
<path d="M11.5338 104.134L0.571677 97.7726C0.261526 97.5923 0.00974115 97.7828 0.00925921 98.1977L7.08371e-07 106.842C-0.000486582 107.257 0.250495 107.739 0.560593 107.919L11.5227 114.281C11.8328 114.461 12.0846 114.27 12.0851 113.856L12.0944 105.211C12.0949 104.796 11.8439 104.314 11.5338 104.134Z" fill="#C86485"/>
<path d="M5.12757 97.73C5.12757 97.73 4.67059 100.496 4.73935 101.382C4.8081 102.269 5.2812 103.73 5.64036 103.7C5.99945 103.668 5.65225 100.136 6.28294 100.488C6.91363 100.84 6.97987 101.443 7.26544 101.23C7.55107 101.017 6.76734 97.9978 6.97639 96.6887C7.18539 95.3796 5.12757 97.73 5.12757 97.73Z" fill="#FFC2B0"/>
<path d="M23.7086 92.8051C23.7086 92.8051 24.1655 95.572 24.0968 96.4582C24.028 97.3438 23.5549 98.8054 23.1957 98.7748C22.8366 98.7436 23.1838 95.2114 22.5531 95.5635C21.9224 95.915 21.8562 96.5189 21.5706 96.3052C21.285 96.0921 22.0688 93.073 21.8597 91.7639C21.6507 90.4548 23.7086 92.8051 23.7086 92.8051Z" fill="#FFC2B0"/>
<path d="M17.2031 67.6161C19.4197 68.4051 19.8513 67.9236 19.8724 67.8979C19.8927 67.7642 19.9089 67.6284 19.9171 67.4905C19.946 66.9999 19.8907 66.5249 19.7697 66.0756L14.019 65.2974C14.019 65.2974 14.927 66.8056 17.2031 67.6161Z" fill="#EA9C92"/>
<path d="M20.0763 63.0782C19.554 62.6289 17.6688 60.4101 14.292 60.9334C12.1814 61.2608 10.4025 62.7041 10.0078 65.9959C9.74196 68.2143 10.5542 70.3988 12.0502 72.0139C12.1314 71.9763 12.2151 71.9419 12.2902 71.892C13.136 71.3343 13.2272 71.0273 13.2271 71.0246L13.414 69.3446C13.408 69.1063 13.2301 68.8943 12.9927 68.8793C12.809 68.8675 12.5861 68.7795 12.3739 68.5009C11.8888 67.8654 12.1127 66.874 13.0828 66.837C13.5897 66.8171 13.7859 66.5423 13.8577 66.2847C13.9202 66.0598 14.1565 65.9353 14.3753 66.0142C15.4789 66.4146 18.1983 67.2777 19.9485 66.7806C22.1874 66.1446 20.5987 63.5269 20.0763 63.0782Z" fill="#263238"/>
<path d="M17.5582 69.6171L18.9099 69.2446C18.9099 69.2446 18.2646 70.2623 17.3225 70.5215C16.3804 70.7813 16.2339 69.9816 16.2339 69.9816L17.5582 69.6171Z" fill="white"/>
<path d="M7.4257 101.144L6.27393 100.483L6.7066 101.191L7.28888 101.407L7.4257 101.144Z" fill="#D29FFF"/>
<path opacity="0.5" d="M38.3842 154.831L25.2554 147.234C24.4496 146.767 24.5507 145.953 25.4811 145.414L38.1581 138.078C39.0885 137.54 40.4959 137.481 41.3017 137.948L54.4303 145.545C55.2362 146.012 55.135 146.826 54.2049 147.365L41.5279 154.701C40.5975 155.239 39.19 155.298 38.3842 154.831Z" fill="#C4D9E8"/>
<path d="M58.7859 139.758V134.073L46.0662 134.066L41.6696 131.521C40.6606 130.937 38.8981 131.011 37.733 131.685L33.6311 134.059L20.9001 134.051V139.899C20.8713 140.294 21.0912 140.676 21.5761 140.956L38.0163 150.47C39.0252 151.054 40.7877 150.981 41.9528 150.306L57.8269 141.12C58.4994 140.731 58.8234 140.228 58.7859 139.758Z" fill="#455A64"/>
<path d="M39.8431 131.13C39.1047 131.148 38.3384 131.335 37.733 131.685L33.6311 134.059L20.9001 134.052V139.899C20.8713 140.295 21.0912 140.676 21.5761 140.956L38.0163 150.47C38.5011 150.751 39.1602 150.878 39.8431 150.862V131.13Z" fill="#455A64"/>
<path d="M22.3409 134.052L20.9001 134.051V139.899C20.8713 140.294 21.0912 140.676 21.5761 140.956L22.3409 141.399V134.052Z" fill="#41555F"/>
<path d="M38.2695 150.594C39.1397 150.968 40.3986 150.947 41.4162 150.558V143.919H38.2695V150.594Z" fill="#41555F"/>
<path d="M38.0163 144.643L21.5761 135.129C20.5671 134.545 20.6936 133.525 21.8587 132.851L37.733 123.665C38.8981 122.99 40.6606 122.917 41.6696 123.501L58.1096 133.015C59.119 133.599 58.9921 134.619 57.8274 135.293L41.9528 144.48C40.7877 145.154 39.0253 145.227 38.0163 144.643Z" fill="#E0E0E0"/>
<path d="M38.3122 142.932L24.5352 134.959C23.6896 134.469 23.7957 133.614 24.772 133.05L38.0749 125.351C39.0512 124.786 40.5282 124.725 41.3737 125.214L55.1506 133.187C55.9961 133.676 55.8901 134.531 54.9139 135.096L41.6111 142.794C40.6347 143.36 39.1578 143.421 38.3122 142.932Z" fill="#41555F"/>
<path d="M52.7389 141.259C52.7389 141.683 52.4416 142.199 52.0749 142.412C51.7082 142.624 51.4109 142.452 51.4109 142.028C51.4109 141.603 51.7082 141.087 52.0749 140.875C52.4416 140.662 52.7389 140.834 52.7389 141.259Z" fill="#E0E0E0"/>
<path d="M54.8753 140.022C54.8753 140.447 54.5781 140.963 54.2113 141.175C53.8445 141.388 53.5472 141.215 53.5472 140.791C53.5472 140.367 53.8445 139.85 54.2113 139.638C54.5781 139.426 54.8753 139.598 54.8753 140.022Z" fill="#E0E0E0"/>
<path d="M57.0118 138.786C57.0118 139.211 56.7146 139.727 56.3478 139.939C55.981 140.151 55.6838 139.979 55.6838 139.555C55.6838 139.13 55.981 138.614 56.3478 138.402C56.7146 138.19 57.0118 138.362 57.0118 138.786Z" fill="#E0E0E0"/>
<path d="M58.7859 130.672V124.986L46.0662 124.979L41.6696 122.434C40.6606 121.851 38.8981 121.924 37.733 122.598L33.6311 124.972L20.9001 124.965V130.812C20.8713 131.208 21.0912 131.589 21.5761 131.87L38.0163 141.384C39.0252 141.968 40.7877 141.895 41.9528 141.22L57.8269 132.034C58.4994 131.645 58.8234 131.141 58.7859 130.672Z" fill="#455A64"/>
<path d="M39.8431 122.043C39.1047 122.061 38.3384 122.248 37.733 122.598L33.6311 124.972L20.9001 124.965V130.813C20.8713 131.208 21.0912 131.589 21.5761 131.87L38.0163 141.384C38.5011 141.664 39.1602 141.792 39.8431 141.775V122.043Z" fill="#455A64"/>
<path d="M22.3409 124.966L20.9001 124.965V130.813C20.8713 131.208 21.0912 131.589 21.5761 131.87L22.3409 132.313V124.966Z" fill="#41555F"/>
<path d="M38.2695 141.508C39.1397 141.882 40.3986 141.861 41.4162 141.472V134.833H38.2695V141.508Z" fill="#41555F"/>
<path d="M38.0163 135.557L21.5761 126.044C20.5671 125.46 20.6936 124.439 21.8587 123.765L37.733 114.579C38.8981 113.905 40.6606 113.831 41.6696 114.415L58.1096 123.929C59.119 124.513 58.9921 125.533 57.8274 126.207L41.9528 135.394C40.7877 136.068 39.0253 136.141 38.0163 135.557Z" fill="#E0E0E0"/>
<path d="M38.3122 133.845L24.5352 125.872C23.6896 125.383 23.7957 124.528 24.772 123.963L38.0749 116.265C39.0512 115.7 40.5282 115.638 41.3737 116.128L55.1506 124.101C55.9961 124.59 55.8901 125.445 54.9139 126.01L41.6111 133.708C40.6347 134.273 39.1578 134.335 38.3122 133.845Z" fill="#41555F"/>
<path d="M52.7389 132.172C52.7389 132.597 52.4416 133.113 52.0749 133.325C51.7082 133.537 51.4109 133.366 51.4109 132.941C51.4109 132.516 51.7082 132.001 52.0749 131.788C52.4416 131.576 52.7389 131.748 52.7389 132.172Z" fill="#E0E0E0"/>
<path d="M54.8753 130.936C54.8753 131.361 54.5781 131.877 54.2113 132.089C53.8445 132.301 53.5472 132.129 53.5472 131.705C53.5472 131.28 53.8445 130.764 54.2113 130.552C54.5781 130.34 54.8753 130.512 54.8753 130.936Z" fill="#E0E0E0"/>
<path d="M57.0118 129.7C57.0118 130.124 56.7146 130.64 56.3478 130.853C55.981 131.065 55.6838 130.893 55.6838 130.468C55.6838 130.044 55.981 129.528 56.3478 129.315C56.7146 129.103 57.0118 129.275 57.0118 129.7Z" fill="#E0E0E0"/>
<path d="M58.7859 121.586V115.9L46.0662 115.893L41.6696 113.348C40.6606 112.764 38.8981 112.837 37.733 113.512L33.6311 115.886L20.9001 115.879V121.726C20.8713 122.121 21.0912 122.503 21.5761 122.783L38.0163 132.298C39.0252 132.882 40.7877 132.808 41.9528 132.134L57.8269 122.947C58.4994 122.558 58.8234 122.054 58.7859 121.586Z" fill="#455A64"/>
<path d="M39.8431 112.957C39.1047 112.975 38.3384 113.162 37.733 113.512L33.6311 115.885L20.9001 115.879V121.726C20.8713 122.121 21.0912 122.503 21.5761 122.783L38.0163 132.297C38.5011 132.578 39.1602 132.705 39.8431 132.689V112.957Z" fill="#455A64"/>
<path d="M22.3409 115.88L20.9001 115.879V121.727C20.8713 122.122 21.0912 122.503 21.5761 122.784L22.3409 123.226V115.88Z" fill="#41555F"/>
<path d="M38.2695 132.422C39.1397 132.796 40.3986 132.775 41.4162 132.386V125.746H38.2695V132.422Z" fill="#41555F"/>
<path d="M38.0163 126.471L21.5761 116.957C20.5671 116.373 20.6936 115.353 21.8587 114.679L37.733 105.492C38.8981 104.818 40.6606 104.745 41.6696 105.329L58.1096 114.843C59.119 115.427 58.9921 116.447 57.8274 117.121L41.9528 126.308C40.7877 126.982 39.0253 127.055 38.0163 126.471Z" fill="#E0E0E0"/>
<path d="M38.3122 124.759L24.5352 116.786C23.6896 116.296 23.7957 115.442 24.772 114.877L38.0749 107.178C39.0512 106.614 40.5282 106.552 41.3737 107.041L55.1506 115.014C55.9961 115.504 55.8901 116.358 54.9139 116.923L41.6111 124.622C40.6347 125.187 39.1578 125.248 38.3122 124.759Z" fill="#41555F"/>
<path d="M52.7389 123.086C52.7389 123.511 52.4416 124.027 52.0749 124.239C51.7082 124.451 51.4109 124.279 51.4109 123.855C51.4109 123.43 51.7082 122.914 52.0749 122.702C52.4416 122.49 52.7389 122.661 52.7389 123.086Z" fill="#E0E0E0"/>
<path d="M54.8753 121.85C54.8753 122.275 54.5781 122.79 54.2113 123.003C53.8445 123.215 53.5472 123.043 53.5472 122.619C53.5472 122.194 53.8445 121.678 54.2113 121.466C54.5781 121.254 54.8753 121.426 54.8753 121.85Z" fill="#E0E0E0"/>
<path d="M57.0118 120.613C57.0118 121.038 56.7146 121.554 56.3478 121.766C55.981 121.979 55.6838 121.806 55.6838 121.382C55.6838 120.957 55.981 120.441 56.3478 120.229C56.7146 120.017 57.0118 120.189 57.0118 120.613Z" fill="#E0E0E0"/>
<path d="M58.7859 112.499V106.813L46.0662 106.806L41.6696 104.262C40.6606 103.678 38.8981 103.751 37.733 104.426L33.6311 106.799L20.9001 106.792V112.64C20.8713 113.035 21.0912 113.416 21.5761 113.697L38.0163 123.211C39.0252 123.795 40.7877 123.721 41.9528 123.047L57.8269 113.861C58.4994 113.472 58.8234 112.968 58.7859 112.499Z" fill="#455A64"/>
<path d="M39.8431 103.871C39.1047 103.889 38.3384 104.075 37.733 104.426L33.6311 106.8L20.9001 106.792V112.64C20.8713 113.035 21.0912 113.417 21.5761 113.697L38.0163 123.211C38.5011 123.492 39.1602 123.619 39.8431 123.602V103.871Z" fill="#455A64"/>
<path d="M22.3409 106.793L20.9001 106.792V112.64C20.8713 113.035 21.0912 113.416 21.5761 113.697L22.3409 114.139V106.793Z" fill="#41555F"/>
<path d="M38.2695 123.336C39.1397 123.709 40.3986 123.688 41.4162 123.3V116.66H38.2695V123.336Z" fill="#41555F"/>
<path d="M38.0163 117.385L21.5761 107.87C20.5671 107.286 20.6936 106.267 21.8587 105.593L37.733 96.4057C38.8981 95.7315 40.6606 95.6585 41.6696 96.2425L58.1096 105.756C59.119 106.34 58.9921 107.36 57.8274 108.035L41.9528 117.221C40.7877 117.895 39.0253 117.969 38.0163 117.385Z" fill="#E0E0E0"/>
<path d="M38.3122 115.672L24.5352 107.699C23.6896 107.21 23.7957 106.355 24.772 105.791L38.0749 98.092C39.0512 97.5268 40.5282 97.4656 41.3737 97.9546L55.1506 105.927C55.9961 106.417 55.8901 107.272 54.9139 107.837L41.6111 115.535C40.6347 116.1 39.1578 116.161 38.3122 115.672Z" fill="#41555F"/>
<path d="M52.7389 114C52.7389 114.424 52.4416 114.941 52.0749 115.153C51.7082 115.365 51.4109 115.193 51.4109 114.769C51.4109 114.344 51.7082 113.828 52.0749 113.616C52.4416 113.403 52.7389 113.576 52.7389 114Z" fill="#E0E0E0"/>
<path d="M54.8753 112.764C54.8753 113.188 54.5781 113.705 54.2113 113.917C53.8445 114.129 53.5472 113.957 53.5472 113.532C53.5472 113.108 53.8445 112.592 54.2113 112.379C54.5781 112.167 54.8753 112.34 54.8753 112.764Z" fill="#E0E0E0"/>
<path d="M57.0118 111.527C57.0118 111.951 56.7146 112.467 56.3478 112.68C55.981 112.892 55.6838 112.72 55.6838 112.296C55.6838 111.871 55.981 111.355 56.3478 111.143C56.7146 110.93 57.0118 111.103 57.0118 111.527Z" fill="#E0E0E0"/>
<path d="M58.7859 103.413V97.727L46.0662 97.7201L41.6696 95.1754C40.6606 94.5914 38.8981 94.6649 37.733 95.3391L33.6311 97.7131L20.9001 97.7056V103.553C20.8713 103.948 21.0912 104.33 21.5761 104.611L38.0163 114.124C39.0252 114.708 40.7877 114.635 41.9528 113.961L57.8269 104.774C58.4994 104.385 58.8234 103.882 58.7859 103.413Z" fill="#455A64"/>
<path d="M39.8431 94.7847C39.1047 94.8024 38.3384 94.9892 37.733 95.3391L33.6311 97.7131L20.9001 97.7061V103.553C20.8713 103.949 21.0912 104.33 21.5761 104.611L38.0163 114.125C38.5011 114.405 39.1602 114.532 39.8431 114.516V94.7847Z" fill="#455A64"/>
<path d="M22.3409 97.7066L20.9001 97.7061V103.553C20.8713 103.949 21.0912 104.33 21.5761 104.611L22.3409 105.054V97.7066Z" fill="#41555F"/>
<path d="M38.2695 114.249C39.1397 114.623 40.3986 114.602 41.4162 114.213V107.574H38.2695V114.249Z" fill="#41555F"/>
<path d="M38.0163 108.298L21.5761 98.784C20.5671 98.2006 20.6936 97.1802 21.8587 96.5061L37.733 87.3197C38.8981 86.6451 40.6606 86.5721 41.6696 87.156L58.1096 96.6698C59.119 97.2537 58.9921 98.2741 57.8274 98.9482L41.9528 108.135C40.7877 108.809 39.0253 108.882 38.0163 108.298Z" fill="#E0E0E0"/>
<path d="M38.3122 106.586L24.5352 98.6132C23.6896 98.1237 23.7957 97.2692 24.772 96.704L38.0749 89.0055C39.0512 88.4403 40.5282 88.3791 41.3737 88.8686L55.1506 96.8414C55.9961 97.3304 55.8901 98.1854 54.9139 98.7501L41.6111 106.449C40.6347 107.014 39.1578 107.075 38.3122 106.586Z" fill="#41555F"/>
<path d="M52.0621 105.254L45.465 109.067L45.5988 109.299L52.1959 105.487L52.0621 105.254Z" fill="white"/>
<path d="M52.7388 104.914C52.7388 105.338 52.4415 105.854 52.0748 106.067C51.7081 106.279 51.4108 106.107 51.4108 105.682C51.4108 105.258 51.7081 104.741 52.0748 104.529C52.4415 104.317 52.7388 104.489 52.7388 104.914Z" fill="#E0E0E0"/>
<path d="M54.8753 103.678C54.8753 104.102 54.5782 104.618 54.2113 104.83C53.8445 105.042 53.5472 104.87 53.5472 104.446C53.5472 104.022 53.8445 103.505 54.2113 103.293C54.5782 103.081 54.8753 103.253 54.8753 103.678Z" fill="#E0E0E0"/>
<path d="M57.0118 102.441C57.0118 102.866 56.7141 103.381 56.3478 103.594C55.981 103.806 55.6838 103.634 55.6838 103.21C55.6838 102.785 55.981 102.269 56.3478 102.057C56.7141 101.845 57.0118 102.016 57.0118 102.441Z" fill="#E0E0E0"/>
<path d="M58.7859 94.2645V88.5783L46.0662 88.5713L41.6696 86.0271C40.6606 85.4431 38.8981 85.5161 37.733 86.1908L33.6311 88.5643L20.9001 88.5573V94.4051C20.8713 94.8002 21.0912 95.1818 21.5761 95.462L38.0163 104.976C39.0252 105.56 40.7877 105.487 41.9528 104.813L57.8269 95.6262C58.4994 95.2371 58.8234 94.7331 58.7859 94.2645Z" fill="#455A64"/>
<path d="M39.8431 85.6357C39.1047 85.654 38.3384 85.8402 37.733 86.1907L33.6311 88.5647L20.9001 88.5572V94.405C20.8713 94.8001 21.0912 95.1817 21.5761 95.4624L38.0163 104.976C38.5011 105.257 39.1602 105.384 39.8431 105.367V85.6357Z" fill="#455A64"/>
<path d="M22.3409 88.5587L20.9001 88.5576V94.4054C20.8713 94.8005 21.0912 95.1821 21.5761 95.4628L22.3409 95.9051V88.5587Z" fill="#41555F"/>
<path d="M38.2695 105.101C39.1397 105.474 40.3986 105.453 41.4162 105.065V98.4248H38.2695V105.101Z" fill="#41555F"/>
<path d="M38.0163 99.15L21.5761 89.6357C20.5671 89.0517 20.6936 88.0319 21.8587 87.3578L37.733 78.1709C38.8981 77.4968 40.6606 77.4238 41.6696 78.0072L58.1096 87.5215C59.119 88.1054 58.9921 89.1252 57.8274 89.7994L41.9528 98.9863C40.7877 99.6604 39.0253 99.7334 38.0163 99.15Z" fill="#E0E0E0"/>
<path d="M57.8274 88.6809L41.9528 97.8672C40.7878 98.5414 39.0253 98.6149 38.0162 98.0309L21.5761 88.5167C21.3511 88.3868 21.1858 88.2343 21.0726 88.069C20.726 88.6283 20.8832 89.2348 21.5761 89.6358L38.0162 99.15C39.0253 99.734 40.7878 99.6605 41.9528 98.9863L57.8274 89.8C58.7324 89.2762 59.0076 88.544 58.6135 87.9697C58.455 88.2247 58.1921 88.47 57.8274 88.6809Z" fill="white"/>
<path d="M52.7389 95.7649C52.7389 96.1894 52.4416 96.7058 52.0749 96.9178C51.7082 97.1304 51.4109 96.9581 51.4109 96.5335C51.4109 96.1095 51.7082 95.5931 52.0749 95.3811C52.4416 95.1686 52.7389 95.3409 52.7389 95.7649Z" fill="#E0E0E0"/>
<path d="M46.196 99.3699C46.196 99.7945 45.8987 100.31 45.5319 100.523C45.1652 100.735 44.8679 100.563 44.8679 100.139C44.8679 99.7139 45.1652 99.1976 45.5319 98.9856C45.8987 98.773 46.196 98.9453 46.196 99.3699Z" fill="#E0E0E0"/>
<path d="M46.196 108.798C46.196 109.223 45.8987 109.739 45.5319 109.951C45.1652 110.163 44.8679 109.992 44.8679 109.567C44.8679 109.142 45.1652 108.627 45.5319 108.414C45.8987 108.202 46.196 108.374 46.196 108.798Z" fill="white"/>
<path d="M54.8753 94.5286C54.8753 94.9531 54.5782 95.469 54.2113 95.6815C53.8445 95.8935 53.5472 95.7212 53.5472 95.2972C53.5472 94.8726 53.8445 94.3563 54.2113 94.1443C54.5782 93.9317 54.8753 94.104 54.8753 94.5286Z" fill="#E0E0E0"/>
<path d="M57.0118 93.2927C57.0118 93.7168 56.7146 94.2331 56.3478 94.4451C55.981 94.6577 55.6838 94.4854 55.6838 94.0608C55.6838 93.6368 55.981 93.1205 56.3478 92.9084C56.7146 92.6959 57.0118 92.8682 57.0118 93.2927Z" fill="#E0E0E0"/>
<path d="M38.9884 93.2512L31.2952 88.7994C30.823 88.5262 30.8822 88.0485 31.4275 87.7335L38.8559 83.4342C39.4011 83.1186 40.2259 83.0848 40.698 83.358L48.3912 87.8097C48.8634 88.0829 48.8041 88.5606 48.259 88.8757L40.8305 93.175C40.2853 93.49 39.4606 93.5244 38.9884 93.2512Z" fill="#41555F"/>
<path d="M39.725 89.5238L38.6605 88.9081C38.5952 88.87 38.6035 88.804 38.6789 88.7605L39.7066 88.1658C39.7821 88.1218 39.8962 88.117 39.9615 88.1551L41.0259 88.7713C41.0912 88.8089 41.0831 88.8749 41.0076 88.9183L39.9799 89.5131C39.9044 89.5571 39.7903 89.5619 39.725 89.5238Z" fill="#E0E0E0"/>
<path d="M31.2952 88.7994L31.3169 88.8118C31.3528 88.786 31.386 88.7597 31.4275 88.7356L38.8559 84.4368C39.4011 84.1212 40.2258 84.0869 40.698 84.3601L48.3694 88.8C48.8046 88.4876 48.8274 88.0625 48.3912 87.8097L40.698 83.358C40.2258 83.0848 39.4011 83.1186 38.8559 83.4342L31.4275 87.7329C30.8822 88.0485 30.8231 88.5262 31.2952 88.7994Z" fill="#455A64"/>
<path d="M71.8952 155.415C72.8076 155.806 73.3822 156.826 73.3062 157.923C73.2703 158.439 73.2082 158.922 73.1005 159.148C72.8103 159.759 71.8582 160.598 70.3385 159.996C68.8194 159.394 65.4447 156.216 65.3184 154.136C65.0833 150.271 69.4914 154.387 71.8952 155.415Z" fill="#455A64"/>
<path d="M62.9676 161.806C62.9676 161.806 63.3317 164.034 63.155 164.443C62.9778 164.851 61.9202 165.723 60.3582 165.535C58.7956 165.346 54.3008 163.792 53.2997 160.823C51.7478 156.22 61.9759 161.169 61.9759 161.169L62.9676 161.806Z" fill="#455A64"/>
<path d="M58.5755 126.19L58.2274 160.97C58.2638 162.18 59.0542 163.202 60.1177 163.381C60.2489 163.404 60.3897 163.422 60.5402 163.435C61.6165 163.53 62.2435 163.067 62.6018 162.581C62.8915 162.187 63.0436 161.687 63.0655 161.176L63.5084 146.329L65.7199 133.054L68.7797 156.549C68.8284 157.185 69.132 157.772 69.6204 158.096C69.9577 158.319 70.415 158.493 71.0153 158.475C71.8908 158.449 72.4991 157.979 72.8702 157.559C73.1642 157.227 73.319 156.77 73.3131 156.302L72.1002 142.165L71.6488 124.133L58.5755 126.19Z" fill="#263238"/>
<path d="M73.0699 114.767C73.0068 114.767 72.943 114.762 72.8793 114.752L67.3365 113.892C66.6559 113.786 66.1901 113.147 66.2955 112.465C66.4005 111.784 67.0345 111.314 67.7183 111.422L71.5427 112.015L70.2378 104.522C70.1189 103.842 70.573 103.195 71.2514 103.076C71.9299 102.956 72.5752 103.412 72.6935 104.093L74.2978 113.302C74.3674 113.699 74.2416 114.105 73.9599 114.393C73.7238 114.634 73.4019 114.767 73.0699 114.767Z" fill="#FFC2B0"/>
<path d="M68.0092 96.9934C68.0092 96.9934 69.8614 96.8849 72.2491 101.814C74.6368 106.744 71.3666 108.301 71.3666 108.301L68.0092 96.9934Z" fill="#C86485"/>
<path d="M62.9253 98.2843C63.0088 98.2505 68.0359 95.0059 69.894 98.4013C72.9238 103.937 72.7455 121.758 71.7891 124.067C70.9034 126.203 68.6929 127.778 67.1433 128.666C65.7649 129.455 64.2217 129.938 62.6345 129.951C61.0634 129.964 58.0513 128.564 58.1605 126.506C58.6633 117.038 57.828 109.058 57.0569 101.314C57.0569 101.314 58.0208 100.275 62.9253 98.2843Z" fill="#C86485"/>
<path d="M54.9953 117.617C55.1372 117.611 55.2791 117.575 55.414 117.51C55.7808 117.331 56.0427 116.955 56.108 116.511L58.4984 109.526C58.6045 108.804 57.3487 105.991 56.7078 105.872C56.0663 105.752 54.4416 107.029 54.335 107.75L53.7482 113.991L48.7546 112.362C48.1422 112.039 47.6356 111.382 47.2736 111.989C46.9116 112.596 47.0555 113.419 47.595 113.827L54.2922 117.394C54.5026 117.553 54.749 117.628 54.9953 117.617Z" fill="#FFC2B0"/>
<path d="M48.3677 112.2L47.9959 111.29C47.8624 110.963 47.6589 110.67 47.3999 110.43L45.8439 108.992C45.7121 108.871 45.5041 108.89 45.3967 109.034C45.3095 109.151 45.3177 109.313 45.4162 109.421L46.066 110.129C46.1718 110.244 46.2051 110.409 46.1525 110.556L45.9047 111.252C45.8218 111.485 45.8671 111.744 46.024 111.934L47.5841 113.829L48.3677 112.2Z" fill="#FFC2B0"/>
<path d="M57.0569 101.314C57.0569 101.314 53.701 103.907 53.1859 111.799C53.1859 111.799 53.113 112.674 55.0525 113.199C56.9921 113.724 58.3174 112.221 58.3174 112.221C58.3174 112.221 60.5745 106.981 57.0569 101.314Z" fill="#C86485"/>
<path d="M63.3864 95.2334L63.9347 98.4029C63.9347 98.4029 63.955 99.4839 62.7507 99.7839C61.5464 100.083 61.1737 99.304 61.1737 99.304L60.6292 95.7347L63.3864 95.2334Z" fill="#FFC2B0"/>
<path d="M56.878 95.3555C58.1803 97.8857 61.0548 98.9882 63.2984 97.8181C65.5421 96.648 66.3052 93.6486 65.0023 91.1184C63.7 88.5883 60.825 87.4858 58.5819 88.6559C56.3382 89.826 55.5751 92.8253 56.878 95.3555Z" fill="#FFC2B0"/>
<path d="M60.1236 94.8804C59.933 94.9099 59.7418 94.8541 59.6069 94.7162C59.3718 94.4757 59.2754 93.2004 58.6601 93.0931C57.6984 92.9256 55.745 94.4333 54.9519 91.1973C54.5401 89.5151 55.2887 88.9199 55.1249 87.9876C55.1249 87.9876 55.134 88.468 59.4542 87.4219C63.7751 86.3763 65.8645 90.0213 66.2865 91.8559C66.7085 93.691 66.3374 96.8921 63.4222 97.8261C62.9392 97.9812 60.5702 96.6635 60.5863 96.4343C60.6023 96.2056 61.3895 96.0822 61.1662 95.4617C60.9798 94.9448 60.6221 94.8042 60.1236 94.8804Z" fill="#263238"/>
<path d="M65.72 133.054L68.7792 156.549C68.8284 157.185 69.1321 157.772 69.6204 158.096C69.7002 158.149 69.788 158.198 69.8812 158.244C69.2467 157.766 67.3917 138.045 67.0485 135.852C66.7053 133.656 65.72 133.054 65.72 133.054Z" fill="#090C0E"/>
</g>
</g>
<defs>
<clipPath id="clip0_848_26694">
<rect width="166" height="168" fill="white"/>
</clipPath>
</defs>
</svg>
